<?xml version="1.0" encoding="UTF-8"?>
<svg id="Capa_1" data-name="Capa 1" xmlns="http://www.w3.org/2000/svg" viewBox="0 0 346 633">
  <line y1="148.6" x2="346" y2="148.6" style="fill: none; stroke: #c9c9c9; stroke-miterlimit: 10;"/>
  <line y1="221.5" x2="346" y2="221.5" style="fill: none; stroke: #c9c9c9; stroke-miterlimit: 10;"/>
  <line y1="294.5" x2="346" y2="294.5" style="fill: none; stroke: #c9c9c9; stroke-miterlimit: 10;"/>
  <path d="M31.1,49.4v16.2h-2.1v-16.2h2.1Z" style="fill: #7a7a7a;"/>
  <path d="M35,57.1c0-1.2,0-2.2-.1-3.2h1.9l.1,1.9h0c.8-1.4,2.3-2.2,3.8-2.2,1.6,0,4.1,1,4.1,4.9v6.9h-2.1v-6.7c0-1.9-.7-3.4-2.7-3.4-1.7,0-3,1.5-3,3.2v7h-2v-8.4Z" style="fill: #7a7a7a;"/>
  <path d="M58.3,53.9c0,.8-.1,1.8-.1,3.2v6.7c0,2.7-.5,4.3-1.7,5.3s-2.7,1.5-4.2,1.4c-1.4,0-2.7-.3-3.9-1l.6-1.5c1,.6,2.2,.9,3.4,.9,2.2,0,3.7-1.1,3.7-4.1v-1.3h0c-.8,1.3-2.2,2-3.7,1.9-2.9,0-5-2.5-5-5.7,0-3.9,2.6-6.2,5.2-6.2,1.5-.1,2.9,.7,3.6,2h0l.1-1.8,2,.2Zm-2.2,4.6c0-.3,0-.7-.1-1-.4-1.3-1.6-2.2-3-2.2-2,0-3.5,1.7-3.5,4.4,0,2.3,1.2,4.2,3.4,4.2,1.3,0,2.5-.9,2.9-2.2,.1-.4,.2-.7,.2-1.1l.1-2.1Z" style="fill: #7a7a7a;"/>
  <path d="M61.5,57.6c0-1.4,0-2.5-.1-3.6h1.8l.1,2.3h.1c.4-1.5,1.7-2.5,3.2-2.5,.2,0,.4,0,.6,.1v2c-.2,0-.5-.1-.7-.1-1.5,.1-2.7,1.2-2.8,2.7-.1,.3-.1,.7-.1,1v6.2h-2.1s0-8.1,0-8.1Z" style="fill: #7a7a7a;"/>
  <path d="M70.3,60.1c-.2,2,1.4,3.8,3.4,4h.6c1.1,0,2.2-.2,3.2-.6l.4,1.5c-1.2,.5-2.6,.8-3.9,.8-3.6,0-5.7-2.3-5.7-5.9s2.1-6.3,5.4-6.3c3.8,0,4.8,3.3,4.8,5.5,0,.3,0,.7-.1,1,0,0-8.1,0-8.1,0Zm6.2-1.5c0-1.3-.6-3.4-2.9-3.4-2.1,0-3.1,2-3.2,3.4h6.1Z" style="fill: #7a7a7a;"/>
  <path d="M80.9,63.4c.8,.5,1.8,.8,2.8,.8,1.5,0,2.3-.8,2.3-1.7s-.6-1.6-2.2-2.1c-2.1-.8-3.1-1.9-3.1-3.3,0-1.9,1.5-3.4,4-3.4,1,0,2,.2,2.8,.7l-.5,1.5c-.7-.4-1.5-.7-2.4-.7-1.2,0-2,.7-2,1.6s.7,1.4,2.2,2c2,.8,3,1.8,3,3.5,0,2-1.6,3.5-4.3,3.5-1.1,0-2.2-.3-3.1-.8l.5-1.6Z" style="fill: #7a7a7a;"/>
  <path d="M97.1,65.6l-.1-1.5h-.1c-.8,1.1-2.2,1.8-3.6,1.7-1.8,.1-3.4-1.2-3.5-3v-.3c0-2.8,2.5-4.3,7-4.3v-.2c.2-1.3-.7-2.5-2.1-2.7h-.6c-1.1,0-2.1,.3-3,.9l-.5-1.4c1.2-.7,2.5-1,3.8-1,3.6,0,4.4,2.4,4.4,4.8v4.3c-.1,.9,0,1.8,.1,2.8l-1.8-.1h0Zm-.3-6c-2.3,0-4.9,.4-4.9,2.6-.1,1,.7,1.9,1.7,2h.3c1.3,0,2.4-.7,2.8-1.9,.1-.2,.1-.4,.1-.7v-2Zm1.1-10.7l-2.9,3.4h-1.5l2.1-3.4s2.3,0,2.3,0Z" style="fill: #7a7a7a;"/>
  <path d="M107.3,57.7c0-1.5,0-2.7-.1-3.8h1.9l.1,2h0c.9-1.5,2.4-2.3,4.1-2.3,2.8,0,4.9,2.4,4.9,5.9,0,4.2-2.5,6.2-5.3,6.2-1.4,0-2.7-.6-3.5-1.8h0v6.3h-2.1v-12.5Zm2.1,3.1c0,.3,0,.6,.1,.9,.4,1.5,1.7,2.5,3.2,2.5,2.2,0,3.5-1.8,3.5-4.5,0-2.3-1.2-4.3-3.5-4.3-1.5,0-2.9,1.1-3.2,2.6-.1,.3-.1,.6-.1,.9v1.9Z" style="fill: #7a7a7a;"/>
  <path d="M127.4,65.6l-.2-1.5h-.1c-.8,1.1-2.2,1.8-3.6,1.7-1.8,.1-3.4-1.2-3.5-3v-.3c0-2.8,2.5-4.3,7-4.3v-.2c.2-1.3-.7-2.5-2.1-2.7h-.6c-1.1,0-2.1,.3-3,.9l-.5-1.4c1.2-.7,2.5-1,3.8-1,3.5,0,4.4,2.4,4.4,4.8v4.3c0,.9,.1,1.9,.2,2.8l-1.8-.1Zm-.3-6c-2.3,0-4.9,.4-4.9,2.6-.1,1,.7,1.9,1.7,2h.3c1.3,0,2.4-.8,2.8-1.9,.1-.2,.1-.4,.1-.7v-2Z" style="fill: #7a7a7a;"/>
  <path d="M132.6,57.6c0-1.4,0-2.5-.1-3.6h1.9l.1,2.3h.1c.4-1.5,1.7-2.5,3.2-2.5,.2,0,.4,0,.6,.1v2c-.2,0-.5-.1-.7-.1-1.5,.1-2.7,1.2-2.8,2.7-.1,.3-.1,.7-.1,1v6.2h-2.1l-.1-8.1Z" style="fill: #7a7a7a;"/>
  <path d="M146.7,65.6l-.2-1.5h-.1c-.8,1.1-2.2,1.8-3.6,1.7-1.8,.1-3.4-1.2-3.5-3v-.3c0-2.8,2.5-4.3,7-4.3v-.2c.2-1.3-.7-2.5-2.1-2.7h-.6c-1.1,0-2.1,.3-3,.9l-.5-1.4c1.2-.7,2.5-1,3.8-1,3.6,0,4.4,2.4,4.4,4.8v4.3c0,.9,0,1.9,.2,2.8l-1.8-.1Zm-.3-6c-2.3,0-4.9,.4-4.9,2.6-.1,1,.7,1.9,1.7,2h.3c1.3,0,2.4-.8,2.8-1.9,.1-.2,.1-.4,.1-.7v-2Z" style="fill: #7a7a7a;"/>
  <path d="M157.8,53.9l2.2,6.5c.4,1.1,.7,2,.9,3h.1c.3-1,.6-1.9,1-3l2.3-6.5h2.2l-4.6,11.6h-2l-4.4-11.6h2.3Z" style="fill: #7a7a7a;"/>
  <path d="M174.8,65.6l-.2-1.5h-.1c-.8,1.1-2.2,1.8-3.6,1.7-1.8,.1-3.4-1.2-3.5-3v-.3c0-2.8,2.5-4.3,7-4.3v-.2c.2-1.3-.7-2.5-2.1-2.7h-.6c-1.1,0-2.1,.3-3,.9l-.5-1.4c1.2-.7,2.5-1,3.8-1,3.6,0,4.4,2.4,4.4,4.8v4.3c0,.9,0,1.9,.2,2.8l-1.8-.1Zm-.3-6c-2.3,0-4.9,.4-4.9,2.6-.1,1,.7,1.9,1.7,2h.3c1.3,0,2.4-.7,2.8-1.9,.1-.2,.1-.4,.1-.7v-2Z" style="fill: #7a7a7a;"/>
  <path d="M180,48.5h2.1v17h-2.1v-17Z" style="fill: #7a7a7a;"/>
  <path d="M188,50.7c0,.7-.6,1.3-1.3,1.3s-1.3-.6-1.3-1.3,.5-1.3,1.2-1.3h.1c.7,0,1.3,.5,1.3,1.3q0-.1,0,0Zm-2.4,14.9v-11.7h2.1v11.6l-2.1,.1h0Z" style="fill: #7a7a7a;"/>
  <path d="M201.3,48.5v14c0,1,0,2.2,.1,3h-1.9l-.1-2h0c-.8,1.5-2.3,2.4-4,2.3-2.8,0-5-2.4-5-5.9,0-3.9,2.4-6.2,5.2-6.2,1.4-.1,2.7,.6,3.5,1.8h0v-6.9l2.2-.1h0Zm-2.1,10.2c0-.3,0-.6-.1-.9-.3-1.4-1.6-2.4-3-2.5-2.2,0-3.5,1.9-3.5,4.5,0,2.4,1.1,4.3,3.4,4.3,1.5,0,2.8-1.1,3.1-2.5,.1-.3,.1-.6,.1-.9v-2Z" style="fill: #7a7a7a;"/>
  <path d="M211.2,65.6l-.2-1.5h0c-.8,1.1-2.2,1.8-3.6,1.7-1.8,.1-3.4-1.2-3.6-3.1v-.3c0-2.8,2.5-4.3,7-4.3v-.2c.2-1.3-.8-2.5-2.1-2.7h-.6c-1.1,0-2.1,.3-3,.9l-.5-1.4c1.2-.7,2.5-1,3.8-1,3.6,0,4.4,2.4,4.4,4.8v4.3c0,.9,0,1.9,.2,2.8h-1.8Zm-.3-6c-2.3,0-4.9,.4-4.9,2.6-.1,1,.7,1.9,1.7,2h.3c1.3,0,2.4-.8,2.8-1.9,.1-.2,.1-.4,.1-.7v-2Z" style="fill: #7a7a7a;"/>
  <path d="M216.3,57.6c0-1.4,0-2.5-.1-3.6h1.9l.1,2.3h.1c.4-1.5,1.7-2.5,3.2-2.5,.2,0,.4,0,.6,.1v2c-.2,0-.5-.1-.7-.1-1.5,.1-2.7,1.2-2.8,2.7-.1,.3-.1,.7-.1,1v6.2h-2.1l-.1-8.1Z" style="fill: #7a7a7a;"/>
  <path d="M231.8,50.6v3.3h3v1.6h-3v6.3c0,1.4,.4,2.2,1.6,2.2,.4,0,.8,0,1.2-.1l.1,1.6c-.6,.2-1.2,.3-1.9,.3-.9,.1-1.7-.3-2.3-.9-.6-.9-.9-1.9-.8-3v-6.4h-1.7v-1.6h1.8v-2.8l2-.5Z" style="fill: #7a7a7a;"/>
  <path d="M246.9,62.4c0,1.2,0,2.3,.1,3.2h-1.9l-.1-1.9h0c-.8,1.4-2.3,2.2-3.8,2.2-1.8,0-4-1-4-5.1v-6.8h2.1v6.4c0,2.2,.7,3.7,2.6,3.7,1.7,0,3-1.3,3-3v-7.1h2.1l-.1,8.4Z" style="fill: #7a7a7a;"/>
  <path d="M250.2,63.4c.8,.5,1.8,.8,2.8,.8,1.5,0,2.3-.8,2.3-1.7s-.6-1.5-2.2-2.1c-2.1-.8-3.1-1.9-3.1-3.3,0-1.9,1.5-3.4,4-3.4,1,0,2,.2,2.9,.7l-.5,1.5c-.7-.4-1.5-.7-2.4-.7-1.2,0-2,.7-2,1.6s.7,1.4,2.2,2c2,.8,3.1,1.8,3.1,3.5,0,2-1.6,3.5-4.3,3.5-1.1,0-2.3-.3-3.3-.8l.5-1.6Z" style="fill: #7a7a7a;"/>
  <path d="M275.1,48.5v14c0,1,0,2.2,.1,3h-1.9l-.1-2h0c-.8,1.5-2.3,2.4-4,2.3-2.8,0-5-2.4-5-5.9,0-3.9,2.4-6.2,5.2-6.2,1.4-.1,2.7,.6,3.5,1.8h0v-6.9l2.2-.1h0Zm-2.1,10.2c0-.3,0-.6-.1-.9-.3-1.4-1.6-2.5-3-2.5-2.2,0-3.5,1.9-3.5,4.5,0,2.4,1.2,4.3,3.4,4.3,1.5,0,2.8-1.1,3.1-2.5,.1-.3,.1-.6,.1-.9v-2Z" style="fill: #7a7a7a;"/>
  <path d="M285,65.6l-.2-1.5h-.1c-.8,1.1-2.2,1.8-3.5,1.7-1.8,.1-3.4-1.2-3.6-3.1v-.3c0-2.8,2.5-4.3,7-4.3v-.2c.2-1.3-.8-2.5-2.1-2.7h-.6c-1.1,0-2.1,.3-3,.9l-.5-1.4c1.2-.7,2.5-1,3.8-1,3.5,0,4.4,2.4,4.4,4.8v4.3c0,.9,0,1.9,.2,2.8h-1.8Zm-.3-6c-2.3,0-4.9,.4-4.9,2.6-.1,1,.7,1.9,1.7,2h.3c1.3,0,2.4-.8,2.8-1.9,.1-.2,.1-.4,.1-.7v-2Z" style="fill: #7a7a7a;"/>
  <path d="M292.6,50.6v3.3h3v1.6h-3v6.3c0,1.4,.4,2.2,1.6,2.2,.4,0,.8,0,1.2-.1l.1,1.6c-.6,.2-1.2,.3-1.9,.3-.9,.1-1.7-.3-2.3-.9-.6-.9-.9-1.9-.8-3v-6.4h-1.8v-1.6h1.8v-2.8l2.1-.5Z" style="fill: #7a7a7a;"/>
  <path d="M308.4,59.7c0,4.3-3,6.2-5.8,6.2-3.1,0-5.6-2.3-5.6-6,0-3.9,2.5-6.2,5.8-6.2s5.6,2.4,5.6,6Zm-9.3,.1c0,2.5,1.5,4.5,3.5,4.5s3.5-1.9,3.5-4.5c0-2-1-4.5-3.5-4.5s-3.5,2.3-3.5,4.5h0Z" style="fill: #7a7a7a;"/>
  <path d="M310.7,63.4c.8,.5,1.8,.8,2.8,.8,1.5,0,2.2-.8,2.2-1.7s-.6-1.6-2.2-2.1c-2.1-.8-3.1-1.9-3.1-3.3,0-1.9,1.5-3.4,4-3.4,1,0,2,.2,2.9,.7l-.5,1.5c-.7-.4-1.5-.7-2.4-.7-1.2,0-1.9,.7-1.9,1.6s.7,1.4,2.2,2c2,.8,3,1.8,3,3.5,0,2-1.6,3.5-4.3,3.5-1.1,0-2.3-.3-3.3-.8l.6-1.6Z" style="fill: #7a7a7a;"/>
  <path d="M28.5,328.3v-10.2h3.4c.7,0,1.4,.1,2,.4,.5,.2,.9,.6,1.1,1.1,.3,.5,.4,1.1,.4,1.6,0,.6-.1,1.1-.4,1.6-.3,.5-.6,.9-1.1,1.1-.6,.3-1.3,.4-1.9,.4h-2.8v-1.1h2.7c.4,0,.9-.1,1.3-.2,.3-.1,.6-.4,.7-.7,.2-.3,.2-.7,.2-1,0-.4-.1-.7-.2-1.1-.2-.3-.4-.6-.7-.7-.4-.2-.9-.3-1.3-.2h-2.2v9.1l-1.2-.1Zm4.7-4.6l2.5,4.6h-1.4l-2.5-4.6h1.4Z" style="fill: #6a6a6a;"/>
  <path d="M40.4,328.5c-.7,0-1.3-.2-1.9-.5-.5-.3-1-.8-1.2-1.4-.3-.6-.4-1.3-.4-2.1,0-.7,.1-1.4,.4-2.1,.3-.6,.7-1.1,1.2-1.4s1.2-.5,1.8-.5c.4,0,.8,.1,1.2,.2s.8,.4,1.1,.6c.3,.3,.6,.7,.8,1.2,.2,.6,.3,1.2,.3,1.8v.5h-5.9v-1h4.7c0-.4-.1-.8-.3-1.1-.2-.3-.4-.6-.7-.8-.3-.2-.7-.3-1.1-.3s-.9,.1-1.2,.3c-.3,.2-.6,.5-.8,.9s-.3,.8-.3,1.2v.7c0,.5,.1,1,.3,1.5,.2,.4,.5,.7,.8,.9,.4,.2,.8,.3,1.2,.3,.3,0,.6,0,.8-.1s.5-.2,.7-.4c.2-.2,.3-.4,.4-.7l1.1,.3c-.1,.4-.3,.7-.6,1s-.6,.5-1,.7c-.5,.2-1,.3-1.4,.3Z" style="fill: #6a6a6a;"/>
  <path d="M48.4,328.5c-.7,0-1.3-.2-1.8-.5s-.9-.8-1.2-1.4-.4-1.3-.4-2,.1-1.4,.4-2.1c.3-.6,.7-1,1.2-1.4,.5-.3,1.2-.5,1.8-.5,.5,0,1,.1,1.5,.3,.4,.2,.8,.5,1.1,.8,.3,.4,.5,.8,.5,1.2h-1.2c-.2-.8-1-1.4-1.8-1.3-.4,0-.8,.1-1.2,.4s-.6,.6-.8,1c-.2,.5-.3,1-.3,1.5s.1,1.1,.3,1.5,.4,.7,.8,1c.4,.2,.8,.4,1.2,.4,.3,0,.6,0,.8-.2,.2-.1,.5-.3,.6-.5,.2-.2,.3-.5,.4-.7h1.2c-.1,.9-.7,1.7-1.5,2.1-.6,.3-1.1,.4-1.6,.4Z" style="fill: #6a6a6a;"/>
  <path d="M56.2,328.5c-.6,0-1.3-.2-1.8-.5s-1-.8-1.2-1.4c-.6-1.3-.6-2.8,0-4.1,.3-.6,.7-1.1,1.2-1.4,1.1-.7,2.5-.7,3.6,0,.5,.3,1,.8,1.2,1.4,.6,1.3,.6,2.8,0,4.1-.3,.6-.7,1.1-1.2,1.4s-1.1,.5-1.8,.5Zm0-1.1c.5,0,.9-.1,1.3-.4,.3-.3,.6-.6,.8-1.1s.3-.9,.2-1.4c0-.5-.1-1-.2-1.4-.1-.4-.4-.8-.8-1.1-.8-.5-1.8-.5-2.5,0-.3,.3-.6,.7-.8,1.1-.2,.5-.3,.9-.2,1.4,0,.5,0,1,.2,1.5,.2,.4,.4,.7,.8,1,.4,.3,.8,.4,1.2,.4Z" style="fill: #6a6a6a;"/>
  <path d="M61.5,328.3v-7.6h1.1v1.2h.1c.1-.4,.4-.7,.8-.9,.4-.2,.8-.4,1.2-.4h.6v1.2h-.7c-.3,0-.7,.1-1,.2s-.5,.4-.7,.6c-.2,.3-.3,.6-.2,.9v4.8h-1.2Z" style="fill: #6a6a6a;"/>
  <path d="M69.3,328.5c-.6,0-1.2-.2-1.7-.5s-.9-.8-1.1-1.4c-.6-1.3-.6-2.8,0-4.2,.2-.6,.6-1,1.1-1.4,.5-.3,1.1-.5,1.7-.5,.4,0,.8,.1,1.2,.2,.3,.1,.5,.3,.7,.6,.1,.2,.3,.3,.4,.5h.1v-3.8h1.2v10.2h-1.1v-1.2h-.1c-.1,.2-.2,.4-.4,.5-.2,.2-.4,.4-.7,.6-.4,.3-.8,.4-1.3,.4Zm.2-1.1c.4,0,.9-.1,1.2-.4,.3-.3,.6-.6,.7-1,.2-.5,.3-1,.2-1.5,0-.5-.1-1-.2-1.5-.1-.4-.4-.7-.7-1-.4-.2-.8-.4-1.2-.4s-.9,.1-1.2,.4c-.3,.3-.6,.6-.7,1-.3,.9-.3,2,0,2.9,.2,.4,.4,.7,.7,1,.3,.4,.7,.5,1.2,.5Z" style="fill: #6a6a6a;"/>
  <path d="M77.4,328.5c-.5,0-.9-.1-1.3-.3-.4-.2-.7-.4-.9-.8-.2-.4-.4-.8-.3-1.3,0-.4,.1-.7,.3-1.1,.2-.3,.4-.5,.7-.6,.3-.2,.7-.3,1-.4s.7-.1,1.1-.2l1.1-.1c.2,0,.4-.1,.6-.2,.1-.1,.2-.2,.2-.4h0c0-.4-.1-.8-.4-1.1-.3-.3-.8-.4-1.2-.4-.5,0-.9,.1-1.3,.4-.3,.2-.5,.5-.7,.8l-1.1-.4c.2-.4,.4-.8,.8-1.1,.3-.3,.7-.4,1.1-.5s.8-.2,1.2-.2c.3,0,.6,0,.8,.1,.3,.1,.6,.2,.9,.4,.3,.2,.6,.5,.8,.8,.2,.5,.3,.9,.3,1.5v5h-1.2v-1h-.1c-.1,.2-.2,.4-.4,.5-.2,.2-.5,.4-.7,.5-.5,.1-.9,.1-1.3,.1Zm.2-1.1c.4,0,.8-.1,1.2-.3,.6-.3,1-.9,1-1.6v-1.1c-.1,.1-.2,.1-.3,.2-.2,.1-.4,.1-.6,.1l-.6,.1-.5,.1c-.3,0-.6,.1-.9,.2-.2,.1-.5,.2-.6,.4-.2,.2-.3,.5-.2,.7,0,.4,.1,.7,.4,.9,.3,.2,.7,.3,1.1,.3Z" style="fill: #6a6a6a;"/>
  <path d="M83.1,328.3v-7.6h1.1v1.2h.1c.1-.4,.4-.7,.8-.9,.4-.2,.8-.4,1.2-.4h.6v1.2h-.7c-.3,0-.7,.1-1,.2s-.5,.4-.7,.6c-.2,.3-.3,.6-.2,.9v4.8h-1.2Z" style="fill: #6a6a6a;"/>
  <path d="M95.5,328.3h-3.2v-10.2h3.3c.9,0,1.8,.2,2.5,.6s1.3,1,1.6,1.7c.4,.9,.6,1.8,.6,2.7s-.2,1.9-.6,2.7c-.4,.7-.9,1.4-1.7,1.8-.7,.5-1.6,.7-2.5,.7Zm-1.9-1.1h1.8c.7,0,1.4-.1,2.1-.5,.5-.3,1-.8,1.2-1.4,.5-1.4,.5-2.9,0-4.3-.2-.6-.7-1-1.2-1.4-.6-.3-1.3-.5-2-.5h-2l.1,8.1Z" style="fill: #6a6a6a;"/>
  <path d="M110.5,318.1v10.2h-1.2l-5.6-8h-.1v8h-1.2v-10.2h1.2l5.6,8h.1v-8h1.2Z" style="fill: #6a6a6a;"/>
  <path d="M114.2,318.1v10.2h-1.2v-10.2h1.2Z" style="fill: #6a6a6a;"/>
  <path d="M121.2,331.1h-.5c-.1,0-.2,0-.3-.1l.3-1c.3,.1,.7,.1,1.1,0,.3-.1,.5-.5,.7-1l.2-.6-2.8-7.7h1.3l2.1,6.1h.1l2.1-6.1h1.3l-3.2,8.7c-.1,.4-.3,.7-.6,1-.2,.2-.5,.4-.7,.6-.5,.2-.8,.2-1.1,.1Z" style="fill: #6a6a6a;"/>
  <path d="M139,318.1h1.2v6.7c0,1.3-.7,2.5-1.9,3.1-1.3,.6-2.9,.6-4.2,0-.6-.3-1-.7-1.4-1.3-.3-.6-.5-1.2-.5-1.9v-6.7h1.2v6.6c0,.5,.1,.9,.3,1.3s.5,.7,.9,.9c.5,.2,1,.3,1.5,.3s1-.1,1.5-.3c.4-.2,.7-.5,.9-.9s.3-.9,.3-1.3l.2-6.5Z" style="fill: #6a6a6a;"/>
  <path d="M148,322.4l-1.1,.3c-.1-.2-.2-.4-.3-.5-.1-.2-.3-.3-.5-.4-.3-.1-.6-.2-.8-.2-.4,0-.8,.1-1.2,.3-.3,.2-.5,.5-.5,.8s.1,.5,.3,.7c.3,.2,.6,.4,1,.4l1.1,.3c.6,.1,1.1,.4,1.5,.8,.3,.3,.5,.8,.5,1.3,0,.4-.1,.8-.4,1.2-.3,.4-.6,.6-1,.8-.5,.2-1,.3-1.6,.3-.7,0-1.4-.2-1.9-.5s-.9-.9-1-1.5l1.1-.3c.1,.4,.3,.7,.6,.9,.3,.2,.8,.3,1.2,.3,.5,0,.9-.1,1.3-.4,.3-.2,.5-.5,.5-.8s-.1-.5-.3-.7-.5-.3-.9-.4l-1.3-.3c-.6-.1-1.1-.4-1.5-.8-.3-.4-.5-.8-.5-1.3,0-.4,.1-.8,.4-1.1,.3-.3,.6-.6,1-.8,.5-.2,.9-.3,1.4-.3,.6,0,1.3,.1,1.8,.5,.6,.4,.9,.9,1.1,1.4Z" style="fill: #6a6a6a;"/>
  <path d="M154.7,325.2v-4.5h1.2v7.6h-1.2v-1.3h-.1c-.2,.4-.5,.7-.8,1-.4,.3-.9,.4-1.4,.4-.4,0-.9-.1-1.3-.3-.4-.2-.7-.6-.9-1-.2-.5-.3-1.1-.3-1.6v-4.9h1.2v4.8c0,.5,.1,1,.5,1.3,.3,.3,.7,.5,1.2,.5,.3,0,.6-.1,.9-.2,.3-.2,.6-.4,.8-.7,.1-.3,.2-.7,.2-1.1Z" style="fill: #6a6a6a;"/>
  <path d="M160.2,328.5c-.5,0-.9-.1-1.3-.3-.4-.2-.7-.4-.9-.8s-.4-.8-.4-1.3c0-.4,.1-.7,.3-1.1,.2-.3,.4-.5,.7-.6,.3-.2,.7-.3,1-.4s.7-.1,1.1-.2l1.1-.1c.2,0,.4-.1,.6-.2,.1-.1,.2-.2,.2-.4h0c0-.4-.1-.8-.4-1.1-.3-.3-.8-.4-1.2-.4-.5,0-.9,.1-1.3,.4-.3,.2-.5,.5-.7,.8l-1.1-.4c.2-.4,.4-.8,.8-1.1,.3-.3,.7-.4,1.1-.5,.4-.1,.8-.2,1.2-.2,.3,0,.6,0,.9,.1,.3,.1,.6,.2,.9,.4,.3,.2,.6,.5,.8,.8,.2,.5,.3,1,.3,1.5v5h-1.2v-1h-.1c-.1,.2-.2,.4-.4,.5-.2,.2-.5,.4-.7,.5-.5,.1-.9,.1-1.3,.1Zm.2-1.1c.4,0,.8-.1,1.2-.3,.3-.2,.6-.4,.7-.7,.2-.3,.3-.6,.2-.9v-1.1c-.1,.1-.2,.1-.3,.2-.2,.1-.4,.1-.6,.1l-.6,.1-.5,.1c-.3,0-.6,.1-.9,.2-.2,.1-.5,.2-.6,.4-.4,.5-.3,1.2,.2,1.6h0c.4,.2,.8,.3,1.2,.3Z" style="fill: #6a6a6a;"/>
  <path d="M165.9,328.3v-7.6h1.1v1.2h.1c.1-.4,.4-.7,.8-.9,.4-.2,.8-.4,1.2-.4h.6v1.2h-.7c-.3,0-.7,.1-1,.2s-.5,.4-.7,.6c-.2,.3-.3,.6-.2,.9v4.8h-1.2Z" style="fill: #6a6a6a;"/>
  <path d="M171.7,319.4c-.2,0-.4-.1-.6-.2-.2-.1-.2-.4-.2-.6s.1-.4,.2-.6c.2-.2,.4-.2,.6-.2s.4,.1,.6,.2c.2,.1,.2,.3,.2,.6,0,.2-.1,.4-.2,.6-.2,.1-.4,.2-.6,.2Zm-.6,8.9v-7.6h1.2v7.6h-1.2Z" style="fill: #6a6a6a;"/>
  <path d="M177.5,328.5c-1.3,0-2.5-.7-3-1.9-.6-1.3-.6-2.8,0-4.1,.3-.6,.7-1,1.2-1.4,.5-.3,1.2-.5,1.8-.5s1.3,.2,1.8,.5,.9,.8,1.2,1.4c.6,1.3,.6,2.8,0,4.1-.3,.6-.7,1-1.2,1.4-.5,.3-1.1,.5-1.8,.5Zm0-1.1c.5,0,.9-.1,1.3-.4,.3-.3,.6-.6,.8-1.1s.2-.9,.2-1.4-.1-1-.2-1.4c-.1-.4-.4-.8-.8-1.1-.8-.5-1.8-.5-2.6,0-.3,.3-.6,.7-.8,1.1-.2,.5-.2,.9-.2,1.4s.1,1,.2,1.4c.1,.4,.4,.8,.8,1.1,.4,.3,.9,.4,1.3,.4Z" style="fill: #6a6a6a;"/>
  <path d="M87.3,438.9c0,.8-.2,1.6-.5,2.4-.3,.6-.8,1.2-1.4,1.5-1.2,.7-2.8,.7-4,0-.6-.4-1.1-.9-1.4-1.5-.7-1.5-.7-3.2,0-4.8,.3-.6,.8-1.2,1.4-1.6,1.2-.7,2.8-.7,4,0,.6,.4,1.1,.9,1.4,1.5,.3,.9,.5,1.7,.5,2.5Zm-1,0c0-.7-.1-1.3-.4-1.9-.2-.5-.6-.9-1-1.2-.4-.3-.9-.4-1.4-.4s-1,.1-1.4,.4-.8,.7-1,1.1c-.5,1.2-.5,2.6,0,3.8,.2,.5,.6,.9,1,1.2,.4,.3,.9,.4,1.4,.4s1-.1,1.4-.4,.8-.7,1-1.2c.2-.5,.4-1.1,.4-1.8h0Z" style="fill: #f60;"/>
  <path d="M89.1,443.3v-8.7h1.1v7.8h4.1v.9h-5.2Z" style="fill: #f60;"/>
  <path d="M95.3,434.6l2.6,7.4h.1l2.6-7.4h1.1l-3.2,8.7h-1l-3.2-8.7h1Z" style="fill: #f60;"/>
  <path d="M104.2,434.6v8.7h-1.1v-8.7h1.1Z" style="fill: #f60;"/>
  <path d="M109,443.3h-2.7v-8.7h2.8c.8,0,1.5,.2,2.2,.5,.6,.3,1.1,.9,1.4,1.5,.3,.7,.5,1.5,.5,2.3s-.1,1.6-.5,2.3c-.3,.6-.8,1.2-1.4,1.5-.7,.5-1.5,.6-2.3,.6Zm-1.6-.9h1.6c.6,0,1.2-.1,1.8-.4,.5-.3,.8-.7,1.1-1.2,.2-.6,.4-1.2,.3-1.8,0-.6-.1-1.2-.3-1.8-.2-.5-.6-.9-1-1.2-.5-.3-1.1-.4-1.7-.4h-1.7l-.1,6.8Z" style="fill: #f60;"/>
  <path d="M114.9,443.3v-8.7h5.3v.9h-4.2v3h3.9v.9h-3.9v3h4.3v.9h-5.4Zm2.2-9.6l1-2h1.2l-1.3,2h-.9Z" style="fill: #f60;"/>
  <path d="M132.8,438.9c0,.8-.2,1.6-.5,2.4-.3,.6-.8,1.2-1.4,1.5-1.2,.7-2.8,.7-4,0-.6-.4-1.1-.9-1.4-1.5-.7-1.5-.7-3.2,0-4.8,.3-.6,.8-1.2,1.4-1.6,1.2-.7,2.8-.7,4,0,.6,.4,1.1,.9,1.4,1.5,.4,.9,.5,1.7,.5,2.5Zm-1,0c0-.7-.1-1.3-.4-1.9-.2-.5-.6-.9-1-1.2-.9-.5-2-.5-2.9,0-.4,.3-.8,.7-1,1.2-.5,1.2-.5,2.6,0,3.8,.2,.5,.6,.9,1,1.2,.9,.5,2,.5,2.9,0,.4-.3,.8-.7,1-1.2,.3-.5,.4-1.2,.4-1.9h0Z" style="fill: #f60;"/>
  <path d="M138,443.3v-8.7h3c.5,0,1,.1,1.5,.3,.4,.2,.7,.5,.9,.8,.2,.4,.3,.8,.3,1.2,0,.3-.1,.6-.2,.9-.1,.2-.3,.4-.5,.6-.2,.1-.4,.2-.7,.3v.1c.3,0,.6,.1,.8,.3,.3,.2,.5,.4,.7,.7,.2,.4,.3,.8,.3,1.2s-.1,.8-.3,1.2c-.2,.4-.5,.7-.9,.8-.5,.2-1.1,.3-1.7,.3h-3.2Zm1-4.9h2c.3,0,.6-.1,.9-.2,.3-.1,.5-.3,.6-.5,.2-.2,.2-.5,.2-.8,0-.4-.1-.7-.4-1-.4-.3-.8-.4-1.3-.4h-2v2.9Zm0,4h2.1c.5,.1,1-.1,1.5-.4,.3-.3,.4-.6,.4-1,0-.3-.1-.6-.2-.8-.2-.3-.4-.5-.6-.6-.3-.2-.7-.2-1-.2h-2.2v3Z" style="fill: #f60;"/>
  <path d="M145.8,443.3v-8.7h1.1v7.8h4.1v.9h-5.2Z" style="fill: #f60;"/>
  <path d="M159.5,438.9c0,.8-.2,1.6-.5,2.4-.3,.6-.8,1.2-1.4,1.5-1.2,.7-2.8,.7-4,0-.6-.4-1.1-.9-1.4-1.5-.7-1.5-.7-3.2,0-4.8,.3-.6,.8-1.2,1.4-1.6,1.2-.7,2.8-.7,4,0,.6,.4,1.1,.9,1.4,1.5,.4,.9,.6,1.7,.5,2.5Zm-1,0c0-.7-.1-1.3-.4-1.9-.2-.5-.6-.9-1-1.2-.4-.3-.9-.4-1.4-.4s-1,.1-1.4,.4-.8,.7-1,1.2c-.5,1.2-.5,2.6,0,3.8,.2,.5,.6,.9,1,1.2,.4,.3,.9,.4,1.4,.4s1-.1,1.4-.4,.8-.7,1-1.2c.3-.5,.4-1.2,.4-1.9h0Z" style="fill: #f60;"/>
  <path d="M168.7,438.9c0,.8-.2,1.6-.5,2.4-.3,.6-.8,1.2-1.4,1.5-1.2,.7-2.8,.7-4,0-.6-.4-1.1-.9-1.4-1.5-.7-1.5-.7-3.2,0-4.8,.3-.6,.8-1.2,1.4-1.5,1.2-.7,2.8-.7,4,0,.6,.4,1.1,.9,1.4,1.5,.3,.8,.5,1.6,.5,2.4Zm-1,0c0-.7-.1-1.3-.4-1.9-.2-.5-.6-.9-1-1.2-.4-.3-.9-.4-1.4-.4s-1,.1-1.4,.4-.8,.7-1,1.2c-.5,1.2-.5,2.6,0,3.8,.2,.5,.6,.9,1,1.2,.4,.3,.9,.4,1.4,.4s1-.1,1.4-.4,.8-.7,1-1.2c.3-.5,.4-1.2,.4-1.9h0Zm-3.2,1.7h1.2l1,1.3,.2,.3,1.4,1.9h-1.2l-1-1.3-.2-.3-1.4-1.9Z" style="fill: #f60;"/>
  <path d="M176.2,434.6h1.1v5.8c0,.6-.1,1.1-.4,1.6-.3,.5-.7,.8-1.2,1.1-1.1,.5-2.4,.5-3.6,0-.5-.3-.9-.6-1.2-1.1s-.4-1-.4-1.6v-5.8h1.1v5.7c0,.4,.1,.8,.3,1.1,.2,.3,.5,.6,.8,.8,.8,.4,1.7,.4,2.5,0,.3-.2,.6-.4,.8-.8,.2-.3,.3-.7,.3-1.1l-.1-5.7Z" style="fill: #f60;"/>
  <path d="M179.3,443.3v-8.7h5.3v.9h-4.2v3h3.9v.9h-3.9v3h4.3v.9h-5.4Z" style="fill: #f60;"/>
  <path d="M186.5,443.3v-8.7h5.3v.9h-4.2v3h3.9v.9h-3.9v3h4.3v.9h-5.4Zm2.2-9.6l1-2h1.2l-1.3,2h-.9Z" style="fill: #f60;"/>
  <path d="M197.1,434.6h1.3l3,7.2h.1l3-7.2h1.3v8.7h-1v-6.6h-.1l-2.7,6.6h-.9l-2.7-6.6h-.1v6.6h-1l-.2-8.7Z" style="fill: #f60;"/>
  <path d="M208.8,434.6v8.7h-1.1v-8.7h1.1Z" style="fill: #f60;"/>
  <path d="M215.7,436.8c0-.4-.3-.8-.6-1-.4-.3-.9-.4-1.3-.4-.3,0-.7,.1-1,.2s-.5,.3-.7,.5-.2,.5-.2,.8c0,.2,0,.4,.2,.6,.1,.2,.3,.3,.4,.4,.2,.1,.4,.2,.6,.3l.5,.2,.9,.2c.2,.1,.5,.1,.8,.2s.6,.3,.8,.4c.3,.2,.5,.4,.6,.7,.2,.3,.3,.7,.2,1,0,.5-.1,.9-.4,1.3-.3,.4-.6,.7-1.1,.9-.5,.2-1.1,.4-1.7,.3-.6,0-1.1-.1-1.6-.3-.4-.2-.8-.5-1.1-.8-.3-.4-.4-.8-.4-1.3h1.1c0,.3,.1,.6,.3,.8,.2,.2,.5,.4,.7,.5,.3,.1,.7,.2,1,.2,.4,0,.7-.1,1.1-.2,.3-.1,.6-.3,.8-.6,.2-.2,.3-.5,.3-.8s-.1-.5-.2-.7c-.2-.2-.4-.3-.6-.4-.3-.1-.6-.2-.9-.3l-1.1-.3c-.6-.2-1.1-.4-1.6-.8-.4-.4-.6-.9-.6-1.4s.1-.9,.4-1.3c.3-.4,.6-.7,1.1-.9,.5-.2,1-.3,1.5-.3s1,.1,1.5,.3c.4,.2,.7,.5,1,.8s.4,.8,.4,1.2h-1.1Z" style="fill: #f60;"/>
  <path d="M229,437.3h-1.1c-.1-.3-.2-.6-.3-.8-.2-.2-.3-.4-.6-.6-.2-.2-.5-.3-.7-.4-.3-.1-.5-.1-.8-.1-.5,0-1,.1-1.4,.4s-.8,.7-1,1.2c-.5,1.2-.5,2.6,0,3.8,.2,.5,.6,.9,1,1.2,.4,.3,.9,.4,1.4,.4,.3,0,.6,0,.8-.1,.3-.1,.5-.2,.7-.3,.2-.2,.4-.4,.6-.6,.2-.2,.3-.5,.3-.8h1.1c-.1,.4-.2,.8-.4,1.2-.2,.3-.5,.6-.8,.9-.3,.2-.7,.4-1.1,.6-.4,.1-.8,.2-1.2,.2-.7,0-1.4-.2-2-.5-.6-.4-1.1-.9-1.4-1.5-.7-1.5-.7-3.2,0-4.8,.3-.6,.8-1.2,1.4-1.5,.6-.4,1.3-.6,2-.5,.4,0,.8,.1,1.2,.2s.7,.3,1.1,.6c.3,.3,.6,.6,.8,.9,.2,.1,.3,.5,.4,.9Z" style="fill: #f60;"/>
  <path d="M230.7,443.3v-8.7h1.1v7.8h4.1v.9h-5.2Z" style="fill: #f60;"/>
  <path d="M238.3,443.3h-1.1l3.2-8.7h1.1l3.2,8.7h-1.1l-2.6-7.3h-.1l-2.6,7.3Zm.4-3.4h4.5v.9h-4.5v-.9Z" style="fill: #f60;"/>
  <path d="M245.6,434.6l2.6,7.4h.1l2.6-7.4h1.1l-3.2,8.7h-1.1l-3.2-8.7h1.1Z" style="fill: #f60;"/>
  <path d="M253.4,443.3v-8.7h5.3v.9h-4.2v3h3.9v.9h-3.9v3h4.3v.9h-5.4Z" style="fill: #f60;"/>
  <path d="M265.3,436.8c0-.4-.3-.8-.6-1-.7-.4-1.6-.5-2.4-.2-.3,.1-.5,.3-.7,.5s-.2,.5-.2,.8c0,.2,.1,.4,.2,.6s.3,.3,.4,.4c.2,.1,.4,.2,.6,.3l.5,.2,.9,.2c.2,.1,.5,.1,.8,.2s.6,.3,.8,.4c.3,.2,.5,.4,.6,.7,.2,.3,.3,.7,.2,1,0,.5-.1,.9-.4,1.3s-.6,.7-1.1,.9c-.5,.2-1.1,.4-1.7,.3-.6,0-1.1-.1-1.6-.3-.4-.2-.8-.5-1.1-.8-.3-.4-.4-.8-.4-1.3h1.1c0,.3,.1,.6,.3,.8s.5,.4,.7,.5c.3,.1,.7,.2,1,.2,.4,0,.7-.1,1.1-.2,.3-.1,.6-.3,.8-.6,.2-.2,.3-.5,.3-.8s-.1-.5-.2-.7c-.2-.2-.4-.3-.6-.4-.3-.1-.6-.2-.9-.3l-1.1-.3c-.6-.2-1.1-.4-1.6-.8-.4-.4-.6-.9-.6-1.4s.1-.9,.4-1.3,.6-.7,1.1-.9c.5-.2,1-.3,1.5-.3s1,.1,1.5,.3c.4,.2,.7,.5,1,.8s.4,.8,.4,1.2h-1Z" style="fill: #f60;"/>
  <path d="M59.8,486.8c0-.4-.3-.8-.6-1-.4-.3-.9-.4-1.3-.4-.3,0-.7,.1-1,.2s-.5,.3-.7,.5-.2,.5-.2,.8c0,.2,.1,.4,.2,.6,.1,.2,.3,.3,.4,.4,.2,.1,.4,.2,.5,.3l.5,.2,.9,.2c.2,.1,.5,.1,.8,.2s.6,.3,.8,.4c.3,.2,.5,.4,.6,.7,.2,.3,.3,.7,.2,1,0,.5-.1,.9-.4,1.3-.3,.4-.6,.7-1.1,.9-.5,.2-1.1,.4-1.7,.3-.6,0-1.1-.1-1.6-.3-.4-.2-.8-.5-1.1-.8-.3-.4-.4-.8-.4-1.3h1.1c0,.3,.1,.6,.3,.8,.2,.2,.5,.4,.7,.5,.3,.1,.7,.2,1,.2,.4,0,.7-.1,1.1-.2,.3-.1,.6-.3,.8-.6,.2-.2,.3-.5,.3-.8s-.1-.5-.2-.7c-.2-.2-.4-.3-.6-.4-.3-.1-.6-.2-.8-.3l-1.1-.3c-.6-.2-1.1-.4-1.6-.8-.4-.4-.6-.9-.6-1.4s.1-.9,.4-1.3c.3-.4,.7-.7,1.1-.9,.5-.2,1-.3,1.5-.3s1,.1,1.5,.3c.4,.2,.7,.5,1,.8s.4,.8,.4,1.2h-1.1Z" style="fill: #333;"/>
  <path d="M62.6,493.3v-6.5h1v6.5h-1Zm0-7.4l1-2h1.2l-1.3,2h-.9Z" style="fill: #333;"/>
  <path d="M71.6,493.4c-.6,0-1.1-.1-1.6-.4-.4-.3-.8-.7-1-1.2-.3-.6-.4-1.2-.4-1.8s.1-1.2,.4-1.8c.2-.5,.6-.9,1-1.2,.5-.3,1-.4,1.6-.4,.3,0,.7,.1,1,.2s.6,.3,.9,.5c.3,.3,.5,.6,.7,1,.2,.5,.3,1,.2,1.5v.4h-5v-.9h4c0-.3-.1-.7-.2-1s-.4-.5-.6-.7c-.3-.2-.6-.3-1-.2-.4,0-.7,.1-1,.3-.3,.2-.5,.5-.7,.8s-.2,.7-.2,1v.6c0,.4,.1,.9,.3,1.3,.2,.3,.4,.6,.7,.8,.3,.2,.7,.3,1.1,.3,.2,0,.5,0,.7-.1s.4-.2,.6-.3c.2-.2,.3-.4,.4-.6l1,.3c-.1,.3-.3,.6-.5,.9-.3,.3-.6,.5-.9,.6-.7,.1-1.1,.1-1.5,.1Z" style="fill: #333;"/>
  <path d="M80.4,488.2l-.9,.2c-.1-.2-.1-.3-.2-.4s-.3-.3-.4-.4c-.2-.1-.5-.2-.7-.1-.4,0-.7,.1-1,.3-.2,.1-.4,.4-.4,.7,0,.2,.1,.4,.3,.6,.3,.2,.5,.3,.8,.4l1,.2c.5,.1,.9,.3,1.3,.6,.3,.3,.4,.7,.4,1.1s-.1,.7-.3,1c-.2,.3-.5,.6-.9,.7-.4,.2-.9,.3-1.3,.2-.6,0-1.2-.1-1.7-.4-.4-.3-.7-.7-.8-1.3l.9-.2c.1,.3,.3,.6,.5,.8,.3,.2,.6,.3,1,.3s.8-.1,1.1-.3c.3-.2,.4-.4,.4-.7,0-.2-.1-.4-.2-.6-.2-.2-.5-.3-.7-.3l-1.1-.3c-.5-.1-1-.3-1.3-.7-.5-.6-.6-1.5-.1-2.1,.2-.3,.5-.5,.8-.7,.4-.2,.8-.2,1.2-.2,.5,0,1.1,.1,1.5,.4,.4,.4,.7,.8,.8,1.2Z" style="fill: #333;"/>
  <path d="M88.3,486.8v.9h-3.4v-.9h3.4Zm-2.4-1.6h1v6.2c0,.2,0,.4,.1,.6,.1,.1,.2,.2,.3,.3,.1,0,.3,.1,.4,.1h.5l.2,.9c-.1,0-.2,.1-.3,.1h-.5c-.3,0-.6-.1-.8-.2-.3-.1-.5-.3-.7-.6-.2-.3-.3-.6-.3-.9l.1-6.5Z" style="fill: #333;"/>
  <path d="M93.9,490.6v-3.9h1v6.5h-1v-1.1h-.1c-.2,.3-.4,.6-.7,.9-.4,.2-.8,.4-1.2,.3-.4,0-.8-.1-1.1-.3-.3-.2-.6-.5-.8-.8-.2-.4-.3-.9-.3-1.4v-4.2h1v4.1c0,.4,.1,.8,.4,1.1,.3,.3,.6,.4,1,.4,.6,0,1.1-.3,1.4-.8,.3-.1,.4-.4,.4-.8Z" style="fill: #333;"/>
  <path d="M100.2,495.8v-9h1v1h.1c.1-.1,.2-.3,.3-.4,.2-.2,.3-.4,.6-.5,.3-.2,.7-.2,1-.2,.5,0,1,.1,1.5,.4,.4,.3,.8,.7,1,1.2,.2,.6,.4,1.2,.3,1.8,0,.6-.1,1.2-.3,1.8-.2,.5-.6,.9-1,1.2-.4,.3-.9,.4-1.4,.4-.3,0-.7-.1-1-.2-.2-.1-.4-.3-.6-.5-.1-.2-.2-.3-.3-.5h-.1v3.5h-1.1Zm1-5.8c0,.4,.1,.9,.2,1.3,.1,.3,.3,.7,.6,.9,.3,.2,.6,.3,1,.3s.8-.1,1.1-.3c.3-.2,.5-.6,.6-.9,.2-.4,.2-.8,.2-1.3,0-.4-.1-.8-.2-1.2-.1-.4-.3-.7-.6-.9-.6-.4-1.5-.4-2.1,0-.3,.2-.5,.5-.6,.9-.2,.4-.3,.8-.2,1.2h0Z" style="fill: #333;"/>
  <path d="M107.5,493.3v-6.5h1v1h.1c.1-.3,.4-.6,.7-.8,.3-.2,.6-.3,1-.3h.5v1h-.6c-.3,0-.6,.1-.8,.2-.2,.1-.5,.3-.6,.5s-.2,.5-.2,.8v4.1h-1.1Z" style="fill: #333;"/>
  <path d="M112.4,485.7c-.2,0-.4-.1-.5-.2-.3-.2-.3-.6-.1-.9l.1-.1c.3-.3,.7-.3,1,0,.3,.2,.3,.6,.1,.9l-.1,.1c-.1,.1-.3,.2-.5,.2Zm-.5,7.6v-6.5h1v6.5h-1Z" style="fill: #333;"/>
  <path d="M114.8,493.3v-6.5h1v1h.1c.1-.3,.4-.6,.7-.8,.3-.2,.7-.3,1.1-.3s.8,.1,1.1,.3c.3,.2,.5,.5,.7,.8h.1c.2-.3,.4-.6,.8-.8,.4-.2,.8-.3,1.2-.3,.5,0,1,.2,1.4,.5,.4,.5,.6,1.1,.6,1.7v4.4h-1v-4.4c0-.4-.1-.7-.4-1-.3-.2-.6-.3-.9-.3-.4,0-.8,.1-1.1,.4-.3,.3-.4,.7-.4,1v4.3h-1v-4.5c0-.3-.1-.7-.4-.9-.3-.2-.6-.4-.9-.3-.3,0-.5,.1-.7,.2s-.4,.3-.6,.6c-.1,.3-.2,.6-.2,.9v4.1l-1.2-.1Z" style="fill: #333;"/>
  <path d="M128,493.4c-.6,0-1.1-.1-1.6-.4-.4-.3-.8-.7-1-1.2-.3-.6-.4-1.2-.4-1.8s.1-1.2,.4-1.8c.2-.5,.6-.9,1-1.2,.5-.3,1-.4,1.6-.4,.3,0,.7,.1,1,.2s.6,.3,.9,.5c.3,.3,.5,.6,.6,1,.2,.5,.3,1,.2,1.5v.4h-5v-.9h4c0-.3-.1-.7-.2-1-.1-.3-.4-.5-.6-.7-.6-.4-1.4-.3-2,0-.3,.2-.5,.5-.7,.8s-.2,.7-.2,1v.6c0,.4,.1,.9,.3,1.3,.2,.3,.4,.6,.7,.8,.3,.2,.7,.3,1.1,.3,.2,0,.5,0,.7-.1s.4-.2,.6-.3c.2-.2,.3-.4,.4-.6l1,.3c-.1,.3-.3,.6-.5,.9-.3,.3-.6,.5-.9,.6-.6,.2-1,.2-1.4,.2Z" style="fill: #333;"/>
  <path d="M132.2,493.3v-6.5h1v1h.1c.1-.3,.4-.6,.6-.8,.3-.2,.7-.3,1.1-.3h.5v1h-.6c-.3,0-.6,.1-.9,.2-.5,.3-.8,.8-.8,1.3v4.1h-1Z" style="fill: #333;"/>
  <path d="M138.6,493.5c-.4,0-.8-.1-1.1-.2-.3-.2-.6-.4-.8-.7-.2-.3-.3-.7-.3-1.1,0-.6,.3-1.2,.8-1.5,.3-.1,.5-.2,.8-.3,.3-.1,.6-.1,.9-.2l1-.1c.2,0,.4-.1,.6-.1,.1-.1,.2-.2,.2-.3h0c0-.4-.1-.7-.3-1-.3-.2-.6-.4-1-.4s-.8,.1-1.1,.3c-.2,.2-.4,.4-.6,.7l-.9-.3c.1-.4,.4-.7,.7-.9,.3-.2,.6-.4,.9-.5,.3-.1,.7-.1,1-.1,.2,0,.5,0,.7,.1,.3,.1,.6,.2,.8,.3,.3,.2,.5,.4,.6,.7,.2,.4,.3,.8,.2,1.2v4.3h-1v-.9h-.1c-.1,.2-.2,.3-.3,.5-.2,.2-.4,.3-.6,.4-.4,0-.8,.1-1.1,.1Zm.2-.9c.3,0,.7-.1,1-.2s.5-.3,.6-.6c.1-.2,.2-.5,.2-.8v-1c-.1,.1-.2,.1-.3,.1-.2,0-.3,.1-.5,.1l-.5,.1h-.4c-.2,0-.5,.1-.7,.2s-.4,.2-.6,.3c-.1,.2-.2,.4-.2,.6,0,.3,.1,.6,.4,.8,.3,.3,.6,.4,1,.4Z" style="fill: #333;"/>
  <path d="M152.2,486.8l-2.4,6.5h-1l-2.4-6.5h1.1l1.8,5.2h.1l1.8-5.2h1Z" style="fill: #333;"/>
  <path d="M156,493.4c-.6,0-1.1-.1-1.6-.4s-.8-.7-1.1-1.2c-.2-.6-.4-1.2-.4-1.8s.1-1.2,.4-1.8c.2-.5,.6-.9,1-1.2,.5-.3,1-.4,1.5-.4,.3,0,.7,.1,1,.2s.7,.3,.9,.5c.3,.3,.5,.6,.6,1,.2,.5,.3,1,.2,1.5v.4h-5.1v-.9h4c0-.3-.1-.7-.2-1-.1-.3-.4-.5-.6-.7-.3-.2-.6-.3-1-.2-.4,0-.7,.1-1,.3-.3,.2-.5,.5-.7,.8s-.2,.7-.2,1v.6c0,.4,.1,.9,.3,1.3,.2,.3,.4,.6,.7,.8,.3,.2,.7,.3,1.1,.3,.2,0,.5,0,.7-.1s.4-.2,.6-.3c.2-.2,.3-.4,.4-.6l1,.3c-.1,.3-.3,.6-.5,.9-.3,.3-.6,.5-.9,.6-.3,.1-.7,.1-1.1,.1Z" style="fill: #333;"/>
  <path d="M160.1,493.3v-.8l3.7-4.8v-.1h-3.6v-.9h4.9v.8l-3.6,4.7v.1h3.7v.9l-5.1,.1h0Z" style="fill: #333;"/>
  <path d="M172.8,493.4c-.5,0-1.1-.1-1.6-.4-.4-.3-.8-.7-1-1.2-.3-.6-.4-1.2-.4-1.8s.1-1.2,.4-1.8c.2-.5,.6-.9,1-1.2,1.3-.9,3.1-.5,4,.9,.1,.1,.1,.2,.2,.3,.3,.6,.4,1.2,.4,1.8s-.1,1.2-.4,1.8c-.2,.5-.6,.9-1,1.2-.5,.3-1.1,.5-1.6,.4Zm0-.9c.4,0,.8-.1,1.1-.3,.3-.2,.5-.6,.6-.9,.1-.4,.2-.8,.2-1.2s-.1-.8-.2-1.2c-.1-.4-.3-.7-.6-.9-.7-.5-1.6-.5-2.2,0-.3,.2-.5,.6-.6,.9-.1,.4-.2,.8-.2,1.2s.1,.8,.2,1.2c.1,.4,.3,.7,.6,.9,.3,.2,.7,.4,1.1,.3Z" style="fill: #333;"/>
  <path d="M181.6,489.4v3.9h-1v-6.5h1v1h.1c.2-.3,.4-.6,.7-.8,.4-.2,.8-.3,1.2-.3s.8,.1,1.2,.3c.3,.2,.6,.5,.8,.8,.2,.4,.3,.9,.3,1.4v4.2h-1v-4.1c0-.4-.1-.9-.4-1.2-.3-.3-.7-.4-1.1-.4-.3,0-.6,.1-.9,.2-.3,.1-.5,.4-.6,.6-.2,.2-.3,.5-.3,.9Z" style="fill: #333;"/>
  <path d="M190.4,493.4c-.6,0-1.1-.1-1.6-.4s-.8-.7-1.1-1.2c-.3-.6-.4-1.2-.4-1.8s.1-1.2,.4-1.8c.2-.5,.6-.9,1-1.2,.5-.3,1-.4,1.6-.4,.3,0,.7,.1,1,.2,.7,.3,1.3,.8,1.6,1.6,.2,.5,.3,1,.2,1.5v.4h-5v-.9h4c0-.3-.1-.7-.2-1-.1-.3-.4-.5-.6-.7-.3-.2-.6-.3-.9-.2-.4,0-.7,.1-1,.3-.3,.2-.5,.5-.7,.8s-.2,.7-.2,1v.6c0,.4,.1,.9,.2,1.3,.2,.3,.4,.6,.7,.8,.3,.2,.7,.3,1.1,.3,.2,0,.5,0,.7-.1s.4-.2,.6-.3c.2-.2,.3-.4,.4-.6l1,.3c-.1,.3-.3,.6-.5,.9-.3,.3-.6,.5-.9,.6-.5,0-1,0-1.4,0Z" style="fill: #333;"/>
  <path d="M197.3,493.4c-.6,0-1.1-.1-1.6-.4-.4-.3-.8-.7-1-1.2s-.4-1.1-.4-1.7,.1-1.2,.4-1.8c.2-.5,.6-.9,1-1.2,.5-.3,1-.4,1.6-.4,.4,0,.8,.1,1.2,.2,.4,.2,.7,.4,.9,.7,.2,.3,.4,.7,.4,1.1h-1c-.1-.3-.3-.6-.5-.8-.3-.2-.7-.4-1.1-.4s-.7,.1-1,.3c-.3,.2-.5,.5-.7,.9s-.3,.9-.2,1.3c0,.5,.1,.9,.2,1.3,.1,.3,.4,.6,.7,.9,.3,.2,.6,.3,1,.3,.2,0,.5,0,.7-.1s.4-.2,.5-.4c.2-.2,.3-.4,.3-.6h1c-.1,.4-.2,.7-.4,1s-.5,.6-.9,.7c-.2,.2-.7,.3-1.1,.3Z" style="fill: #333;"/>
  <path d="M204.1,493.4c-.6,0-1.1-.1-1.6-.4s-.8-.7-1.1-1.2c-.3-.6-.4-1.2-.4-1.8s.1-1.2,.4-1.8c.2-.5,.6-.9,1-1.2,.5-.3,1-.4,1.6-.4,.3,0,.7,.1,1,.2s.6,.3,.9,.5c.3,.3,.5,.6,.7,1,.2,.5,.3,1,.2,1.5v.4h-5.1v-.9h4c0-.3-.1-.7-.2-1-.1-.3-.4-.5-.6-.7-.6-.4-1.4-.3-2,0-.3,.2-.5,.5-.7,.8s-.2,.7-.2,1v.6c0,.4,.1,.9,.3,1.3,.2,.3,.4,.6,.7,.8,.3,.2,.7,.3,1.1,.3,.2,0,.5,0,.7-.1s.4-.2,.6-.3c.2-.2,.3-.4,.4-.6l1,.3c-.1,.3-.3,.6-.5,.9-.3,.3-.6,.5-.9,.6-.5,.2-.9,.2-1.3,.2Z" style="fill: #333;"/>
  <path d="M213,488.2l-.9,.2c-.1-.2-.1-.3-.2-.4-.1-.2-.3-.3-.4-.4-.2-.1-.5-.2-.7-.1-.4,0-.7,.1-1,.3-.2,.1-.4,.4-.4,.7,0,.2,.1,.5,.3,.6,.3,.2,.5,.3,.9,.4l1,.2c.5,.1,.9,.3,1.3,.6,.3,.3,.4,.7,.4,1.1s-.1,.7-.3,1-.5,.6-.9,.7c-.4,.2-.9,.3-1.3,.2-.6,0-1.2-.1-1.7-.4-.4-.3-.7-.8-.8-1.3l1-.2c.1,.3,.2,.6,.5,.8,.3,.2,.6,.3,1,.3s.8-.1,1.1-.3c.3-.2,.4-.4,.4-.7,0-.2-.1-.4-.2-.6-.2-.2-.5-.3-.7-.3l-1.1-.3c-.5-.1-1-.3-1.3-.7-.5-.6-.6-1.5-.1-2.1,.2-.3,.5-.5,.9-.7s.8-.2,1.2-.2c.5,0,1.1,.1,1.5,.4,.1,.4,.4,.8,.5,1.2Z" style="fill: #333;"/>
  <path d="M215.1,485.7c-.2,0-.4-.1-.5-.2-.3-.2-.3-.6-.1-.9l.1-.1c.3-.3,.7-.3,1,0,.3,.2,.3,.6,.1,.9l-.1,.1c-.1,.1-.3,.2-.5,.2Zm-.5,7.6v-6.5h1v6.5h-1Z" style="fill: #333;"/>
  <path d="M220.3,486.8v.9h-3.4v-.9h3.4Zm-2.4-1.6h1v6.2c0,.2,0,.4,.1,.6,.1,.1,.2,.2,.3,.3,.1,0,.3,.1,.4,.1h.5l.2,.9c-.1,0-.2,.1-.3,.1h-.5c-.3,0-.6-.1-.8-.2-.3-.1-.5-.3-.7-.6-.2-.3-.3-.6-.3-.9l.1-6.5Z" style="fill: #333;"/>
  <path d="M223.8,493.5c-.4,0-.8-.1-1.1-.2-.7-.3-1.1-1-1.1-1.8,0-.6,.3-1.2,.8-1.5,.3-.1,.5-.2,.8-.3,.3-.1,.6-.1,.9-.2l1-.1c.2,0,.4-.1,.5-.1,.1-.1,.2-.2,.2-.3h0c0-.4-.1-.7-.4-1-.3-.2-.6-.4-1-.4s-.8,.1-1.1,.3c-.2,.2-.4,.4-.6,.7l-.9-.3c.1-.4,.4-.7,.7-.9,.3-.2,.6-.4,.9-.5,.3-.1,.7-.1,1-.1,.2,0,.5,0,.7,.1,.3,.1,.5,.2,.8,.3,.3,.2,.5,.4,.6,.7,.2,.4,.3,.8,.2,1.2v4.3h-1v-.9h-.1c-.2,.4-.6,.7-1,.9-.2,0-.5,.1-.8,.1Zm.1-.9c.3,0,.7-.1,1-.2,.5-.3,.8-.8,.8-1.4v-1c-.1,.1-.2,.1-.3,.1l-.5,.1-.5,.1h-.4c-.2,0-.5,.1-.7,.2s-.4,.2-.6,.3c-.1,.2-.2,.4-.2,.6,0,.3,.1,.6,.4,.8,.3,.3,.7,.4,1,.4Zm0-6.7l1-2h1.2l-1.3,2h-.9Z" style="fill: #333;"/>
  <path d="M233.2,488.2l-.9,.2c-.1-.2-.1-.3-.2-.4-.1-.2-.3-.3-.4-.4-.2-.1-.5-.2-.7-.1-.4,0-.7,.1-1,.3-.2,.1-.4,.4-.4,.7,0,.2,.1,.5,.3,.6,.3,.2,.5,.3,.9,.4l1,.2c.5,.1,.9,.3,1.3,.6,.3,.3,.4,.7,.4,1.1s-.1,.7-.3,1-.5,.6-.9,.7c-.4,.2-.9,.3-1.3,.2-.6,0-1.2-.1-1.7-.4-.4-.3-.7-.8-.8-1.3l1-.2c.1,.3,.2,.6,.5,.8,.3,.2,.6,.3,1,.3s.8-.1,1.1-.3c.3-.2,.4-.4,.4-.7,0-.2-.1-.4-.2-.6-.2-.2-.5-.3-.7-.3l-1.1-.3c-.5-.1-1-.3-1.3-.7-.5-.6-.6-1.5-.1-2.1,.2-.3,.5-.5,.9-.7s.8-.2,1.2-.2c.5,0,1.1,.1,1.5,.4,.2,.4,.4,.8,.5,1.2Z" style="fill: #333;"/>
  <path d="M241,493.4c-.6,0-1.1-.1-1.6-.4-.4-.3-.8-.7-1-1.2-.3-.6-.4-1.2-.4-1.8s.1-1.2,.4-1.8c.2-.5,.6-.9,1-1.2,.5-.3,1-.4,1.6-.4,.3,0,.7,.1,1,.2s.6,.3,.9,.5c.3,.3,.5,.6,.6,1,.2,.5,.3,1,.2,1.5v.4h-5v-.9h4c0-.3-.1-.7-.2-1-.1-.3-.4-.5-.6-.7-.6-.4-1.4-.3-2,0-.3,.2-.5,.5-.7,.8s-.2,.7-.2,1v.6c0,.4,.1,.9,.3,1.3,.2,.3,.4,.6,.7,.8,.3,.2,.7,.3,1.1,.3,.2,0,.5,0,.7-.1s.4-.2,.6-.3c.2-.2,.3-.4,.4-.6l1,.3c-.1,.3-.3,.6-.5,.9-.3,.3-.6,.5-.9,.6-.5,.2-1,.2-1.4,.2Z" style="fill: #333;"/>
  <path d="M246.2,484.6v8.7h-1v-8.7h1Z" style="fill: #333;"/>
  <path d="M255.6,490.6v-3.9h1v6.5h-1v-1.1h-.1c-.2,.3-.4,.6-.7,.9-.4,.2-.8,.4-1.2,.3-.4,0-.8-.1-1.1-.3-.3-.2-.6-.5-.8-.8-.2-.4-.3-.9-.3-1.4v-4.2h1v4.1c0,.4,.1,.8,.4,1.1,.3,.3,.6,.4,1,.4,.6,0,1.1-.3,1.4-.8,.3-.1,.4-.4,.4-.8Z" style="fill: #333;"/>
  <path d="M263.1,488.2l-.9,.2c-.1-.2-.1-.3-.2-.4-.1-.2-.3-.3-.5-.4s-.5-.2-.7-.1c-.4,0-.7,.1-1,.3-.2,.1-.4,.4-.4,.7,0,.2,.1,.4,.3,.6,.3,.2,.6,.3,.9,.4l1,.2c.5,.1,.9,.3,1.3,.6,.3,.3,.4,.7,.4,1.1s-.1,.7-.3,1c-.2,.3-.5,.6-.9,.7-.4,.2-.9,.3-1.3,.2-.6,0-1.2-.1-1.6-.4s-.7-.8-.8-1.3l1-.2c.1,.3,.2,.6,.5,.8,.3,.2,.6,.3,1,.3s.8-.1,1.1-.3c.3-.2,.4-.4,.4-.7,0-.2-.1-.4-.2-.6-.2-.2-.5-.3-.7-.3l-1.1-.3c-.5-.1-1-.3-1.3-.7-.5-.6-.6-1.5-.1-2.1,.2-.3,.5-.5,.9-.7s.8-.2,1.2-.2c.5,0,1.1,.1,1.5,.4,.1,.4,.3,.8,.5,1.2Z" style="fill: #333;"/>
  <path d="M268.8,490.6v-3.9h1v6.5h-1v-1.1h-.1c-.2,.3-.4,.6-.7,.9-.4,.2-.8,.4-1.2,.3-.4,0-.8-.1-1.1-.3-.3-.2-.6-.5-.8-.8-.2-.4-.3-.9-.3-1.4v-4.2h1v4.1c0,.4,.1,.8,.4,1.1,.3,.3,.6,.4,1,.4,.3,0,.5-.1,.8-.2s.5-.3,.6-.6c.3-.1,.4-.4,.4-.8Z" style="fill: #333;"/>
  <path d="M273.6,493.5c-.4,0-.8-.1-1.1-.2-.7-.3-1.1-1-1.1-1.8,0-.6,.3-1.2,.8-1.5,.3-.1,.5-.2,.8-.3,.3-.1,.6-.1,.9-.2l1-.1c.2,0,.4-.1,.5-.1,.1-.1,.2-.2,.2-.3h0c0-.4-.1-.7-.4-1-.3-.2-.6-.4-1-.4s-.8,.1-1.1,.3c-.2,.2-.4,.4-.6,.7l-1-.3c.1-.4,.4-.7,.7-.9,.3-.2,.6-.4,.9-.5s.7-.1,1-.1c.2,0,.5,0,.7,.1,.3,.1,.6,.2,.8,.3,.3,.2,.5,.4,.6,.7,.2,.4,.3,.8,.2,1.2v4.3h-1v-.9h0c-.1,.2-.2,.3-.3,.5-.2,.2-.4,.3-.6,.4-.2,0-.5,.1-.9,.1Zm.2-.9c.3,0,.7-.1,1-.2s.5-.3,.6-.6c.1-.2,.2-.5,.2-.8v-1c-.1,.1-.2,.1-.3,.1l-.5,.1-.5,.1h-.4c-.2,0-.5,.1-.7,.2s-.4,.2-.5,.3c-.1,.2-.2,.4-.2,.6,0,.3,.1,.6,.4,.8,.1,.3,.5,.4,.9,.4Z" style="fill: #333;"/>
  <path d="M278.4,493.3v-6.5h1v1h.1c.1-.3,.4-.6,.6-.8,.3-.2,.7-.3,1.1-.3h.5v1h-.6c-.3,0-.6,.1-.9,.2-.5,.3-.8,.8-.8,1.3v4.1h-1Z" style="fill: #333;"/>
  <path d="M283.4,485.7c-.2,0-.4-.1-.5-.2-.3-.2-.3-.6-.1-.9l.1-.1c.1-.1,.3-.2,.5-.2s.4,.1,.5,.2c.3,.2,.3,.6,.1,.9l-.1,.1c-.1,.1-.3,.2-.5,.2Zm-.5,7.6v-6.5h1v6.5h-1Z" style="fill: #333;"/>
  <path d="M288.4,493.4c-1.1,0-2.1-.6-2.6-1.6-.3-.6-.4-1.2-.4-1.8s.1-1.2,.4-1.8c.2-.5,.6-.9,1-1.2,1-.6,2.1-.6,3.1,0,.4,.3,.8,.7,1,1.2,.3,.6,.4,1.2,.4,1.8s-.1,1.2-.4,1.8c-.4,1-1.5,1.7-2.5,1.6h0Zm0-.9c.4,0,.8-.1,1.1-.3,.3-.2,.5-.6,.6-.9,.1-.4,.2-.8,.2-1.2s-.1-.8-.2-1.2c-.1-.4-.4-.7-.6-.9-.7-.5-1.5-.5-2.2,0-.3,.2-.5,.6-.6,.9-.1,.4-.2,.8-.2,1.2s.1,.8,.2,1.2c.1,.4,.4,.7,.6,.9,.3,.2,.7,.4,1.1,.3Z" style="fill: #333;"/>
  <path d="M72.9,552.6c0,.5-.1,1.1-.3,1.6-.2,.4-.5,.8-.9,1-.8,.5-1.8,.5-2.6,0-.4-.2-.7-.6-.9-1-.4-1-.4-2.2,0-3.2,.2-.4,.5-.8,.9-1,.8-.5,1.8-.5,2.6,0,.4,.2,.7,.6,.9,1,.2,.5,.3,1.1,.3,1.6Zm-.7,0c0-.4-.1-.9-.3-1.3-.4-.9-1.5-1.3-2.4-.9-.1,0-.1,.1-.2,.1-.3,.2-.5,.5-.7,.8-.3,.8-.3,1.7,0,2.6,.2,.3,.4,.6,.7,.8,.6,.4,1.3,.4,1.9,0,.3-.2,.5-.5,.7-.8,.3-.4,.4-.8,.3-1.3Z" style="fill: #333;"/>
  <path d="M74,557.2v-6h.7v.7h.1c.1-.1,.1-.2,.2-.3s.2-.2,.4-.3c.2-.1,.4-.2,.7-.1,.4,0,.7,.1,1,.3s.5,.5,.7,.8c.2,.4,.3,.8,.2,1.2,0,.4-.1,.8-.2,1.2-.1,.3-.4,.6-.7,.8-.3,.2-.6,.3-1,.3-.2,0-.5,0-.7-.1-.1-.1-.3-.2-.4-.3s-.1-.2-.2-.3h-.1v2.3l-.7-.2Zm.7-3.8c0,.3,0,.6,.1,.9,.1,.2,.2,.4,.4,.6,.4,.3,1,.3,1.4,0,.2-.2,.3-.4,.4-.6,.1-.3,.1-.6,.1-.8,0-.3,0-.6-.1-.8s-.2-.4-.4-.6c-.4-.3-1-.3-1.4,0-.2,.1-.3,.3-.4,.6-.1,.1-.1,.4-.1,.7h0Z" style="fill: #333;"/>
  <path d="M80.7,555.6c-.4,0-.8-.1-1.1-.3-.3-.2-.6-.5-.7-.8-.3-.8-.3-1.6,0-2.4,.2-.3,.4-.6,.7-.8,.3-.2,.6-.3,1-.3,.2,0,.5,0,.7,.1,.5,.2,.8,.5,1,1,.1,.3,.2,.7,.2,1v.3h-3.3v-.4h2.7c0-.2,0-.4-.2-.7-.1-.2-.2-.3-.4-.5-.2-.1-.4-.2-.6-.2s-.5,.1-.7,.2c-.2,.1-.3,.3-.4,.5s-.2,.4-.2,.7v.4c0,.3,.1,.6,.2,.8s.3,.4,.5,.5,.5,.2,.7,.2,.3,0,.5-.1c.1,0,.3-.1,.4-.2,.1-.1,.2-.2,.2-.4l.7,.2c-.1,.2-.2,.4-.3,.6-.2,.2-.4,.3-.6,.4-.4,.2-.7,.2-1,.2Z" style="fill: #333;"/>
  <path d="M83.6,555.5v-4.4h.7v.7h0c.1-.2,.2-.4,.4-.5,.2-.1,.5-.2,.7-.2h.3v.7h-.4c-.2,0-.4,0-.6,.1-.3,.2-.5,.5-.5,.9v2.8l-.6-.1Z" style="fill: #333;"/>
  <path d="M87.8,555.7c-.3,0-.5-.1-.8-.2-.2-.1-.4-.3-.5-.5s-.2-.5-.2-.7,0-.4,.1-.6c.1-.2,.2-.3,.4-.4,.2-.1,.4-.2,.5-.2,.2,0,.4-.1,.6-.1l.6-.1c.1,0,.3,0,.4-.1s.1-.1,.1-.2h0c0-.2-.1-.5-.2-.7-.2-.2-.4-.2-.7-.2-.5,0-.9,.2-1.1,.7l-.6-.2c.1-.2,.3-.5,.5-.6s.4-.3,.6-.3c.2-.1,.4-.1,.7-.1h.5c.2,0,.4,.1,.5,.2,.2,.1,.3,.3,.4,.5,.1,.3,.2,.5,.2,.8v2.9h-.7v-.6h0c-.1,.3-.4,.5-.7,.6-.1,0-.4,.1-.6,.1Zm.1-.6c.2,0,.5,0,.7-.2,.2-.1,.3-.2,.4-.4s.1-.3,.1-.5v-.6c-.1,0-.1,.1-.2,.1l-.3,.1h-.6c-.2,0-.3,.1-.5,.1-.1,0-.3,.1-.4,.2-.1,.1-.1,.3-.1,.4,0,.2,.1,.4,.2,.5,.2,.2,.5,.2,.7,.3h0Z" style="fill: #333;"/>
  <path d="M91,555.5v-4.4h.7v.7h0c.1-.2,.2-.4,.4-.5,.2-.1,.5-.2,.7-.2h.3v.7h-.4c-.2,0-.4,0-.6,.1s-.3,.2-.4,.4-.1,.3-.1,.5v2.8l-.6-.1Z" style="fill: #333;"/>
  <path d="M98,555.6c-.4,0-.7-.1-1.1-.3-.3-.2-.5-.5-.7-.8-.2-.4-.2-.8-.2-1.2s.1-.8,.2-1.2c.2-.3,.4-.6,.7-.8,.3-.2,.6-.3,1-.3,.3,0,.6,.1,.8,.2,.2,.1,.4,.3,.6,.5s.3,.5,.3,.7h-.6c-.1-.2-.2-.4-.3-.5-.2-.2-.5-.2-.7-.2s-.5,.1-.7,.2c-.2,.1-.4,.3-.4,.6-.1,.3-.2,.6-.2,.9s.1,.6,.2,.9c.1,.2,.3,.4,.5,.6,.2,.1,.5,.2,.7,.2s.3,0,.5-.1c.1-.1,.3-.1,.4-.3,.1-.1,.2-.3,.2-.4h.7c0,.2-.1,.5-.3,.7-.2,.2-.4,.4-.6,.5-.4,.1-.7,.1-1,.1Z" style="fill: #333;"/>
  <path d="M102.5,555.6c-.4,0-.7-.1-1-.3s-.5-.5-.7-.8c-.2-.4-.3-.8-.2-1.2,0-.4,.1-.8,.2-1.2,.1-.3,.4-.6,.7-.8,.3-.2,.6-.3,1-.3s.7,.1,1,.3,.5,.5,.7,.8c.2,.4,.2,.8,.2,1.2s-.1,.8-.2,1.2c-.2,.3-.4,.6-.7,.8-.3,.2-.6,.3-1,.3Zm0-.6c.3,0,.5-.1,.7-.2,.2-.2,.3-.4,.4-.6,.1-.3,.1-.5,.1-.8s0-.6-.1-.8-.2-.4-.4-.6c-.2-.2-.5-.2-.7-.2-.3,0-.5,.1-.7,.2-.2,.2-.3,.4-.4,.6-.1,.3-.1,.5-.1,.8s0,.6,.1,.8,.2,.5,.4,.6c.2,.2,.4,.2,.7,.2h0Z" style="fill: #333;"/>
  <path d="M106.2,552.9v2.6h-.7v-4.4h.6v.7h.1c.1-.2,.3-.4,.5-.5s.5-.2,.8-.2,.5,.1,.8,.2c.2,.1,.4,.3,.5,.5,.1,.3,.2,.6,.2,.9v2.8h-.7v-2.7c0-.3-.1-.6-.3-.8-.2-.2-.5-.3-.7-.3s-.4,0-.6,.1-.3,.2-.4,.4c-.1,.3-.1,.5-.1,.7Z" style="fill: #333;"/>
  <path d="M117.4,552.6c0,.5-.1,1.1-.3,1.6-.2,.4-.5,.8-.9,1-.8,.5-1.8,.5-2.6,0-.4-.2-.7-.6-.9-1-.4-1-.4-2.2,0-3.2,.2-.4,.5-.8,.9-1,.8-.5,1.8-.5,2.6,0,.4,.2,.7,.6,.9,1,.2,.5,.4,1.1,.3,1.6Zm-.6,0c0-.4-.1-.9-.3-1.3-.4-.9-1.4-1.3-2.3-.9-.4,.2-.7,.5-.9,.9-.3,.8-.3,1.7,0,2.6,.1,.3,.4,.6,.7,.8,.6,.4,1.3,.4,1.9,0,.3-.2,.5-.5,.7-.8,.1-.4,.2-.8,.2-1.3Z" style="fill: #333;"/>
  <path d="M119.2,552.9v2.6h-.7v-4.4h.7v.7h0c.1-.2,.3-.4,.5-.5s.5-.2,.8-.2,.5,.1,.8,.2c.2,.1,.4,.3,.5,.5,.1,.3,.2,.6,.2,.9v2.8h-.7v-2.7c0-.3-.1-.6-.3-.8-.2-.2-.5-.3-.7-.3s-.4,0-.6,.1-.3,.2-.4,.4c-.1,.3-.1,.5-.1,.7Z" style="fill: #333;"/>
  <path d="M123.9,549.7v5.8h-.7v-5.8h.7Z" style="fill: #333;"/>
  <path d="M125.4,550.5c-.1,0-.2-.1-.3-.1-.1-.1-.1-.2-.1-.3s.1-.2,.1-.3c.2-.2,.5-.2,.7,0,.1,.1,.1,.2,.1,.3s0,.2-.1,.3c-.1,0-.2,.1-.4,.1Zm-.3,5.1v-4.4h.7v4.4h-.7Z" style="fill: #333;"/>
  <path d="M127.7,552.9v2.6h-.7v-4.4h.6v.7h.1c.1-.2,.3-.4,.5-.5s.5-.2,.8-.2,.5,.1,.8,.2c.2,.1,.4,.3,.5,.5,.1,.3,.2,.6,.2,.9v2.8h-.7v-2.7c0-.3-.1-.6-.3-.8s-.5-.3-.7-.3-.4,0-.6,.1c-.2,.1-.3,.2-.4,.4-.1,.3-.1,.5-.1,.7Z" style="fill: #333;"/>
  <path d="M133.5,555.6c-.4,0-.8-.1-1.1-.3s-.5-.5-.7-.8c-.3-.8-.3-1.6,0-2.4,.1-.3,.4-.6,.7-.8s.6-.3,1-.3c.2,0,.5,0,.7,.1s.4,.2,.6,.4c.2,.2,.3,.4,.4,.7,.1,.3,.2,.7,.2,1v.3h-3.3v-.5h2.7c0-.2,0-.4-.1-.7-.1-.2-.2-.4-.4-.5-.4-.2-.9-.2-1.3,0-.2,.1-.4,.3-.4,.5-.1,.2-.2,.4-.2,.7v.4c0,.3,.1,.6,.2,.8,.1,.2,.3,.4,.5,.5s.5,.2,.7,.2h.4c.1,0,.3-.1,.4-.2,.1-.1,.2-.2,.2-.4l.6,.2c-.1,.2-.2,.4-.4,.6-.2,.2-.4,.3-.6,.4-.2,.1-.5,.2-.8,.1Z" style="fill: #333;"/>
  <path d="M138.7,555.5v-5.8h2c.3,0,.7,.1,1,.2,.2,.1,.5,.3,.6,.6,.1,.2,.2,.5,.2,.8,0,.2,0,.4-.1,.6-.1,.2-.2,.3-.3,.4-.1,.1-.3,.2-.5,.2v.1c.2,0,.4,.1,.5,.2,.2,.1,.3,.3,.4,.5,.1,.2,.2,.5,.2,.8s-.1,.6-.2,.8c-.1,.2-.4,.4-.6,.5-.4,.2-.7,.2-1.1,.2l-2.1-.1Zm.7-3.2h1.3c.2,0,.4,0,.6-.1,.2-.1,.3-.2,.4-.3,.1-.2,.2-.3,.1-.5,0-.2-.1-.5-.3-.7s-.5-.3-.9-.3h-1.3l.1,1.9h0Zm0,2.6h1.4c.4,0,.7-.1,1-.3,.2-.2,.3-.4,.3-.7,0-.2,0-.4-.1-.5-.1-.2-.3-.3-.4-.4-.2-.1-.4-.2-.7-.2h-1.4l-.1,2.1Z" style="fill: #333;"/>
  <path d="M145.1,555.7c-.3,0-.5,0-.8-.2-.2-.1-.4-.3-.5-.5s-.2-.5-.2-.7,0-.4,.1-.6c.1-.2,.2-.3,.4-.4,.2-.1,.4-.2,.6-.2s.4-.1,.6-.1l.6-.1c.1,0,.2,0,.4-.1,.1,0,.1-.1,.1-.2h0c0-.2-.1-.5-.2-.7-.2-.2-.4-.2-.7-.2-.5,0-.9,.2-1.1,.7l-.6-.2c.1-.2,.3-.5,.5-.6s.4-.2,.6-.3c.2-.1,.4-.1,.7-.1h.5c.2,0,.4,.1,.5,.2,.2,.1,.3,.3,.4,.5,.1,.3,.2,.5,.2,.8v2.9h-.7v-.6h0c-.1,.1-.1,.2-.2,.3-.1,.1-.3,.2-.4,.3-.3,0-.6,.1-.8,.1Zm.1-.6c.2,0,.5,0,.7-.2,.2-.1,.3-.2,.4-.4,.1-.2,.1-.3,.1-.5v-.6c-.1,0-.1,.1-.2,.1l-.3,.1h-.7c-.2,0-.3,.1-.5,.1-.1,0-.3,.1-.4,.2-.1,.1-.2,.3-.1,.4,0,.2,.1,.4,.3,.5,.2,.2,.5,.2,.7,.3h0Z" style="fill: #333;"/>
  <path d="M149,552.9v2.6h-.7v-4.4h.7v.7h0c.1-.2,.3-.4,.5-.5s.5-.2,.8-.2,.5,.1,.8,.2c.2,.1,.4,.3,.5,.5,.1,.3,.2,.6,.2,.9v2.8h-.7v-2.7c0-.3-.1-.6-.3-.8s-.5-.3-.7-.3-.4,0-.6,.1c-.2,.1-.3,.2-.4,.4-.1,.3-.1,.5-.1,.7Z" style="fill: #333;"/>
  <path d="M153,555.5v-5.8h.7v5.8h-.7Zm.6-1.5v-.8h.1l1.9-1.9h.8l-2,2h-.1l-.7,.7Zm2.2,1.5l-1.7-2.2,.5-.5,2.1,2.6-.9,.1Z" style="fill: #333;"/>
  <path d="M157.7,550.5c-.1,0-.2-.1-.3-.1-.1-.1-.1-.2-.1-.3s.1-.2,.1-.3c.1-.1,.2-.1,.3-.1s.2,0,.3,.1,.1,.2,.1,.3-.1,.2-.1,.3c-.1,0-.2,.1-.3,.1Zm-.3,5.1v-4.4h.6v4.4h-.6Z" style="fill: #333;"/>
  <path d="M159.9,552.9v2.6h-.7v-4.4h.6v.7h.1c.1-.2,.3-.4,.5-.5s.5-.2,.8-.2,.5,.1,.8,.2c.2,.1,.4,.3,.5,.5,.1,.3,.2,.6,.2,.9v2.8h-.7v-2.7c0-.3-.1-.6-.3-.8s-.5-.3-.7-.3-.4,0-.6,.1c-.2,.1-.3,.2-.4,.4-.1,.3-.1,.5-.1,.7Z" style="fill: #333;"/>
  <path d="M165.7,557.3c-.3,0-.6,0-.8-.1s-.4-.2-.6-.3c-.1-.1-.3-.3-.4-.4l.5-.4,.2,.3c.1,.1,.2,.2,.4,.3,.5,.2,1.1,.1,1.5-.1,.2-.2,.4-.5,.3-.8v-.9h-.1l-.2,.3c-.1,.1-.2,.2-.4,.3s-.4,.1-.7,.1-.7-.1-.9-.2c-.3-.2-.5-.4-.7-.7-.2-.4-.3-.8-.2-1.2,0-.4,.1-.8,.2-1.2,.1-.3,.4-.6,.6-.8,.3-.2,.6-.3,1-.3,.2,0,.5,0,.7,.1s.3,.2,.4,.3c.1,.1,.2,.2,.2,.3h.1v-.7h.6v4.5c0,.3-.1,.6-.2,.9-.2,.2-.4,.4-.7,.5-.1,.1-.5,.2-.8,.2Zm0-2.4c.5,0,.9-.3,1.1-.7,.1-.3,.2-.5,.1-.8,0-.3,0-.6-.1-.8s-.2-.4-.4-.6c-.4-.3-1-.3-1.4,0-.2,.1-.3,.3-.4,.6-.1,.3-.1,.5-.1,.8s0,.6,.1,.8,.2,.4,.4,.5c.2,.1,.4,.2,.7,.2h0Z" style="fill: #333;"/>
  <path d="M171.4,550.5c-.1,0-.2,0-.3-.1s-.1-.2-.1-.3,0-.2,.1-.3,.2-.1,.3-.1,.2,0,.3,.1,.1,.2,.1,.3,0,.2-.1,.3c-.1,0-.2,.1-.3,.1Zm-.3,5.1v-4.4h.7v4.4h-.7Z" style="fill: #333;"/>
  <path d="M173,555.5v-4.4h.6v.7h.1c.1-.2,.2-.4,.4-.5s.5-.2,.7-.2c.3,0,.5,.1,.7,.2,.2,.1,.4,.3,.4,.5h0c.1-.2,.3-.4,.5-.5s.5-.2,.8-.2c.4,0,.7,.1,1,.4,.3,.3,.4,.7,.4,1.1v2.9h-.6v-2.9c0-.3-.1-.5-.3-.7-.2-.1-.4-.2-.6-.2-.3,0-.5,.1-.7,.3s-.3,.4-.3,.7v2.8h-.7v-3c0-.2-.1-.4-.2-.6-.2-.2-.4-.2-.6-.2s-.3,0-.5,.1-.3,.2-.4,.4c-.1,.2-.1,.4-.1,.6v2.7h-.6Z" style="fill: #333;"/>
  <path d="M179.9,557.2v-6h.6v.7h.1c.1-.1,.1-.2,.2-.3,.1-.1,.2-.2,.4-.3s.4-.2,.7-.1c.4,0,.7,.1,1,.3s.5,.5,.7,.8c.2,.4,.3,.8,.2,1.2,0,.4-.1,.8-.2,1.2-.1,.3-.4,.6-.6,.8-.3,.2-.6,.3-1,.3-.2,0-.5,0-.7-.1s-.3-.2-.4-.3l-.2-.3h-.1v2.3l-.7-.2Zm.7-3.8c0,.3,0,.6,.1,.9,.1,.2,.2,.4,.4,.6,.2,.1,.4,.2,.7,.2s.5-.1,.7-.2c.2-.2,.3-.4,.4-.6,.1-.3,.1-.6,.1-.8,0-.3,0-.6-.1-.8s-.2-.4-.4-.6c-.2-.2-.5-.2-.7-.2s-.5,.1-.7,.2c-.2,.1-.3,.3-.4,.6-.1,.1-.1,.4-.1,.7Z" style="fill: #333;"/>
  <path d="M185.4,549.7v5.8h-.7v-5.8h.7Z" style="fill: #333;"/>
  <path d="M187,550.5c-.1,0-.2-.1-.3-.1-.1-.1-.1-.2-.1-.3s.1-.2,.1-.3c.1-.1,.2-.1,.3-.1s.2,0,.3,.1,.1,.2,.1,.3,0,.2-.1,.3c-.1,0-.2,.1-.3,.1Zm-.3,5.1v-4.4h.7v4.4h-.7Z" style="fill: #333;"/>
  <path d="M190.4,555.6c-.4,0-.7-.1-1.1-.3-.3-.2-.5-.5-.7-.8-.2-.4-.2-.8-.2-1.2s.1-.8,.2-1.2c.2-.3,.4-.6,.7-.8s.6-.3,1-.3c.3,0,.6,.1,.8,.2,.2,.1,.4,.3,.6,.5,.2,.2,.3,.5,.3,.7h-.7c-.1-.5-.5-.8-1-.8-.2,0-.5,.1-.7,.2-.2,.1-.4,.3-.5,.6s-.2,.6-.2,.9,0,.6,.2,.9c.1,.2,.3,.4,.5,.6,.2,.1,.4,.2,.7,.2,.2,0,.3,0,.5-.1,.1-.1,.3-.1,.4-.3,.1-.1,.2-.3,.2-.4h.7c0,.2-.1,.5-.3,.7s-.4,.4-.6,.5c-.3,.2-.6,.2-.8,.2Z" style="fill: #333;"/>
  <path d="M194.3,555.7c-.3,0-.5-.1-.8-.2-.2-.1-.4-.3-.6-.5-.1-.2-.2-.5-.2-.7s0-.4,.1-.6c.1-.2,.2-.3,.4-.4,.2-.1,.4-.2,.5-.2,.2,0,.4-.1,.6-.1l.6-.1c.1,0,.3,0,.4-.1,.1,0,.1-.1,.1-.2h0c0-.2-.1-.5-.2-.7-.2-.2-.4-.2-.7-.2-.5,0-.9,.2-1.1,.7l-.6-.2c.1-.2,.3-.5,.5-.6s.4-.3,.6-.3c.2-.1,.4-.1,.7-.1h.5c.2,0,.4,.1,.5,.2,.2,.1,.3,.3,.4,.5,.1,.3,.2,.5,.2,.8v2.9h-.7v-.6h0c-.1,.3-.4,.5-.6,.6-.1,0-.4,.1-.6,.1Zm.1-.6c.2,0,.5,0,.7-.2,.2-.1,.3-.2,.4-.4,.1-.2,.1-.3,.1-.5v-.6c-.1,0-.1,.1-.2,.1l-.3,.1h-.7c-.2,0-.3,.1-.5,.1-.1,.1-.3,.1-.4,.2-.1,.1-.1,.3-.1,.4,0,.2,.1,.4,.3,.5,.3,.2,.5,.2,.7,.3h0Z" style="fill: #333;"/>
  <path d="M201.1,555.7c-.3,0-.5-.1-.8-.2-.2-.1-.4-.3-.5-.5s-.2-.5-.2-.7,0-.4,.1-.6c.1-.2,.2-.3,.4-.4,.2-.1,.4-.2,.6-.2s.4-.1,.6-.1l.6-.1c.1,0,.2,0,.4-.1,.1,0,.1-.1,.1-.2h0c0-.2-.1-.5-.2-.7-.2-.2-.4-.2-.7-.2-.5,0-.9,.2-1.1,.7l-.6-.2c.1-.2,.3-.5,.5-.6s.4-.2,.6-.3c.2-.1,.4-.1,.7-.1h.5c.2,0,.4,.1,.5,.2,.2,.1,.3,.3,.4,.5,.1,.3,.2,.5,.2,.8v2.9h-.7v-.6h0c-.1,.1-.1,.2-.2,.3-.1,.1-.3,.2-.4,.3-.4,0-.6,.1-.8,.1Zm.1-.6c.2,0,.5,0,.7-.2,.2-.1,.3-.2,.4-.4,.1-.2,.1-.3,.1-.5v-.6c-.1,0-.1,.1-.2,.1l-.3,.1h-.7c-.2,0-.3,.1-.5,.1-.1,.1-.3,.1-.4,.2-.1,.1-.1,.3-.1,.4,0,.2,.1,.4,.3,.5,.2,.2,.5,.2,.7,.3h0Z" style="fill: #333;"/>
  <path d="M206.1,555.6c-.4,0-.7-.1-1.1-.3-.3-.2-.5-.5-.7-.8-.2-.4-.2-.8-.2-1.2s.1-.8,.2-1.2c.2-.3,.4-.6,.7-.8s.6-.3,1-.3c.3,0,.6,.1,.8,.2,.2,.1,.5,.3,.6,.5,.2,.2,.3,.5,.3,.7h-.7c-.1-.2-.2-.4-.3-.5-.2-.2-.5-.2-.7-.2s-.5,.1-.7,.2c-.2,.1-.4,.3-.5,.6s-.2,.6-.2,.9,0,.6,.2,.9c.1,.2,.3,.4,.4,.6,.2,.1,.4,.2,.7,.2,.2,0,.3,0,.5-.1,.1-.1,.3-.1,.4-.3,.1-.1,.2-.3,.2-.4h.7c0,.2-.1,.5-.3,.7s-.4,.4-.6,.5c-.2,.1-.4,.1-.7,.1Z" style="fill: #333;"/>
  <path d="M210.6,555.6c-.4,0-.8-.1-1.1-.3s-.5-.5-.7-.8c-.3-.8-.3-1.6,0-2.4,.1-.3,.4-.6,.7-.8s.6-.3,1-.3c.2,0,.5,0,.7,.1s.4,.2,.6,.4c.2,.2,.3,.4,.4,.7,.1,.3,.2,.7,.2,1v.3h-3.4v-.5h2.7c0-.2,0-.4-.1-.7-.1-.2-.2-.4-.4-.5-.4-.2-.9-.2-1.3,0-.2,.1-.4,.3-.4,.5-.1,.2-.2,.4-.2,.7v.4c0,.3,.1,.6,.2,.8,.1,.2,.3,.4,.5,.5s.5,.2,.7,.2,.3,0,.5-.1c.1,0,.3-.1,.4-.2,.1-.1,.2-.2,.2-.4l.6,.2c-.1,.2-.2,.4-.4,.6-.2,.2-.4,.3-.6,.4-.3,.2-.5,.2-.8,.2Z" style="fill: #333;"/>
  <path d="M213.4,557.2v-6h.6v.7h.1c.1-.1,.1-.2,.2-.3,.1-.1,.2-.2,.4-.3s.4-.2,.7-.1c.4,0,.7,.1,1,.3s.5,.5,.6,.8c.2,.4,.3,.8,.2,1.2,0,.4-.1,.8-.2,1.2-.1,.3-.4,.6-.6,.8-.3,.2-.6,.3-1,.3-.2,0-.5,0-.7-.1-.1-.1-.3-.2-.4-.3-.1-.1-.2-.2-.2-.3h0v2.3l-.7-.2Zm.7-3.8c0,.3,0,.6,.1,.9,.1,.2,.2,.4,.4,.6,.2,.1,.4,.2,.7,.2s.5-.1,.7-.2c.2-.2,.3-.4,.4-.6,.1-.3,.1-.6,.1-.8,0-.3,0-.6-.1-.8s-.2-.4-.4-.6c-.2-.2-.4-.2-.7-.2-.2,0-.5,.1-.7,.2-.2,.1-.3,.3-.4,.6-.1,.1-.1,.4-.1,.7Z" style="fill: #333;"/>
  <path d="M220.2,551.2v.6h-2.2v-.6h2.2Zm-1.6-1.1h.7v4.2c0,.1,0,.3,.1,.4,0,.1,.1,.2,.2,.2h.5l.1,.6h-.5c-.2,0-.4,0-.6-.1-.2-.1-.3-.2-.4-.4-.1-.2-.2-.4-.2-.6l.1-4.3Z" style="fill: #333;"/>
  <path d="M222.5,555.7c-.3,0-.5,0-.8-.2-.2-.1-.4-.3-.5-.5s-.2-.5-.2-.7,0-.4,.1-.6c.1-.2,.2-.3,.4-.4,.2-.1,.4-.2,.6-.2s.4-.1,.6-.1l.6-.1c.1,0,.2,0,.4-.1,.1,0,.1-.1,.1-.2h0c0-.2-.1-.5-.2-.7-.2-.2-.4-.2-.7-.2-.5,0-.9,.2-1.1,.7l-.6-.2c.1-.2,.3-.5,.5-.6s.4-.2,.6-.3c.2-.1,.4-.1,.7-.1h.5c.2,0,.4,.1,.5,.2,.2,.1,.3,.3,.4,.5,.1,.3,.2,.5,.2,.8v2.9h-.7v-.6h0c-.1,.1-.1,.2-.2,.3-.1,.1-.3,.2-.4,.3-.3,0-.6,.1-.8,.1Zm.1-.6c.2,0,.5,0,.7-.2,.2-.1,.3-.2,.4-.4,.1-.2,.1-.3,.1-.5v-.6c-.1,0-.1,.1-.2,.1l-.3,.1h-.7c-.2,0-.3,.1-.5,.1-.1,0-.3,.1-.4,.2-.1,.1-.2,.3-.1,.4,0,.2,.1,.4,.3,.5,.2,.2,.5,.2,.7,.3h0Z" style="fill: #333;"/>
  <path d="M225.7,555.5v-4.4h.6v.7h.1c.1-.2,.2-.4,.4-.5s.5-.2,.7-.2h.4v.7h-.4c-.2,0-.4,0-.6,.1-.3,.2-.5,.5-.5,.9v2.8l-.7-.1Z" style="fill: #333;"/>
  <path d="M231.6,549.7v5.8h-.6v-5.8h.6Z" style="fill: #333;"/>
  <path d="M234.6,555.6c-.4,0-.7-.1-1-.3s-.5-.5-.7-.8c-.2-.4-.3-.8-.2-1.2,0-.4,.1-.8,.2-1.2,.2-.3,.4-.6,.7-.8,.6-.4,1.4-.4,2.1,0,.3,.2,.5,.5,.7,.8,.2,.4,.3,.8,.2,1.2,0,.4-.1,.8-.2,1.2-.2,.3-.4,.6-.7,.8-.3,.3-.7,.4-1.1,.3Zm0-.6c.3,0,.5-.1,.7-.2,.2-.2,.3-.4,.4-.6,.1-.3,.1-.5,.1-.8s0-.6-.1-.8-.2-.4-.4-.6c-.4-.3-1-.3-1.5,0-.2,.2-.3,.4-.4,.6-.1,.3-.1,.5-.1,.8s0,.6,.1,.8,.2,.4,.4,.6c.3,.2,.6,.2,.8,.2h0Z" style="fill: #333;"/>
  <path d="M240.7,552.2l-.6,.2c0-.1-.1-.2-.1-.3-.1-.1-.2-.2-.3-.2-.2-.1-.3-.1-.5-.1s-.5,.1-.7,.2c-.2,.1-.3,.3-.3,.5s.1,.3,.2,.4c.2,.1,.4,.2,.6,.2l.6,.2c.3,.1,.6,.2,.9,.4,.2,.2,.3,.5,.3,.8,0,.2-.1,.5-.2,.7-.2,.2-.4,.4-.6,.5-.3,.1-.6,.2-.9,.2-.4,0-.8-.1-1.1-.3s-.5-.5-.6-.8l.6-.2c0,.2,.2,.4,.4,.5s.4,.2,.7,.2,.5-.1,.8-.2c.2-.1,.3-.3,.3-.5,0-.1-.1-.2-.2-.3-.1-.1-.3-.2-.5-.2l-.7-.2c-.3-.1-.6-.2-.9-.4-.2-.2-.3-.5-.3-.8,0-.2,.1-.5,.2-.7,.1-.2,.3-.4,.6-.5s.5-.2,.8-.2c.4,0,.7,.1,1,.3,.3,0,.4,.3,.5,.6Z" style="fill: #333;"/>
  <path d="M246,551.2v.6h-2.3v-.6h2.3Zm-1.6-1.1h.6v4.2c0,.1,0,.3,.1,.4,0,.1,.1,.2,.2,.2h.6l.1,.6h-.5c-.2,0-.4,0-.6-.1-.2-.1-.3-.2-.4-.4-.1-.2-.2-.4-.2-.6l.1-4.3Z" style="fill: #212121;"/>
  <path d="M248.8,555.6c-.4,0-.8-.1-1.1-.3s-.5-.5-.7-.8c-.3-.8-.3-1.6,0-2.4,.1-.3,.4-.6,.7-.8s.6-.3,1-.3c.2,0,.5,0,.7,.1s.4,.2,.6,.4c.2,.2,.3,.4,.4,.7,.1,.3,.2,.7,.2,1v.3h-3.3v-.5h2.7c0-.2,0-.4-.1-.7-.1-.2-.2-.4-.4-.5-.4-.2-.9-.2-1.3,0-.2,.1-.4,.3-.4,.5-.1,.2-.2,.4-.2,.7v.4c0,.3,.1,.6,.2,.8,.1,.2,.3,.4,.5,.5,.4,.2,.8,.2,1.2,.1,.1,0,.3-.1,.4-.2,.1-.1,.2-.2,.2-.4l.6,.2c-.1,.2-.2,.4-.3,.6-.2,.2-.4,.3-.6,.4-.5,.2-.8,.2-1,.2Zm-.5-5l.7-1.3h.8l-.9,1.3h-.6Z" style="fill: #212121;"/>
  <path d="M251.6,555.5v-4.4h.6v.7h.1c.1-.2,.2-.4,.4-.5s.5-.2,.7-.2h.4v.7h-.4c-.2,0-.4,0-.6,.1-.2,.1-.3,.2-.4,.4-.1,.2-.1,.3-.1,.5v2.8l-.7-.1Z" style="fill: #212121;"/>
  <path d="M254.6,555.5v-4.4h.6v.7h.1c.1-.2,.2-.4,.4-.5,.6-.4,1.4-.3,1.8,.3,0,.1,.1,.1,.1,.2h0c.1-.2,.3-.4,.5-.5s.5-.2,.8-.2c.4,0,.7,.1,1,.4,.3,.3,.4,.7,.4,1.1v2.9h-.7v-2.9c0-.3-.1-.5-.3-.7-.2-.1-.4-.2-.6-.2-.3,0-.5,.1-.7,.3s-.3,.4-.2,.7v2.8h-.7v-3c0-.2-.1-.4-.2-.6-.2-.2-.4-.2-.6-.2s-.3,.1-.5,.1c-.2,.1-.3,.2-.4,.4-.1,.2-.1,.4-.1,.6v2.7h-.7Z" style="fill: #212121;"/>
  <path d="M261.9,550.5c-.1,0-.2-.1-.3-.1-.1-.1-.1-.2-.1-.3s.1-.2,.1-.3c.1-.1,.2-.1,.3-.1s.2,0,.3,.1c.1,.1,.1,.2,.1,.3s0,.2-.1,.3c-.1,0-.2,.1-.3,.1Zm-.4,5.1v-4.4h.7v4.4h-.7Z" style="fill: #212121;"/>
  <path d="M264.1,552.9v2.6h-.7v-4.4h.6v.7h.1c.1-.2,.3-.4,.5-.5s.5-.2,.8-.2,.5,.1,.8,.2c.2,.1,.4,.3,.5,.5,.1,.3,.2,.6,.2,.9v2.8h-.7v-2.7c0-.3-.1-.6-.3-.8-.2-.2-.5-.3-.7-.3s-.4,0-.6,.1-.3,.2-.4,.4c-.1,.3-.1,.5-.1,.7Z" style="fill: #212121;"/>
  <path d="M269.9,555.6c-.4,0-.7-.1-1-.3s-.5-.5-.7-.8c-.2-.4-.3-.8-.2-1.2,0-.4,.1-.8,.2-1.2,.2-.3,.4-.6,.7-.8,.3-.2,.6-.3,1-.3s.7,.1,1,.3,.5,.5,.7,.8c.2,.4,.3,.8,.2,1.2,0,.4-.1,.8-.2,1.2-.2,.3-.4,.6-.7,.8-.3,.2-.7,.3-1,.3Zm0-.6c.3,0,.5-.1,.7-.2,.2-.2,.3-.4,.4-.6,.1-.3,.1-.5,.1-.8s0-.6-.1-.8-.2-.4-.4-.6c-.2-.2-.5-.2-.7-.2-.3,0-.5,.1-.7,.2-.2,.2-.3,.4-.4,.6-.1,.3-.1,.5-.1,.8s0,.6,.1,.8,.2,.4,.4,.6c.1,.2,.4,.2,.7,.2h0Z" style="fill: #212121;"/>
  <path d="M276,552.2l-.6,.2c0-.1-.1-.2-.2-.3s-.2-.2-.3-.2c-.2-.1-.3-.1-.5-.1s-.5,.1-.7,.2c-.2,.1-.3,.3-.3,.5s.1,.3,.2,.4c.2,.1,.4,.2,.6,.2l.6,.2c.3,.1,.6,.2,.9,.4,.4,.4,.4,1,.1,1.4-.1,.2-.4,.4-.6,.5-.3,.1-.6,.2-.9,.2-.4,0-.8-.1-1.1-.3-.3-.2-.5-.5-.5-.8l.6-.2c0,.2,.2,.4,.4,.5,.2,.1,.4,.2,.7,.2s.5-.1,.8-.2c.2-.1,.3-.3,.3-.5,0-.1-.1-.3-.2-.4-.1-.1-.3-.2-.5-.2l-.7-.2c-.3-.1-.6-.2-.9-.4-.2-.2-.3-.5-.3-.8,0-.2,.1-.5,.2-.7s.3-.4,.6-.5c.3-.1,.5-.2,.8-.2,.4,0,.7,.1,1,.3,.2,.2,.4,.5,.5,.8Z" style="fill: #212121;"/>
  <path d="M87.2,566.8h-.3l-.2-.1,.2-.6c.2,.1,.4,.1,.6,0s.4-.3,.4-.6l.1-.3-1.6-4.4h.7l1.2,3.5h0l1.2-3.5h.7l-1.8,5c-.1,.2-.2,.4-.3,.5-.1,.1-.3,.2-.4,.3-.1,.1-.3,.2-.5,.2Z" style="fill: #212121;"/>
  <path d="M95.3,565.2c-.7,0-1.4-.4-1.7-1.1-.2-.4-.2-.8-.2-1.2s.1-.8,.2-1.2c.2-.3,.4-.6,.7-.8,.3-.2,.6-.3,1-.3,.3,0,.6,.1,.8,.2,.2,.1,.5,.3,.6,.5,.2,.2,.3,.5,.3,.7h-.7c-.1-.2-.2-.4-.3-.5-.2-.2-.5-.2-.7-.2s-.5,.1-.7,.2c-.2,.1-.4,.3-.5,.6s-.1,.6-.1,.9,0,.6,.2,.9c.1,.2,.2,.4,.4,.6,.2,.1,.4,.2,.7,.2,.2,0,.3,0,.5-.1,.1-.1,.3-.1,.4-.3,.1-.1,.2-.3,.2-.4h.6c0,.2-.1,.5-.3,.7-.2,.2-.4,.4-.6,.5s-.5,.2-.8,.1Z" style="fill: #212121;"/>
  <path d="M99.8,565.2c-.4,0-.7-.1-1-.3s-.5-.5-.7-.8c-.2-.4-.3-.8-.2-1.2,0-.4,0-.8,.2-1.2,.2-.3,.4-.6,.7-.8,.3-.2,.6-.3,1-.3s.7,.1,1,.3,.5,.5,.7,.8c.2,.4,.3,.8,.2,1.2,0,.4-.1,.8-.2,1.2-.2,.3-.4,.6-.7,.8-.4,.2-.7,.3-1,.3Zm0-.6c.3,0,.5-.1,.7-.2,.2-.2,.3-.4,.4-.6,.1-.3,.1-.5,.1-.8s0-.6-.1-.8-.2-.4-.4-.6c-.2-.2-.5-.2-.7-.2-.3,0-.5,.1-.7,.2-.2,.2-.3,.4-.4,.6-.1,.3-.1,.5-.1,.8s0,.6,.1,.8,.2,.4,.4,.6c.1,.2,.4,.2,.7,.2Z" style="fill: #212121;"/>
  <path d="M103.4,562.5v2.6h-.7v-4.4h.7v.7h0c.1-.2,.3-.4,.5-.5s.5-.2,.8-.2,.5,.1,.8,.2c.2,.1,.4,.3,.5,.5,.1,.3,.2,.6,.2,.9v2.8h-.7v-2.7c0-.3-.1-.6-.3-.8-.2-.2-.5-.3-.7-.3s-.4,0-.6,.1-.3,.2-.4,.4c-.1,.3-.1,.5-.1,.7Z" style="fill: #212121;"/>
  <path d="M109.1,565.2c-.4,0-.7-.1-1-.3s-.5-.5-.7-.8c-.2-.4-.2-.8-.2-1.2s.1-.8,.2-1.2c.1-.3,.4-.6,.7-.8,.3-.2,.6-.3,1-.3,.2,0,.5,0,.7,.1s.3,.2,.4,.3l.2,.3h.1v-2.2h.7v5.8h-.7v-.7h-.1l-.2,.3c-.1,.1-.2,.2-.4,.3-.3,.4-.5,.4-.7,.4Zm.1-.6c.2,0,.5-.1,.7-.2,.2-.2,.3-.4,.4-.6,.1-.3,.1-.6,.1-.9s0-.6-.1-.9c-.1-.2-.2-.4-.4-.6-.2-.1-.4-.2-.7-.2s-.5,.1-.7,.2c-.2,.2-.3,.4-.4,.6-.1,.3-.1,.5-.1,.8s0,.6,.1,.8,.2,.4,.4,.6c.2,.4,.4,.4,.7,.4Z" style="fill: #212121;"/>
  <path d="M112.8,560.1c-.1,0-.2-.1-.3-.1-.1-.1-.1-.2-.1-.3s.1-.2,.1-.3c.1-.1,.2-.1,.3-.1s.2,0,.3,.1c.1,.1,.1,.2,.1,.3s0,.2-.1,.3c-.1,0-.2,.1-.3,.1Zm-.4,5.1v-4.4h.7v4.4h-.7Z" style="fill: #212121;"/>
  <path d="M116.1,565.2c-.4,0-.8-.1-1.1-.2-.3-.2-.5-.5-.7-.8-.2-.4-.2-.8-.2-1.2s.1-.8,.2-1.2c.1-.3,.4-.6,.7-.9,.3-.2,.6-.3,1-.3,.3,0,.6,.1,.8,.2,.2,.1,.4,.3,.6,.5s.3,.5,.3,.7h-.7c-.1-.5-.5-.8-1-.8-.2,0-.5,.1-.7,.2-.2,.1-.4,.3-.5,.6s-.2,.6-.2,.9,0,.6,.2,.9c.1,.2,.3,.4,.5,.6,.2,.1,.4,.2,.7,.2,.2,0,.3,0,.5-.1,.1-.1,.3-.1,.4-.3,.1-.1,.2-.3,.2-.4h.7c0,.3-.1,.5-.3,.7-.1,.2-.3,.4-.6,.5-.3,.2-.5,.2-.8,.2Z" style="fill: #212121;"/>
  <path d="M119.1,560.1c-.1,0-.2-.1-.3-.1-.1-.1-.1-.2-.1-.3s.1-.2,.1-.3c.2-.2,.5-.2,.7,0,.1,.1,.1,.2,.1,.3s-.1,.2-.1,.3c-.1,0-.3,.1-.4,.1Zm-.3,5.1v-4.4h.7v4.4h-.7Z" style="fill: #212121;"/>
  <path d="M122.4,565.2c-.4,0-.7-.1-1-.3s-.5-.5-.7-.8c-.2-.4-.3-.8-.2-1.2,0-.4,.1-.8,.2-1.2,.2-.3,.4-.6,.7-.8,.3-.2,.6-.3,1-.3s.7,.1,1,.3,.5,.5,.7,.8c.2,.4,.3,.8,.2,1.2,0,.4-.1,.8-.2,1.2-.2,.3-.4,.6-.7,.8-.3,.2-.6,.3-1,.3Zm0-.6c.3,0,.5-.1,.7-.2,.2-.2,.3-.4,.4-.6,.1-.3,.1-.5,.1-.8s0-.6-.1-.8-.2-.4-.4-.6c-.2-.2-.5-.2-.7-.2-.3,0-.5,.1-.7,.2-.2,.2-.3,.4-.4,.6-.1,.3-.1,.5-.1,.8s0,.6,.1,.8,.2,.4,.4,.6c.2,.2,.5,.2,.7,.2Z" style="fill: #212121;"/>
  <path d="M126.1,562.5v2.6h-.7v-4.4h.7v.7h.1c.1-.2,.3-.4,.5-.5s.5-.2,.8-.2,.5,.1,.8,.2c.2,.1,.4,.3,.5,.5,.1,.3,.2,.6,.2,.9v2.8h-.7v-2.7c0-.3-.1-.6-.3-.8s-.5-.3-.7-.3-.4,0-.6,.1-.3,.2-.4,.4c-.1,.3-.2,.5-.2,.7Z" style="fill: #212121;"/>
  <path d="M132,565.2c-.4,0-.8-.1-1.1-.3s-.6-.5-.7-.8c-.3-.8-.3-1.6,0-2.4,.2-.3,.4-.6,.7-.8s.6-.3,1-.3c.2,0,.5,0,.7,.1s.4,.2,.6,.4c.2,.2,.3,.4,.4,.7,.1,.3,.2,.7,.2,1v.3h-3.4v-.6h2.7c0-.2,0-.4-.1-.7-.1-.2-.2-.3-.4-.5-.2-.1-.4-.2-.6-.2s-.5,.1-.7,.2c-.2,.1-.3,.3-.4,.5-.1,.2-.2,.4-.2,.7v.4c0,.3,.1,.6,.2,.8,.1,.2,.3,.4,.5,.5s.5,.2,.7,.2,.3,0,.5-.1c.1,0,.3-.1,.4-.2,.1-.1,.2-.2,.2-.3l.6,.2c-.1,.2-.2,.4-.3,.6-.2,.2-.4,.3-.6,.4-.4,.2-.7,.2-.9,.2Z" style="fill: #212121;"/>
  <path d="M137.9,561.8l-.6,.2c0-.1-.1-.2-.2-.3-.1-.1-.2-.2-.3-.2-.2-.1-.3-.1-.5-.1s-.5,.1-.7,.2c-.2,.1-.3,.3-.3,.5s.1,.3,.2,.4c.2,.1,.4,.2,.6,.2l.6,.2c.3,.1,.6,.2,.9,.4,.2,.2,.3,.5,.3,.8,0,.2-.1,.5-.2,.7-.2,.2-.4,.4-.6,.5-.3,.1-.6,.2-.9,.2-.4,0-.8-.1-1.1-.3s-.5-.5-.6-.8l.6-.2c.1,.2,.2,.4,.4,.5s.4,.2,.7,.2,.5-.1,.7-.2c.2-.1,.3-.3,.3-.5,0-.1-.1-.3-.2-.4-.1-.1-.3-.2-.5-.2l-.7-.2c-.3-.1-.6-.2-.9-.4-.2-.2-.3-.5-.3-.8,0-.2,.1-.5,.2-.7,.1-.2,.3-.4,.6-.5s.5-.2,.8-.2c.4,0,.7,.1,1,.3,.4,.1,.6,.4,.7,.7Z" style="fill: #212121;"/>
  <path d="M143,565.2c-.3,0-.7-.1-1-.2-.3-.2-.6-.5-.7-.8-.3-.8-.3-1.6,0-2.4,.2-.3,.4-.6,.7-.8s.6-.3,1-.3c.2,0,.5,0,.7,.1,.5,.2,.8,.5,1,1,.1,.3,.2,.7,.2,1v.3h-3.4v-.6h2.7c0-.2-.1-.4-.1-.6-.1-.2-.2-.3-.4-.5-.2-.1-.4-.2-.6-.2s-.5,.1-.7,.2c-.2,.1-.3,.3-.4,.5-.1,.2-.2,.4-.2,.7v.4c0,.3,.1,.6,.2,.8,.1,.2,.3,.4,.5,.5s.5,.2,.7,.2,.3,0,.5-.1c.1,0,.3-.1,.4-.2,.1-.1,.2-.2,.2-.4l.6,.2c-.1,.2-.2,.4-.3,.6-.2,.2-.4,.3-.6,.4-.4,.2-.7,.3-1,.2Z" style="fill: #333;"/>
  <path d="M146.5,562.5v2.6h-.7v-4.4h.6v.7h.1c.1-.2,.3-.4,.5-.5s.5-.2,.8-.2,.5,.1,.8,.2c.2,.1,.4,.3,.5,.5,.1,.3,.2,.6,.2,.9v2.8h-.7v-2.7c0-.3-.1-.6-.3-.8s-.5-.3-.7-.3-.4,0-.6,.1c-.2,.1-.3,.2-.4,.4,0,.3-.1,.5-.1,.7Z" style="fill: #333;"/>
  <path d="M153.5,559.3v5.8h-.7v-5.8h.7Z" style="fill: #333;"/>
  <path d="M156.5,565.2c-.4,0-.7-.1-1-.3s-.5-.5-.7-.8c-.2-.4-.3-.8-.2-1.2,0-.4,.1-.8,.2-1.2,.1-.3,.4-.6,.7-.8,.6-.4,1.4-.4,2.1,0,.3,.2,.5,.5,.7,.8,.2,.4,.3,.8,.2,1.2,0,.4-.1,.8-.2,1.2-.1,.3-.4,.6-.7,.8-.4,.3-.8,.4-1.1,.3Zm0-.6c.3,0,.5-.1,.7-.2,.2-.2,.3-.4,.4-.6,.1-.3,.1-.5,.1-.8s0-.6-.1-.8-.2-.5-.4-.6c-.4-.3-1-.3-1.5,0-.2,.2-.3,.4-.4,.6-.1,.3-.1,.5-.1,.8s0,.6,.1,.8,.2,.5,.4,.6c.3,.2,.5,.2,.8,.2Z" style="fill: #333;"/>
  <path d="M162.6,561.8l-.6,.2c0-.1-.1-.2-.2-.3-.1-.1-.2-.2-.3-.2-.2-.1-.3-.1-.5-.1s-.5,.1-.7,.2c-.2,.1-.3,.3-.3,.5s.1,.3,.2,.4c.2,.1,.4,.2,.6,.2l.6,.2c.3,.1,.6,.2,.9,.4,.2,.2,.3,.5,.3,.8,0,.2-.1,.5-.2,.7-.2,.2-.4,.4-.6,.5-.3,.1-.6,.2-.9,.2-.4,0-.8-.1-1.1-.3s-.5-.5-.6-.8l.6-.2c0,.2,.2,.4,.3,.5,.2,.1,.4,.2,.7,.2s.5-.1,.7-.2c.2-.1,.3-.3,.3-.4s-.1-.3-.2-.4c-.1-.1-.3-.2-.5-.2l-.7-.2c-.3-.1-.6-.2-.9-.4-.2-.2-.3-.5-.3-.8,0-.2,.1-.5,.2-.7,.1-.2,.3-.4,.6-.5s.5-.2,.8-.2c.4,0,.7,.1,1,.3,.5,0,.7,.3,.8,.6Z" style="fill: #333;"/>
  <path d="M169.6,566.8h-.7v-2.3h0l-.2,.3c-.1,.1-.2,.2-.4,.3s-.4,.1-.7,.1c-.4,0-.7-.1-1-.3s-.5-.5-.6-.8c-.2-.4-.2-.8-.2-1.2s.1-.8,.2-1.2c.1-.3,.4-.6,.6-.8,.3-.2,.6-.3,1-.3,.2,0,.5,0,.7,.1,.1,.1,.3,.2,.4,.3,.1,.1,.1,.2,.2,.3h.1v-.7h.6v6.2Zm-.7-3.8c0-.3,0-.6-.1-.9-.1-.2-.2-.4-.4-.6-.2-.1-.4-.2-.7-.2s-.5,.1-.7,.2c-.2,.2-.3,.4-.4,.6-.1,.3-.1,.5-.1,.8s0,.6,.1,.8,.2,.4,.4,.6c.2,.2,.4,.2,.7,.2,.2,0,.5-.1,.7-.2,.2-.2,.3-.4,.4-.6,0-.1,.1-.4,.1-.7h0Z" style="fill: #333;"/>
  <path d="M173.5,563.4v-2.6h.7v4.4h-.7v-.7h0c-.1,.2-.3,.4-.5,.6-.2,.2-.5,.3-.8,.2-.3,0-.5-.1-.7-.2-.2-.1-.4-.3-.5-.5-.1-.3-.2-.6-.2-.9v-2.8h.7v2.7c0,.3,.1,.6,.3,.8s.4,.3,.7,.3c.2,0,.4-.1,.5-.1,.2-.1,.3-.2,.4-.4,.1-.4,.2-.6,.1-.8Z" style="fill: #333;"/>
  <path d="M177.3,565.2c-.4,0-.8-.1-1.1-.3s-.5-.5-.7-.8c-.3-.8-.3-1.6,0-2.4,.1-.3,.4-.6,.7-.8s.6-.3,1-.3c.2,0,.5,0,.7,.1s.4,.2,.6,.4c.2,.2,.3,.4,.4,.7,.1,.3,.2,.7,.2,1v.3h-3.3v-.6h2.7c0-.2,0-.4-.1-.7-.1-.2-.2-.4-.4-.5-.4-.2-.9-.2-1.3,0-.2,.1-.3,.3-.4,.5-.1,.2-.2,.4-.1,.7v.4c0,.3,0,.6,.2,.8,.1,.2,.3,.4,.5,.5s.5,.2,.7,.2,.3,0,.5-.1c.1,0,.3-.1,.4-.2,.1-.1,.2-.2,.2-.4l.6,.2c-.1,.2-.2,.4-.4,.6-.2,.2-.4,.3-.6,.4-.5,.3-.8,.3-1,.3Z" style="fill: #333;"/>
  <path d="M185.4,561.8l-.6,.2c0-.1-.1-.2-.2-.3-.1-.1-.2-.2-.3-.2-.2-.1-.3-.1-.5-.1s-.5,.1-.7,.2c-.2,.1-.3,.3-.3,.5s.1,.3,.2,.4c.2,.1,.4,.2,.6,.2l.6,.2c.3,.1,.6,.2,.9,.4,.4,.4,.4,1,.1,1.4-.1,.2-.4,.4-.6,.5-.3,.1-.6,.2-.9,.2-.4,0-.8-.1-1.1-.3s-.5-.5-.6-.8l.6-.2c0,.2,.2,.4,.4,.5s.4,.2,.7,.2,.5-.1,.8-.2c.2-.1,.3-.3,.3-.5,0-.1-.1-.3-.2-.4-.1-.1-.3-.2-.5-.2l-.7-.2c-.3-.1-.6-.2-.9-.4-.2-.2-.3-.5-.3-.8,0-.2,.1-.5,.2-.7,.1-.2,.3-.4,.6-.5s.5-.2,.8-.2c.4,0,.7,.1,1,.3,.3,.2,.5,.5,.6,.8Z" style="fill: #333;"/>
  <path d="M188.4,565.2c-.4,0-.8-.1-1.1-.3s-.5-.5-.7-.8c-.3-.8-.3-1.6,0-2.4,.2-.3,.4-.6,.7-.8s.6-.3,1-.3c.2,0,.5,0,.7,.1s.4,.2,.6,.4c.2,.2,.3,.4,.4,.7,.1,.3,.2,.7,.2,1v.3h-3.4v-.6h2.7c0-.2,0-.4-.1-.7-.1-.2-.2-.4-.4-.5-.4-.2-.9-.2-1.3,0-.2,.1-.3,.3-.4,.5-.1,.2-.2,.4-.1,.7v.4c0,.3,0,.6,.2,.8,.1,.2,.3,.4,.5,.5s.5,.2,.7,.2,.3,0,.5-.1c.1,0,.3-.1,.4-.2,.1-.1,.2-.2,.2-.4l.6,.2c-.1,.2-.2,.4-.4,.6-.2,.2-.4,.3-.6,.4-.4,.3-.7,.3-.9,.3Z" style="fill: #333;"/>
  <path d="M195.2,565.2c-.4,0-.7-.1-1-.3s-.5-.5-.7-.8c-.2-.4-.3-.8-.2-1.2,0-.4,.1-.8,.2-1.2,.2-.3,.4-.6,.7-.8s.6-.3,1-.3,.7,.1,1,.3,.5,.5,.7,.8c.2,.4,.3,.8,.2,1.2,0,.4-.1,.8-.2,1.2-.2,.3-.4,.6-.7,.8-.3,.2-.6,.3-1,.3Zm0-.6c.3,0,.5-.1,.7-.2,.2-.2,.3-.4,.4-.6,.1-.3,.1-.5,.1-.8s0-.6-.1-.8-.2-.4-.4-.6c-.2-.2-.5-.2-.7-.2-.3,0-.5,.1-.7,.2-.2,.2-.3,.4-.4,.6-.1,.3-.1,.5-.1,.8s0,.6,.1,.8,.2,.4,.4,.6c.2,.2,.4,.2,.7,.2Z" style="fill: #333;"/>
  <path d="M200.1,560.8v.6h-2.4v-.6h2.4Zm-1.6,4.3v-5c0-.2,.1-.4,.2-.6,.1-.2,.3-.3,.5-.4,.2-.1,.4-.1,.6-.1h.4c.1,0,.2,0,.2,.1l-.2,.6h-.4c-.2,0-.4,0-.5,.2-.1,.1-.2,.3-.1,.5v4.8l-.7-.1h0Z" style="fill: #333;"/>
  <path d="M201.1,565.2v-4.4h.6v.7h0c.1-.2,.2-.4,.4-.5s.5-.2,.7-.2h.4v.7h-.4c-.2,0-.4,0-.6,.1-.2,.1-.3,.2-.4,.4-.1,.2-.1,.3-.1,.5v2.8l-.6-.1Z" style="fill: #333;"/>
  <path d="M205.8,565.2c-.4,0-.8-.1-1.1-.3s-.5-.5-.7-.8c-.3-.8-.3-1.6,0-2.4,.1-.3,.4-.6,.7-.8s.6-.3,1-.3c.2,0,.5,0,.7,.1s.4,.2,.6,.4c.2,.2,.3,.4,.4,.7,.1,.3,.2,.7,.2,1v.3h-3.3v-.6h2.7c0-.2,0-.4-.1-.7-.1-.2-.2-.4-.4-.5-.4-.2-.9-.2-1.3,0-.2,.1-.3,.3-.4,.5-.1,.2-.2,.4-.2,.7v.4c0,.3,.1,.6,.2,.8,.1,.2,.3,.4,.5,.5s.5,.2,.7,.2,.3,0,.5-.1c.1,0,.3-.1,.4-.2,.1-.1,.2-.2,.2-.4l.6,.2c-.1,.2-.2,.4-.4,.6-.2,.2-.4,.3-.6,.4-.4,.3-.7,.3-.9,.3Z" style="fill: #333;"/>
  <path d="M210.4,565.2c-.4,0-.7-.1-1.1-.3-.3-.2-.5-.5-.7-.8-.2-.4-.2-.8-.2-1.2s.1-.8,.2-1.2c.1-.3,.4-.6,.7-.8s.6-.3,1-.3c.3,0,.6,.1,.8,.2,.2,.1,.4,.3,.6,.5,.2,.2,.3,.5,.3,.7h-.7c-.1-.2-.2-.4-.3-.5-.2-.2-.5-.2-.7-.2s-.5,.1-.7,.2c-.2,.1-.4,.3-.4,.6-.1,.3-.2,.6-.2,.9s.1,.6,.2,.9c.1,.2,.3,.4,.5,.6,.2,.1,.4,.2,.7,.2,.2,0,.3,0,.5-.1,.1-.1,.3-.1,.4-.3,.1-.1,.2-.3,.2-.4h.7c0,.2-.1,.5-.3,.7s-.4,.4-.6,.5c-.4,.1-.7,.1-.9,.1Z" style="fill: #333;"/>
  <path d="M214.9,565.2c-.4,0-.8-.1-1.1-.3s-.6-.5-.7-.8c-.3-.8-.3-1.6,0-2.4,.2-.3,.4-.6,.7-.8s.6-.3,1-.3c.2,0,.5,0,.7,.1,.5,.2,.8,.5,1,1,.1,.3,.2,.7,.2,1v.3h-3.4v-.6h2.8c0-.2,0-.4-.1-.7-.1-.2-.2-.3-.4-.5-.2-.1-.4-.2-.6-.2s-.5,.1-.7,.2c-.2,.1-.3,.3-.4,.5-.1,.2-.2,.4-.2,.7v.4c0,.3,.1,.6,.2,.8,.1,.2,.3,.4,.5,.5s.5,.2,.7,.2,.3,0,.5-.1c.1,0,.3-.1,.4-.2,.1-.1,.2-.2,.3-.3l.6,.2c-.1,.2-.2,.4-.3,.6-.2,.2-.4,.3-.6,.4-.6,.3-.8,.4-1.1,.3Z" style="fill: #333;"/>
  <path d="M221.8,565.2c-.4,0-.8-.1-1.1-.3s-.6-.5-.7-.8c-.3-.8-.3-1.6,0-2.4,.2-.3,.4-.6,.7-.8s.6-.3,1-.3c.2,0,.5,0,.7,.1s.4,.2,.6,.4c.2,.2,.3,.4,.4,.7,.1,.3,.2,.7,.2,1v.3h-3.4v-.6h2.7c0-.2,0-.4-.1-.7-.1-.2-.2-.3-.4-.5-.2-.1-.4-.2-.6-.2s-.5,.1-.7,.2c-.2,.1-.3,.3-.4,.5-.1,.2-.2,.4-.1,.7v.4c0,.3,.1,.6,.2,.8,.1,.2,.3,.4,.5,.5s.5,.2,.7,.2,.3,0,.5-.1c.1,0,.3-.1,.4-.2,.1-.1,.2-.2,.2-.4l.6,.2c-.1,.2-.2,.4-.3,.6-.2,.2-.4,.3-.6,.4-.5,.3-.7,.3-1,.3Z" style="fill: #333;"/>
  <path d="M225.3,559.3v5.8h-.7v-5.8h.7Z" style="fill: #333;"/>
  <path d="M231.9,561.8l-.6,.2c0-.1-.1-.2-.2-.3-.1-.1-.2-.2-.3-.2-.1-.1-.3-.1-.5-.1s-.5,.1-.7,.2c-.2,.1-.3,.3-.3,.5s.1,.3,.2,.4c.2,.1,.4,.2,.6,.2l.6,.2c.3,.1,.6,.2,.9,.4,.2,.2,.3,.5,.3,.8,0,.2-.1,.5-.2,.7-.2,.2-.4,.4-.6,.5-.3,.1-.6,.2-.9,.2-.4,0-.8-.1-1.1-.3s-.5-.5-.6-.8l.6-.2c0,.2,.2,.4,.4,.5s.4,.2,.7,.2,.5-.1,.8-.2c.2-.1,.3-.3,.3-.5,0-.1-.1-.3-.2-.4-.1-.1-.3-.2-.5-.2l-.7-.2c-.3-.1-.6-.2-.9-.4-.2-.2-.3-.5-.3-.8,0-.2,.1-.5,.2-.7,.1-.2,.3-.4,.6-.5s.5-.2,.8-.2c.4,0,.7,.1,1,.3,.3,.1,.5,.4,.6,.7Z" style="fill: #333;"/>
  <path d="M234.8,565.2c-.4,0-.8-.1-1.1-.3s-.5-.5-.7-.8c-.3-.8-.3-1.6,0-2.4,.2-.3,.4-.6,.7-.8s.6-.3,1-.3c.2,0,.5,0,.7,.1s.4,.2,.6,.4c.2,.2,.3,.4,.4,.7,.1,.3,.2,.7,.2,1v.3h-3.4v-.6h2.7c0-.2,0-.4-.1-.7-.1-.2-.2-.4-.4-.5s-.4-.2-.6-.2-.5,.1-.7,.2c-.2,.1-.3,.3-.4,.5-.1,.2-.2,.4-.1,.7v.4c0,.3,0,.6,.2,.8,.1,.2,.3,.4,.5,.5s.5,.2,.7,.2,.3,0,.5-.1c.1,0,.3-.1,.4-.2,.1-.1,.2-.2,.2-.4l.6,.2c-.1,.2-.2,.4-.3,.6-.2,.2-.4,.3-.6,.4-.5,.3-.8,.3-1,.3Z" style="fill: #333;"/>
  <path d="M237.6,565.2v-4.4h.6v.7h0c.1-.2,.2-.4,.4-.5s.5-.2,.7-.2h.4v.7h-.4c-.2,0-.4,0-.6,.1-.2,.1-.3,.2-.4,.4-.1,.2-.1,.3-.1,.5v2.8l-.6-.1Z" style="fill: #333;"/>
  <path d="M244.3,560.8l-1.6,4.4h-.7l-1.6-4.4h.7l1.2,3.5h.1l1.2-3.5h.7Z" style="fill: #333;"/>
  <path d="M245.5,560.1c-.1,0-.2-.1-.3-.1-.1-.1-.1-.2-.1-.3s.1-.2,.1-.3c.2-.2,.5-.2,.7,0,.1,.1,.1,.2,.1,.3s-.1,.2-.1,.3c-.1,0-.3,.1-.4,.1Zm-.3,5.1v-4.4h.7v4.4h-.7Z" style="fill: #333;"/>
  <path d="M248.9,565.2c-.4,0-.7-.1-1.1-.3-.3-.2-.5-.5-.7-.8-.2-.4-.2-.8-.2-1.2s.1-.8,.2-1.2c.1-.3,.4-.6,.7-.8s.6-.3,1-.3c.3,0,.6,.1,.8,.2,.2,.1,.4,.3,.6,.5,.2,.2,.3,.5,.3,.7h-.7c-.1-.5-.5-.8-1-.8-.2,0-.5,.1-.7,.2-.2,.1-.4,.3-.4,.6-.1,.3-.2,.6-.2,.9s.1,.6,.2,.9c.1,.2,.3,.4,.5,.6,.2,.1,.4,.2,.7,.2,.2,0,.3,0,.5-.1,.1-.1,.3-.1,.4-.3,.1-.1,.2-.3,.2-.4h.7c0,.2-.1,.5-.3,.7s-.4,.4-.6,.5c-.4,.2-.7,.2-.9,.2Z" style="fill: #333;"/>
  <path d="M251.9,560.1c-.1,0-.2,0-.3-.1s-.1-.2-.1-.3,0-.2,.1-.3,.2-.1,.3-.1,.2,0,.3,.1,.1,.2,.1,.3-.1,.2-.1,.3c-.1,0-.2,.1-.3,.1Zm-.4,5.1v-4.4h.7v4.4h-.7Z" style="fill: #333;"/>
  <path d="M255.2,565.2c-.4,0-.7-.1-1-.3s-.5-.5-.7-.8c-.2-.4-.2-.8-.2-1.2s.1-.8,.2-1.2c.2-.3,.4-.6,.7-.8s.6-.3,1-.3c.7,0,1.4,.4,1.7,1.1,.2,.4,.3,.8,.2,1.2,0,.4-.1,.8-.2,1.2-.3,.7-.9,1.2-1.7,1.1Zm0-.6c.3,0,.5-.1,.7-.2,.2-.2,.3-.4,.4-.6,.1-.3,.1-.5,.1-.8s0-.6-.1-.8-.2-.4-.4-.6c-.2-.2-.5-.2-.7-.2-.3,0-.5,.1-.7,.2-.2,.2-.3,.4-.4,.6-.1,.3-.1,.5-.1,.8s0,.5,.1,.8c.1,.2,.2,.4,.4,.6,.2,.2,.4,.2,.7,.2Z" style="fill: #333;"/>
  <path d="M258.7,565.2c-.3,0-.5-.2-.5-.5s.2-.5,.5-.5,.5,.2,.5,.5c0,.1,0,.2-.1,.3,0,.1-.1,.1-.2,.2h-.2Z" style="fill: #333;"/>
  <path d="M120.3,578.5v5.8h-.7v-5.8h.7Z" style="fill: #212121;"/>
  <path d="M122.3,581.7v2.6h-.7v-4.3h.7v.7h.1c.1-.2,.3-.4,.5-.5s.5-.2,.8-.2,.5,.1,.8,.2c.2,.1,.4,.3,.5,.5,.1,.3,.2,.6,.2,.9v2.8h-.7v-2.7c0-.3-.1-.6-.3-.8-.2-.2-.5-.3-.7-.3s-.4,0-.6,.1-.3,.2-.4,.4c-.1,.2-.2,.4-.2,.6Z" style="fill: #212121;"/>
  <path d="M128.3,580v.6h-2.4v-.6h2.4Zm-1.7,4.4v-5c0-.2,.1-.4,.2-.6,.1-.2,.3-.3,.5-.4,.2-.1,.4-.1,.6-.1h.4c.1,0,.2,0,.2,.1l-.2,.6h-.3c-.2,0-.4,0-.5,.2-.1,.1-.2,.3-.1,.5v4.8l-.8-.1h0Z" style="fill: #212121;"/>
  <path d="M130.8,584.4c-.4,0-.7-.1-1-.3s-.5-.5-.7-.8c-.2-.4-.3-.8-.2-1.2,0-.4,.1-.8,.2-1.2,.2-.3,.4-.6,.7-.8s.6-.3,1-.3,.7,.1,1,.3,.5,.5,.7,.8c.2,.4,.3,.8,.2,1.2,0,.4-.1,.8-.2,1.2-.2,.3-.4,.6-.7,.8-.3,.2-.6,.3-1,.3Zm0-.6c.3,0,.5-.1,.7-.2,.2-.2,.3-.4,.4-.6,.1-.3,.1-.5,.1-.8s0-.6-.1-.8-.2-.4-.4-.6c-.2-.2-.5-.2-.7-.2-.3,0-.5,.1-.7,.2-.2,.2-.3,.4-.4,.6-.1,.3-.1,.5-.1,.8s0,.6,.1,.8,.2,.4,.4,.6c.2,.2,.5,.2,.7,.2Z" style="fill: #212121;"/>
  <path d="M133.8,584.3v-4.3h.6v.7h0c.1-.2,.2-.4,.4-.5s.5-.2,.7-.2h.4v.7h-.4c-.2,0-.4,0-.6,.1-.2,.1-.3,.2-.4,.4-.1,.2-.1,.3-.1,.5v2.8l-.6-.2Z" style="fill: #212121;"/>
  <path d="M136.8,584.3v-4.3h.6v.7h.1c.1-.2,.2-.4,.4-.5s.5-.2,.7-.2c.3,0,.5,.1,.7,.2,.2,.1,.4,.3,.4,.5h0c.1-.2,.3-.4,.5-.5s.5-.2,.8-.2c.4,0,.7,.1,1,.4,.3,.3,.4,.7,.4,1.1v2.9h-.7v-2.9c0-.3-.1-.5-.3-.7-.2-.1-.4-.2-.6-.2-.3,0-.5,.1-.7,.3s-.3,.4-.2,.7v2.8h-.7v-3c0-.2-.1-.4-.2-.6-.2-.2-.4-.2-.6-.2s-.3,0-.5,.1-.3,.2-.4,.4c-.1,.2-.1,.4-.1,.6v2.7l-.6-.1Z" style="fill: #212121;"/>
  <path d="M145,584.5c-.3,0-.5,0-.8-.2-.2-.1-.4-.3-.5-.5s-.2-.5-.2-.7,0-.4,.1-.6c.1-.2,.2-.3,.4-.4,.2-.1,.4-.2,.6-.2s.4-.1,.6-.1l.6-.1c.1,0,.2,0,.4-.1,.1,0,.1-.1,.1-.2h0c0-.2-.1-.5-.2-.7-.2-.2-.4-.2-.7-.2-.5,0-.9,.2-1.1,.7l-.6-.2c.1-.2,.3-.5,.5-.6s.4-.2,.6-.3c.2-.1,.4-.1,.7-.1h.5c.2,0,.4,.1,.5,.2,.2,.1,.3,.3,.4,.5,.1,.3,.2,.5,.2,.8v2.9h-.7v-.6h0c-.1,.1-.1,.2-.2,.3-.1,.1-.3,.2-.4,.3-.3,0-.6,.1-.8,.1Zm.1-.6c.2,0,.5,0,.7-.2,.2-.1,.3-.2,.4-.4,.1-.2,.1-.3,.1-.5v-.6c-.1,0-.1,.1-.2,.1l-.3,.1h-.7c-.2,0-.3,0-.5,.1-.1,.1-.3,.1-.4,.2-.1,.1-.1,.3-.1,.4,0,.2,.1,.4,.3,.5,.2,.1,.5,.2,.7,.3h0Z" style="fill: #212121;"/>
  <path d="M150,584.4c-.4,0-.7-.1-1.1-.3-.3-.2-.5-.5-.7-.8-.2-.4-.2-.8-.2-1.2s.1-.8,.2-1.2c.2-.3,.4-.6,.7-.8s.6-.3,1-.3c.3,0,.6,.1,.8,.2,.2,.1,.5,.3,.6,.5,.2,.2,.3,.5,.3,.7h-.6c-.1-.2-.2-.4-.3-.5-.2-.2-.5-.2-.7-.2s-.5,.1-.7,.2c-.2,.1-.4,.3-.5,.6s-.2,.6-.2,.9,0,.6,.2,.9c.1,.2,.3,.4,.4,.6,.2,.1,.4,.2,.7,.2,.2,0,.3,0,.5-.1,.1-.1,.3-.1,.4-.3,.1-.1,.2-.3,.2-.4h.7c0,.2-.1,.5-.3,.7s-.4,.4-.6,.5c-.2,.1-.5,.1-.8,.1Z" style="fill: #212121;"/>
  <path d="M153.1,579.3c-.1,0-.2-.1-.3-.1-.1-.1-.1-.2-.1-.3s.1-.2,.1-.3c.2-.2,.5-.2,.7,0,.1,.1,.1,.2,.1,.3s0,.2-.1,.3c-.2,0-.3,.1-.4,.1Zm-.4,5.1v-4.4h.7v4.4h-.7Z" style="fill: #212121;"/>
  <path d="M156.4,584.4c-.7,0-1.4-.4-1.7-1.1-.2-.4-.3-.8-.2-1.2,0-.4,.1-.8,.2-1.2,.3-.7,1-1.1,1.7-1.1,.4,0,.7,.1,1,.3s.5,.5,.7,.8c.2,.4,.3,.8,.2,1.2,0,.4-.1,.8-.2,1.2-.2,.3-.4,.6-.7,.8-.3,.2-.6,.3-1,.3Zm0-.6c.3,0,.5-.1,.7-.2,.2-.2,.3-.4,.4-.6,.1-.3,.1-.5,.1-.8s0-.6-.1-.8-.2-.4-.4-.6c-.2-.2-.5-.2-.7-.2-.3,0-.5,.1-.7,.2-.2,.2-.3,.4-.4,.6-.1,.3-.1,.5-.1,.8s0,.6,.1,.8,.2,.4,.4,.6c.2,.2,.4,.2,.7,.2Zm-.3-4.4l.7-1.3h.8l-.9,1.3h-.6Z" style="fill: #212121;"/>
  <path d="M160.1,581.7v2.6h-.7v-4.3h.6v.7h0c.1-.2,.3-.4,.5-.5s.5-.2,.8-.2,.5,.1,.8,.2c.2,.1,.4,.3,.5,.5,.1,.3,.2,.6,.2,.9v2.8h-.7v-2.7c0-.3-.1-.6-.3-.8s-.5-.3-.7-.3-.4,0-.6,.1c-.2,.1-.3,.2-.4,.4,0,.2,0,.4,0,.6Z" style="fill: #212121;"/>
  <path d="M169.4,581l-.6,.2c0-.1-.1-.2-.2-.3-.1-.1-.2-.2-.3-.2-.2-.1-.3-.1-.5-.1s-.5,.1-.7,.2c-.2,.1-.3,.3-.3,.5s.1,.3,.2,.4c.2,.1,.4,.2,.6,.2l.6,.2c.3,.1,.6,.2,.9,.4,.2,.2,.3,.5,.3,.8,0,.2-.1,.5-.2,.7-.2,.2-.4,.4-.6,.5-.3,.1-.6,.2-.9,.2-.4,0-.8-.1-1.1-.3s-.5-.5-.6-.8l.6-.2c0,.2,.2,.4,.4,.5s.4,.2,.7,.2,.5-.1,.7-.2c.2-.1,.3-.3,.3-.5,0-.1-.1-.3-.2-.4-.1-.1-.3-.2-.5-.2l-.7-.2c-.3-.1-.6-.2-.9-.4-.2-.2-.3-.5-.3-.8,0-.2,.1-.5,.2-.7,.1-.2,.3-.4,.6-.5s.5-.2,.8-.2c.4,0,.7,.1,1,.3,.4,.1,.6,.4,.7,.7Z" style="fill: #212121;"/>
  <path d="M172.3,584.4c-.4,0-.7-.1-1-.3s-.5-.5-.7-.8c-.2-.4-.3-.8-.2-1.2,0-.4,.1-.8,.2-1.2,.1-.3,.4-.6,.7-.8,.6-.4,1.4-.4,2.1,0,.3,.2,.5,.5,.7,.8,.2,.4,.3,.8,.2,1.2,0,.4-.1,.8-.2,1.2-.1,.3-.4,.6-.7,.8-.4,.3-.7,.4-1.1,.3Zm0-.6c.3,0,.5-.1,.7-.2,.2-.2,.3-.4,.4-.6,.1-.3,.1-.5,.1-.8s0-.6-.1-.8-.2-.5-.4-.6c-.4-.3-1-.3-1.5,0-.2,.2-.3,.4-.4,.6-.1,.3-.1,.5-.1,.8s0,.6,.1,.8,.2,.5,.4,.6c.3,.2,.5,.2,.8,.2Z" style="fill: #212121;"/>
  <path d="M175.4,584.3v-5.8h.7v2.2h0c.1-.1,.1-.2,.2-.3,.1-.1,.2-.2,.4-.3s.4-.2,.7-.1c.4,0,.7,.1,1,.3s.5,.5,.7,.8c.2,.4,.3,.8,.2,1.2,0,.4-.1,.8-.2,1.2-.1,.3-.4,.6-.6,.8-.3,.2-.6,.3-1,.3-.2,0-.5,0-.7-.1s-.3-.2-.4-.3l-.2-.3h0v.7l-.8-.3Zm.6-2.1c0,.3,0,.6,.1,.9,.1,.2,.2,.4,.4,.6,.4,.3,1,.3,1.4,0,.2-.2,.3-.4,.4-.6,.1-.3,.2-.6,.1-.8,0-.3,0-.6-.1-.8s-.2-.4-.4-.6c-.2-.2-.5-.2-.7-.2s-.5,.1-.7,.2c-.2,.1-.3,.3-.4,.6,0,.1-.1,.4-.1,.7h0Z" style="fill: #212121;"/>
  <path d="M180.2,584.3v-4.3h.6v.7h0c.1-.2,.2-.4,.4-.5s.5-.2,.7-.2h.4v.7h-.3c-.2,0-.4,0-.6,.1-.2,.1-.3,.2-.4,.4-.1,.2-.1,.3-.1,.5v2.8l-.7-.2Z" style="fill: #212121;"/>
  <path d="M184.9,584.4c-.4,0-.8-.1-1.1-.3s-.5-.5-.7-.8c-.3-.8-.3-1.6,0-2.4,.2-.3,.4-.6,.7-.8s.6-.3,1-.3c.2,0,.5,0,.7,.1s.4,.2,.6,.4c.2,.2,.3,.4,.4,.7,.1,.3,.2,.7,.2,1v.3h-3.4v-.6h2.7c0-.2,0-.4-.1-.7-.1-.2-.2-.4-.4-.5s-.4-.2-.6-.2-.5,.1-.7,.2c-.2,.1-.3,.3-.4,.5-.1,.2-.2,.4-.1,.7v.4c0,.3,0,.6,.2,.8,.1,.2,.3,.4,.5,.5s.5,.2,.7,.2,.3,0,.5-.1c.1,0,.3-.1,.4-.2,.1-.1,.2-.2,.2-.4l.6,.2c-.1,.2-.2,.4-.3,.6-.2,.2-.4,.3-.6,.4-.5,.3-.7,.3-1,.3Z" style="fill: #212121;"/>
  <path d="M193.1,581l-.6,.2c0-.1-.1-.2-.2-.3-.1-.1-.2-.2-.3-.2-.2-.1-.3-.1-.5-.1s-.5,.1-.7,.2c-.2,.1-.3,.3-.3,.5s.1,.3,.2,.4c.2,.1,.4,.2,.6,.2l.6,.2c.3,.1,.6,.2,.9,.4,.2,.2,.3,.5,.3,.8,0,.2-.1,.5-.2,.7-.2,.2-.4,.4-.6,.5-.3,.1-.6,.2-.9,.2-.4,0-.8-.1-1.1-.3s-.5-.5-.6-.8l.6-.2c0,.2,.2,.4,.4,.5s.4,.2,.7,.2,.5-.1,.7-.2c.2-.1,.3-.3,.3-.5,0-.1-.1-.3-.2-.4-.1-.1-.3-.2-.5-.2l-.7-.2c-.3-.1-.6-.2-.9-.4-.2-.2-.3-.5-.3-.8,0-.2,.1-.5,.2-.7,.1-.2,.3-.4,.6-.5s.5-.2,.8-.2c.4,0,.7,.1,1,.3,.4,.1,.6,.4,.7,.7Z" style="fill: #212121;"/>
  <path d="M196,584.4c-.4,0-.8-.1-1.1-.3s-.5-.5-.7-.8c-.3-.8-.3-1.6,0-2.4,.2-.3,.4-.6,.7-.8s.6-.3,1-.3c.2,0,.5,0,.7,.1s.4,.2,.6,.4c.2,.2,.3,.4,.4,.7,.1,.3,.2,.7,.2,1v.3h-3.4v-.6h2.7c0-.2,0-.4-.1-.7-.1-.2-.2-.3-.4-.5-.2-.1-.4-.2-.6-.2s-.5,.1-.7,.2c-.2,.1-.3,.3-.4,.5-.1,.2-.2,.4-.1,.7v.4c0,.3,.1,.6,.2,.8,.1,.2,.3,.4,.5,.5s.5,.2,.7,.2,.3,0,.5-.1c.1,0,.3-.1,.4-.2,.1-.1,.2-.2,.2-.4l.6,.2c-.1,.2-.2,.4-.3,.6-.2,.2-.4,.3-.6,.4-.5,.3-.7,.3-1,.3Z" style="fill: #212121;"/>
  <path d="M200.6,586.1c-.3,0-.6,0-.8-.1s-.4-.2-.6-.3c-.1-.1-.3-.3-.4-.4l.5-.4,.2,.3c.1,.1,.2,.2,.4,.3s.4,.1,.6,.1c.3,0,.6-.1,.9-.3,.2-.2,.4-.5,.4-.8v-.9h-.1l-.2,.3c-.1,.1-.2,.2-.4,.3s-.4,.1-.7,.1c-.4,0-.7-.1-1-.2-.3-.2-.5-.4-.7-.7-.2-.4-.3-.8-.2-1.2,0-.4,.1-.8,.2-1.2,.1-.3,.4-.6,.7-.8s.6-.3,1-.3c.2,0,.5,0,.7,.1,.1,.1,.3,.2,.4,.3,.1,.1,.1,.2,.2,.3h.1v-.6h.6v4.5c0,.3-.1,.6-.3,.9-.2,.2-.4,.4-.7,.5-.2,.1-.5,.2-.8,.2Zm0-2.4c.2,0,.5-.1,.7-.2,.2-.1,.3-.3,.4-.5,.1-.3,.2-.5,.1-.8,0-.3,0-.6-.1-.8s-.2-.4-.4-.6c-.2-.1-.4-.2-.7-.2s-.5,.1-.7,.2c-.2,.1-.3,.3-.4,.6-.2,.5-.2,1.1,0,1.6,.1,.2,.2,.4,.4,.5s.4,.2,.7,.2h0Z" style="fill: #212121;"/>
  <path d="M206.5,582.6v-2.6h.7v4.4h-.7v-.7h-.1c-.1,.2-.3,.4-.5,.6-.5,.3-1.1,.3-1.5,0-.2-.1-.4-.3-.5-.5-.1-.3-.2-.6-.2-.9v-2.9h.7v2.7c0,.3,.1,.6,.3,.8s.4,.3,.7,.3c.2,0,.4,0,.5-.1,.2-.1,.3-.2,.4-.4,.1-.3,.2-.5,.2-.7Z" style="fill: #212121;"/>
  <path d="M208.4,584.3v-4.3h.6v.7h.1c.1-.2,.2-.4,.4-.5s.5-.2,.7-.2h.4v.7h-.4c-.2,0-.4,0-.6,.1-.2,.1-.3,.2-.4,.4-.1,.2-.2,.3-.1,.5v2.8l-.7-.2Z" style="fill: #212121;"/>
  <path d="M211.7,579.3c-.1,0-.2-.1-.3-.1-.1-.1-.1-.2-.1-.3s.1-.2,.1-.3c.2-.2,.5-.2,.7,0,.1,.1,.1,.2,.1,.3s0,.2-.1,.3c-.2,0-.3,.1-.4,.1Zm-.4,5.1v-4.4h.7v4.4h-.7Z" style="fill: #212121;"/>
  <path d="M214.9,584.4c-.4,0-.7-.1-1-.3s-.5-.5-.6-.8c-.2-.4-.2-.8-.2-1.2s.1-.8,.2-1.2c.1-.3,.4-.6,.7-.8s.6-.3,1-.3c.2,0,.5,0,.7,.1s.3,.2,.4,.3c.1,.1,.1,.2,.2,.3h.1v-2.2h.7v5.8h-.6v-.7h-.1l-.4,.6c-.1,.1-.2,.2-.4,.3-.2,.1-.5,.1-.7,.1Zm.1-.6c.2,0,.5-.1,.7-.2,.2-.2,.3-.4,.4-.6,.1-.3,.2-.6,.1-.9,0-.3,0-.6-.1-.9-.1-.2-.2-.4-.4-.6-.2-.1-.4-.2-.7-.2s-.5,.1-.7,.2c-.2,.2-.3,.4-.4,.6-.1,.3-.1,.5-.1,.8s0,.6,.1,.8,.2,.4,.4,.6c.2,.4,.4,.5,.7,.4h0Z" style="fill: #212121;"/>
  <path d="M219.5,584.5c-.3,0-.5,0-.8-.2-.2-.1-.4-.2-.5-.5-.1-.2-.2-.5-.2-.7s0-.4,.1-.6c.1-.2,.2-.3,.4-.4,.2-.1,.4-.2,.6-.2s.4-.1,.6-.1l.6-.1c.1,0,.2,0,.4-.1,.1,0,.1-.1,.1-.2h0c0-.2-.1-.5-.2-.7-.2-.2-.4-.2-.7-.2s-.5,.1-.8,.2c-.2,.1-.3,.3-.4,.5l-.6-.2c.1-.2,.3-.5,.5-.6s.4-.3,.6-.3c.2-.1,.4-.1,.7-.1h.5c.2,0,.4,.1,.5,.2,.2,.1,.3,.3,.4,.5,.1,.3,.2,.5,.2,.8v2.9h-.7v-.6h0c-.1,.1-.1,.2-.2,.3-.1,.1-.3,.2-.4,.3-.2,0-.5,.1-.7,.1Zm.1-.6c.2,0,.5,0,.7-.2,.2-.1,.3-.2,.4-.4,.1-.2,.1-.3,.1-.5v-.6c-.1,0-.1,.1-.2,.1s-.2,.1-.3,.1h-.7c-.2,0-.3,0-.5,.1-.1,0-.3,.1-.4,.2-.1,.1-.1,.3-.1,.4,0,.2,.1,.4,.3,.5,.2,.1,.4,.2,.7,.3h0Z" style="fill: #212121;"/>
  <path d="M224.4,584.4c-.4,0-.7-.1-1-.3s-.5-.5-.6-.8c-.2-.4-.2-.8-.2-1.2s.1-.8,.2-1.2c.1-.3,.4-.6,.6-.8,.3-.2,.6-.3,1-.3,.2,0,.5,0,.7,.1,.1,.1,.3,.2,.4,.3,.1,.1,.1,.2,.2,.3h.1v-2.2h.7v5.8h-.6v-.7h-.1l-.2,.3c-.1,.1-.2,.2-.4,.3-.4,.4-.6,.4-.8,.4Zm0-.6c.2,0,.5-.1,.7-.2,.2-.2,.3-.4,.4-.6,.1-.3,.1-.6,.1-.9s0-.6-.1-.9c-.1-.2-.2-.4-.4-.6-.2-.1-.4-.2-.7-.2s-.5,.1-.7,.2c-.2,.2-.3,.4-.4,.6-.1,.3-.1,.5-.1,.8s0,.6,.1,.8,.2,.4,.4,.6c.2,.4,.5,.4,.7,.4Z" style="fill: #212121;"/>
  <path d="M126.6,514.3h-1c-.1-.3-.2-.6-.3-.8-.1-.2-.3-.4-.6-.6-.2-.2-.5-.3-.7-.4-.3-.1-.6-.1-.8-.1-.5,0-1,.1-1.4,.4-.4,.3-.8,.7-1,1.2-.5,1.2-.5,2.6,0,3.8,.2,.5,.6,.9,1,1.2s.9,.4,1.4,.4c.3,0,.6,0,.8-.1,.3-.1,.5-.2,.7-.4s.4-.4,.6-.6c.2-.2,.3-.5,.3-.8h1c-.1,.4-.2,.8-.4,1.2-.2,.3-.5,.7-.8,.9s-.6,.4-1,.6c-.4,.1-.8,.2-1.2,.2-.7,0-1.4-.2-2-.5-.6-.4-1.1-.9-1.4-1.5-.7-1.5-.7-3.2,0-4.8,.3-.6,.8-1.2,1.4-1.5,.6-.4,1.3-.6,2-.5,.4,0,.8,.1,1.2,.2,.4,.1,.7,.3,1,.6,.3,.2,.6,.6,.8,.9,.2,.2,.3,.6,.4,1Z" style="fill: #f60;"/>
  <path d="M128.3,520.3v-8.7h2.9c.6,0,1.2,.1,1.7,.4,.4,.2,.8,.5,1,1,.2,.4,.3,.9,.3,1.4s-.1,.9-.3,1.4c-.2,.4-.6,.7-1,.9-.5,.2-1.1,.4-1.7,.3h-2.4v-1h2.4c.4,0,.8,0,1.1-.2,.3-.1,.5-.3,.6-.6s.2-.6,.2-.9-.1-.6-.2-.9c-.1-.3-.4-.5-.6-.6-.4-.2-.7-.2-1.1-.2h-1.9v7.8l-1-.1Zm4.1-3.9l2.1,3.9h-1.2l-2.1-3.9h1.2Z" style="fill: #f60;"/>
  <path d="M136,520.3v-8.7h5.3v.9h-4.3v3h4v.9h-4v3h4.3v.9h-5.3Z" style="fill: #f60;"/>
  <path d="M143.5,520.3h-1.1l3.2-8.7h1.1l3.2,8.7h-1.1l-2.6-7.3h-.1l-2.6,7.3Zm.4-3.4h4.5v.9h-4.5v-.9Zm1.8-6.2l1-2h1.2l-1.3,2h-.9Z" style="fill: #f60;"/>
  <path d="M154.2,512.5v-.9h6.5v.9h-2.7v7.8h-1.1v-7.8h-2.7Z" style="fill: #f60;"/>
  <path d="M168.1,511.6h1.1v5.8c0,.6-.1,1.1-.4,1.6-.3,.5-.7,.8-1.2,1.1-1.1,.5-2.4,.5-3.6,0-.5-.3-.9-.6-1.2-1.1s-.4-1-.4-1.6v-5.8h1.1v5.7c0,.4,.1,.8,.3,1.1s.5,.6,.8,.8c.4,.2,.8,.3,1.2,.3s.9-.1,1.2-.3,.6-.4,.8-.8c.2-.3,.3-.7,.3-1.1v-5.7Z" style="fill: #f60;"/>
  <path d="M176,513.8c0-.4-.3-.8-.6-1-.4-.2-.9-.4-1.3-.4-.3,0-.7,.1-1,.2-.3,.1-.5,.3-.7,.5s-.2,.5-.2,.8c0,.2,.1,.4,.2,.6,.1,.2,.3,.3,.4,.4,.2,.1,.4,.2,.6,.3l.5,.2,.9,.2c.2,.1,.5,.1,.8,.2,.3,.1,.6,.3,.8,.4,.3,.2,.5,.4,.6,.7,.2,.3,.3,.7,.2,1,0,.5-.1,.9-.4,1.3-.3,.4-.6,.7-1.1,.9s-1.1,.4-1.7,.3c-.6,0-1.1-.1-1.6-.3-.4-.2-.8-.5-1.1-.8-.3-.4-.4-.8-.4-1.3h1.1c0,.3,.1,.6,.3,.8s.5,.4,.8,.5,.7,.2,1,.2c.4,0,.7-.1,1.1-.2,.3-.1,.6-.3,.8-.6,.2-.2,.3-.5,.3-.8s-.1-.5-.2-.7c-.2-.2-.4-.3-.6-.4-.3-.1-.6-.2-.9-.3l-1.1-.3c-.6-.2-1.1-.4-1.6-.8-.4-.4-.6-.9-.6-1.4s.1-.9,.4-1.3c.3-.4,.6-.7,1.1-.9,.5-.2,1-.3,1.5-.3s1,.1,1.5,.3c.4,.2,.7,.5,1,.8,.3,.3,.4,.8,.4,1.2h-1.2Z" style="fill: #f60;"/>
  <path d="M189.3,514.3h-1.1c-.1-.6-.4-1-.9-1.4-.2-.2-.5-.3-.7-.4-.3-.1-.6-.1-.8-.1-.5,0-1,.1-1.4,.4-.4,.3-.8,.7-1,1.2-.5,1.2-.5,2.6,0,3.8,.2,.5,.6,.9,1,1.2s.9,.4,1.4,.4c.3,0,.6,0,.8-.1,.3-.1,.5-.2,.7-.4s.4-.4,.6-.6c.2-.2,.3-.5,.3-.8h1.1c-.1,.4-.2,.8-.4,1.2-.2,.3-.5,.6-.8,.9-.3,.2-.7,.4-1.1,.6-.4,.1-.8,.2-1.2,.2-.7,0-1.4-.2-2-.5-.6-.4-1.1-.9-1.4-1.5-.7-1.5-.7-3.2,0-4.8,.3-.6,.8-1.2,1.4-1.6,.6-.4,1.3-.6,2-.5,.4,0,.8,.1,1.2,.2s.7,.3,1.1,.6c.3,.3,.6,.6,.8,.9,.2,.3,.3,.7,.4,1.1Z" style="fill: #f60;"/>
  <path d="M191,520.3v-8.7h1.1v7.8h4.1v.9h-5.2Z" style="fill: #f60;"/>
  <path d="M198.6,520.3h-1.1l3.2-8.7h1.1l3.2,8.7h-1.1l-2.6-7.3h-.1l-2.6,7.3Zm.5-3.4h4.5v.9h-4.5v-.9Z" style="fill: #f60;"/>
  <path d="M206,511.6l2.6,7.4h.1l2.6-7.4h1.1l-3.2,8.7h-1.1l-3.2-8.7h1.1Z" style="fill: #f60;"/>
  <path d="M213.7,520.3v-8.7h5.3v.9h-4.2v3h3.9v.9h-3.9v3h4.2v.9h-5.3Z" style="fill: #f60;"/>
  <path d="M225.6,513.8c0-.4-.3-.8-.6-1-.4-.3-.9-.4-1.3-.4-.3,0-.7,.1-1,.2-.3,.1-.5,.3-.7,.5s-.2,.5-.2,.8c0,.2,0,.4,.2,.6,.1,.2,.3,.3,.4,.4,.2,.1,.4,.2,.6,.3l.5,.2,.9,.2c.2,.1,.5,.1,.8,.2,.3,.1,.6,.3,.8,.4,.3,.2,.5,.4,.6,.7,.2,.3,.3,.7,.2,1,0,.5-.1,.9-.4,1.3-.3,.4-.6,.7-1.1,.9s-1.1,.4-1.7,.3c-.6,0-1.1-.1-1.6-.3-.4-.2-.8-.5-1.1-.8-.3-.4-.4-.8-.4-1.3h1.1c0,.3,.1,.6,.3,.8s.5,.4,.7,.5c.3,.1,.7,.2,1,.2,.4,0,.7-.1,1.1-.2,.3-.1,.6-.3,.8-.6,.2-.2,.3-.5,.3-.8s-.1-.5-.2-.7c-.2-.2-.4-.3-.6-.4-.3-.1-.6-.2-.9-.3l-1.1-.3c-.6-.2-1.1-.4-1.6-.8-.4-.4-.6-.9-.6-1.4s.1-.9,.4-1.3c.3-.4,.7-.7,1.1-.9,.5-.2,1-.3,1.5-.3s1,.1,1.5,.3c.4,.2,.7,.5,1,.8,.3,.3,.4,.8,.4,1.2h-1.1Z" style="fill: #f60;"/>
</svg>