<?xml version="1.0" encoding="UTF-8"?>
<svg id="Capa_1" data-name="Capa 1" xmlns="http://www.w3.org/2000/svg" viewBox="0 0 346 633">
  <line y1="191.6" x2="346" y2="191.6" style="fill: none; stroke: #c9c9c9; stroke-miterlimit: 10;"/>
  <path d="M4.1,263.5H341.8c2.3,0,4.1,1.9,4.1,4.1v25.7c0,2.3-1.9,4.1-4.1,4.1H4.1c-2.3,0-4.1-1.9-4.1-4.1v-25.7c0-2.2,1.9-4.1,4.1-4.1Z" style="fill: #ededed;"/>
  <path d="M136,279.3h-1c-.1-.3-.2-.6-.3-.8-.1-.2-.3-.4-.6-.6-.2-.2-.5-.3-.7-.4-.3-.1-.6-.1-.8-.1-.5,0-1,.1-1.4,.4s-.8,.7-1,1.2c-.5,1.2-.5,2.6,0,3.8,.2,.5,.6,.9,1,1.2,.4,.3,.9,.4,1.4,.4,.3,0,.6,0,.8-.1s.4-.2,.6-.3c.2-.2,.4-.4,.6-.6,.2-.2,.3-.5,.3-.8h1c-.1,.4-.2,.8-.4,1.2-.2,.3-.5,.7-.8,.9-.3,.2-.6,.4-1,.6-.4,.1-.8,.2-1.2,.2-.7,0-1.4-.2-2-.5-.6-.4-1.1-.9-1.4-1.5-.7-1.5-.7-3.2,0-4.8,.3-.6,.8-1.2,1.4-1.5,.6-.4,1.3-.6,2-.5,.4,0,.8,.1,1.2,.2s.7,.3,1,.6c.3,.2,.6,.6,.8,.9,.2,.1,.4,.5,.5,.9Z" style="fill: #6a6a6a;"/>
  <path d="M145,280.9c0,.8-.2,1.6-.5,2.4-.3,.6-.8,1.2-1.4,1.5-1.2,.7-2.8,.7-4,0-.6-.4-1.1-.9-1.4-1.5-.7-1.5-.7-3.2,0-4.8,.3-.6,.8-1.2,1.4-1.5,1.2-.7,2.8-.7,4,0,.6,.4,1.1,.9,1.4,1.5,.3,.8,.5,1.6,.5,2.4Zm-1,0c0-.7-.1-1.3-.4-1.9-.2-.5-.6-.9-1-1.2-.4-.3-.9-.4-1.4-.4s-1,.1-1.4,.4-.8,.7-1,1.2c-.5,1.2-.5,2.6,0,3.8,.2,.5,.6,.9,1,1.2,.4,.3,.9,.4,1.4,.4s1-.1,1.4-.4,.8-.7,1-1.2c.3-.5,.4-1.2,.4-1.9Z" style="fill: #6a6a6a;"/>
  <path d="M153.7,276.6v8.7h-1l-4.8-6.9h-.1v6.9h-1.1v-8.7h1l4.8,6.9h.1v-6.9h1.1Z" style="fill: #6a6a6a;"/>
  <path d="M155.4,277.5v-.9h6.6v.9h-2.8v7.8h-1.1v-7.8h-2.7Z" style="fill: #6a6a6a;"/>
  <path d="M164.6,276.6v8.7h-1.1v-8.7h1.1Z" style="fill: #6a6a6a;"/>
  <path d="M173.6,276.6v8.7h-1l-4.8-6.9h-.1v6.9h-1.1v-8.7h1l4.8,6.9h.1v-6.9h1.1Z" style="fill: #6a6a6a;"/>
  <path d="M181.5,276.6h1.1v5.8c0,.6-.1,1.1-.4,1.6-.3,.5-.7,.8-1.2,1.1-1.1,.5-2.4,.5-3.6,0-.5-.3-.9-.6-1.2-1.1s-.4-1-.4-1.6v-5.8h1v5.7c0,.4,.1,.8,.3,1.1,.2,.3,.5,.6,.8,.8,.4,.2,.8,.3,1.2,.3s.9-.1,1.2-.3c.3-.2,.6-.4,.8-.8,.2-.3,.3-.7,.3-1.1l.1-5.7Z" style="fill: #6a6a6a;"/>
  <path d="M185,285.3h-1.1l3.2-8.7h1.1l3.2,8.7h-1.1l-2.6-7.3h-.1l-2.6,7.3Zm.4-3.4h4.5v.9h-4.5v-.9Z" style="fill: #6a6a6a;"/>
  <path d="M192.8,285.3v-8.7h2.9c.6,0,1.2,.1,1.7,.4,.4,.2,.8,.5,1,1,.2,.4,.3,.9,.3,1.4s-.1,.9-.3,1.4c-.2,.4-.6,.7-1,.9-.5,.2-1.1,.4-1.7,.3h-2.4v-1h2.4c.4,0,.8-.1,1.1-.2s.5-.3,.6-.6c.1-.3,.2-.6,.2-.9s-.1-.6-.2-.9c-.1-.3-.4-.5-.6-.6-.4-.2-.7-.2-1.1-.2h-1.9v7.8l-1-.1Zm4.1-3.9l2.1,3.9h-1.2l-2.1-3.9h1.2Z" style="fill: #6a6a6a;"/>
  <path d="M87.3,330.9c0,.8-.2,1.6-.5,2.4-.3,.6-.8,1.2-1.4,1.5-1.2,.7-2.8,.7-4,0-.6-.4-1.1-.9-1.4-1.5-.7-1.5-.7-3.2,0-4.8,.3-.6,.8-1.2,1.4-1.6,1.2-.7,2.8-.7,4,0,.6,.4,1.1,.9,1.4,1.5,.3,.9,.5,1.7,.5,2.5Zm-1,0c0-.7-.1-1.3-.4-1.9-.2-.5-.6-.9-1-1.2-.4-.3-.9-.4-1.4-.4s-1,.1-1.4,.4-.8,.7-1,1.1c-.5,1.2-.5,2.6,0,3.8,.2,.5,.6,.9,1,1.2,.4,.3,.9,.4,1.4,.4s1-.1,1.4-.4,.8-.7,1-1.2c.2-.5,.4-1.1,.4-1.8h0Z" style="fill: #f60;"/>
  <path d="M89.1,335.3v-8.7h1.1v7.8h4.1v.9h-5.2Z" style="fill: #f60;"/>
  <path d="M95.3,326.6l2.6,7.4h.1l2.6-7.4h1.1l-3.2,8.7h-1l-3.2-8.7h1Z" style="fill: #f60;"/>
  <path d="M104.2,326.6v8.7h-1.1v-8.7h1.1Z" style="fill: #f60;"/>
  <path d="M109,335.3h-2.7v-8.7h2.8c.8,0,1.5,.2,2.2,.5,.6,.3,1.1,.9,1.4,1.5,.3,.7,.5,1.5,.5,2.3s-.1,1.6-.5,2.3c-.3,.6-.8,1.2-1.4,1.5-.7,.5-1.5,.6-2.3,.6Zm-1.6-.9h1.6c.6,0,1.2-.1,1.8-.4,.5-.3,.8-.7,1.1-1.2,.2-.6,.4-1.2,.3-1.8,0-.6-.1-1.2-.3-1.8-.2-.5-.6-.9-1-1.2-.5-.3-1.1-.4-1.7-.4h-1.7l-.1,6.8Z" style="fill: #f60;"/>
  <path d="M114.9,335.3v-8.7h5.3v.9h-4.2v3h3.9v.9h-3.9v3h4.3v.9h-5.4Zm2.2-9.6l1-2h1.2l-1.3,2h-.9Z" style="fill: #f60;"/>
  <path d="M132.8,330.9c0,.8-.2,1.6-.5,2.4-.3,.6-.8,1.2-1.4,1.5-1.2,.7-2.8,.7-4,0-.6-.4-1.1-.9-1.4-1.5-.7-1.5-.7-3.2,0-4.8,.3-.6,.8-1.2,1.4-1.6,1.2-.7,2.8-.7,4,0,.6,.4,1.1,.9,1.4,1.5,.4,.9,.5,1.7,.5,2.5Zm-1,0c0-.7-.1-1.3-.4-1.9-.2-.5-.6-.9-1-1.2-.9-.5-2-.5-2.9,0-.4,.3-.8,.7-1,1.2-.5,1.2-.5,2.6,0,3.8,.2,.5,.6,.9,1,1.2,.9,.5,2,.5,2.9,0,.4-.3,.8-.7,1-1.2,.3-.5,.4-1.2,.4-1.9h0Z" style="fill: #f60;"/>
  <path d="M138,335.3v-8.7h3c.5,0,1,.1,1.5,.3,.4,.2,.7,.5,.9,.8,.2,.4,.3,.8,.3,1.2,0,.3-.1,.6-.2,.9-.1,.2-.3,.4-.5,.6-.2,.1-.4,.2-.7,.3v.1c.3,0,.6,.1,.8,.3,.3,.2,.5,.4,.7,.7,.2,.4,.3,.8,.3,1.2s-.1,.8-.3,1.2c-.2,.4-.5,.7-.9,.8-.5,.2-1.1,.3-1.7,.3h-3.2Zm1-4.9h2c.3,0,.6-.1,.9-.2,.3-.1,.5-.3,.6-.5,.2-.2,.2-.5,.2-.8,0-.4-.1-.7-.4-1-.4-.3-.8-.4-1.3-.4h-2v2.9Zm0,4h2.1c.5,.1,1-.1,1.5-.4,.3-.3,.4-.6,.4-1,0-.3-.1-.6-.2-.8-.2-.3-.4-.5-.6-.6-.3-.2-.7-.2-1-.2h-2.2v3Z" style="fill: #f60;"/>
  <path d="M145.8,335.3v-8.7h1.1v7.8h4.1v.9h-5.2Z" style="fill: #f60;"/>
  <path d="M159.5,330.9c0,.8-.2,1.6-.5,2.4-.3,.6-.8,1.2-1.4,1.5-1.2,.7-2.8,.7-4,0-.6-.4-1.1-.9-1.4-1.5-.7-1.5-.7-3.2,0-4.8,.3-.6,.8-1.2,1.4-1.6,1.2-.7,2.8-.7,4,0,.6,.4,1.1,.9,1.4,1.5,.4,.9,.6,1.7,.5,2.5Zm-1,0c0-.7-.1-1.3-.4-1.9-.2-.5-.6-.9-1-1.2-.4-.3-.9-.4-1.4-.4s-1,.1-1.4,.4-.8,.7-1,1.2c-.5,1.2-.5,2.6,0,3.8,.2,.5,.6,.9,1,1.2,.4,.3,.9,.4,1.4,.4s1-.1,1.4-.4,.8-.7,1-1.2c.3-.5,.4-1.2,.4-1.9h0Z" style="fill: #f60;"/>
  <path d="M168.7,330.9c0,.8-.2,1.6-.5,2.4-.3,.6-.8,1.2-1.4,1.5-1.2,.7-2.8,.7-4,0-.6-.4-1.1-.9-1.4-1.5-.7-1.5-.7-3.2,0-4.8,.3-.6,.8-1.2,1.4-1.5,1.2-.7,2.8-.7,4,0,.6,.4,1.1,.9,1.4,1.5,.3,.8,.5,1.6,.5,2.4Zm-1,0c0-.7-.1-1.3-.4-1.9-.2-.5-.6-.9-1-1.2-.4-.3-.9-.4-1.4-.4s-1,.1-1.4,.4-.8,.7-1,1.2c-.5,1.2-.5,2.6,0,3.8,.2,.5,.6,.9,1,1.2,.4,.3,.9,.4,1.4,.4s1-.1,1.4-.4,.8-.7,1-1.2c.3-.5,.4-1.2,.4-1.9h0Zm-3.2,1.7h1.2l1,1.3,.2,.3,1.4,1.9h-1.2l-1-1.3-.2-.3-1.4-1.9Z" style="fill: #f60;"/>
  <path d="M176.2,326.6h1.1v5.8c0,.6-.1,1.1-.4,1.6-.3,.5-.7,.8-1.2,1.1-1.1,.5-2.4,.5-3.6,0-.5-.3-.9-.6-1.2-1.1s-.4-1-.4-1.6v-5.8h1.1v5.7c0,.4,.1,.8,.3,1.1,.2,.3,.5,.6,.8,.8,.8,.4,1.7,.4,2.5,0,.3-.2,.6-.4,.8-.8,.2-.3,.3-.7,.3-1.1l-.1-5.7Z" style="fill: #f60;"/>
  <path d="M179.3,335.3v-8.7h5.3v.9h-4.2v3h3.9v.9h-3.9v3h4.3v.9h-5.4Z" style="fill: #f60;"/>
  <path d="M186.5,335.3v-8.7h5.3v.9h-4.2v3h3.9v.9h-3.9v3h4.3v.9h-5.4Zm2.2-9.6l1-2h1.2l-1.3,2h-.9Z" style="fill: #f60;"/>
  <path d="M197.1,326.6h1.3l3,7.2h.1l3-7.2h1.3v8.7h-1v-6.6h-.1l-2.7,6.6h-.9l-2.7-6.6h-.1v6.6h-1l-.2-8.7Z" style="fill: #f60;"/>
  <path d="M208.8,326.6v8.7h-1.1v-8.7h1.1Z" style="fill: #f60;"/>
  <path d="M215.7,328.8c0-.4-.3-.8-.6-1-.4-.3-.9-.4-1.3-.4-.3,0-.7,.1-1,.2s-.5,.3-.7,.5-.2,.5-.2,.8c0,.2,0,.4,.2,.6,.1,.2,.3,.3,.4,.4,.2,.1,.4,.2,.6,.3l.5,.2,.9,.2c.2,.1,.5,.1,.8,.2s.6,.3,.8,.4c.3,.2,.5,.4,.6,.7,.2,.3,.3,.7,.2,1,0,.5-.1,.9-.4,1.3-.3,.4-.6,.7-1.1,.9-.5,.2-1.1,.4-1.7,.3-.6,0-1.1-.1-1.6-.3-.4-.2-.8-.5-1.1-.8-.3-.4-.4-.8-.4-1.3h1.1c0,.3,.1,.6,.3,.8,.2,.2,.5,.4,.7,.5,.3,.1,.7,.2,1,.2,.4,0,.7-.1,1.1-.2,.3-.1,.6-.3,.8-.6,.2-.2,.3-.5,.3-.8s-.1-.5-.2-.7c-.2-.2-.4-.3-.6-.4-.3-.1-.6-.2-.9-.3l-1.1-.3c-.6-.2-1.1-.4-1.6-.8-.4-.4-.6-.9-.6-1.4s.1-.9,.4-1.3c.3-.4,.6-.7,1.1-.9,.5-.2,1-.3,1.5-.3s1,.1,1.5,.3c.4,.2,.7,.5,1,.8s.4,.8,.4,1.2h-1.1Z" style="fill: #f60;"/>
  <path d="M229,329.3h-1.1c-.1-.3-.2-.6-.3-.8-.2-.2-.3-.4-.6-.6-.2-.2-.5-.3-.7-.4-.3-.1-.5-.1-.8-.1-.5,0-1,.1-1.4,.4s-.8,.7-1,1.2c-.5,1.2-.5,2.6,0,3.8,.2,.5,.6,.9,1,1.2,.4,.3,.9,.4,1.4,.4,.3,0,.6,0,.8-.1,.3-.1,.5-.2,.7-.3,.2-.2,.4-.4,.6-.6,.2-.2,.3-.5,.3-.8h1.1c-.1,.4-.2,.8-.4,1.2-.2,.3-.5,.6-.8,.9-.3,.2-.7,.4-1.1,.6-.4,.1-.8,.2-1.2,.2-.7,0-1.4-.2-2-.5-.6-.4-1.1-.9-1.4-1.5-.7-1.5-.7-3.2,0-4.8,.3-.6,.8-1.2,1.4-1.5,.6-.4,1.3-.6,2-.5,.4,0,.8,.1,1.2,.2s.7,.3,1.1,.6c.3,.3,.6,.6,.8,.9,.2,.1,.3,.5,.4,.9Z" style="fill: #f60;"/>
  <path d="M230.7,335.3v-8.7h1.1v7.8h4.1v.9h-5.2Z" style="fill: #f60;"/>
  <path d="M238.3,335.3h-1.1l3.2-8.7h1.1l3.2,8.7h-1.1l-2.6-7.3h-.1l-2.6,7.3Zm.4-3.4h4.5v.9h-4.5v-.9Z" style="fill: #f60;"/>
  <path d="M245.6,326.6l2.6,7.4h.1l2.6-7.4h1.1l-3.2,8.7h-1.1l-3.2-8.7h1.1Z" style="fill: #f60;"/>
  <path d="M253.4,335.3v-8.7h5.3v.9h-4.2v3h3.9v.9h-3.9v3h4.3v.9h-5.4Z" style="fill: #f60;"/>
  <path d="M265.3,328.8c0-.4-.3-.8-.6-1-.7-.4-1.6-.5-2.4-.2-.3,.1-.5,.3-.7,.5s-.2,.5-.2,.8c0,.2,.1,.4,.2,.6s.3,.3,.4,.4c.2,.1,.4,.2,.6,.3l.5,.2,.9,.2c.2,.1,.5,.1,.8,.2s.6,.3,.8,.4c.3,.2,.5,.4,.6,.7,.2,.3,.3,.7,.2,1,0,.5-.1,.9-.4,1.3s-.6,.7-1.1,.9c-.5,.2-1.1,.4-1.7,.3-.6,0-1.1-.1-1.6-.3-.4-.2-.8-.5-1.1-.8-.3-.4-.4-.8-.4-1.3h1.1c0,.3,.1,.6,.3,.8s.5,.4,.7,.5c.3,.1,.7,.2,1,.2,.4,0,.7-.1,1.1-.2,.3-.1,.6-.3,.8-.6,.2-.2,.3-.5,.3-.8s-.1-.5-.2-.7c-.2-.2-.4-.3-.6-.4-.3-.1-.6-.2-.9-.3l-1.1-.3c-.6-.2-1.1-.4-1.6-.8-.4-.4-.6-.9-.6-1.4s.1-.9,.4-1.3,.6-.7,1.1-.9c.5-.2,1-.3,1.5-.3s1,.1,1.5,.3c.4,.2,.7,.5,1,.8s.4,.8,.4,1.2h-1Z" style="fill: #f60;"/>
  <path d="M59.8,378.8c0-.4-.3-.8-.6-1-.4-.3-.9-.4-1.3-.4-.3,0-.7,.1-1,.2s-.5,.3-.7,.5-.2,.5-.2,.8c0,.2,.1,.4,.2,.6,.1,.2,.3,.3,.4,.4,.2,.1,.4,.2,.5,.3l.5,.2,.9,.2c.2,.1,.5,.1,.8,.2s.6,.3,.8,.4c.3,.2,.5,.4,.6,.7,.2,.3,.3,.7,.2,1,0,.5-.1,.9-.4,1.3-.3,.4-.6,.7-1.1,.9-.5,.2-1.1,.4-1.7,.3-.6,0-1.1-.1-1.6-.3-.4-.2-.8-.5-1.1-.8-.3-.4-.4-.8-.4-1.3h1.1c0,.3,.1,.6,.3,.8,.2,.2,.5,.4,.7,.5,.3,.1,.7,.2,1,.2,.4,0,.7-.1,1.1-.2,.3-.1,.6-.3,.8-.6,.2-.2,.3-.5,.3-.8s-.1-.5-.2-.7c-.2-.2-.4-.3-.6-.4-.3-.1-.6-.2-.8-.3l-1.1-.3c-.6-.2-1.1-.4-1.6-.8-.4-.4-.6-.9-.6-1.4s.1-.9,.4-1.3c.3-.4,.7-.7,1.1-.9,.5-.2,1-.3,1.5-.3s1,.1,1.5,.3c.4,.2,.7,.5,1,.8s.4,.8,.4,1.2h-1.1Z" style="fill: #333;"/>
  <path d="M62.6,385.3v-6.5h1v6.5h-1Zm0-7.4l1-2h1.2l-1.3,2h-.9Z" style="fill: #333;"/>
  <path d="M71.6,385.4c-.6,0-1.1-.1-1.6-.4-.4-.3-.8-.7-1-1.2-.3-.6-.4-1.2-.4-1.8s.1-1.2,.4-1.8c.2-.5,.6-.9,1-1.2,.5-.3,1-.4,1.6-.4,.3,0,.7,.1,1,.2s.6,.3,.9,.5c.3,.3,.5,.6,.7,1,.2,.5,.3,1,.2,1.5v.4h-5v-.9h4c0-.3-.1-.7-.2-1s-.4-.5-.6-.7c-.3-.2-.6-.3-1-.2-.4,0-.7,.1-1,.3-.3,.2-.5,.5-.7,.8s-.2,.7-.2,1v.6c0,.4,.1,.9,.3,1.3,.2,.3,.4,.6,.7,.8,.3,.2,.7,.3,1.1,.3,.2,0,.5,0,.7-.1s.4-.2,.6-.3c.2-.2,.3-.4,.4-.6l1,.3c-.1,.3-.3,.6-.5,.9-.3,.3-.6,.5-.9,.6-.7,.1-1.1,.1-1.5,.1Z" style="fill: #333;"/>
  <path d="M80.4,380.2l-.9,.2c-.1-.2-.1-.3-.2-.4s-.3-.3-.4-.4c-.2-.1-.5-.2-.7-.1-.4,0-.7,.1-1,.3-.2,.1-.4,.4-.4,.7,0,.2,.1,.4,.3,.6,.3,.2,.5,.3,.8,.4l1,.2c.5,.1,.9,.3,1.3,.6,.3,.3,.4,.7,.4,1.1s-.1,.7-.3,1c-.2,.3-.5,.6-.9,.7-.4,.2-.9,.3-1.3,.2-.6,0-1.2-.1-1.7-.4-.4-.3-.7-.7-.8-1.3l.9-.2c.1,.3,.3,.6,.5,.8,.3,.2,.6,.3,1,.3s.8-.1,1.1-.3c.3-.2,.4-.4,.4-.7,0-.2-.1-.4-.2-.6-.2-.2-.5-.3-.7-.3l-1.1-.3c-.5-.1-1-.3-1.3-.7-.5-.6-.6-1.5-.1-2.1,.2-.3,.5-.5,.8-.7,.4-.2,.8-.2,1.2-.2,.5,0,1.1,.1,1.5,.4,.4,.4,.7,.8,.8,1.2Z" style="fill: #333;"/>
  <path d="M88.3,378.8v.9h-3.4v-.9h3.4Zm-2.4-1.6h1v6.2c0,.2,0,.4,.1,.6,.1,.1,.2,.2,.3,.3,.1,0,.3,.1,.4,.1h.5l.2,.9c-.1,0-.2,.1-.3,.1h-.5c-.3,0-.6-.1-.8-.2-.3-.1-.5-.3-.7-.6-.2-.3-.3-.6-.3-.9l.1-6.5Z" style="fill: #333;"/>
  <path d="M93.9,382.6v-3.9h1v6.5h-1v-1.1h-.1c-.2,.3-.4,.6-.7,.9-.4,.2-.8,.4-1.2,.3-.4,0-.8-.1-1.1-.3-.3-.2-.6-.5-.8-.8-.2-.4-.3-.9-.3-1.4v-4.2h1v4.1c0,.4,.1,.8,.4,1.1,.3,.3,.6,.4,1,.4,.6,0,1.1-.3,1.4-.8,.3-.1,.4-.4,.4-.8Z" style="fill: #333;"/>
  <path d="M100.2,387.8v-9h1v1h.1c.1-.1,.2-.3,.3-.4,.2-.2,.3-.4,.6-.5,.3-.2,.7-.2,1-.2,.5,0,1,.1,1.5,.4,.4,.3,.8,.7,1,1.2,.2,.6,.4,1.2,.3,1.8,0,.6-.1,1.2-.3,1.8-.2,.5-.6,.9-1,1.2-.4,.3-.9,.4-1.4,.4-.3,0-.7-.1-1-.2-.2-.1-.4-.3-.6-.5-.1-.2-.2-.3-.3-.5h-.1v3.5h-1.1Zm1-5.8c0,.4,.1,.9,.2,1.3,.1,.3,.3,.7,.6,.9,.3,.2,.6,.3,1,.3s.8-.1,1.1-.3c.3-.2,.5-.6,.6-.9,.2-.4,.2-.8,.2-1.3,0-.4-.1-.8-.2-1.2-.1-.4-.3-.7-.6-.9-.6-.4-1.5-.4-2.1,0-.3,.2-.5,.5-.6,.9-.2,.4-.3,.8-.2,1.2h0Z" style="fill: #333;"/>
  <path d="M107.5,385.3v-6.5h1v1h.1c.1-.3,.4-.6,.7-.8,.3-.2,.6-.3,1-.3h.5v1h-.6c-.3,0-.6,.1-.8,.2-.2,.1-.5,.3-.6,.5s-.2,.5-.2,.8v4.1h-1.1Z" style="fill: #333;"/>
  <path d="M112.4,377.7c-.2,0-.4-.1-.5-.2-.3-.2-.3-.6-.1-.9l.1-.1c.3-.3,.7-.3,1,0,.3,.2,.3,.6,.1,.9l-.1,.1c-.1,.1-.3,.2-.5,.2Zm-.5,7.6v-6.5h1v6.5h-1Z" style="fill: #333;"/>
  <path d="M114.8,385.3v-6.5h1v1h.1c.1-.3,.4-.6,.7-.8,.3-.2,.7-.3,1.1-.3s.8,.1,1.1,.3c.3,.2,.5,.5,.7,.8h.1c.2-.3,.4-.6,.8-.8,.4-.2,.8-.3,1.2-.3,.5,0,1,.2,1.4,.5,.4,.5,.6,1.1,.6,1.7v4.4h-1v-4.4c0-.4-.1-.7-.4-1-.3-.2-.6-.3-.9-.3-.4,0-.8,.1-1.1,.4-.3,.3-.4,.7-.4,1v4.3h-1v-4.5c0-.3-.1-.7-.4-.9-.3-.2-.6-.4-.9-.3-.3,0-.5,.1-.7,.2s-.4,.3-.6,.6c-.1,.3-.2,.6-.2,.9v4.1l-1.2-.1Z" style="fill: #333;"/>
  <path d="M128,385.4c-.6,0-1.1-.1-1.6-.4-.4-.3-.8-.7-1-1.2-.3-.6-.4-1.2-.4-1.8s.1-1.2,.4-1.8c.2-.5,.6-.9,1-1.2,.5-.3,1-.4,1.6-.4,.3,0,.7,.1,1,.2s.6,.3,.9,.5c.3,.3,.5,.6,.6,1,.2,.5,.3,1,.2,1.5v.4h-5v-.9h4c0-.3-.1-.7-.2-1-.1-.3-.4-.5-.6-.7-.6-.4-1.4-.3-2,0-.3,.2-.5,.5-.7,.8s-.2,.7-.2,1v.6c0,.4,.1,.9,.3,1.3,.2,.3,.4,.6,.7,.8,.3,.2,.7,.3,1.1,.3,.2,0,.5,0,.7-.1s.4-.2,.6-.3c.2-.2,.3-.4,.4-.6l1,.3c-.1,.3-.3,.6-.5,.9-.3,.3-.6,.5-.9,.6-.6,.2-1,.2-1.4,.2Z" style="fill: #333;"/>
  <path d="M132.2,385.3v-6.5h1v1h.1c.1-.3,.4-.6,.6-.8,.3-.2,.7-.3,1.1-.3h.5v1h-.6c-.3,0-.6,.1-.9,.2-.5,.3-.8,.8-.8,1.3v4.1h-1Z" style="fill: #333;"/>
  <path d="M138.6,385.5c-.4,0-.8-.1-1.1-.2-.3-.2-.6-.4-.8-.7-.2-.3-.3-.7-.3-1.1,0-.6,.3-1.2,.8-1.5,.3-.1,.5-.2,.8-.3,.3-.1,.6-.1,.9-.2l1-.1c.2,0,.4-.1,.6-.1,.1-.1,.2-.2,.2-.3h0c0-.4-.1-.7-.3-1-.3-.2-.6-.4-1-.4s-.8,.1-1.1,.3c-.2,.2-.4,.4-.6,.7l-.9-.3c.1-.4,.4-.7,.7-.9,.3-.2,.6-.4,.9-.5,.3-.1,.7-.1,1-.1,.2,0,.5,0,.7,.1,.3,.1,.6,.2,.8,.3,.3,.2,.5,.4,.6,.7,.2,.4,.3,.8,.2,1.2v4.3h-1v-.9h-.1c-.1,.2-.2,.3-.3,.5-.2,.2-.4,.3-.6,.4-.4,0-.8,.1-1.1,.1Zm.2-.9c.3,0,.7-.1,1-.2s.5-.3,.6-.6c.1-.2,.2-.5,.2-.8v-1c-.1,.1-.2,.1-.3,.1-.2,0-.3,.1-.5,.1l-.5,.1h-.4c-.2,0-.5,.1-.7,.2s-.4,.2-.6,.3c-.1,.2-.2,.4-.2,.6,0,.3,.1,.6,.4,.8,.3,.3,.6,.4,1,.4Z" style="fill: #333;"/>
  <path d="M152.2,378.8l-2.4,6.5h-1l-2.4-6.5h1.1l1.8,5.2h.1l1.8-5.2h1Z" style="fill: #333;"/>
  <path d="M156,385.4c-.6,0-1.1-.1-1.6-.4s-.8-.7-1.1-1.2c-.2-.6-.4-1.2-.4-1.8s.1-1.2,.4-1.8c.2-.5,.6-.9,1-1.2,.5-.3,1-.4,1.5-.4,.3,0,.7,.1,1,.2s.7,.3,.9,.5c.3,.3,.5,.6,.6,1,.2,.5,.3,1,.2,1.5v.4h-5.1v-.9h4c0-.3-.1-.7-.2-1-.1-.3-.4-.5-.6-.7-.3-.2-.6-.3-1-.2-.4,0-.7,.1-1,.3-.3,.2-.5,.5-.7,.8s-.2,.7-.2,1v.6c0,.4,.1,.9,.3,1.3,.2,.3,.4,.6,.7,.8,.3,.2,.7,.3,1.1,.3,.2,0,.5,0,.7-.1s.4-.2,.6-.3c.2-.2,.3-.4,.4-.6l1,.3c-.1,.3-.3,.6-.5,.9-.3,.3-.6,.5-.9,.6-.3,.1-.7,.1-1.1,.1Z" style="fill: #333;"/>
  <path d="M160.1,385.3v-.8l3.7-4.8v-.1h-3.6v-.9h4.9v.8l-3.6,4.7v.1h3.7v.9h-5.1v.1Z" style="fill: #333;"/>
  <path d="M172.8,385.4c-.5,0-1.1-.1-1.6-.4-.4-.3-.8-.7-1-1.2-.3-.6-.4-1.2-.4-1.8s.1-1.2,.4-1.8c.2-.5,.6-.9,1-1.2,1.3-.9,3.1-.5,4,.9,.1,.1,.1,.2,.2,.3,.3,.6,.4,1.2,.4,1.8s-.1,1.2-.4,1.8c-.2,.5-.6,.9-1,1.2-.5,.3-1.1,.5-1.6,.4Zm0-.9c.4,0,.8-.1,1.1-.3,.3-.2,.5-.6,.6-.9,.1-.4,.2-.8,.2-1.2s-.1-.8-.2-1.2c-.1-.4-.3-.7-.6-.9-.7-.5-1.6-.5-2.2,0-.3,.2-.5,.6-.6,.9-.1,.4-.2,.8-.2,1.2s.1,.8,.2,1.2c.1,.4,.3,.7,.6,.9,.3,.2,.7,.4,1.1,.3Z" style="fill: #333;"/>
  <path d="M181.6,381.4v3.9h-1v-6.5h1v1h.1c.2-.3,.4-.6,.7-.8,.4-.2,.8-.3,1.2-.3s.8,.1,1.2,.3c.3,.2,.6,.5,.8,.8,.2,.4,.3,.9,.3,1.4v4.2h-1v-4.1c0-.4-.1-.9-.4-1.2-.3-.3-.7-.4-1.1-.4-.3,0-.6,.1-.9,.2-.3,.1-.5,.4-.6,.6-.2,.2-.3,.5-.3,.9Z" style="fill: #333;"/>
  <path d="M190.4,385.4c-.6,0-1.1-.1-1.6-.4s-.8-.7-1.1-1.2c-.3-.6-.4-1.2-.4-1.8s.1-1.2,.4-1.8c.2-.5,.6-.9,1-1.2,.5-.3,1-.4,1.6-.4,.3,0,.7,.1,1,.2,.7,.3,1.3,.8,1.6,1.6,.2,.5,.3,1,.2,1.5v.4h-5v-.9h4c0-.3-.1-.7-.2-1-.1-.3-.4-.5-.6-.7-.3-.2-.6-.3-.9-.2-.4,0-.7,.1-1,.3-.3,.2-.5,.5-.7,.8s-.2,.7-.2,1v.6c0,.4,.1,.9,.2,1.3,.2,.3,.4,.6,.7,.8,.3,.2,.7,.3,1.1,.3,.2,0,.5,0,.7-.1s.4-.2,.6-.3c.2-.2,.3-.4,.4-.6l1,.3c-.1,.3-.3,.6-.5,.9-.3,.3-.6,.5-.9,.6-.5,0-1,0-1.4,0Z" style="fill: #333;"/>
  <path d="M197.3,385.4c-.6,0-1.1-.1-1.6-.4-.4-.3-.8-.7-1-1.2s-.4-1.1-.4-1.7,.1-1.2,.4-1.8c.2-.5,.6-.9,1-1.2,.5-.3,1-.4,1.6-.4,.4,0,.8,.1,1.2,.2,.4,.2,.7,.4,.9,.7,.2,.3,.4,.7,.4,1.1h-1c-.1-.3-.3-.6-.5-.8-.3-.2-.7-.4-1.1-.4s-.7,.1-1,.3c-.3,.2-.5,.5-.7,.9s-.3,.9-.2,1.3c0,.5,.1,.9,.2,1.3,.1,.3,.4,.6,.7,.9,.3,.2,.6,.3,1,.3,.2,0,.5,0,.7-.1s.4-.2,.5-.4c.2-.2,.3-.4,.3-.6h1c-.1,.4-.2,.7-.4,1s-.5,.6-.9,.7c-.2,.2-.7,.3-1.1,.3Z" style="fill: #333;"/>
  <path d="M204.1,385.4c-.6,0-1.1-.1-1.6-.4s-.8-.7-1.1-1.2c-.3-.6-.4-1.2-.4-1.8s.1-1.2,.4-1.8c.2-.5,.6-.9,1-1.2,.5-.3,1-.4,1.6-.4,.3,0,.7,.1,1,.2s.6,.3,.9,.5c.3,.3,.5,.6,.7,1,.2,.5,.3,1,.2,1.5v.4h-5.1v-.9h4c0-.3-.1-.7-.2-1-.1-.3-.4-.5-.6-.7-.6-.4-1.4-.3-2,0-.3,.2-.5,.5-.7,.8s-.2,.7-.2,1v.6c0,.4,.1,.9,.3,1.3,.2,.3,.4,.6,.7,.8,.3,.2,.7,.3,1.1,.3,.2,0,.5,0,.7-.1s.4-.2,.6-.3c.2-.2,.3-.4,.4-.6l1,.3c-.1,.3-.3,.6-.5,.9-.3,.3-.6,.5-.9,.6-.5,.2-.9,.2-1.3,.2Z" style="fill: #333;"/>
  <path d="M213,380.2l-.9,.2c-.1-.2-.1-.3-.2-.4-.1-.2-.3-.3-.4-.4-.2-.1-.5-.2-.7-.1-.4,0-.7,.1-1,.3-.2,.1-.4,.4-.4,.7,0,.2,.1,.5,.3,.6,.3,.2,.5,.3,.9,.4l1,.2c.5,.1,.9,.3,1.3,.6,.3,.3,.4,.7,.4,1.1s-.1,.7-.3,1-.5,.6-.9,.7c-.4,.2-.9,.3-1.3,.2-.6,0-1.2-.1-1.7-.4-.4-.3-.7-.8-.8-1.3l1-.2c.1,.3,.2,.6,.5,.8,.3,.2,.6,.3,1,.3s.8-.1,1.1-.3c.3-.2,.4-.4,.4-.7,0-.2-.1-.4-.2-.6-.2-.2-.5-.3-.7-.3l-1.1-.3c-.5-.1-1-.3-1.3-.7-.5-.6-.6-1.5-.1-2.1,.2-.3,.5-.5,.9-.7s.8-.2,1.2-.2c.5,0,1.1,.1,1.5,.4,.1,.4,.4,.8,.5,1.2Z" style="fill: #333;"/>
  <path d="M215.1,377.7c-.2,0-.4-.1-.5-.2-.3-.2-.3-.6-.1-.9l.1-.1c.3-.3,.7-.3,1,0,.3,.2,.3,.6,.1,.9l-.1,.1c-.1,.1-.3,.2-.5,.2Zm-.5,7.6v-6.5h1v6.5h-1Z" style="fill: #333;"/>
  <path d="M220.3,378.8v.9h-3.4v-.9h3.4Zm-2.4-1.6h1v6.2c0,.2,0,.4,.1,.6,.1,.1,.2,.2,.3,.3,.1,0,.3,.1,.4,.1h.5l.2,.9c-.1,0-.2,.1-.3,.1h-.5c-.3,0-.6-.1-.8-.2-.3-.1-.5-.3-.7-.6-.2-.3-.3-.6-.3-.9l.1-6.5Z" style="fill: #333;"/>
  <path d="M223.8,385.5c-.4,0-.8-.1-1.1-.2-.7-.3-1.1-1-1.1-1.8,0-.6,.3-1.2,.8-1.5,.3-.1,.5-.2,.8-.3,.3-.1,.6-.1,.9-.2l1-.1c.2,0,.4-.1,.5-.1,.1-.1,.2-.2,.2-.3h0c0-.4-.1-.7-.4-1-.3-.2-.6-.4-1-.4s-.8,.1-1.1,.3c-.2,.2-.4,.4-.6,.7l-.9-.3c.1-.4,.4-.7,.7-.9,.3-.2,.6-.4,.9-.5,.3-.1,.7-.1,1-.1,.2,0,.5,0,.7,.1,.3,.1,.5,.2,.8,.3,.3,.2,.5,.4,.6,.7,.2,.4,.3,.8,.2,1.2v4.3h-1v-.9h-.1c-.2,.4-.6,.7-1,.9-.2,0-.5,.1-.8,.1Zm.1-.9c.3,0,.7-.1,1-.2,.5-.3,.8-.8,.8-1.4v-1c-.1,.1-.2,.1-.3,.1l-.5,.1-.5,.1h-.4c-.2,0-.5,.1-.7,.2s-.4,.2-.6,.3c-.1,.2-.2,.4-.2,.6,0,.3,.1,.6,.4,.8,.3,.3,.7,.4,1,.4Zm0-6.7l1-2h1.2l-1.3,2h-.9Z" style="fill: #333;"/>
  <path d="M233.2,380.2l-.9,.2c-.1-.2-.1-.3-.2-.4-.1-.2-.3-.3-.4-.4-.2-.1-.5-.2-.7-.1-.4,0-.7,.1-1,.3-.2,.1-.4,.4-.4,.7,0,.2,.1,.5,.3,.6,.3,.2,.5,.3,.9,.4l1,.2c.5,.1,.9,.3,1.3,.6,.3,.3,.4,.7,.4,1.1s-.1,.7-.3,1-.5,.6-.9,.7c-.4,.2-.9,.3-1.3,.2-.6,0-1.2-.1-1.7-.4-.4-.3-.7-.8-.8-1.3l1-.2c.1,.3,.2,.6,.5,.8,.3,.2,.6,.3,1,.3s.8-.1,1.1-.3c.3-.2,.4-.4,.4-.7,0-.2-.1-.4-.2-.6-.2-.2-.5-.3-.7-.3l-1.1-.3c-.5-.1-1-.3-1.3-.7-.5-.6-.6-1.5-.1-2.1,.2-.3,.5-.5,.9-.7s.8-.2,1.2-.2c.5,0,1.1,.1,1.5,.4,.2,.4,.4,.8,.5,1.2Z" style="fill: #333;"/>
  <path d="M241,385.4c-.6,0-1.1-.1-1.6-.4-.4-.3-.8-.7-1-1.2-.3-.6-.4-1.2-.4-1.8s.1-1.2,.4-1.8c.2-.5,.6-.9,1-1.2,.5-.3,1-.4,1.6-.4,.3,0,.7,.1,1,.2s.6,.3,.9,.5c.3,.3,.5,.6,.6,1,.2,.5,.3,1,.2,1.5v.4h-5v-.9h4c0-.3-.1-.7-.2-1-.1-.3-.4-.5-.6-.7-.6-.4-1.4-.3-2,0-.3,.2-.5,.5-.7,.8s-.2,.7-.2,1v.6c0,.4,.1,.9,.3,1.3,.2,.3,.4,.6,.7,.8,.3,.2,.7,.3,1.1,.3,.2,0,.5,0,.7-.1s.4-.2,.6-.3c.2-.2,.3-.4,.4-.6l1,.3c-.1,.3-.3,.6-.5,.9-.3,.3-.6,.5-.9,.6-.5,.2-1,.2-1.4,.2Z" style="fill: #333;"/>
  <path d="M246.2,376.6v8.7h-1v-8.7h1Z" style="fill: #333;"/>
  <path d="M255.6,382.6v-3.9h1v6.5h-1v-1.1h-.1c-.2,.3-.4,.6-.7,.9-.4,.2-.8,.4-1.2,.3-.4,0-.8-.1-1.1-.3-.3-.2-.6-.5-.8-.8-.2-.4-.3-.9-.3-1.4v-4.2h1v4.1c0,.4,.1,.8,.4,1.1,.3,.3,.6,.4,1,.4,.6,0,1.1-.3,1.4-.8,.3-.1,.4-.4,.4-.8Z" style="fill: #333;"/>
  <path d="M263.1,380.2l-.9,.2c-.1-.2-.1-.3-.2-.4-.1-.2-.3-.3-.5-.4s-.5-.2-.7-.1c-.4,0-.7,.1-1,.3-.2,.1-.4,.4-.4,.7,0,.2,.1,.4,.3,.6,.3,.2,.6,.3,.9,.4l1,.2c.5,.1,.9,.3,1.3,.6,.3,.3,.4,.7,.4,1.1s-.1,.7-.3,1c-.2,.3-.5,.6-.9,.7-.4,.2-.9,.3-1.3,.2-.6,0-1.2-.1-1.6-.4s-.7-.8-.8-1.3l1-.2c.1,.3,.2,.6,.5,.8,.3,.2,.6,.3,1,.3s.8-.1,1.1-.3c.3-.2,.4-.4,.4-.7,0-.2-.1-.4-.2-.6-.2-.2-.5-.3-.7-.3l-1.1-.3c-.5-.1-1-.3-1.3-.7-.5-.6-.6-1.5-.1-2.1,.2-.3,.5-.5,.9-.7s.8-.2,1.2-.2c.5,0,1.1,.1,1.5,.4,.1,.4,.3,.8,.5,1.2Z" style="fill: #333;"/>
  <path d="M268.8,382.6v-3.9h1v6.5h-1v-1.1h-.1c-.2,.3-.4,.6-.7,.9-.4,.2-.8,.4-1.2,.3-.4,0-.8-.1-1.1-.3-.3-.2-.6-.5-.8-.8-.2-.4-.3-.9-.3-1.4v-4.2h1v4.1c0,.4,.1,.8,.4,1.1,.3,.3,.6,.4,1,.4,.3,0,.5-.1,.8-.2s.5-.3,.6-.6c.3-.1,.4-.4,.4-.8Z" style="fill: #333;"/>
  <path d="M273.6,385.5c-.4,0-.8-.1-1.1-.2-.7-.3-1.1-1-1.1-1.8,0-.6,.3-1.2,.8-1.5,.3-.1,.5-.2,.8-.3,.3-.1,.6-.1,.9-.2l1-.1c.2,0,.4-.1,.5-.1,.1-.1,.2-.2,.2-.3h0c0-.4-.1-.7-.4-1-.3-.2-.6-.4-1-.4s-.8,.1-1.1,.3c-.2,.2-.4,.4-.6,.7l-1-.3c.1-.4,.4-.7,.7-.9,.3-.2,.6-.4,.9-.5s.7-.1,1-.1c.2,0,.5,0,.7,.1,.3,.1,.6,.2,.8,.3,.3,.2,.5,.4,.6,.7,.2,.4,.3,.8,.2,1.2v4.3h-1v-.9h0c-.1,.2-.2,.3-.3,.5-.2,.2-.4,.3-.6,.4-.2,0-.5,.1-.9,.1Zm.2-.9c.3,0,.7-.1,1-.2s.5-.3,.6-.6c.1-.2,.2-.5,.2-.8v-1c-.1,.1-.2,.1-.3,.1l-.5,.1-.5,.1h-.4c-.2,0-.5,.1-.7,.2s-.4,.2-.5,.3c-.1,.2-.2,.4-.2,.6,0,.3,.1,.6,.4,.8,.1,.3,.5,.4,.9,.4Z" style="fill: #333;"/>
  <path d="M278.4,385.3v-6.5h1v1h.1c.1-.3,.4-.6,.6-.8,.3-.2,.7-.3,1.1-.3h.5v1h-.6c-.3,0-.6,.1-.9,.2-.5,.3-.8,.8-.8,1.3v4.1h-1Z" style="fill: #333;"/>
  <path d="M283.4,377.7c-.2,0-.4-.1-.5-.2-.3-.2-.3-.6-.1-.9l.1-.1c.1-.1,.3-.2,.5-.2s.4,.1,.5,.2c.3,.2,.3,.6,.1,.9l-.1,.1c-.1,.1-.3,.2-.5,.2Zm-.5,7.6v-6.5h1v6.5h-1Z" style="fill: #333;"/>
  <path d="M288.4,385.4c-1.1,0-2.1-.6-2.6-1.6-.3-.6-.4-1.2-.4-1.8s.1-1.2,.4-1.8c.2-.5,.6-.9,1-1.2,1-.6,2.1-.6,3.1,0,.4,.3,.8,.7,1,1.2,.3,.6,.4,1.2,.4,1.8s-.1,1.2-.4,1.8c-.4,1-1.5,1.7-2.5,1.6h0Zm0-.9c.4,0,.8-.1,1.1-.3,.3-.2,.5-.6,.6-.9,.1-.4,.2-.8,.2-1.2s-.1-.8-.2-1.2c-.1-.4-.4-.7-.6-.9-.7-.5-1.5-.5-2.2,0-.3,.2-.5,.6-.6,.9-.1,.4-.2,.8-.2,1.2s.1,.8,.2,1.2c.1,.4,.4,.7,.6,.9,.3,.2,.7,.4,1.1,.3Z" style="fill: #333;"/>
  <path d="M72.9,444.6c0,.5-.1,1.1-.3,1.6-.2,.4-.5,.8-.9,1-.8,.5-1.8,.5-2.6,0-.4-.2-.7-.6-.9-1-.4-1-.4-2.2,0-3.2,.2-.4,.5-.8,.9-1,.8-.5,1.8-.5,2.6,0,.4,.2,.7,.6,.9,1,.2,.5,.3,1.1,.3,1.6Zm-.7,0c0-.4-.1-.9-.3-1.3-.4-.9-1.5-1.3-2.4-.9-.1,0-.1,.1-.2,.1-.3,.2-.5,.5-.7,.8-.3,.8-.3,1.7,0,2.6,.2,.3,.4,.6,.7,.8,.6,.4,1.3,.4,1.9,0,.3-.2,.5-.5,.7-.8,.3-.4,.4-.8,.3-1.3Z" style="fill: #333;"/>
  <path d="M74,449.2v-6h.7v.7h.1c.1-.1,.1-.2,.2-.3,.1-.1,.2-.2,.4-.3,.2-.1,.4-.2,.7-.1,.4,0,.7,.1,1,.3,.3,.2,.5,.5,.7,.8,.2,.4,.3,.8,.2,1.2,0,.4-.1,.8-.2,1.2-.1,.3-.4,.6-.7,.8-.3,.2-.6,.3-1,.3-.2,0-.5,0-.7-.1-.1-.1-.3-.2-.4-.3-.1-.1-.1-.2-.2-.3h-.1v2.3l-.7-.2Zm.7-3.8c0,.3,0,.6,.1,.9,.1,.2,.2,.4,.4,.6,.4,.3,1,.3,1.4,0,.2-.2,.3-.4,.4-.6,.1-.3,.1-.6,.1-.8,0-.3,0-.6-.1-.8-.1-.2-.2-.4-.4-.6-.4-.3-1-.3-1.4,0-.2,.1-.3,.3-.4,.6-.1,.1-.1,.4-.1,.7h0Z" style="fill: #333;"/>
  <path d="M80.7,447.6c-.4,0-.8-.1-1.1-.3-.3-.2-.6-.5-.7-.8-.3-.8-.3-1.6,0-2.4,.2-.3,.4-.6,.7-.8,.3-.2,.6-.3,1-.3,.2,0,.5,0,.7,.1,.5,.2,.8,.5,1,1,.1,.3,.2,.7,.2,1v.3h-3.3v-.4h2.7c0-.2,0-.4-.2-.6-.1-.2-.2-.3-.4-.5-.2-.1-.4-.2-.6-.2s-.5,.1-.7,.2-.3,.3-.4,.5-.2,.4-.2,.7v.4c0,.3,.1,.6,.2,.8,.1,.2,.3,.4,.5,.5s.5,.2,.7,.2,.3,0,.5-.1c.1,0,.3-.1,.4-.2s.2-.2,.2-.4l.7,.2c-.1,.2-.2,.4-.3,.6-.2,.2-.4,.3-.6,.4-.4,.1-.7,.1-1,.1Z" style="fill: #333;"/>
  <path d="M83.6,447.5v-4.4h.7v.6h0c.1-.2,.2-.4,.4-.5,.2-.1,.5-.2,.7-.2h.3v.7h-.4c-.2,0-.4,0-.6,.1-.3,.2-.5,.5-.5,.9v2.8h-.6Z" style="fill: #333;"/>
  <path d="M87.8,447.6c-.3,0-.5-.1-.8-.2-.2-.1-.4-.3-.5-.5s-.2-.5-.2-.7,0-.4,.1-.6,.2-.3,.4-.4c.2-.1,.4-.2,.5-.2,.2,0,.4-.1,.6-.1l.6-.1c.1,0,.3,0,.4-.1s.1-.1,.1-.2h0c0-.2-.1-.5-.2-.7-.2-.2-.4-.2-.7-.2-.5,0-.9,.2-1.1,.7l-.6-.2c.1-.2,.3-.5,.5-.6s.4-.3,.6-.3c.2-.1,.4-.1,.7-.1h.5c.2,0,.4,.1,.5,.2,.2,.1,.3,.3,.4,.5,.1,.3,.2,.5,.2,.8v2.9h-.7v-.5h0c-.1,.3-.4,.5-.7,.6-.1,0-.4,.1-.6,0Zm.1-.6c.2,0,.5,0,.7-.2,.2-.1,.3-.2,.4-.4,.1-.2,.1-.3,.1-.5v-.6c-.1,0-.1,.1-.2,.1l-.3,.1h-.6c-.2,0-.3,.1-.5,.1-.1,0-.3,.1-.4,.2s-.1,.3-.1,.4c0,.2,.1,.4,.2,.5,.2,.3,.5,.3,.7,.3Z" style="fill: #333;"/>
  <path d="M91,447.5v-4.4h.7v.6h0c.1-.2,.2-.4,.4-.5,.2-.1,.5-.2,.7-.2h.3v.7h-.4c-.2,0-.4,0-.6,.1s-.3,.2-.4,.4c-.1,.2-.1,.3-.1,.5v2.8h-.6Z" style="fill: #333;"/>
  <path d="M98,447.6c-.4,0-.7-.1-1.1-.3-.3-.2-.5-.5-.7-.8-.2-.4-.2-.8-.2-1.2s.1-.8,.2-1.2c.2-.3,.4-.6,.7-.8,.3-.2,.6-.3,1-.3,.3,0,.6,.1,.8,.2,.2,.1,.4,.3,.6,.5s.3,.5,.3,.7h-.6c-.1-.2-.2-.4-.3-.5-.2-.2-.5-.2-.7-.2s-.5,.1-.7,.2-.4,.3-.4,.6c-.1,.3-.2,.6-.2,.9s.1,.6,.2,.9c.1,.2,.3,.4,.5,.6,.2,.1,.5,.2,.7,.2s.3,0,.5-.1c.1-.1,.3-.1,.4-.3,.1-.1,.2-.3,.2-.4h.7c0,.2-.1,.5-.3,.7-.2,.2-.4,.4-.6,.5-.4,.1-.7,.1-1,.1Z" style="fill: #333;"/>
  <path d="M102.5,447.6c-.4,0-.7-.1-1-.3-.3-.2-.5-.5-.7-.8-.2-.4-.3-.8-.2-1.2,0-.4,.1-.8,.2-1.2,.1-.3,.4-.6,.7-.8,.3-.2,.6-.3,1-.3s.7,.1,1,.3c.3,.2,.5,.5,.7,.8,.2,.4,.2,.8,.2,1.2s-.1,.8-.2,1.2c-.2,.3-.4,.6-.7,.8-.3,.2-.6,.3-1,.3Zm0-.6c.3,0,.5-.1,.7-.2,.2-.2,.3-.4,.4-.6,.1-.3,.1-.5,.1-.8s0-.6-.1-.8c-.1-.2-.2-.4-.4-.6-.2-.2-.5-.2-.7-.2-.3,0-.5,.1-.7,.2-.2,.2-.3,.4-.4,.6-.1,.3-.1,.5-.1,.8s0,.6,.1,.8c.1,.2,.2,.5,.4,.6,.2,.2,.4,.2,.7,.2h0Z" style="fill: #333;"/>
  <path d="M106.2,444.9v2.6h-.7v-4.4h.6v.7h.1c.1-.2,.3-.4,.5-.5s.5-.2,.8-.2,.5,.1,.8,.2c.2,.1,.4,.3,.5,.5,.1,.3,.2,.6,.2,.9v2.8h-.7v-2.7c0-.3-.1-.6-.3-.8-.2-.2-.5-.3-.7-.3s-.4,0-.6,.1-.3,.2-.4,.4c-.1,.3-.1,.5-.1,.7Z" style="fill: #333;"/>
  <path d="M117.4,444.6c0,.5-.1,1.1-.3,1.6-.2,.4-.5,.8-.9,1-.8,.5-1.8,.5-2.6,0-.4-.2-.7-.6-.9-1-.4-1-.4-2.2,0-3.2,.2-.4,.5-.8,.9-1,.8-.5,1.8-.5,2.6,0,.4,.2,.7,.6,.9,1,.2,.5,.4,1.1,.3,1.6Zm-.6,0c0-.4-.1-.9-.3-1.3-.4-.9-1.4-1.3-2.3-.9-.4,.2-.7,.5-.9,.9-.3,.8-.3,1.7,0,2.6,.1,.3,.4,.6,.7,.8,.6,.4,1.3,.4,1.9,0,.3-.2,.5-.5,.7-.8,.1-.4,.2-.8,.2-1.3Z" style="fill: #333;"/>
  <path d="M119.2,444.9v2.6h-.7v-4.4h.7v.7h0c.1-.2,.3-.4,.5-.5s.5-.2,.8-.2,.5,.1,.8,.2c.2,.1,.4,.3,.5,.5,.1,.3,.2,.6,.2,.9v2.8h-.7v-2.7c0-.3-.1-.6-.3-.8-.2-.2-.5-.3-.7-.3s-.4,0-.6,.1-.3,.2-.4,.4c-.1,.3-.1,.5-.1,.7Z" style="fill: #333;"/>
  <path d="M123.9,441.7v5.8h-.7v-5.8h.7Z" style="fill: #333;"/>
  <path d="M125.4,442.5c-.1,0-.2-.1-.3-.1-.1-.1-.1-.2-.1-.3s.1-.2,.1-.3c.2-.2,.5-.2,.7,0,.1,.1,.1,.2,.1,.3s0,.2-.1,.3c-.1,0-.2,.1-.4,.1Zm-.3,5v-4.4h.7v4.4h-.7Z" style="fill: #333;"/>
  <path d="M127.7,444.9v2.6h-.7v-4.4h.6v.7h.1c.1-.2,.3-.4,.5-.5s.5-.2,.8-.2,.5,.1,.8,.2c.2,.1,.4,.3,.5,.5,.1,.3,.2,.6,.2,.9v2.8h-.7v-2.7c0-.3-.1-.6-.3-.8-.2-.2-.5-.3-.7-.3s-.4,0-.6,.1c-.2,.1-.3,.2-.4,.4-.1,.3-.1,.5-.1,.7Z" style="fill: #333;"/>
  <path d="M133.5,447.6c-.4,0-.8-.1-1.1-.3-.3-.2-.5-.5-.7-.8-.3-.8-.3-1.6,0-2.4,.1-.3,.4-.6,.7-.8,.3-.2,.6-.3,1-.3,.2,0,.5,0,.7,.1s.4,.2,.6,.4c.2,.2,.3,.4,.4,.7,.1,.3,.2,.7,.2,1v.3h-3.3v-.5h2.7c0-.2,0-.4-.1-.6s-.2-.4-.4-.5c-.4-.2-.9-.2-1.3,0-.2,.1-.4,.3-.4,.5-.1,.2-.2,.4-.2,.7v.4c0,.3,.1,.6,.2,.8s.3,.4,.5,.5,.5,.2,.7,.2h.4c.1,0,.3-.1,.4-.2,.1-.1,.2-.2,.2-.4l.6,.2c-.1,.2-.2,.4-.4,.6s-.4,.3-.6,.4c-.2,0-.5,.1-.8,0Z" style="fill: #333;"/>
  <path d="M138.7,447.5v-5.8h2c.3,0,.7,.1,1,.2,.2,.1,.5,.3,.6,.6,.1,.2,.2,.5,.2,.8,0,.2,0,.4-.1,.6s-.2,.3-.3,.4-.3,.2-.5,.2v.1c.2,0,.4,.1,.5,.2,.2,.1,.3,.3,.4,.5,.1,.2,.2,.5,.2,.8s-.1,.6-.2,.8-.4,.4-.6,.5c-.4,.2-.7,.2-1.1,.2l-2.1-.1Zm.7-3.2h1.3c.2,0,.4,0,.6-.1,.2-.1,.3-.2,.4-.4s.2-.3,.1-.5c0-.2-.1-.5-.3-.7s-.5-.3-.9-.3h-1.3v2h.1Zm0,2.6h1.4c.4,0,.7-.1,1-.3,.2-.2,.3-.4,.3-.7,0-.2,0-.4-.1-.5-.1-.2-.3-.3-.4-.4-.2-.1-.4-.2-.7-.1h-1.4l-.1,2Z" style="fill: #333;"/>
  <path d="M145.1,447.6c-.3,0-.5,0-.8-.2-.2-.1-.4-.3-.5-.5s-.2-.5-.2-.7,0-.4,.1-.6,.2-.3,.4-.4,.4-.2,.6-.2,.4-.1,.6-.1l.6-.1c.1,0,.2,0,.4-.1,.1,0,.1-.1,.1-.2h0c0-.2-.1-.5-.2-.7-.2-.2-.4-.2-.7-.2-.5,0-.9,.2-1.1,.7l-.6-.2c.1-.2,.3-.5,.5-.6s.4-.2,.6-.3c.2-.1,.4-.1,.7-.1h.5c.2,0,.4,.1,.5,.2,.2,.1,.3,.3,.4,.5,.1,.3,.2,.5,.2,.8v2.9h-.7v-.5h0c-.1,.1-.1,.2-.2,.3-.1,.1-.3,.2-.4,.3-.3,0-.6,.1-.8,0Zm.1-.6c.2,0,.5,0,.7-.2,.2-.1,.3-.2,.4-.4s.1-.3,.1-.5v-.6c-.1,0-.1,.1-.2,.1l-.3,.1h-.7c-.2,0-.3,.1-.5,.1-.1,0-.3,.1-.4,.2-.1,.1-.2,.3-.1,.4,0,.2,.1,.4,.3,.5,.2,.3,.5,.3,.7,.3Z" style="fill: #333;"/>
  <path d="M149,444.9v2.6h-.7v-4.4h.7v.7h0c.1-.2,.3-.4,.5-.5s.5-.2,.8-.2,.5,.1,.8,.2c.2,.1,.4,.3,.5,.5,.1,.3,.2,.6,.2,.9v2.8h-.7v-2.7c0-.3-.1-.6-.3-.8-.2-.2-.5-.3-.7-.3s-.4,0-.6,.1c-.2,.1-.3,.2-.4,.4-.1,.3-.1,.5-.1,.7Z" style="fill: #333;"/>
  <path d="M153,447.5v-5.8h.7v5.8h-.7Zm.6-1.5v-.8h.1l1.9-1.9h.8l-2,2h-.1l-.7,.7Zm2.2,1.5l-1.7-2.2,.5-.5,2.1,2.6h-.9v.1Z" style="fill: #333;"/>
  <path d="M157.7,442.5c-.1,0-.2-.1-.3-.1-.1-.1-.1-.2-.1-.3s.1-.2,.1-.3c.1-.1,.2-.1,.3-.1s.2,0,.3,.1,.1,.2,.1,.3-.1,.2-.1,.3c-.1,0-.2,.1-.3,.1Zm-.3,5v-4.4h.6v4.4h-.6Z" style="fill: #333;"/>
  <path d="M159.9,444.9v2.6h-.7v-4.4h.6v.7h.1c.1-.2,.3-.4,.5-.5s.5-.2,.8-.2,.5,.1,.8,.2c.2,.1,.4,.3,.5,.5,.1,.3,.2,.6,.2,.9v2.8h-.7v-2.7c0-.3-.1-.6-.3-.8-.2-.2-.5-.3-.7-.3s-.4,0-.6,.1c-.2,.1-.3,.2-.4,.4-.1,.3-.1,.5-.1,.7Z" style="fill: #333;"/>
  <path d="M165.7,449.3c-.3,0-.6,0-.8-.1s-.4-.2-.6-.3c-.1-.1-.3-.3-.4-.4l.5-.4,.2,.3c.1,.1,.2,.2,.4,.3,.5,.2,1.1,.1,1.5-.1,.2-.2,.4-.5,.3-.8v-.9h-.1l-.2,.3c-.1,.1-.2,.2-.4,.3-.2,.1-.4,.1-.7,.1s-.7-.1-.9-.2c-.3-.2-.5-.4-.7-.7-.2-.4-.3-.8-.2-1.2,0-.4,.1-.8,.2-1.2,.1-.3,.4-.6,.6-.8,.3-.2,.6-.3,1-.3,.2,0,.5,0,.7,.1s.3,.2,.4,.3c.1,.1,.2,.2,.2,.3h.1v-.7h.6v4.5c0,.3-.1,.6-.2,.9-.2,.2-.4,.4-.7,.5-.1,.1-.5,.2-.8,.2Zm0-2.4c.5,0,.9-.3,1.1-.7,.1-.3,.2-.5,.1-.8,0-.3,0-.6-.1-.8-.1-.2-.2-.4-.4-.6-.4-.3-1-.3-1.4,0-.2,.1-.3,.3-.4,.6-.1,.3-.1,.5-.1,.8s0,.6,.1,.8c.1,.2,.2,.4,.4,.5,.2,.1,.4,.2,.7,.2h0Z" style="fill: #333;"/>
  <path d="M171.4,442.5c-.1,0-.2,0-.3-.1s-.1-.2-.1-.3,0-.2,.1-.3c.1-.1,.2-.1,.3-.1s.2,0,.3,.1,.1,.2,.1,.3,0,.2-.1,.3c-.1,0-.2,.1-.3,.1Zm-.3,5v-4.4h.7v4.4h-.7Z" style="fill: #333;"/>
  <path d="M173,447.5v-4.4h.6v.7h.1c.1-.2,.2-.4,.4-.5s.5-.2,.7-.2c.3,0,.5,.1,.7,.2s.4,.3,.4,.5h0c.1-.2,.3-.4,.5-.5s.5-.2,.8-.2c.4,0,.7,.1,1,.4s.4,.7,.4,1.1v2.9h-.6v-2.9c0-.3-.1-.5-.3-.7-.2-.1-.4-.2-.6-.2-.3,0-.5,.1-.7,.3-.2,.2-.3,.4-.3,.7v2.8h-.7v-3c0-.2-.1-.4-.2-.6-.2-.2-.4-.2-.6-.2s-.3,0-.5,.1-.3,.2-.4,.4-.1,.4-.1,.6v2.7h-.6Z" style="fill: #333;"/>
  <path d="M179.9,449.2v-6h.6v.7h.1c.1-.1,.1-.2,.2-.3,.1-.1,.2-.2,.4-.3,.2-.1,.4-.2,.7-.1,.4,0,.7,.1,1,.3,.3,.2,.5,.5,.7,.8,.2,.4,.3,.8,.2,1.2,0,.4-.1,.8-.2,1.2-.1,.3-.4,.6-.6,.8-.3,.2-.6,.3-1,.3-.2,0-.5,0-.7-.1s-.3-.2-.4-.3l-.2-.3h-.1v2.3l-.7-.2Zm.7-3.8c0,.3,0,.6,.1,.9,.1,.2,.2,.4,.4,.6,.2,.1,.4,.2,.7,.2s.5-.1,.7-.2c.2-.2,.3-.4,.4-.6,.1-.3,.1-.6,.1-.8,0-.3,0-.6-.1-.8-.1-.2-.2-.4-.4-.6s-.5-.2-.7-.2-.5,.1-.7,.2-.3,.3-.4,.6c-.1,.1-.1,.4-.1,.7Z" style="fill: #333;"/>
  <path d="M185.4,441.7v5.8h-.7v-5.8h.7Z" style="fill: #333;"/>
  <path d="M187,442.5c-.1,0-.2-.1-.3-.1-.1-.1-.1-.2-.1-.3s.1-.2,.1-.3c.1-.1,.2-.1,.3-.1s.2,0,.3,.1,.1,.2,.1,.3,0,.2-.1,.3c-.1,0-.2,.1-.3,.1Zm-.3,5v-4.4h.7v4.4h-.7Z" style="fill: #333;"/>
  <path d="M190.4,447.6c-.4,0-.7-.1-1.1-.3-.3-.2-.5-.5-.7-.8-.2-.4-.2-.8-.2-1.2s.1-.8,.2-1.2c.2-.3,.4-.6,.7-.8,.3-.2,.6-.3,1-.3,.3,0,.6,.1,.8,.2s.4,.3,.6,.5c.2,.2,.3,.5,.3,.7h-.7c-.1-.5-.5-.8-1-.8-.2,0-.5,.1-.7,.2s-.4,.3-.5,.6c-.1,.3-.2,.6-.2,.9s0,.6,.2,.9c.1,.2,.3,.4,.5,.6,.2,.1,.4,.2,.7,.2,.2,0,.3,0,.5-.1,.1-.1,.3-.1,.4-.3,.1-.1,.2-.3,.2-.4h.7c0,.2-.1,.5-.3,.7s-.4,.4-.6,.5c-.3,.2-.6,.2-.8,.2Z" style="fill: #333;"/>
  <path d="M194.3,447.6c-.3,0-.5-.1-.8-.2-.2-.1-.4-.3-.6-.5-.1-.2-.2-.5-.2-.7s0-.4,.1-.6,.2-.3,.4-.4,.4-.2,.5-.2c.2,0,.4-.1,.6-.1l.6-.1c.1,0,.3,0,.4-.1,.1,0,.1-.1,.1-.2h0c0-.2-.1-.5-.2-.7-.2-.2-.4-.2-.7-.2-.5,0-.9,.2-1.1,.7l-.6-.2c.1-.2,.3-.5,.5-.6s.4-.3,.6-.3c.2-.1,.4-.1,.7-.1h.5c.2,0,.4,.1,.5,.2,.2,.1,.3,.3,.4,.5,.1,.3,.2,.5,.2,.8v2.9h-.7v-.5h0c-.1,.3-.4,.5-.6,.6-.1,0-.4,.1-.6,0Zm.1-.6c.2,0,.5,0,.7-.2,.2-.1,.3-.2,.4-.4s.1-.3,.1-.5v-.6c-.1,0-.1,.1-.2,.1l-.3,.1h-.7c-.2,0-.3,.1-.5,.1-.1,.1-.3,.1-.4,.2-.1,.1-.1,.3-.1,.4,0,.2,.1,.4,.3,.5,.3,.3,.5,.3,.7,.3h0Z" style="fill: #333;"/>
  <path d="M201.1,447.6c-.3,0-.5-.1-.8-.2-.2-.1-.4-.3-.5-.5s-.2-.5-.2-.7,0-.4,.1-.6,.2-.3,.4-.4,.4-.2,.6-.2,.4-.1,.6-.1l.6-.1c.1,0,.2,0,.4-.1,.1,0,.1-.1,.1-.2h0c0-.2-.1-.5-.2-.7-.2-.2-.4-.2-.7-.2-.5,0-.9,.2-1.1,.7l-.6-.2c.1-.2,.3-.5,.5-.6s.4-.2,.6-.3c.2-.1,.4-.1,.7-.1h.5c.2,0,.4,.1,.5,.2,.2,.1,.3,.3,.4,.5,.1,.3,.2,.5,.2,.8v2.9h-.7v-.5h0c-.1,.1-.1,.2-.2,.3-.1,.1-.3,.2-.4,.3-.4,0-.6,.1-.8,0Zm.1-.6c.2,0,.5,0,.7-.2,.2-.1,.3-.2,.4-.4s.1-.3,.1-.5v-.6c-.1,0-.1,.1-.2,.1l-.3,.1h-.7c-.2,0-.3,.1-.5,.1-.1,.1-.3,.1-.4,.2-.1,.1-.1,.3-.1,.4,0,.2,.1,.4,.3,.5,.2,.3,.5,.3,.7,.3Z" style="fill: #333;"/>
  <path d="M206.1,447.6c-.4,0-.7-.1-1.1-.3-.3-.2-.5-.5-.7-.8-.2-.4-.2-.8-.2-1.2s.1-.8,.2-1.2c.2-.3,.4-.6,.7-.8,.3-.2,.6-.3,1-.3,.3,0,.6,.1,.8,.2s.5,.3,.6,.5c.2,.2,.3,.5,.3,.7h-.7c-.1-.2-.2-.4-.3-.5-.2-.2-.5-.2-.7-.2s-.5,.1-.7,.2-.4,.3-.5,.6c-.1,.3-.2,.6-.2,.9s0,.6,.2,.9c.1,.2,.3,.4,.4,.6,.2,.1,.4,.2,.7,.2,.2,0,.3,0,.5-.1,.1-.1,.3-.1,.4-.3,.1-.1,.2-.3,.2-.4h.7c0,.2-.1,.5-.3,.7s-.4,.4-.6,.5c-.2,.1-.4,.1-.7,.1Z" style="fill: #333;"/>
  <path d="M210.6,447.6c-.4,0-.8-.1-1.1-.3-.3-.2-.5-.5-.7-.8-.3-.8-.3-1.6,0-2.4,.1-.3,.4-.6,.7-.8,.3-.2,.6-.3,1-.3,.2,0,.5,0,.7,.1s.4,.2,.6,.4c.2,.2,.3,.4,.4,.7,.1,.3,.2,.7,.2,1v.3h-3.4v-.5h2.7c0-.2,0-.4-.1-.6s-.2-.4-.4-.5c-.4-.2-.9-.2-1.3,0-.2,.1-.4,.3-.4,.5-.1,.2-.2,.4-.2,.7v.4c0,.3,.1,.6,.2,.8s.3,.4,.5,.5,.5,.2,.7,.2,.3,0,.5-.1c.1,0,.3-.1,.4-.2,.1-.1,.2-.2,.2-.4l.6,.2c-.1,.2-.2,.4-.4,.6s-.4,.3-.6,.4c-.3,.1-.5,.1-.8,.1Z" style="fill: #333;"/>
  <path d="M213.4,449.2v-6h.6v.7h.1c.1-.1,.1-.2,.2-.3,.1-.1,.2-.2,.4-.3,.2-.1,.4-.2,.7-.1,.4,0,.7,.1,1,.3,.3,.2,.5,.5,.6,.8,.2,.4,.3,.8,.2,1.2,0,.4-.1,.8-.2,1.2-.1,.3-.4,.6-.6,.8-.3,.2-.6,.3-1,.3-.2,0-.5,0-.7-.1-.1-.1-.3-.2-.4-.3-.1-.1-.2-.2-.2-.3h0v2.3l-.7-.2Zm.7-3.8c0,.3,0,.6,.1,.9,.1,.2,.2,.4,.4,.6,.2,.1,.4,.2,.7,.2s.5-.1,.7-.2c.2-.2,.3-.4,.4-.6,.1-.3,.1-.6,.1-.8,0-.3,0-.6-.1-.8-.1-.2-.2-.4-.4-.6s-.4-.2-.7-.2c-.2,0-.5,.1-.7,.2s-.3,.3-.4,.6c-.1,.1-.1,.4-.1,.7Z" style="fill: #333;"/>
  <path d="M220.2,443.2v.6h-2.2v-.6h2.2Zm-1.6-1.1h.7v4.2c0,.1,0,.3,.1,.4,0,.1,.1,.2,.2,.2h.5l.1,.6h-.5c-.2,0-.4,0-.6-.1-.2-.1-.3-.2-.4-.4s-.2-.4-.2-.6l.1-4.3Z" style="fill: #333;"/>
  <path d="M222.5,447.6c-.3,0-.5,0-.8-.2-.2-.1-.4-.3-.5-.5s-.2-.5-.2-.7,0-.4,.1-.6,.2-.3,.4-.4,.4-.2,.6-.2,.4-.1,.6-.1l.6-.1c.1,0,.2,0,.4-.1,.1,0,.1-.1,.1-.2h0c0-.2-.1-.5-.2-.7-.2-.2-.4-.2-.7-.2-.5,0-.9,.2-1.1,.7l-.6-.2c.1-.2,.3-.5,.5-.6s.4-.2,.6-.3c.2-.1,.4-.1,.7-.1h.5c.2,0,.4,.1,.5,.2,.2,.1,.3,.3,.4,.5,.1,.3,.2,.5,.2,.8v2.9h-.7v-.5h0c-.1,.1-.1,.2-.2,.3-.1,.1-.3,.2-.4,.3-.3,0-.6,.1-.8,0Zm.1-.6c.2,0,.5,0,.7-.2,.2-.1,.3-.2,.4-.4s.1-.3,.1-.5v-.6c-.1,0-.1,.1-.2,.1l-.3,.1h-.7c-.2,0-.3,.1-.5,.1-.1,0-.3,.1-.4,.2-.1,.1-.2,.3-.1,.4,0,.2,.1,.4,.3,.5,.2,.3,.5,.3,.7,.3Z" style="fill: #333;"/>
  <path d="M225.7,447.5v-4.4h.6v.6h.1c.1-.2,.2-.4,.4-.5s.5-.2,.7-.2h.4v.7h-.4c-.2,0-.4,0-.6,.1-.3,.2-.5,.5-.5,.9v2.8h-.7Z" style="fill: #333;"/>
  <path d="M231.6,441.7v5.8h-.6v-5.8h.6Z" style="fill: #333;"/>
  <path d="M234.6,447.6c-.4,0-.7-.1-1-.3-.3-.2-.5-.5-.7-.8-.2-.4-.3-.8-.2-1.2,0-.4,.1-.8,.2-1.2,.2-.3,.4-.6,.7-.8,.6-.4,1.4-.4,2.1,0,.3,.2,.5,.5,.7,.8,.2,.4,.3,.8,.2,1.2,0,.4-.1,.8-.2,1.2-.2,.3-.4,.6-.7,.8-.3,.3-.7,.4-1.1,.3Zm0-.6c.3,0,.5-.1,.7-.2,.2-.2,.3-.4,.4-.6,.1-.3,.1-.5,.1-.8s0-.6-.1-.8c-.1-.2-.2-.4-.4-.6-.4-.3-1-.3-1.5,0-.2,.2-.3,.4-.4,.6-.1,.3-.1,.5-.1,.8s0,.6,.1,.8c.1,.2,.2,.4,.4,.6,.3,.2,.6,.2,.8,.2h0Z" style="fill: #333;"/>
  <path d="M240.7,444.2l-.6,.2c0-.1-.1-.2-.1-.3-.1-.1-.2-.2-.3-.2-.2-.1-.3-.1-.5-.1s-.5,.1-.7,.2-.3,.3-.3,.5,.1,.3,.2,.4c.2,.1,.4,.2,.6,.2l.6,.2c.3,.1,.6,.2,.9,.4,.2,.2,.3,.5,.3,.8,0,.2-.1,.5-.2,.7-.2,.2-.4,.4-.6,.5-.3,.1-.6,.2-.9,.2-.4,0-.8-.1-1.1-.3-.3-.2-.5-.5-.6-.9l.6-.2c0,.2,.2,.4,.4,.5s.4,.2,.7,.2,.5-.1,.8-.2c.2-.1,.3-.3,.3-.5,0-.1-.1-.2-.2-.3-.1-.1-.3-.2-.5-.2l-.7-.2c-.3-.1-.6-.2-.9-.4-.2-.2-.3-.5-.3-.8,0-.2,.1-.5,.2-.6,.1-.2,.3-.4,.6-.5s.5-.2,.8-.2c.4,0,.7,.1,1,.3,.3,0,.4,.3,.5,.6Z" style="fill: #333;"/>
  <path d="M246,443.2v.6h-2.3v-.6h2.3Zm-1.6-1.1h.6v4.2c0,.1,0,.3,.1,.4,0,.1,.1,.2,.2,.2h.6l.1,.6h-.5c-.2,0-.4,0-.6-.1-.2-.1-.3-.2-.4-.4s-.2-.4-.2-.6l.1-4.3Z" style="fill: #212121;"/>
  <path d="M248.8,447.6c-.4,0-.8-.1-1.1-.3-.3-.2-.5-.5-.7-.8-.3-.8-.3-1.6,0-2.4,.1-.3,.4-.6,.7-.8,.3-.2,.6-.3,1-.3,.2,0,.5,0,.7,.1s.4,.2,.6,.4c.2,.2,.3,.4,.4,.7,.1,.3,.2,.7,.2,1v.3h-3.3v-.5h2.7c0-.2,0-.4-.1-.6s-.2-.4-.4-.5c-.4-.2-.9-.2-1.3,0-.2,.1-.4,.3-.4,.5-.1,.2-.2,.4-.2,.7v.4c0,.3,.1,.6,.2,.8s.3,.4,.5,.5c.4,.2,.8,.2,1.2,.1,.1,0,.3-.1,.4-.2,.1-.1,.2-.2,.2-.4l.6,.2-.3,.6c-.2,.2-.4,.3-.6,.4-.5,.1-.8,.1-1,.1Zm-.5-5l.7-1.3h.8l-.9,1.3h-.6Z" style="fill: #212121;"/>
  <path d="M251.6,447.5v-4.4h.6v.6h.1c.1-.2,.2-.4,.4-.5s.5-.2,.7-.2h.4v.7h-.4c-.2,0-.4,0-.6,.1-.2,.1-.3,.2-.4,.4s-.1,.3-.1,.5v2.8h-.7Z" style="fill: #212121;"/>
  <path d="M254.6,447.5v-4.4h.6v.7h.1c.1-.2,.2-.4,.4-.5,.6-.4,1.4-.3,1.8,.3,0,.1,.1,.1,.1,.2h0c.1-.2,.3-.4,.5-.5s.5-.2,.8-.2c.4,0,.7,.1,1,.4s.4,.7,.4,1.1v2.9h-.7v-2.9c0-.3-.1-.5-.3-.7-.2-.1-.4-.2-.6-.2-.3,0-.5,.1-.7,.3-.2,.2-.3,.4-.2,.7v2.8h-.7v-3c0-.2-.1-.4-.2-.6-.2-.2-.4-.2-.6-.2s-.3,.1-.5,.1c-.2,.1-.3,.2-.4,.4s-.1,.4-.1,.6v2.7h-.7Z" style="fill: #212121;"/>
  <path d="M261.9,442.5c-.1,0-.2-.1-.3-.1-.1-.1-.1-.2-.1-.3s.1-.2,.1-.3c.1-.1,.2-.1,.3-.1s.2,0,.3,.1c.1,.1,.1,.2,.1,.3s0,.2-.1,.3c-.1,0-.2,.1-.3,.1Zm-.4,5v-4.4h.7v4.4h-.7Z" style="fill: #212121;"/>
  <path d="M264.1,444.9v2.6h-.7v-4.4h.6v.7h.1c.1-.2,.3-.4,.5-.5s.5-.2,.8-.2,.5,.1,.8,.2c.2,.1,.4,.3,.5,.5,.1,.3,.2,.6,.2,.9v2.8h-.7v-2.7c0-.3-.1-.6-.3-.8s-.5-.3-.7-.3-.4,0-.6,.1-.3,.2-.4,.4c-.1,.3-.1,.5-.1,.7Z" style="fill: #212121;"/>
  <path d="M269.9,447.6c-.4,0-.7-.1-1-.3-.3-.2-.5-.5-.7-.8-.2-.4-.3-.8-.2-1.2,0-.4,.1-.8,.2-1.2,.2-.3,.4-.6,.7-.8,.3-.2,.6-.3,1-.3s.7,.1,1,.3c.3,.2,.5,.5,.7,.8,.2,.4,.3,.8,.2,1.2,0,.4-.1,.8-.2,1.2-.2,.3-.4,.6-.7,.8-.3,.2-.7,.3-1,.3Zm0-.6c.3,0,.5-.1,.7-.2,.2-.2,.3-.4,.4-.6,.1-.3,.1-.5,.1-.8s0-.6-.1-.8c-.1-.2-.2-.4-.4-.6-.2-.2-.5-.2-.7-.2-.3,0-.5,.1-.7,.2-.2,.2-.3,.4-.4,.6-.1,.3-.1,.5-.1,.8s0,.6,.1,.8c.1,.2,.2,.4,.4,.6,.1,.2,.4,.2,.7,.2h0Z" style="fill: #212121;"/>
  <path d="M276,444.2l-.6,.2c0-.1-.1-.2-.2-.3-.1-.1-.2-.2-.3-.2-.2-.1-.3-.1-.5-.1s-.5,.1-.7,.2-.3,.3-.3,.5,.1,.3,.2,.4c.2,.1,.4,.2,.6,.2l.6,.2c.3,.1,.6,.2,.9,.4,.4,.4,.4,1,.1,1.4-.1,.2-.4,.4-.6,.5-.3,.1-.6,.2-.9,.2-.4,0-.8-.1-1.1-.3-.3-.2-.5-.5-.5-.9l.6-.2c0,.2,.2,.4,.4,.5,.2,.1,.4,.2,.7,.2s.5-.1,.8-.2c.2-.1,.3-.3,.3-.5,0-.1-.1-.3-.2-.4s-.3-.2-.5-.2l-.7-.2c-.3-.1-.6-.2-.9-.4-.2-.2-.3-.5-.3-.8,0-.2,.1-.5,.2-.6,.1-.2,.3-.4,.6-.5,.3-.1,.5-.2,.8-.2,.4,0,.7,.1,1,.3,.2,.2,.4,.5,.5,.8Z" style="fill: #212121;"/>
  <path d="M87.2,458.8h-.3l-.2-.1,.2-.6c.2,.1,.4,.1,.6,0s.4-.3,.4-.6l.1-.3-1.6-4.4h.7l1.2,3.5h0l1.2-3.5h.7l-1.8,5c-.1,.2-.2,.4-.3,.5-.1,.1-.3,.2-.4,.3-.1,.1-.3,.2-.5,.2Z" style="fill: #212121;"/>
  <path d="M95.3,457.2c-.7,0-1.4-.4-1.7-1.1-.2-.4-.2-.8-.2-1.2s.1-.8,.2-1.2c.2-.3,.4-.6,.7-.8,.3-.2,.6-.3,1-.3,.3,0,.6,.1,.8,.2,.2,.1,.5,.3,.6,.5,.2,.2,.3,.5,.3,.7h-.7c-.1-.2-.2-.4-.3-.5-.2-.2-.5-.2-.7-.2s-.5,.1-.7,.2-.4,.3-.5,.6c-.1,.3-.1,.6-.1,.9s0,.6,.2,.9c.1,.2,.2,.4,.4,.6,.2,.1,.4,.2,.7,.2,.2,0,.3,0,.5-.1,.1-.1,.3-.1,.4-.3,.1-.1,.2-.3,.2-.4h.6c0,.2-.1,.5-.3,.7-.2,.2-.4,.4-.6,.5-.2,.1-.5,.2-.8,.1Z" style="fill: #212121;"/>
  <path d="M99.8,457.2c-.4,0-.7-.1-1-.3-.3-.2-.5-.5-.7-.8-.2-.4-.3-.8-.2-1.2,0-.4,0-.8,.2-1.2,.2-.3,.4-.6,.7-.8,.3-.2,.6-.3,1-.3s.7,.1,1,.3c.3,.2,.5,.5,.7,.8,.2,.4,.3,.8,.2,1.2,0,.4-.1,.8-.2,1.2-.2,.3-.4,.6-.7,.8-.4,.2-.7,.3-1,.3Zm0-.6c.3,0,.5-.1,.7-.2,.2-.2,.3-.4,.4-.6,.1-.3,.1-.5,.1-.8s0-.6-.1-.8c-.1-.2-.2-.4-.4-.6-.2-.2-.5-.2-.7-.2-.3,0-.5,.1-.7,.2-.2,.2-.3,.4-.4,.6-.1,.3-.1,.5-.1,.8s0,.6,.1,.8c.1,.2,.2,.4,.4,.6,.1,.2,.4,.2,.7,.2h0Z" style="fill: #212121;"/>
  <path d="M103.4,454.5v2.6h-.7v-4.4h.7v.7h0c.1-.2,.3-.4,.5-.5s.5-.2,.8-.2,.5,.1,.8,.2c.2,.1,.4,.3,.5,.5,.1,.3,.2,.6,.2,.9v2.8h-.7v-2.7c0-.3-.1-.6-.3-.8-.2-.2-.5-.3-.7-.3s-.4,0-.6,.1-.3,.2-.4,.4c-.1,.3-.1,.5-.1,.7Z" style="fill: #212121;"/>
  <path d="M109.1,457.2c-.4,0-.7-.1-1-.3-.3-.2-.5-.5-.7-.8-.2-.4-.2-.8-.2-1.2s.1-.8,.2-1.2c.1-.3,.4-.6,.7-.8,.3-.2,.6-.3,1-.3,.2,0,.5,0,.7,.1s.3,.2,.4,.3l.2,.3h.1v-2.1h.7v5.8h-.7v-.7h-.1l-.2,.3c-.1,.1-.2,.2-.4,.3-.3,.3-.5,.3-.7,.3Zm.1-.6c.2,0,.5-.1,.7-.2,.2-.2,.3-.4,.4-.6,.1-.3,.1-.6,.1-.9s0-.6-.1-.9c-.1-.2-.2-.4-.4-.6-.2-.1-.4-.2-.7-.2s-.5,.1-.7,.2c-.2,.2-.3,.4-.4,.6-.1,.3-.1,.5-.1,.8s0,.6,.1,.8c.1,.2,.2,.4,.4,.6,.2,.4,.4,.4,.7,.4h0Z" style="fill: #212121;"/>
  <path d="M112.8,452.1c-.1,0-.2-.1-.3-.1-.1-.1-.1-.2-.1-.3s.1-.2,.1-.3c.1-.1,.2-.1,.3-.1s.2,0,.3,.1c.1,.1,.1,.2,.1,.3s0,.2-.1,.3c-.1,0-.2,.1-.3,.1Zm-.4,5v-4.4h.7v4.4h-.7Z" style="fill: #212121;"/>
  <path d="M116.1,457.2c-.4,0-.8-.1-1.1-.2-.3-.2-.5-.5-.7-.8-.2-.4-.2-.8-.2-1.2s.1-.8,.2-1.2c.1-.3,.4-.6,.7-.9,.3-.2,.6-.3,1-.3,.3,0,.6,.1,.8,.2,.2,.1,.4,.3,.6,.5s.3,.5,.3,.7h-.7c-.1-.5-.5-.8-1-.8-.2,0-.5,.1-.7,.2s-.4,.3-.5,.6c-.1,.3-.2,.6-.2,.9s0,.6,.2,.9c.1,.2,.3,.4,.5,.6,.2,.1,.4,.2,.7,.2,.2,0,.3,0,.5-.1,.1-.1,.3-.1,.4-.3,.1-.1,.2-.3,.2-.4h.7c0,.3-.1,.5-.3,.7-.1,.2-.3,.4-.6,.5-.3,.2-.5,.2-.8,.2Z" style="fill: #212121;"/>
  <path d="M119.1,452.1c-.1,0-.2-.1-.3-.1-.1-.1-.1-.2-.1-.3s.1-.2,.1-.3c.2-.2,.5-.2,.7,0,.1,.1,.1,.2,.1,.3s-.1,.2-.1,.3c-.1,0-.3,.1-.4,.1Zm-.3,5v-4.4h.7v4.4h-.7Z" style="fill: #212121;"/>
  <path d="M122.4,457.2c-.4,0-.7-.1-1-.3-.3-.2-.5-.5-.7-.8-.2-.4-.3-.8-.2-1.2,0-.4,.1-.8,.2-1.2,.2-.3,.4-.6,.7-.8,.3-.2,.6-.3,1-.3s.7,.1,1,.3c.3,.2,.5,.5,.7,.8,.2,.4,.3,.8,.2,1.2,0,.4-.1,.8-.2,1.2-.2,.3-.4,.6-.7,.8-.3,.2-.6,.3-1,.3Zm0-.6c.3,0,.5-.1,.7-.2,.2-.2,.3-.4,.4-.6,.1-.3,.1-.5,.1-.8s0-.6-.1-.8c-.1-.2-.2-.4-.4-.6-.2-.2-.5-.2-.7-.2-.3,0-.5,.1-.7,.2-.2,.2-.3,.4-.4,.6-.1,.3-.1,.5-.1,.8s0,.6,.1,.8c.1,.2,.2,.4,.4,.6,.2,.2,.5,.2,.7,.2h0Z" style="fill: #212121;"/>
  <path d="M126.1,454.5v2.6h-.7v-4.4h.7v.7h.1c.1-.2,.3-.4,.5-.5s.5-.2,.8-.2,.5,.1,.8,.2c.2,.1,.4,.3,.5,.5,.1,.3,.2,.6,.2,.9v2.8h-.7v-2.7c0-.3-.1-.6-.3-.8-.2-.2-.5-.3-.7-.3s-.4,0-.6,.1-.3,.2-.4,.4c-.1,.3-.2,.5-.2,.7Z" style="fill: #212121;"/>
  <path d="M132,457.2c-.4,0-.8-.1-1.1-.3-.3-.2-.6-.5-.7-.8-.3-.8-.3-1.6,0-2.4,.2-.3,.4-.6,.7-.8,.3-.2,.6-.3,1-.3,.2,0,.5,0,.7,.1s.4,.2,.6,.4c.2,.2,.3,.4,.4,.7,.1,.3,.2,.7,.2,1v.3h-3.4v-.6h2.7c0-.2,0-.4-.1-.6s-.2-.3-.4-.5c-.2-.1-.4-.2-.6-.2s-.5,.1-.7,.2-.3,.3-.4,.5c-.1,.2-.2,.4-.2,.7v.4c0,.3,.1,.6,.2,.8s.3,.4,.5,.5,.5,.2,.7,.2,.3,0,.5-.1c.1,0,.3-.1,.4-.2,.1-.1,.2-.2,.2-.3l.6,.2-.3,.6c-.2,.2-.4,.3-.6,.4-.4,.1-.7,.1-.9,.1Z" style="fill: #212121;"/>
  <path d="M137.9,453.8l-.6,.2c0-.1-.1-.2-.2-.3-.1-.1-.2-.2-.3-.2-.2-.1-.3-.1-.5-.1s-.5,.1-.7,.2-.3,.3-.3,.5,.1,.3,.2,.4c.2,.1,.4,.2,.6,.2l.6,.2c.3,.1,.6,.2,.9,.4,.2,.2,.3,.5,.3,.8,0,.2-.1,.5-.2,.7-.2,.2-.4,.4-.6,.5-.3,.1-.6,.2-.9,.2-.4,0-.8-.1-1.1-.3-.3-.2-.5-.5-.6-.9l.6-.2c.1,.2,.2,.4,.4,.5s.4,.2,.7,.2,.5-.1,.7-.2,.3-.3,.3-.5c0-.1-.1-.3-.2-.4-.1-.1-.3-.2-.5-.2l-.7-.2c-.3-.1-.6-.2-.9-.4-.2-.2-.3-.5-.3-.8,0-.2,.1-.5,.2-.6,.1-.2,.3-.4,.6-.5s.5-.2,.8-.2c.4,0,.7,.1,1,.3,.4,.1,.6,.4,.7,.7Z" style="fill: #212121;"/>
  <path d="M143,457.2c-.3,0-.7-.1-1-.2-.3-.2-.6-.5-.7-.8-.3-.8-.3-1.6,0-2.4,.2-.3,.4-.6,.7-.8,.3-.2,.6-.3,1-.3,.2,0,.5,0,.7,.1,.5,.2,.8,.5,1,1,.1,.3,.2,.7,.2,1v.3h-3.4v-.6h2.7c0-.2-.1-.4-.1-.6-.1-.2-.2-.3-.4-.5-.2-.1-.4-.2-.6-.2s-.5,.1-.7,.2-.3,.3-.4,.5c-.1,.2-.2,.4-.2,.7v.4c0,.3,.1,.6,.2,.8s.3,.4,.5,.5,.5,.2,.7,.2,.3,0,.5-.1c.1,0,.3-.1,.4-.2,.1-.1,.2-.2,.2-.4l.6,.2-.3,.6c-.2,.2-.4,.3-.6,.4-.4,.2-.7,.3-1,.2Z" style="fill: #333;"/>
  <path d="M146.5,454.5v2.6h-.7v-4.4h.6v.7h.1c.1-.2,.3-.4,.5-.5s.5-.2,.8-.2,.5,.1,.8,.2c.2,.1,.4,.3,.5,.5,.1,.3,.2,.6,.2,.9v2.8h-.7v-2.7c0-.3-.1-.6-.3-.8-.2-.2-.5-.3-.7-.3s-.4,0-.6,.1c-.2,.1-.3,.2-.4,.4,0,.3-.1,.5-.1,.7Z" style="fill: #333;"/>
  <path d="M153.5,451.3v5.8h-.7v-5.8h.7Z" style="fill: #333;"/>
  <path d="M156.5,457.2c-.4,0-.7-.1-1-.3-.3-.2-.5-.5-.7-.8-.2-.4-.3-.8-.2-1.2,0-.4,.1-.8,.2-1.2,.1-.3,.4-.6,.7-.8,.6-.4,1.4-.4,2.1,0,.3,.2,.5,.5,.7,.8,.2,.4,.3,.8,.2,1.2,0,.4-.1,.8-.2,1.2-.1,.3-.4,.6-.7,.8-.4,.3-.8,.4-1.1,.3Zm0-.6c.3,0,.5-.1,.7-.2,.2-.2,.3-.4,.4-.6,.1-.3,.1-.5,.1-.8s0-.6-.1-.8c-.1-.2-.2-.5-.4-.6-.4-.3-1-.3-1.5,0-.2,.2-.3,.4-.4,.6-.1,.3-.1,.5-.1,.8s0,.6,.1,.8c.1,.2,.2,.5,.4,.6,.3,.2,.5,.2,.8,.2h0Z" style="fill: #333;"/>
  <path d="M162.6,453.8l-.6,.2c0-.1-.1-.2-.2-.3-.1-.1-.2-.2-.3-.2-.2-.1-.3-.1-.5-.1s-.5,.1-.7,.2-.3,.3-.3,.5,.1,.3,.2,.4c.2,.1,.4,.2,.6,.2l.6,.2c.3,.1,.6,.2,.9,.4,.2,.2,.3,.5,.3,.8,0,.2-.1,.5-.2,.7-.2,.2-.4,.4-.6,.5-.3,.1-.6,.2-.9,.2-.4,0-.8-.1-1.1-.3-.3-.2-.5-.5-.6-.9l.6-.2c0,.2,.2,.4,.3,.5,.2,.1,.4,.2,.7,.2s.5-.1,.7-.2,.3-.3,.3-.5c0-.1-.1-.3-.2-.4-.1-.1-.3-.2-.5-.2l-.7-.2c-.3-.1-.6-.2-.9-.4-.2-.2-.3-.5-.3-.8,0-.2,.1-.5,.2-.6,.1-.2,.3-.4,.6-.5s.5-.2,.8-.2c.4,0,.7,.1,1,.3,.5,.1,.7,.4,.8,.7Z" style="fill: #333;"/>
  <path d="M169.6,458.8h-.7v-2.3h0l-.2,.3c-.1,.1-.2,.2-.4,.3-.2,.1-.4,.1-.7,.1-.4,0-.7-.1-1-.3-.3-.2-.5-.5-.6-.8-.2-.4-.2-.8-.2-1.2s.1-.8,.2-1.2c.1-.3,.4-.6,.6-.8,.3-.2,.6-.3,1-.3,.2,0,.5,0,.7,.1,.1,.1,.3,.2,.4,.3,.1,.1,.1,.2,.2,.3h.1v-.7h.6v6.2Zm-.7-3.8c0-.3,0-.6-.1-.9-.1-.2-.2-.4-.4-.6-.2-.1-.4-.2-.7-.2s-.5,.1-.7,.2c-.2,.2-.3,.4-.4,.6-.1,.3-.1,.5-.1,.8s0,.6,.1,.8c.1,.2,.2,.4,.4,.6s.4,.2,.7,.2c.2,0,.5-.1,.7-.2,.2-.2,.3-.4,.4-.6,0-.1,.1-.4,.1-.7h0Z" style="fill: #333;"/>
  <path d="M173.5,455.4v-2.6h.7v4.4h-.7v-.7h0c-.1,.2-.3,.4-.5,.6s-.5,.3-.8,.2c-.3,0-.5-.1-.7-.2s-.4-.3-.5-.5c-.1-.3-.2-.6-.2-.9v-2.8h.7v2.7c0,.3,.1,.6,.3,.8,.2,.2,.4,.3,.7,.3,.2,0,.4-.1,.5-.1,.2-.1,.3-.2,.4-.4,.1-.4,.2-.6,.1-.8Z" style="fill: #333;"/>
  <path d="M177.3,457.2c-.4,0-.8-.1-1.1-.3-.3-.2-.5-.5-.7-.8-.3-.8-.3-1.6,0-2.4,.1-.3,.4-.6,.7-.8,.3-.2,.6-.3,1-.3,.2,0,.5,0,.7,.1s.4,.2,.6,.4c.2,.2,.3,.4,.4,.7,.1,.3,.2,.7,.2,1v.3h-3.3v-.6h2.7c0-.2,0-.4-.1-.6s-.2-.4-.4-.5c-.4-.2-.9-.2-1.3,0-.2,.1-.3,.3-.4,.5-.1,.2-.2,.4-.1,.7v.4c0,.3,0,.6,.2,.8,.1,.2,.3,.4,.5,.5s.5,.2,.7,.2,.3,0,.5-.1c.1,0,.3-.1,.4-.2,.1-.1,.2-.2,.2-.4l.6,.2c-.1,.2-.2,.4-.4,.6s-.4,.3-.6,.4c-.5,.2-.8,.2-1,.2Z" style="fill: #333;"/>
  <path d="M185.4,453.8l-.6,.2c0-.1-.1-.2-.2-.3-.1-.1-.2-.2-.3-.2-.2-.1-.3-.1-.5-.1s-.5,.1-.7,.2-.3,.3-.3,.5,.1,.3,.2,.4c.2,.1,.4,.2,.6,.2l.6,.2c.3,.1,.6,.2,.9,.4,.4,.4,.4,1,.1,1.4-.1,.2-.4,.4-.6,.5-.3,.1-.6,.2-.9,.2-.4,0-.8-.1-1.1-.3-.3-.2-.5-.5-.6-.9l.6-.2c0,.2,.2,.4,.4,.5s.4,.2,.7,.2,.5-.1,.8-.2c.2-.1,.3-.3,.3-.5,0-.1-.1-.3-.2-.4-.1-.1-.3-.2-.5-.2l-.7-.2c-.3-.1-.6-.2-.9-.4-.2-.2-.3-.5-.3-.8,0-.2,.1-.5,.2-.6,.1-.2,.3-.4,.6-.5s.5-.2,.8-.2c.4,0,.7,.1,1,.3,.3,.2,.5,.5,.6,.8Z" style="fill: #333;"/>
  <path d="M188.4,457.2c-.4,0-.8-.1-1.1-.3-.3-.2-.5-.5-.7-.8-.3-.8-.3-1.6,0-2.4,.2-.3,.4-.6,.7-.8,.3-.2,.6-.3,1-.3,.2,0,.5,0,.7,.1s.4,.2,.6,.4c.2,.2,.3,.4,.4,.7,.1,.3,.2,.7,.2,1v.3h-3.4v-.6h2.7c0-.2,0-.4-.1-.6s-.2-.4-.4-.5c-.4-.2-.9-.2-1.3,0-.2,.1-.3,.3-.4,.5-.1,.2-.2,.4-.1,.7v.4c0,.3,0,.6,.2,.8,.1,.2,.3,.4,.5,.5s.5,.2,.7,.2,.3,0,.5-.1c.1,0,.3-.1,.4-.2,.1-.1,.2-.2,.2-.4l.6,.2c-.1,.2-.2,.4-.4,.6s-.4,.3-.6,.4c-.4,.2-.7,.2-.9,.2Z" style="fill: #333;"/>
  <path d="M195.2,457.2c-.4,0-.7-.1-1-.3-.3-.2-.5-.5-.7-.8-.2-.4-.3-.8-.2-1.2,0-.4,.1-.8,.2-1.2,.2-.3,.4-.6,.7-.8,.3-.2,.6-.3,1-.3s.7,.1,1,.3c.3,.2,.5,.5,.7,.8,.2,.4,.3,.8,.2,1.2,0,.4-.1,.8-.2,1.2-.2,.3-.4,.6-.7,.8s-.6,.3-1,.3Zm0-.6c.3,0,.5-.1,.7-.2,.2-.2,.3-.4,.4-.6,.1-.3,.1-.5,.1-.8s0-.6-.1-.8c-.1-.2-.2-.4-.4-.6s-.5-.2-.7-.2c-.3,0-.5,.1-.7,.2-.2,.2-.3,.4-.4,.6-.1,.3-.1,.5-.1,.8s0,.6,.1,.8c.1,.2,.2,.4,.4,.6s.4,.2,.7,.2h0Z" style="fill: #333;"/>
  <path d="M200.1,452.8v.6h-2.4v-.6h2.4Zm-1.6,4.3v-5c0-.2,.1-.4,.2-.6,.1-.2,.3-.3,.5-.4s.4-.1,.6-.1h.4c.1,0,.2,0,.2,.1l-.2,.6h-.4c-.2,0-.4,0-.5,.2-.1,.1-.2,.3-.1,.5v4.8h-.7v-.1Z" style="fill: #333;"/>
  <path d="M201.1,457.1v-4.4h.6v.6h0c.1-.2,.2-.4,.4-.5s.5-.2,.7-.2h.4v.7h-.4c-.2,0-.4,0-.6,.1-.2,.1-.3,.2-.4,.4s-.1,.3-.1,.5v2.8h-.6Z" style="fill: #333;"/>
  <path d="M205.8,457.2c-.4,0-.8-.1-1.1-.3-.3-.2-.5-.5-.7-.8-.3-.8-.3-1.6,0-2.4,.1-.3,.4-.6,.7-.8,.3-.2,.6-.3,1-.3,.2,0,.5,0,.7,.1s.4,.2,.6,.4c.2,.2,.3,.4,.4,.7,.1,.3,.2,.7,.2,1v.3h-3.3v-.6h2.7c0-.2,0-.4-.1-.6s-.2-.4-.4-.5c-.4-.2-.9-.2-1.3,0-.2,.1-.3,.3-.4,.5-.1,.2-.2,.4-.2,.7v.4c0,.3,.1,.6,.2,.8s.3,.4,.5,.5,.5,.2,.7,.2,.3,0,.5-.1c.1,0,.3-.1,.4-.2,.1-.1,.2-.2,.2-.4l.6,.2c-.1,.2-.2,.4-.4,.6s-.4,.3-.6,.4c-.4,.2-.7,.2-.9,.2Z" style="fill: #333;"/>
  <path d="M210.4,457.2c-.4,0-.7-.1-1.1-.3-.3-.2-.5-.5-.7-.8-.2-.4-.2-.8-.2-1.2s.1-.8,.2-1.2c.1-.3,.4-.6,.7-.8,.3-.2,.6-.3,1-.3,.3,0,.6,.1,.8,.2s.4,.3,.6,.5c.2,.2,.3,.5,.3,.7h-.7c-.1-.2-.2-.4-.3-.5-.2-.2-.5-.2-.7-.2s-.5,.1-.7,.2-.4,.3-.4,.6c-.1,.3-.2,.6-.2,.9s.1,.6,.2,.9c.1,.2,.3,.4,.5,.6,.2,.1,.4,.2,.7,.2,.2,0,.3,0,.5-.1,.1-.1,.3-.1,.4-.3,.1-.1,.2-.3,.2-.4h.7c0,.2-.1,.5-.3,.7s-.4,.4-.6,.5c-.4,.1-.7,.1-.9,.1Z" style="fill: #333;"/>
  <path d="M214.9,457.2c-.4,0-.8-.1-1.1-.3-.3-.2-.6-.5-.7-.8-.3-.8-.3-1.6,0-2.4,.2-.3,.4-.6,.7-.8,.3-.2,.6-.3,1-.3,.2,0,.5,0,.7,.1,.5,.2,.8,.5,1,1,.1,.3,.2,.7,.2,1v.3h-3.4v-.6h2.8c0-.2,0-.4-.1-.6s-.2-.3-.4-.5c-.2-.1-.4-.2-.6-.2s-.5,.1-.7,.2-.3,.3-.4,.5c-.1,.2-.2,.4-.2,.7v.4c0,.3,.1,.6,.2,.8s.3,.4,.5,.5,.5,.2,.7,.2,.3,0,.5-.1c.1,0,.3-.1,.4-.2,.1-.1,.2-.2,.3-.3l.6,.2-.3,.6c-.2,.2-.4,.3-.6,.4-.6,.2-.8,.3-1.1,.2Z" style="fill: #333;"/>
  <path d="M221.8,457.2c-.4,0-.8-.1-1.1-.3-.3-.2-.6-.5-.7-.8-.3-.8-.3-1.6,0-2.4,.2-.3,.4-.6,.7-.8,.3-.2,.6-.3,1-.3,.2,0,.5,0,.7,.1s.4,.2,.6,.4c.2,.2,.3,.4,.4,.7,.1,.3,.2,.7,.2,1v.3h-3.4v-.6h2.7c0-.2,0-.4-.1-.6s-.2-.3-.4-.5c-.2-.1-.4-.2-.6-.2s-.5,.1-.7,.2-.3,.3-.4,.5c-.1,.2-.2,.4-.1,.7v.4c0,.3,.1,.6,.2,.8s.3,.4,.5,.5,.5,.2,.7,.2,.3,0,.5-.1c.1,0,.3-.1,.4-.2,.1-.1,.2-.2,.2-.4l.6,.2-.3,.6c-.2,.2-.4,.3-.6,.4-.5,.2-.7,.2-1,.2Z" style="fill: #333;"/>
  <path d="M225.3,451.3v5.8h-.7v-5.8h.7Z" style="fill: #333;"/>
  <path d="M231.9,453.8l-.6,.2c0-.1-.1-.2-.2-.3-.1-.1-.2-.2-.3-.2-.1-.1-.3-.1-.5-.1s-.5,.1-.7,.2-.3,.3-.3,.5,.1,.3,.2,.4c.2,.1,.4,.2,.6,.2l.6,.2c.3,.1,.6,.2,.9,.4,.2,.2,.3,.5,.3,.8,0,.2-.1,.5-.2,.7-.2,.2-.4,.4-.6,.5-.3,.1-.6,.2-.9,.2-.4,0-.8-.1-1.1-.3-.3-.2-.5-.5-.6-.9l.6-.2c0,.2,.2,.4,.4,.5s.4,.2,.7,.2,.5-.1,.8-.2c.2-.1,.3-.3,.3-.5,0-.1-.1-.3-.2-.4-.1-.1-.3-.2-.5-.2l-.7-.2c-.3-.1-.6-.2-.9-.4-.2-.2-.3-.5-.3-.8,0-.2,.1-.5,.2-.6,.1-.2,.3-.4,.6-.5s.5-.2,.8-.2c.4,0,.7,.1,1,.3,.3,.1,.5,.4,.6,.7Z" style="fill: #333;"/>
  <path d="M234.8,457.2c-.4,0-.8-.1-1.1-.3-.3-.2-.5-.5-.7-.8-.3-.8-.3-1.6,0-2.4,.2-.3,.4-.6,.7-.8,.3-.2,.6-.3,1-.3,.2,0,.5,0,.7,.1s.4,.2,.6,.4c.2,.2,.3,.4,.4,.7,.1,.3,.2,.7,.2,1v.3h-3.4v-.6h2.7c0-.2,0-.4-.1-.6s-.2-.4-.4-.5-.4-.2-.6-.2-.5,.1-.7,.2-.3,.3-.4,.5c-.1,.2-.2,.4-.1,.7v.4c0,.3,0,.6,.2,.8,.1,.2,.3,.4,.5,.5s.5,.2,.7,.2,.3,0,.5-.1c.1,0,.3-.1,.4-.2,.1-.1,.2-.2,.2-.4l.6,.2-.3,.6c-.2,.2-.4,.3-.6,.4-.5,.2-.8,.2-1,.2Z" style="fill: #333;"/>
  <path d="M237.6,457.1v-4.4h.6v.6h0c.1-.2,.2-.4,.4-.5s.5-.2,.7-.2h.4v.7h-.4c-.2,0-.4,0-.6,.1-.2,.1-.3,.2-.4,.4s-.1,.3-.1,.5v2.8h-.6Z" style="fill: #333;"/>
  <path d="M244.3,452.8l-1.6,4.4h-.7l-1.6-4.4h.7l1.2,3.5h.1l1.2-3.5h.7Z" style="fill: #333;"/>
  <path d="M245.5,452.1c-.1,0-.2-.1-.3-.1-.1-.1-.1-.2-.1-.3s.1-.2,.1-.3c.2-.2,.5-.2,.7,0,.1,.1,.1,.2,.1,.3s-.1,.2-.1,.3c-.1,0-.3,.1-.4,.1Zm-.3,5v-4.4h.7v4.4h-.7Z" style="fill: #333;"/>
  <path d="M248.9,457.2c-.4,0-.7-.1-1.1-.3-.3-.2-.5-.5-.7-.8-.2-.4-.2-.8-.2-1.2s.1-.8,.2-1.2c.1-.3,.4-.6,.7-.8,.3-.2,.6-.3,1-.3,.3,0,.6,.1,.8,.2s.4,.3,.6,.5c.2,.2,.3,.5,.3,.7h-.7c-.1-.5-.5-.8-1-.8-.2,0-.5,.1-.7,.2s-.4,.3-.4,.6c-.1,.3-.2,.6-.2,.9s.1,.6,.2,.9c.1,.2,.3,.4,.5,.6,.2,.1,.4,.2,.7,.2,.2,0,.3,0,.5-.1,.1-.1,.3-.1,.4-.3,.1-.1,.2-.3,.2-.4h.7c0,.2-.1,.5-.3,.7s-.4,.4-.6,.5c-.4,.2-.7,.2-.9,.2Z" style="fill: #333;"/>
  <path d="M251.9,452.1c-.1,0-.2,0-.3-.1s-.1-.2-.1-.3,0-.2,.1-.3c.1-.1,.2-.1,.3-.1s.2,0,.3,.1,.1,.2,.1,.3-.1,.2-.1,.3c-.1,0-.2,.1-.3,.1Zm-.4,5v-4.4h.7v4.4h-.7Z" style="fill: #333;"/>
  <path d="M255.2,457.2c-.4,0-.7-.1-1-.3-.3-.2-.5-.5-.7-.8-.2-.4-.2-.8-.2-1.2s.1-.8,.2-1.2c.2-.3,.4-.6,.7-.8,.3-.2,.6-.3,1-.3,.7,0,1.4,.4,1.7,1.1,.2,.4,.3,.8,.2,1.2,0,.4-.1,.8-.2,1.2-.3,.7-.9,1.2-1.7,1.1Zm0-.6c.3,0,.5-.1,.7-.2,.2-.2,.3-.4,.4-.6,.1-.3,.1-.5,.1-.8s0-.6-.1-.8c-.1-.2-.2-.4-.4-.6-.2-.2-.5-.2-.7-.2-.3,0-.5,.1-.7,.2-.2,.2-.3,.4-.4,.6-.1,.3-.1,.5-.1,.8s0,.5,.1,.8c.1,.2,.2,.4,.4,.6s.4,.2,.7,.2h0Z" style="fill: #333;"/>
  <path d="M258.7,457.2c-.3,0-.5-.2-.5-.5s.2-.5,.5-.5,.5,.2,.5,.5c0,.1,0,.2-.1,.3,0,.1-.1,.1-.2,.2h-.2Z" style="fill: #333;"/>
  <path d="M120.3,470.5v5.8h-.7v-5.8h.7Z" style="fill: #212121;"/>
  <path d="M122.3,473.7v2.6h-.7v-4.3h.7v.7h.1c.1-.2,.3-.4,.5-.5s.5-.2,.8-.2,.5,.1,.8,.2c.2,.1,.4,.3,.5,.5,.1,.3,.2,.6,.2,.9v2.8h-.7v-2.7c0-.3-.1-.6-.3-.8-.2-.2-.5-.3-.7-.3s-.4,0-.6,.1-.3,.2-.4,.4c-.1,.2-.2,.4-.2,.6Z" style="fill: #212121;"/>
  <path d="M128.3,472v.6h-2.4v-.6h2.4Zm-1.7,4.4v-5c0-.2,.1-.4,.2-.6s.3-.3,.5-.4,.4-.1,.6-.1h.4c.1,0,.2,0,.2,.1l-.2,.6h-.3c-.2,0-.4,0-.5,.2-.1,.1-.2,.3-.1,.5v4.8h-.8v-.1Z" style="fill: #212121;"/>
  <path d="M130.8,476.4c-.4,0-.7-.1-1-.3-.3-.2-.5-.5-.7-.8-.2-.4-.3-.8-.2-1.2,0-.4,.1-.8,.2-1.2,.2-.3,.4-.6,.7-.8,.3-.2,.6-.3,1-.3s.7,.1,1,.3c.3,.2,.5,.5,.7,.8,.2,.4,.3,.8,.2,1.2,0,.4-.1,.8-.2,1.2-.2,.3-.4,.6-.7,.8s-.6,.3-1,.3Zm0-.6c.3,0,.5-.1,.7-.2,.2-.2,.3-.4,.4-.6,.1-.3,.1-.5,.1-.8s0-.6-.1-.8c-.1-.2-.2-.4-.4-.6s-.5-.2-.7-.2c-.3,0-.5,.1-.7,.2-.2,.2-.3,.4-.4,.6-.1,.3-.1,.5-.1,.8s0,.6,.1,.8c.1,.2,.2,.4,.4,.6s.5,.2,.7,.2Z" style="fill: #212121;"/>
  <path d="M133.8,476.4v-4.4h.6v.6h0c.1-.2,.2-.4,.4-.5s.5-.2,.7-.2h.4v.7h-.4c-.2,0-.4,0-.6,.1-.2,.1-.3,.2-.4,.4s-.1,.3-.1,.5v2.8h-.6Z" style="fill: #212121;"/>
  <path d="M136.8,476.4v-4.4h.6v.7h.1c.1-.2,.2-.4,.4-.5s.5-.2,.7-.2c.3,0,.5,.1,.7,.2s.4,.3,.4,.5h0c.1-.2,.3-.4,.5-.5s.5-.2,.8-.2c.4,0,.7,.1,1,.4s.4,.7,.4,1.1v2.9h-.7v-2.9c0-.3-.1-.5-.3-.7-.2-.1-.4-.2-.6-.2-.3,0-.5,.1-.7,.3-.2,.2-.3,.4-.2,.7v2.8h-.7v-3c0-.2-.1-.4-.2-.6-.2-.2-.4-.2-.6-.2s-.3,0-.5,.1-.3,.2-.4,.4-.1,.4-.1,.6v2.7h-.6Z" style="fill: #212121;"/>
  <path d="M145,476.5c-.3,0-.5,0-.8-.2-.2-.1-.4-.3-.5-.5s-.2-.5-.2-.7,0-.4,.1-.6,.2-.3,.4-.4,.4-.2,.6-.2,.4-.1,.6-.1l.6-.1c.1,0,.2,0,.4-.1,.1,0,.1-.1,.1-.2h0c0-.2-.1-.5-.2-.7-.2-.2-.4-.2-.7-.2-.5,0-.9,.2-1.1,.7l-.6-.2c.1-.2,.3-.5,.5-.6s.4-.2,.6-.3c.2-.1,.4-.1,.7-.1h.5c.2,0,.4,.1,.5,.2,.2,.1,.3,.3,.4,.5,.1,.3,.2,.5,.2,.8v2.9h-.7v-.6h0c-.1,.1-.1,.2-.2,.3-.1,.1-.3,.2-.4,.3-.3,0-.6,.1-.8,.1Zm.1-.6c.2,0,.5,0,.7-.2,.2-.1,.3-.2,.4-.4s.1-.3,.1-.5v-.6c-.1,0-.1,.1-.2,.1l-.3,.1h-.7c-.2,0-.3,0-.5,.1-.1,.1-.3,.1-.4,.2-.1,.1-.1,.3-.1,.4,0,.2,.1,.4,.3,.5,.2,.2,.5,.3,.7,.3h0Z" style="fill: #212121;"/>
  <path d="M150,476.4c-.4,0-.7-.1-1.1-.3-.3-.2-.5-.5-.7-.8-.2-.4-.2-.8-.2-1.2s.1-.8,.2-1.2c.2-.3,.4-.6,.7-.8,.3-.2,.6-.3,1-.3,.3,0,.6,.1,.8,.2s.5,.3,.6,.5c.2,.2,.3,.5,.3,.7h-.6c-.1-.2-.2-.4-.3-.5-.2-.2-.5-.2-.7-.2s-.5,.1-.7,.2-.4,.3-.5,.6c-.1,.3-.2,.6-.2,.9s0,.6,.2,.9c.1,.2,.3,.4,.4,.6,.2,.1,.4,.2,.7,.2,.2,0,.3,0,.5-.1,.1-.1,.3-.1,.4-.3,.1-.1,.2-.3,.2-.4h.7c0,.2-.1,.5-.3,.7s-.4,.4-.6,.5c-.2,.1-.5,.1-.8,.1Z" style="fill: #212121;"/>
  <path d="M153.1,471.3c-.1,0-.2-.1-.3-.1-.1-.1-.1-.2-.1-.3s.1-.2,.1-.3c.2-.2,.5-.2,.7,0,.1,.1,.1,.2,.1,.3s0,.2-.1,.3c-.2,0-.3,.1-.4,.1Zm-.4,5.1v-4.4h.7v4.4h-.7Z" style="fill: #212121;"/>
  <path d="M156.4,476.4c-.7,0-1.4-.4-1.7-1.1-.2-.4-.3-.8-.2-1.2,0-.4,.1-.8,.2-1.2,.3-.7,1-1.1,1.7-1.1,.4,0,.7,.1,1,.3,.3,.2,.5,.5,.7,.8,.2,.4,.3,.8,.2,1.2,0,.4-.1,.8-.2,1.2-.2,.3-.4,.6-.7,.8-.3,.2-.6,.3-1,.3Zm0-.6c.3,0,.5-.1,.7-.2,.2-.2,.3-.4,.4-.6,.1-.3,.1-.5,.1-.8s0-.6-.1-.8c-.1-.2-.2-.4-.4-.6s-.5-.2-.7-.2c-.3,0-.5,.1-.7,.2-.2,.2-.3,.4-.4,.6-.1,.3-.1,.5-.1,.8s0,.6,.1,.8c.1,.2,.2,.4,.4,.6s.4,.2,.7,.2Zm-.3-4.4l.7-1.3h.8l-.9,1.3h-.6Z" style="fill: #212121;"/>
  <path d="M160.1,473.7v2.6h-.7v-4.3h.6v.7h0c.1-.2,.3-.4,.5-.5s.5-.2,.8-.2,.5,.1,.8,.2c.2,.1,.4,.3,.5,.5,.1,.3,.2,.6,.2,.9v2.8h-.7v-2.7c0-.3-.1-.6-.3-.8-.2-.2-.5-.3-.7-.3s-.4,0-.6,.1c-.2,.1-.3,.2-.4,.4,0,.2,0,.4,0,.6Z" style="fill: #212121;"/>
  <path d="M169.4,473l-.6,.2c0-.1-.1-.2-.2-.3-.1-.1-.2-.2-.3-.2-.2-.1-.3-.1-.5-.1s-.5,.1-.7,.2-.3,.3-.3,.5,.1,.3,.2,.4c.2,.1,.4,.2,.6,.2l.6,.2c.3,.1,.6,.2,.9,.4,.2,.2,.3,.5,.3,.8,0,.2-.1,.5-.2,.7-.2,.2-.4,.4-.6,.5-.3,.1-.6,.2-.9,.2-.4,0-.8-.1-1.1-.3-.3-.2-.5-.5-.6-.9l.6-.2c0,.2,.2,.4,.4,.5s.4,.2,.7,.2,.5-.1,.7-.2,.3-.3,.3-.5c0-.1-.1-.3-.2-.4-.1-.1-.3-.2-.5-.2l-.7-.2c-.3-.1-.6-.2-.9-.4-.2-.2-.3-.5-.3-.8,0-.2,.1-.5,.2-.6,.1-.2,.3-.4,.6-.5s.5-.2,.8-.2c.4,0,.7,.1,1,.3,.4,.1,.6,.4,.7,.7Z" style="fill: #212121;"/>
  <path d="M172.3,476.4c-.4,0-.7-.1-1-.3-.3-.2-.5-.5-.7-.8-.2-.4-.3-.8-.2-1.2,0-.4,.1-.8,.2-1.2,.1-.3,.4-.6,.7-.8,.6-.4,1.4-.4,2.1,0,.3,.2,.5,.5,.7,.8,.2,.4,.3,.8,.2,1.2,0,.4-.1,.8-.2,1.2-.1,.3-.4,.6-.7,.8-.4,.3-.7,.4-1.1,.3Zm0-.6c.3,0,.5-.1,.7-.2,.2-.2,.3-.4,.4-.6,.1-.3,.1-.5,.1-.8s0-.6-.1-.8c-.1-.2-.2-.5-.4-.6-.4-.3-1-.3-1.5,0-.2,.2-.3,.4-.4,.6-.1,.3-.1,.5-.1,.8s0,.6,.1,.8c.1,.2,.2,.5,.4,.6,.3,.2,.5,.2,.8,.2Z" style="fill: #212121;"/>
  <path d="M175.4,476.4v-5.8h.7v2.1h0c.1-.1,.1-.2,.2-.3,.1-.1,.2-.2,.4-.3,.2-.1,.4-.2,.7-.1,.4,0,.7,.1,1,.3,.3,.2,.5,.5,.7,.8,.2,.4,.3,.8,.2,1.2,0,.4-.1,.8-.2,1.2-.1,.3-.4,.6-.6,.8-.3,.2-.6,.3-1,.3-.2,0-.5,0-.7-.1s-.3-.2-.4-.3l-.2-.3h0v.7l-.8-.2Zm.6-2.2c0,.3,0,.6,.1,.9,.1,.2,.2,.4,.4,.6,.4,.3,1,.3,1.4,0,.2-.2,.3-.4,.4-.6,.1-.3,.2-.6,.1-.8,0-.3,0-.6-.1-.8-.1-.2-.2-.4-.4-.6s-.5-.2-.7-.2-.5,.1-.7,.2-.3,.3-.4,.6c0,.1-.1,.4-.1,.7h0Z" style="fill: #212121;"/>
  <path d="M180.2,476.4v-4.4h.6v.6h0c.1-.2,.2-.4,.4-.5s.5-.2,.7-.2h.4v.7h-.3c-.2,0-.4,0-.6,.1-.2,.1-.3,.2-.4,.4s-.1,.3-.1,.5v2.8h-.7Z" style="fill: #212121;"/>
  <path d="M184.9,476.4c-.4,0-.8-.1-1.1-.3-.3-.2-.5-.5-.7-.8-.3-.8-.3-1.6,0-2.4,.2-.3,.4-.6,.7-.8,.3-.2,.6-.3,1-.3,.2,0,.5,0,.7,.1s.4,.2,.6,.4c.2,.2,.3,.4,.4,.7,.1,.3,.2,.7,.2,1v.3h-3.4v-.6h2.7c0-.2,0-.4-.1-.6s-.2-.4-.4-.5-.4-.2-.6-.2-.5,.1-.7,.2-.3,.3-.4,.5c-.1,.2-.2,.4-.1,.7v.4c0,.3,0,.6,.2,.8,.1,.2,.3,.4,.5,.5s.5,.2,.7,.2,.3,0,.5-.1c.1,0,.3-.1,.4-.2,.1-.1,.2-.2,.2-.4l.6,.2-.3,.6c-.2,.2-.4,.3-.6,.4-.5,.2-.7,.2-1,.2Z" style="fill: #212121;"/>
  <path d="M193.1,473l-.6,.2c0-.1-.1-.2-.2-.3-.1-.1-.2-.2-.3-.2-.2-.1-.3-.1-.5-.1s-.5,.1-.7,.2-.3,.3-.3,.5,.1,.3,.2,.4c.2,.1,.4,.2,.6,.2l.6,.2c.3,.1,.6,.2,.9,.4,.2,.2,.3,.5,.3,.8,0,.2-.1,.5-.2,.7-.2,.2-.4,.4-.6,.5-.3,.1-.6,.2-.9,.2-.4,0-.8-.1-1.1-.3-.3-.2-.5-.5-.6-.9l.6-.2c0,.2,.2,.4,.4,.5s.4,.2,.7,.2,.5-.1,.7-.2,.3-.3,.3-.5c0-.1-.1-.3-.2-.4-.1-.1-.3-.2-.5-.2l-.7-.2c-.3-.1-.6-.2-.9-.4-.2-.2-.3-.5-.3-.8,0-.2,.1-.5,.2-.6,.1-.2,.3-.4,.6-.5s.5-.2,.8-.2c.4,0,.7,.1,1,.3,.4,.1,.6,.4,.7,.7Z" style="fill: #212121;"/>
  <path d="M196,476.4c-.4,0-.8-.1-1.1-.3-.3-.2-.5-.5-.7-.8-.3-.8-.3-1.6,0-2.4,.2-.3,.4-.6,.7-.8,.3-.2,.6-.3,1-.3,.2,0,.5,0,.7,.1s.4,.2,.6,.4c.2,.2,.3,.4,.4,.7,.1,.3,.2,.7,.2,1v.3h-3.4v-.6h2.7c0-.2,0-.4-.1-.6s-.2-.3-.4-.5c-.2-.1-.4-.2-.6-.2s-.5,.1-.7,.2-.3,.3-.4,.5c-.1,.2-.2,.4-.1,.7v.4c0,.3,.1,.6,.2,.8s.3,.4,.5,.5,.5,.2,.7,.2,.3,0,.5-.1c.1,0,.3-.1,.4-.2,.1-.1,.2-.2,.2-.4l.6,.2-.3,.6c-.2,.2-.4,.3-.6,.4-.5,.2-.7,.2-1,.2Z" style="fill: #212121;"/>
  <path d="M200.6,478.1c-.3,0-.6,0-.8-.1s-.4-.2-.6-.3c-.1-.1-.3-.3-.4-.4l.5-.4,.2,.3c.1,.1,.2,.2,.4,.3,.2,.1,.4,.1,.6,.1,.3,0,.6-.1,.9-.3,.2-.2,.4-.5,.4-.8v-.9h-.1l-.2,.3c-.1,.1-.2,.2-.4,.3-.2,.1-.4,.1-.7,.1-.4,0-.7-.1-1-.2-.3-.2-.5-.4-.7-.7-.2-.4-.3-.8-.2-1.2,0-.4,.1-.8,.2-1.2,.1-.3,.4-.6,.7-.8,.3-.2,.6-.3,1-.3,.2,0,.5,0,.7,.1,.1,.1,.3,.2,.4,.3,.1,.1,.1,.2,.2,.3h.1v-.6h.6v4.5c0,.3-.1,.6-.3,.9-.2,.2-.4,.4-.7,.5-.2,.1-.5,.2-.8,.2Zm0-2.4c.2,0,.5-.1,.7-.2s.3-.3,.4-.5c.1-.3,.2-.5,.1-.8,0-.3,0-.6-.1-.8-.1-.2-.2-.4-.4-.6-.2-.1-.4-.2-.7-.2s-.5,.1-.7,.2-.3,.3-.4,.6c-.2,.5-.2,1.1,0,1.6,.1,.2,.2,.4,.4,.5,.2,.1,.4,.2,.7,.2h0Z" style="fill: #212121;"/>
  <path d="M206.5,474.6v-2.6h.7v4.4h-.7v-.7h-.1c-.1,.2-.3,.4-.5,.6-.5,.3-1.1,.3-1.5,0-.2-.1-.4-.3-.5-.5-.1-.3-.2-.6-.2-.9v-2.9h.7v2.7c0,.3,.1,.6,.3,.8,.2,.2,.4,.3,.7,.3,.2,0,.4,0,.5-.1,.2-.1,.3-.2,.4-.4,.1-.3,.2-.5,.2-.7Z" style="fill: #212121;"/>
  <path d="M208.4,476.4v-4.4h.6v.6h.1c.1-.2,.2-.4,.4-.5s.5-.2,.7-.2h.4v.7h-.4c-.2,0-.4,0-.6,.1-.2,.1-.3,.2-.4,.4s-.2,.3-.1,.5v2.8h-.7Z" style="fill: #212121;"/>
  <path d="M211.7,471.3c-.1,0-.2-.1-.3-.1-.1-.1-.1-.2-.1-.3s.1-.2,.1-.3c.2-.2,.5-.2,.7,0,.1,.1,.1,.2,.1,.3s0,.2-.1,.3c-.2,0-.3,.1-.4,.1Zm-.4,5.1v-4.4h.7v4.4h-.7Z" style="fill: #212121;"/>
  <path d="M214.9,476.4c-.4,0-.7-.1-1-.3-.3-.2-.5-.5-.6-.8-.2-.4-.2-.8-.2-1.2s.1-.8,.2-1.2c.1-.3,.4-.6,.7-.8,.3-.2,.6-.3,1-.3,.2,0,.5,0,.7,.1s.3,.2,.4,.3c.1,.1,.1,.2,.2,.3h.1v-2.1h.7v5.8h-.6v-.7h-.1l-.4,.5c-.1,.1-.2,.2-.4,.3-.2,.1-.5,.1-.7,.1Zm.1-.6c.2,0,.5-.1,.7-.2,.2-.2,.3-.4,.4-.6,.1-.3,.2-.6,.1-.9,0-.3,0-.6-.1-.9-.1-.2-.2-.4-.4-.6-.2-.1-.4-.2-.7-.2s-.5,.1-.7,.2c-.2,.2-.3,.4-.4,.6-.1,.3-.1,.5-.1,.8s0,.6,.1,.8c.1,.2,.2,.4,.4,.6,.2,.4,.4,.5,.7,.4h0Z" style="fill: #212121;"/>
  <path d="M219.5,476.5c-.3,0-.5,0-.8-.2-.2-.1-.4-.2-.5-.5-.1-.2-.2-.5-.2-.7s0-.4,.1-.6,.2-.3,.4-.4,.4-.2,.6-.2,.4-.1,.6-.1l.6-.1c.1,0,.2,0,.4-.1,.1,0,.1-.1,.1-.2h0c0-.2-.1-.5-.2-.7-.2-.2-.4-.2-.7-.2s-.5,.1-.8,.2c-.2,.1-.3,.3-.4,.5l-.6-.2c.1-.2,.3-.5,.5-.6s.4-.3,.6-.3c.2-.1,.4-.1,.7-.1h.5c.2,0,.4,.1,.5,.2,.2,.1,.3,.3,.4,.5,.1,.3,.2,.5,.2,.8v2.9h-.7v-.6h0c-.1,.1-.1,.2-.2,.3-.1,.1-.3,.2-.4,.3-.2,0-.5,.1-.7,.1Zm.1-.6c.2,0,.5,0,.7-.2,.2-.1,.3-.2,.4-.4s.1-.3,.1-.5v-.6c-.1,0-.1,.1-.2,.1s-.2,.1-.3,.1h-.7c-.2,0-.3,0-.5,.1-.1,0-.3,.1-.4,.2-.1,.1-.1,.3-.1,.4,0,.2,.1,.4,.3,.5,.2,.2,.5,.2,.7,.3h0Z" style="fill: #212121;"/>
  <path d="M224.4,476.4c-.4,0-.7-.1-1-.3-.3-.2-.5-.5-.6-.8-.2-.4-.2-.8-.2-1.2s.1-.8,.2-1.2c.1-.3,.4-.6,.6-.8,.3-.2,.6-.3,1-.3,.2,0,.5,0,.7,.1,.1,.1,.3,.2,.4,.3,.1,.1,.1,.2,.2,.3h.1v-2.1h.7v5.8h-.6v-.7h-.1l-.2,.3c-.1,.1-.2,.2-.4,.3-.4,.3-.6,.3-.8,.3Zm0-.6c.2,0,.5-.1,.7-.2,.2-.2,.3-.4,.4-.6,.1-.3,.1-.6,.1-.9s0-.6-.1-.9c-.1-.2-.2-.4-.4-.6-.2-.1-.4-.2-.7-.2s-.5,.1-.7,.2c-.2,.2-.3,.4-.4,.6-.1,.3-.1,.5-.1,.8s0,.6,.1,.8c.1,.2,.2,.4,.4,.6,.2,.4,.5,.4,.7,.4Z" style="fill: #212121;"/>
  <path d="M126.6,406.3h-1c-.1-.3-.2-.6-.3-.8-.1-.2-.3-.4-.6-.6-.2-.2-.5-.3-.7-.4-.3-.1-.6-.1-.8-.1-.5,0-1,.1-1.4,.4s-.8,.7-1,1.2c-.5,1.2-.5,2.6,0,3.8,.2,.5,.6,.9,1,1.2,.4,.3,.9,.4,1.4,.4,.3,0,.6,0,.8-.1,.3-.1,.5-.2,.7-.4,.2-.2,.4-.4,.6-.6s.3-.5,.3-.8h1c-.1,.4-.2,.8-.4,1.2-.2,.3-.5,.7-.8,.9-.3,.2-.6,.4-1,.6-.4,.1-.8,.2-1.2,.2-.7,0-1.4-.2-2-.5-.6-.4-1.1-.9-1.4-1.5-.7-1.5-.7-3.2,0-4.8,.3-.6,.8-1.2,1.4-1.5,.6-.4,1.3-.6,2-.5,.4,0,.8,.1,1.2,.2,.4,.1,.7,.3,1,.6,.3,.2,.6,.6,.8,.9,.2,.2,.3,.6,.4,1Z" style="fill: #f60;"/>
  <path d="M128.3,412.3v-8.7h2.9c.6,0,1.2,.1,1.7,.4,.4,.2,.8,.5,1,1,.2,.4,.3,.9,.3,1.4s-.1,.9-.3,1.4c-.2,.4-.6,.7-1,.9-.5,.2-1.1,.4-1.7,.3h-2.4v-1h2.4c.4,0,.8-.1,1.1-.2s.5-.3,.6-.6c.1-.3,.2-.6,.2-.9s-.1-.6-.2-.9c-.1-.3-.4-.5-.6-.6-.4-.2-.7-.2-1.1-.2h-1.9v7.8l-1-.1Zm4.1-3.9l2.1,3.9h-1.2l-2.1-3.9h1.2Z" style="fill: #f60;"/>
  <path d="M136,412.3v-8.7h5.3v.9h-4.3v3h4v.9h-4v3h4.3v.9h-5.3Z" style="fill: #f60;"/>
  <path d="M143.5,412.3h-1.1l3.2-8.7h1.1l3.2,8.7h-1.1l-2.6-7.3h-.1l-2.6,7.3Zm.4-3.4h4.5v.9h-4.5v-.9Zm1.8-6.2l1-2h1.2l-1.3,2h-.9Z" style="fill: #f60;"/>
  <path d="M154.2,404.5v-.9h6.5v.9h-2.7v7.8h-1.1v-7.8h-2.7Z" style="fill: #f60;"/>
  <path d="M168.1,403.6h1.1v5.8c0,.6-.1,1.1-.4,1.6-.3,.5-.7,.8-1.2,1.1-1.1,.5-2.4,.5-3.6,0-.5-.3-.9-.6-1.2-1.1s-.4-1-.4-1.6v-5.8h1.1v5.7c0,.4,.1,.8,.3,1.1,.2,.3,.5,.6,.8,.8,.4,.2,.8,.3,1.2,.3s.9-.1,1.2-.3c.3-.2,.6-.4,.8-.8,.2-.3,.3-.7,.3-1.1v-5.7Z" style="fill: #f60;"/>
  <path d="M176,405.8c0-.4-.3-.8-.6-1-.4-.2-.9-.4-1.3-.4-.3,0-.7,.1-1,.2s-.5,.3-.7,.5-.2,.5-.2,.8c0,.2,.1,.4,.2,.6,.1,.2,.3,.3,.4,.4,.2,.1,.4,.2,.6,.3l.5,.2,.9,.2c.2,.1,.5,.1,.8,.2s.6,.3,.8,.4c.3,.2,.5,.4,.6,.7,.2,.3,.3,.7,.2,1,0,.5-.1,.9-.4,1.3-.3,.4-.6,.7-1.1,.9-.5,.2-1.1,.4-1.7,.3-.6,0-1.1-.1-1.6-.3-.4-.2-.8-.5-1.1-.8-.3-.4-.4-.8-.4-1.3h1.1c0,.3,.1,.6,.3,.8,.2,.2,.5,.4,.8,.5s.7,.2,1,.2c.4,0,.7-.1,1.1-.2,.3-.1,.6-.3,.8-.6,.2-.2,.3-.5,.3-.8s-.1-.5-.2-.7c-.2-.2-.4-.3-.6-.4-.3-.1-.6-.2-.9-.3l-1.1-.3c-.6-.2-1.1-.4-1.6-.8-.4-.4-.6-.9-.6-1.4s.1-.9,.4-1.3c.3-.4,.6-.7,1.1-.9,.5-.2,1-.3,1.5-.3s1,.1,1.5,.3c.4,.2,.7,.5,1,.8s.4,.8,.4,1.2h-1.2Z" style="fill: #f60;"/>
  <path d="M189.3,406.3h-1.1c-.1-.6-.4-1-.9-1.4-.2-.2-.5-.3-.7-.4-.3-.1-.6-.1-.8-.1-.5,0-1,.1-1.4,.4s-.8,.7-1,1.2c-.5,1.2-.5,2.6,0,3.8,.2,.5,.6,.9,1,1.2,.4,.3,.9,.4,1.4,.4,.3,0,.6,0,.8-.1,.3-.1,.5-.2,.7-.4,.2-.2,.4-.4,.6-.6,.2-.2,.3-.5,.3-.8h1.1c-.1,.4-.2,.8-.4,1.2-.2,.3-.5,.6-.8,.9-.3,.2-.7,.4-1.1,.6-.4,.1-.8,.2-1.2,.2-.7,0-1.4-.2-2-.5-.6-.4-1.1-.9-1.4-1.5-.7-1.5-.7-3.2,0-4.8,.3-.6,.8-1.2,1.4-1.6,.6-.4,1.3-.6,2-.5,.4,0,.8,.1,1.2,.2s.7,.3,1.1,.6c.3,.3,.6,.6,.8,.9,.2,.3,.3,.7,.4,1.1Z" style="fill: #f60;"/>
  <path d="M191,412.3v-8.7h1.1v7.8h4.1v.9h-5.2Z" style="fill: #f60;"/>
  <path d="M198.6,412.3h-1.1l3.2-8.7h1.1l3.2,8.7h-1.1l-2.6-7.3h-.1l-2.6,7.3Zm.5-3.4h4.5v.9h-4.5v-.9Z" style="fill: #f60;"/>
  <path d="M206,403.6l2.6,7.4h.1l2.6-7.4h1.1l-3.2,8.7h-1.1l-3.2-8.7h1.1Z" style="fill: #f60;"/>
  <path d="M213.7,412.3v-8.7h5.3v.9h-4.2v3h3.9v.9h-3.9v3h4.2v.9h-5.3Z" style="fill: #f60;"/>
  <path d="M225.6,405.8c0-.4-.3-.8-.6-1-.4-.3-.9-.4-1.3-.4-.3,0-.7,.1-1,.2s-.5,.3-.7,.5-.2,.5-.2,.8c0,.2,0,.4,.2,.6,.1,.2,.3,.3,.4,.4,.2,.1,.4,.2,.6,.3l.5,.2,.9,.2c.2,.1,.5,.1,.8,.2s.6,.3,.8,.4c.3,.2,.5,.4,.6,.7,.2,.3,.3,.7,.2,1,0,.5-.1,.9-.4,1.3-.3,.4-.6,.7-1.1,.9-.5,.2-1.1,.4-1.7,.3-.6,0-1.1-.1-1.6-.3-.4-.2-.8-.5-1.1-.8-.3-.4-.4-.8-.4-1.3h1.1c0,.3,.1,.6,.3,.8,.2,.2,.5,.4,.7,.5,.3,.1,.7,.2,1,.2,.4,0,.7-.1,1.1-.2,.3-.1,.6-.3,.8-.6,.2-.2,.3-.5,.3-.8s-.1-.5-.2-.7c-.2-.2-.4-.3-.6-.4-.3-.1-.6-.2-.9-.3l-1.1-.3c-.6-.2-1.1-.4-1.6-.8-.4-.4-.6-.9-.6-1.4s.1-.9,.4-1.3c.3-.4,.7-.7,1.1-.9,.5-.2,1-.3,1.5-.3s1,.1,1.5,.3c.4,.2,.7,.5,1,.8s.4,.8,.4,1.2h-1.1Z" style="fill: #f60;"/>
  <path d="M179.5,24.4c-6.5,0-12.2,4.3-12.2,10.2,0,2.1,.8,4.2,2.1,5.7,.1,1.9-1,4.6-2,6.5,2.7-.5,6.4-1.5,8.1-2.6,1.4,.4,2.8,.5,4.1,.5,7.2,0,12.2-4.9,12.2-10.2-.1-5.8-5.9-10.1-12.3-10.1Zm-4.4,12.6c-.4,.3-.9,.5-1.6,.5-.6,0-1.1-.1-1.6-.3l.3-1c.5,.2,.9,.4,1.4,.4,.3,0,.5-.1,.6-.2,.3-.2,.3-.6,0-.8-.1-.1-.4-.2-.7-.3-1-.3-1.5-.9-1.5-1.6,0-.5,.2-.9,.6-1.2s.9-.5,1.5-.5c.5,0,1,.1,1.4,.3l-.3,1c-.4-.2-.8-.3-1.2-.3-.2,0-.4,0-.6,.1-.3,.2-.3,.5,0,.7,.1,.1,.4,.2,.9,.4s.9,.4,1.1,.7c.2,.3,.3,.6,.3,1s-.2,.8-.6,1.1Zm6.3,.4c-.1-2.1-.1-3.6-.1-4.3h0c-.1,.6-.6,2-1.3,4.3h-1c-.4-1.6-1.1-4.3-1.1-4.3h0l-.2,4.3h-1.2l.3-5.4h1.7l.9,3.7,1.1-3.7h1.7l.3,5.4h-1.1Zm5.2-.3c-.4,.3-.9,.5-1.6,.5-.6,0-1.1-.1-1.6-.4l.3-1.1c.4,.2,.9,.4,1.4,.4,.3,0,.5-.1,.6-.2,.3-.2,.3-.6,0-.8-.1-.1-.4-.2-.7-.3-1-.3-1.6-.9-1.6-1.6,0-.5,.2-.9,.6-1.2,.4-.3,.9-.5,1.5-.5,.5,0,1,.1,1.4,.3h0l-.3,1c-.4-.2-.8-.3-1.2-.3-.2,0-.4,0-.6,.1-.3,.2-.3,.5,0,.7,.1,.1,.4,.2,.8,.4,.5,.2,.9,.4,1.1,.7,.2,.3,.4,.6,.4,1,0,.5-.2,1-.5,1.3Zm-13.6,12.2v8.8h-15v-18.7h6.4c-.9-2.4-1.2-4.9-.6-7.5h-5.8c-2.1,0-3.7,1.7-3.7,3.7v27.4c0,4.1,4.7,6.2,11.2,6.2s11.2-2.1,11.2-6.2v-15c-1.1,.6-2.2,1-3.7,1.3Zm-7.5,16.3c-1,0-1.9-.8-1.9-1.9,0-1,.8-1.9,1.9-1.9,1,0,1.9,.8,1.9,1.9,0,1-.8,1.9-1.9,1.9Z" style="fill: #ff6601;"/>
  <g>
    <path d="M11,179.3c-.9,0-1.7,.3-2.2,.9s-.8,1.5-.8,2.6,.3,2,.8,2.6,1.3,.9,2.2,.9c.6,0,1.3-.1,2-.3v.9c-.6,.2-1.3,.3-2.2,.3-1.3,0-2.2-.4-2.9-1.1s-1-1.9-1-3.3c0-.9,.2-1.7,.5-2.3s.8-1.2,1.4-1.5,1.4-.5,2.2-.5c.9,0,1.7,.2,2.4,.5l-.4,.9c-.7-.5-1.4-.6-2-.6Z" style="fill: #6a6a6a;"/>
    <path d="M20.3,183.9c0,1-.3,1.9-.8,2.5s-1.3,.9-2.2,.9c-.6,0-1.1-.1-1.5-.4s-.8-.7-1-1.2-.4-1.1-.4-1.8c0-1,.3-1.9,.8-2.4s1.2-.9,2.2-.9c.9,0,1.6,.3,2.1,.9s.8,1.3,.8,2.4Zm-4.9,0c0,.8,.2,1.4,.5,1.9,.3,.5,.8,.6,1.4,.6s1.1-.2,1.5-.6,.5-1.1,.5-1.9-.2-1.4-.5-1.9-.8-.6-1.5-.6c-.6,0-1.1,.2-1.4,.6s-.5,1-.5,1.9Zm1.1-4.2c.2-.2,.4-.5,.6-.9s.4-.6,.5-.9h1.2v.1c-.2,.3-.4,.6-.8,.9s-.6,.7-.9,.9h-.7v-.1h.1Z" style="fill: #6a6a6a;"/>
    <path d="M26.4,186.2h0c-.5,.7-1.2,1-2.1,1-.8,0-1.5-.3-2-.9s-.7-1.4-.7-2.4,.2-1.9,.7-2.5,1.1-.9,2-.9,1.5,.3,2,.9h.1v-3.4h1v9.1h-.8l-.2-.9Zm-2,.2c.7,0,1.1-.2,1.4-.5s.4-.9,.4-1.7v-.2c0-.9-.2-1.6-.5-1.9s-.8-.6-1.5-.6c-.6,0-1,.2-1.3,.7s-.5,1.1-.5,1.9,.2,1.4,.5,1.9,.9,.4,1.5,.4Z" style="fill: #6a6a6a;"/>
    <path d="M29.3,178.9c0-.2,.1-.4,.2-.5s.2-.2,.4-.2,.3,.1,.4,.2,.2,.3,.2,.5-.1,.4-.2,.5-.2,.2-.4,.2-.3-.1-.4-.2-.2-.3-.2-.5Zm1,8.2h-1v-6.4h1v6.4Z" style="fill: #6a6a6a;"/>
    <path d="M37.6,180.7v.6l-1.2,.1c.1,.1,.2,.3,.3,.5s.1,.5,.1,.7c0,.6-.2,1.1-.6,1.5s-1,.6-1.8,.6h-.5c-.4,.2-.6,.5-.6,.8,0,.2,.1,.3,.2,.4s.4,.1,.7,.1h1.1c.7,0,1.2,.1,1.6,.4s.6,.7,.6,1.3c0,.7-.3,1.3-.9,1.6s-1.4,.6-2.5,.6c-.8,0-1.5-.2-1.9-.5s-.7-.8-.7-1.3c0-.4,.1-.7,.4-1,.3-.3,.6-.5,1.1-.6-.2-.1-.3-.2-.4-.3s-.2-.3-.2-.5,.1-.4,.2-.6,.3-.3,.6-.5c-.3-.1-.6-.4-.8-.7s-.3-.7-.3-1.1c0-.7,.2-1.2,.6-1.6s1-.6,1.8-.6c.3,0,.6,0,.9,.1h2.2Zm-5.1,7.5c0,.3,.1,.6,.4,.8s.7,.3,1.3,.3c.8,0,1.4-.1,1.8-.4s.6-.6,.6-1c0-.3-.1-.6-.3-.7s-.6-.2-1.2-.2h-1.2c-.4,0-.8,.1-1,.3s-.4,.5-.4,.9Zm.5-5.5c0,.4,.1,.8,.4,1s.6,.3,1.1,.3c.9,0,1.4-.5,1.4-1.4,0-1-.5-1.4-1.4-1.4-.5,0-.8,.1-1.1,.4s-.4,.6-.4,1.1Z" style="fill: #6a6a6a;"/>
    <path d="M44.5,183.9c0,1-.3,1.9-.8,2.5s-1.3,.9-2.2,.9c-.6,0-1.1-.1-1.5-.4s-.8-.7-1-1.2-.4-1.1-.4-1.8c0-1,.3-1.9,.8-2.4s1.2-.9,2.2-.9c.9,0,1.6,.3,2.1,.9s.8,1.3,.8,2.4Zm-4.9,0c0,.8,.2,1.4,.5,1.9s.8,.6,1.4,.6,1.1-.2,1.5-.6,.5-1.1,.5-1.9-.2-1.4-.5-1.9-.8-.6-1.5-.6c-.6,0-1.1,.2-1.4,.6s-.5,1-.5,1.9Z" style="fill: #6a6a6a;"/>
    <path d="M54.3,184.8c0,.8-.3,1.3-.8,1.8s-1.3,.6-2.2,.6c-1,0-1.8-.1-2.3-.4v-1c.4,.1,.7,.3,1.1,.4s.8,.1,1.2,.1c.7,0,1.2-.1,1.5-.4s.5-.6,.5-1.1c0-.3-.1-.5-.2-.7s-.3-.4-.6-.5-.7-.3-1.3-.5c-.8-.3-1.4-.6-1.7-1s-.5-.9-.5-1.5c0-.7,.2-1.2,.7-1.6s1.2-.6,2-.6c.9,0,1.6,.2,2.3,.5l-.3,.9c-.7-.3-1.4-.4-2.1-.4-.5,0-.9,.1-1.2,.3s-.4,.5-.4,.9c0,.3,.1,.5,.2,.7s.3,.4,.6,.5,.7,.3,1.2,.5c.9,.3,1.5,.7,1.9,1s.4,.9,.4,1.5Z" style="fill: #6a6a6a;"/>
    <path d="M59.8,187.1l-2.9-7.6h0c.1,.6,.1,1.3,.1,2.1v5.4h-.9v-8.6h1.5l2.7,7.1h0l2.7-7.1h1.5v8.6h-1v-5.5c0-.6,0-1.3,.1-2.1h0l-2.9,7.6h-.9v.1Z" style="fill: #6a6a6a;"/>
    <path d="M71.7,184.8c0,.8-.3,1.3-.8,1.8s-1.3,.6-2.2,.6c-1,0-1.8-.1-2.3-.4v-1c.4,.1,.7,.3,1.1,.4s.8,.1,1.2,.1c.7,0,1.2-.1,1.5-.4s.5-.6,.5-1.1c0-.3-.1-.5-.2-.7s-.3-.4-.6-.5-.7-.3-1.3-.5c-.8-.3-1.4-.6-1.7-1s-.5-.9-.5-1.5c0-.7,.2-1.2,.7-1.6s1.2-.6,2-.6c.9,0,1.6,.2,2.3,.5l-.3,.9c-.7-.3-1.4-.4-2.1-.4-.5,0-.9,.1-1.2,.3s-.4,.5-.4,.9c0,.3,.1,.5,.2,.7s.3,.4,.6,.5,.7,.3,1.2,.5c.9,.3,1.5,.7,1.9,1s.4,.9,.4,1.5Z" style="fill: #6a6a6a;"/>
  </g>
  <g>
    <path d="M49.6,92.42c0,.94-.32,1.66-.96,2.17-.64,.51-1.56,.76-2.75,.76h-1.09v3.65h-1.08v-9.28h2.41c2.32,0,3.48,.9,3.48,2.7Zm-4.81,2h.97c.96,0,1.65-.15,2.08-.46s.64-.8,.64-1.49c0-.61-.2-1.07-.6-1.37s-1.03-.45-1.88-.45h-1.21v3.77Z" style="fill: #6a6a6a;"/>
    <path d="M56.77,95.52c0,1.13-.29,2.02-.86,2.66-.57,.64-1.36,.96-2.37,.96-.62,0-1.17-.15-1.66-.44s-.85-.71-1.12-1.26-.39-1.19-.39-1.92c0-1.13,.28-2.02,.85-2.65,.57-.63,1.35-.95,2.36-.95s1.75,.32,2.32,.97c.57,.65,.86,1.52,.86,2.63Zm-5.3,0c0,.89,.18,1.57,.53,2.03s.88,.7,1.57,.7,1.21-.23,1.57-.69c.36-.46,.54-1.14,.54-2.03s-.18-1.56-.54-2.02c-.36-.46-.89-.69-1.58-.69s-1.21,.23-1.56,.68-.53,1.13-.53,2.02Z" style="fill: #6a6a6a;"/>
    <path d="M61.17,91.92c.31,0,.59,.03,.83,.08l-.15,.98c-.29-.06-.54-.1-.76-.1-.56,0-1.04,.23-1.44,.69-.4,.46-.6,1.03-.6,1.71v3.73h-1.05v-6.96h.87l.12,1.29h.05c.26-.45,.57-.8,.93-1.05s.76-.37,1.2-.37Z" style="fill: #6a6a6a;"/>
    <path d="M68.56,92.86h-1.77v6.14h-1.05v-6.14h-1.24v-.48l1.24-.38v-.39c0-1.71,.75-2.56,2.24-2.56,.37,0,.8,.07,1.29,.22l-.27,.84c-.41-.13-.75-.2-1.04-.2-.4,0-.69,.13-.88,.4-.19,.26-.29,.69-.29,1.27v.45h1.77v.82Z" style="fill: #6a6a6a;"/>
    <path d="M73.49,99l-.21-.99h-.05c-.35,.44-.69,.73-1.04,.89-.35,.15-.78,.23-1.29,.23-.69,0-1.23-.18-1.62-.53-.39-.36-.59-.86-.59-1.52,0-1.4,1.12-2.14,3.37-2.21l1.18-.04v-.43c0-.55-.12-.95-.35-1.21-.24-.26-.61-.39-1.13-.39-.58,0-1.24,.18-1.97,.53l-.32-.81c.34-.19,.72-.33,1.13-.44,.41-.11,.82-.16,1.23-.16,.83,0,1.44,.18,1.84,.55,.4,.37,.6,.96,.6,1.77v4.75h-.78Zm-2.38-.74c.66,0,1.17-.18,1.55-.54,.38-.36,.56-.86,.56-1.51v-.63l-1.05,.04c-.84,.03-1.44,.16-1.81,.39-.37,.23-.56,.59-.56,1.08,0,.38,.12,.67,.35,.87,.23,.2,.55,.3,.97,.3Z" style="fill: #6a6a6a;"/>
    <path d="M77.34,99l-2.64-6.96h1.13l1.5,4.13c.34,.96,.54,1.59,.6,1.88h.05c.05-.22,.19-.69,.44-1.39,.25-.7,.8-2.24,1.67-4.61h1.13l-2.64,6.96h-1.23Z" style="fill: #6a6a6a;"/>
    <path d="M87.71,95.52c0,1.13-.29,2.02-.86,2.66-.57,.64-1.36,.96-2.37,.96-.62,0-1.17-.15-1.66-.44s-.85-.71-1.12-1.26-.39-1.19-.39-1.92c0-1.13,.28-2.02,.85-2.65,.57-.63,1.35-.95,2.36-.95s1.75,.32,2.32,.97c.57,.65,.86,1.52,.86,2.63Zm-5.3,0c0,.89,.18,1.57,.53,2.03s.88,.7,1.57,.7,1.21-.23,1.57-.69c.36-.46,.54-1.14,.54-2.03s-.18-1.56-.54-2.02c-.36-.46-.89-.69-1.58-.69s-1.21,.23-1.56,.68-.53,1.13-.53,2.02Z" style="fill: #6a6a6a;"/>
    <path d="M92.11,91.92c.31,0,.59,.03,.83,.08l-.15,.98c-.29-.06-.54-.1-.76-.1-.56,0-1.04,.23-1.44,.69-.4,.46-.6,1.03-.6,1.71v3.73h-1.05v-6.96h.87l.12,1.29h.05c.26-.45,.57-.8,.93-1.05s.76-.37,1.2-.37Z" style="fill: #6a6a6a;"/>
    <path d="M99.31,99.13c-1.03,0-1.84-.31-2.43-.94-.59-.63-.89-1.5-.89-2.61s.28-2.01,.83-2.67c.55-.66,1.29-.99,2.22-.99,.87,0,1.56,.29,2.07,.86,.51,.57,.76,1.33,.76,2.27v.67h-4.79c.02,.82,.23,1.44,.62,1.86,.39,.42,.94,.63,1.65,.63,.75,0,1.49-.16,2.22-.47v.94c-.37,.16-.72,.28-1.06,.35-.33,.07-.73,.1-1.2,.1Zm-.29-6.33c-.56,0-1,.18-1.34,.55-.33,.36-.53,.87-.59,1.51h3.64c0-.66-.15-1.17-.44-1.53-.3-.35-.72-.53-1.27-.53Z" style="fill: #6a6a6a;"/>
    <path d="M107.52,97.1c0,.65-.24,1.15-.72,1.5s-1.16,.53-2.03,.53c-.92,0-1.64-.15-2.16-.44v-.98c.33,.17,.69,.3,1.08,.4,.38,.1,.75,.15,1.11,.15,.55,0,.97-.09,1.27-.26,.3-.18,.44-.44,.44-.8,0-.27-.12-.5-.35-.69-.24-.19-.69-.42-1.37-.68-.65-.24-1.11-.45-1.38-.63-.27-.18-.48-.38-.61-.61-.13-.23-.2-.5-.2-.82,0-.57,.23-1.01,.69-1.34,.46-.33,1.09-.49,1.9-.49,.75,0,1.48,.15,2.2,.46l-.37,.86c-.7-.29-1.33-.43-1.9-.43-.5,0-.88,.08-1.13,.23s-.38,.37-.38,.65c0,.19,.05,.34,.14,.48,.1,.13,.25,.26,.46,.37s.62,.29,1.22,.51c.83,.3,1.38,.6,1.67,.91,.29,.3,.44,.69,.44,1.15Z" style="fill: #6a6a6a;"/>
    <path d="M111.4,99.13c-1.01,0-1.79-.31-2.34-.93-.55-.62-.83-1.5-.83-2.63s.28-2.06,.84-2.7c.56-.63,1.36-.95,2.4-.95,.33,0,.67,.04,1,.11s.6,.16,.79,.25l-.32,.9c-.23-.09-.49-.17-.76-.23-.27-.06-.52-.09-.73-.09-1.41,0-2.12,.9-2.12,2.7,0,.85,.17,1.51,.52,1.97,.35,.46,.86,.69,1.53,.69,.58,0,1.17-.12,1.78-.37v.93c-.47,.24-1.05,.36-1.76,.36Z" style="fill: #6a6a6a;"/>
    <path d="M117.35,91.92c.31,0,.59,.03,.83,.08l-.15,.98c-.29-.06-.54-.1-.76-.1-.56,0-1.04,.23-1.44,.69-.4,.46-.6,1.03-.6,1.71v3.73h-1.05v-6.96h.87l.12,1.29h.05c.26-.45,.57-.8,.93-1.05s.76-.37,1.2-.37Z" style="fill: #6a6a6a;"/>
    <path d="M118.77,90.16c0-.24,.06-.42,.18-.53,.12-.11,.27-.17,.44-.17s.32,.06,.44,.17,.18,.29,.18,.53-.06,.41-.18,.53c-.12,.12-.27,.17-.44,.17-.18,0-.33-.06-.44-.17-.12-.12-.18-.29-.18-.53Zm1.14,8.84h-1.05v-6.96h1.05v6.96Z" style="fill: #6a6a6a;"/>
    <path d="M124.76,91.93c.91,0,1.62,.31,2.13,.94,.51,.62,.76,1.51,.76,2.65s-.25,2.03-.77,2.66c-.51,.63-1.22,.95-2.12,.95-.45,0-.87-.08-1.24-.25-.37-.17-.69-.42-.94-.77h-.08l-.22,.9h-.76v-9.88h1.05v2.4c0,.54-.02,1.02-.05,1.45h.05c.49-.69,1.22-1.04,2.18-1.04Zm-.15,.88c-.72,0-1.24,.21-1.56,.62-.32,.41-.48,1.11-.48,2.09s.16,1.68,.49,2.1c.33,.42,.85,.63,1.57,.63,.65,0,1.13-.24,1.45-.71,.32-.47,.48-1.15,.48-2.03s-.16-1.58-.48-2.02-.81-.67-1.47-.67Z" style="fill: #6a6a6a;"/>
    <path d="M128.82,90.96c.2-.26,.42-.58,.66-.95,.24-.37,.42-.7,.56-.97h1.28v.13c-.19,.27-.46,.61-.83,1.02s-.69,.71-.96,.93h-.7v-.16Zm1.1,8.04h-1.05v-6.96h1.05v6.96Z" style="fill: #6a6a6a;"/>
    <path d="M137.22,99.13c-1.03,0-1.84-.31-2.43-.94-.59-.63-.89-1.5-.89-2.61s.28-2.01,.83-2.67c.55-.66,1.29-.99,2.22-.99,.87,0,1.56,.29,2.07,.86,.51,.57,.76,1.33,.76,2.27v.67h-4.79c.02,.82,.23,1.44,.62,1.86,.39,.42,.94,.63,1.65,.63,.75,0,1.49-.16,2.22-.47v.94c-.37,.16-.72,.28-1.06,.35-.33,.07-.73,.1-1.2,.1Zm-.29-6.33c-.56,0-1,.18-1.34,.55-.33,.36-.53,.87-.59,1.51h3.64c0-.66-.15-1.17-.44-1.53-.3-.35-.72-.53-1.27-.53Z" style="fill: #6a6a6a;"/>
    <path d="M142.01,99h-1.05v-9.88h1.05v9.88Z" style="fill: #6a6a6a;"/>
    <path d="M149.15,99.13c-1.01,0-1.79-.31-2.34-.93-.55-.62-.83-1.5-.83-2.63s.28-2.06,.84-2.7c.56-.63,1.36-.95,2.4-.95,.33,0,.67,.04,1,.11s.6,.16,.79,.25l-.32,.9c-.23-.09-.49-.17-.76-.23-.27-.06-.52-.09-.73-.09-1.41,0-2.12,.9-2.12,2.7,0,.85,.17,1.51,.52,1.97,.35,.46,.86,.69,1.53,.69,.58,0,1.17-.12,1.78-.37v.93c-.47,.24-1.05,.36-1.76,.36Z" style="fill: #6a6a6a;"/>
    <path d="M157.94,95.52c0,1.13-.29,2.02-.86,2.66-.57,.64-1.36,.96-2.37,.96-.62,0-1.17-.15-1.66-.44s-.85-.71-1.12-1.26-.39-1.19-.39-1.92c0-1.13,.28-2.02,.85-2.65,.57-.63,1.35-.95,2.36-.95s1.75,.32,2.32,.97c.57,.65,.86,1.52,.86,2.63Zm-5.3,0c0,.89,.18,1.57,.53,2.03s.88,.7,1.57,.7,1.21-.23,1.57-.69c.36-.46,.54-1.14,.54-2.03s-.18-1.56-.54-2.02c-.36-.46-.89-.69-1.58-.69s-1.21,.23-1.56,.68-.53,1.13-.53,2.02Zm1.22-4.55c.2-.26,.42-.58,.66-.95,.24-.37,.42-.7,.56-.97h1.28v.13c-.19,.27-.46,.61-.83,1.02s-.69,.71-.96,.93h-.7v-.16Z" style="fill: #6a6a6a;"/>
    <path d="M163.9,98.07h-.06c-.49,.71-1.21,1.06-2.18,1.06-.91,0-1.62-.31-2.12-.93-.51-.62-.76-1.51-.76-2.65s.25-2.04,.76-2.67,1.21-.95,2.12-.95,1.67,.34,2.17,1.03h.08l-.04-.5-.03-.49v-2.83h1.05v9.88h-.86l-.14-.93Zm-2.11,.18c.72,0,1.24-.2,1.56-.59,.32-.39,.49-1.02,.49-1.89v-.22c0-.99-.16-1.69-.49-2.11-.33-.42-.85-.63-1.57-.63-.62,0-1.09,.24-1.42,.72-.33,.48-.49,1.16-.49,2.03s.16,1.56,.49,2.01,.8,.68,1.43,.68Z" style="fill: #6a6a6a;"/>
    <path d="M166.42,90.16c0-.24,.06-.42,.18-.53,.12-.11,.27-.17,.44-.17s.32,.06,.44,.17,.18,.29,.18,.53-.06,.41-.18,.53c-.12,.12-.27,.17-.44,.17-.18,0-.33-.06-.44-.17-.12-.12-.18-.29-.18-.53Zm1.14,8.84h-1.05v-6.96h1.05v6.96Z" style="fill: #6a6a6a;"/>
    <path d="M174.87,92.04v.67l-1.29,.15c.12,.15,.22,.34,.32,.58,.09,.24,.14,.51,.14,.81,0,.68-.23,1.23-.7,1.63-.47,.41-1.1,.61-1.92,.61-.21,0-.4-.02-.58-.05-.45,.24-.67,.54-.67,.9,0,.19,.08,.33,.23,.42,.16,.09,.43,.14,.81,.14h1.23c.75,0,1.33,.16,1.74,.48,.4,.32,.61,.78,.61,1.38,0,.77-.31,1.36-.93,1.76-.62,.4-1.52,.61-2.7,.61-.91,0-1.61-.17-2.1-.51-.49-.34-.74-.82-.74-1.43,0-.42,.14-.79,.41-1.1s.65-.52,1.14-.63c-.18-.08-.33-.21-.45-.37-.12-.17-.18-.37-.18-.59,0-.25,.07-.48,.2-.67s.35-.37,.64-.55c-.36-.15-.65-.4-.88-.76-.23-.36-.34-.76-.34-1.22,0-.76,.23-1.35,.69-1.76,.46-.41,1.1-.62,1.94-.62,.36,0,.69,.04,.98,.13h2.41Zm-5.55,8.12c0,.38,.16,.66,.48,.86s.77,.29,1.36,.29c.88,0,1.54-.13,1.96-.4,.43-.26,.64-.62,.64-1.08,0-.38-.12-.64-.35-.78-.23-.15-.67-.22-1.31-.22h-1.26c-.48,0-.85,.11-1.12,.34s-.4,.56-.4,.98Zm.57-5.9c0,.49,.14,.85,.41,1.1s.66,.37,1.15,.37c1.03,0,1.54-.5,1.54-1.5s-.52-1.57-1.56-1.57c-.5,0-.88,.13-1.14,.4s-.4,.66-.4,1.19Z" style="fill: #6a6a6a;"/>
    <path d="M181.67,95.52c0,1.13-.29,2.02-.86,2.66-.57,.64-1.36,.96-2.37,.96-.62,0-1.17-.15-1.66-.44s-.85-.71-1.12-1.26c-.26-.55-.39-1.19-.39-1.92,0-1.13,.28-2.02,.85-2.65,.57-.63,1.35-.95,2.36-.95s1.75,.32,2.32,.97,.86,1.52,.86,2.63Zm-5.3,0c0,.89,.18,1.57,.53,2.03s.88,.7,1.57,.7,1.21-.23,1.57-.69c.36-.46,.54-1.14,.54-2.03s-.18-1.56-.54-2.02c-.36-.46-.89-.69-1.58-.69s-1.21,.23-1.56,.68c-.35,.45-.53,1.13-.53,2.02Z" style="fill: #6a6a6a;"/>
    <path d="M191.05,96.53c0,.82-.3,1.45-.89,1.91-.59,.46-1.4,.69-2.41,.69-1.1,0-1.95-.14-2.54-.43v-1.04c.38,.16,.8,.29,1.24,.38,.45,.09,.89,.14,1.33,.14,.72,0,1.26-.14,1.62-.41,.36-.27,.55-.65,.55-1.14,0-.32-.06-.58-.19-.79-.13-.21-.34-.39-.65-.57s-.76-.37-1.38-.59c-.86-.31-1.48-.67-1.85-1.1-.37-.42-.55-.98-.55-1.66,0-.72,.27-1.28,.81-1.71,.54-.42,1.25-.63,2.13-.63s1.77,.17,2.55,.51l-.34,.94c-.77-.32-1.51-.48-2.23-.48-.57,0-1.02,.12-1.34,.37-.32,.25-.48,.59-.48,1.02,0,.32,.06,.58,.18,.79,.12,.21,.32,.39,.6,.57,.28,.17,.71,.36,1.29,.57,.97,.35,1.64,.72,2.01,1.12s.55,.91,.55,1.55Z" style="fill: #6a6a6a;"/>
    <path d="M196.43,99l-3.15-8.23h-.05c.06,.65,.09,1.43,.09,2.32v5.9h-1v-9.28h1.62l2.94,7.66h.05l2.96-7.66h1.61v9.28h-1.08v-5.98c0-.69,.03-1.43,.09-2.23h-.05l-3.17,8.21h-.87Z" style="fill: #6a6a6a;"/>
    <path d="M208.67,96.53c0,.82-.3,1.45-.89,1.91-.59,.46-1.4,.69-2.41,.69-1.1,0-1.95-.14-2.54-.43v-1.04c.38,.16,.79,.29,1.24,.38,.45,.09,.89,.14,1.33,.14,.72,0,1.26-.14,1.62-.41,.36-.27,.55-.65,.55-1.14,0-.32-.06-.58-.19-.79-.13-.21-.35-.39-.65-.57-.3-.17-.76-.37-1.38-.59-.86-.31-1.48-.67-1.85-1.1s-.56-.98-.56-1.66c0-.72,.27-1.28,.81-1.71,.54-.42,1.25-.63,2.13-.63s1.77,.17,2.54,.51l-.34,.94c-.77-.32-1.51-.48-2.23-.48-.57,0-1.02,.12-1.34,.37-.32,.25-.48,.59-.48,1.02,0,.32,.06,.58,.18,.79,.12,.21,.32,.39,.6,.57,.28,.17,.71,.36,1.29,.57,.97,.35,1.64,.72,2.01,1.12,.37,.4,.55,.91,.55,1.55Z" style="fill: #6a6a6a;"/>
    <path d="M215.01,99.13c-.9,0-1.6-.32-2.1-.95-.5-.63-.76-1.51-.76-2.64s.25-2.03,.76-2.67,1.21-.96,2.12-.96c.95,0,1.68,.36,2.2,1.08h.06l.15-.95h.83v10.08h-1.05v-2.98c0-.42,.02-.78,.07-1.08h-.08c-.49,.71-1.22,1.06-2.2,1.06Zm.16-.88c.7,0,1.21-.19,1.54-.56,.32-.38,.49-1.01,.51-1.9v-.23c0-.97-.17-1.67-.5-2.1s-.85-.64-1.57-.64c-.62,0-1.09,.24-1.42,.72-.33,.48-.49,1.16-.49,2.03s.16,1.54,.49,2c.32,.46,.8,.69,1.44,.69Z" style="fill: #6a6a6a;"/>
    <path d="M220.87,92.04v4.51c0,.57,.13,.99,.39,1.27,.26,.28,.66,.42,1.21,.42,.73,0,1.26-.2,1.6-.6,.34-.4,.5-1.05,.5-1.95v-3.66h1.05v6.96h-.87l-.15-.93h-.06c-.22,.34-.51,.6-.9,.79-.38,.18-.82,.27-1.31,.27-.85,0-1.48-.2-1.9-.6-.42-.4-.63-1.05-.63-1.93v-4.55h1.07Z" style="fill: #6a6a6a;"/>
    <path d="M230.17,99.13c-1.03,0-1.84-.31-2.43-.94s-.89-1.5-.89-2.61,.28-2.01,.83-2.67c.55-.66,1.29-.99,2.22-.99,.87,0,1.56,.29,2.07,.86,.51,.57,.76,1.33,.76,2.27v.67h-4.79c.02,.82,.23,1.44,.62,1.86,.39,.42,.94,.63,1.65,.63,.75,0,1.49-.16,2.22-.47v.94c-.37,.16-.72,.28-1.06,.35-.33,.07-.73,.1-1.2,.1Zm-.29-6.33c-.56,0-1,.18-1.34,.55s-.53,.87-.59,1.51h3.64c0-.66-.15-1.17-.44-1.53-.3-.35-.72-.53-1.27-.53Z" style="fill: #6a6a6a;"/>
    <path d="M238.91,98.26c.19,0,.37-.01,.54-.04,.17-.03,.31-.06,.41-.09v.81c-.11,.06-.28,.1-.5,.14-.22,.04-.42,.05-.6,.05-1.35,0-2.02-.71-2.02-2.13v-4.14h-1v-.51l1-.44,.44-1.49h.61v1.61h2.02v.82h-2.02v4.09c0,.42,.1,.74,.3,.96,.2,.22,.47,.34,.82,.34Z" style="fill: #6a6a6a;"/>
    <path d="M243.56,99.13c-1.03,0-1.84-.31-2.43-.94s-.89-1.5-.89-2.61,.28-2.01,.83-2.67c.55-.66,1.29-.99,2.22-.99,.87,0,1.56,.29,2.07,.86,.51,.57,.76,1.33,.76,2.27v.67h-4.79c.02,.82,.23,1.44,.62,1.86,.39,.42,.94,.63,1.65,.63,.75,0,1.49-.16,2.22-.47v.94c-.37,.16-.72,.28-1.06,.35-.33,.07-.73,.1-1.2,.1Zm-.29-6.33c-.56,0-1,.18-1.34,.55s-.53,.87-.59,1.51h3.64c0-.66-.15-1.17-.44-1.53-.3-.35-.72-.53-1.27-.53Z" style="fill: #6a6a6a;"/>
    <path d="M252.98,99.13c-1.03,0-1.84-.31-2.43-.94-.59-.63-.89-1.5-.89-2.61s.28-2.01,.83-2.67c.55-.66,1.29-.99,2.22-.99,.87,0,1.56,.29,2.07,.86,.51,.57,.76,1.33,.76,2.27v.67h-4.79c.02,.82,.23,1.44,.62,1.86s.94,.63,1.65,.63c.75,0,1.49-.16,2.22-.47v.94c-.37,.16-.72,.28-1.06,.35-.33,.07-.73,.1-1.2,.1Zm-.29-6.33c-.56,0-1,.18-1.34,.55-.33,.36-.53,.87-.59,1.51h3.64c0-.66-.15-1.17-.44-1.53-.3-.35-.72-.53-1.27-.53Z" style="fill: #6a6a6a;"/>
    <path d="M261.48,99v-4.5c0-.57-.13-.99-.39-1.27-.26-.28-.66-.42-1.21-.42-.73,0-1.26,.2-1.6,.59-.34,.39-.51,1.04-.51,1.95v3.65h-1.05v-6.96h.86l.17,.95h.05c.22-.34,.52-.61,.91-.8,.39-.19,.82-.28,1.3-.28,.84,0,1.47,.2,1.89,.61,.42,.4,.63,1.05,.63,1.94v4.54h-1.05Z" style="fill: #6a6a6a;"/>
    <path d="M265.59,99l-2.64-6.96h1.13l1.5,4.13c.34,.96,.54,1.59,.6,1.88h.05c.05-.22,.19-.69,.44-1.39,.25-.7,.8-2.24,1.67-4.61h1.13l-2.64,6.96h-1.23Z" style="fill: #6a6a6a;"/>
    <path d="M269.87,90.16c0-.24,.06-.42,.18-.53,.12-.11,.27-.17,.44-.17s.32,.06,.44,.17c.12,.11,.18,.29,.18,.53s-.06,.41-.18,.53c-.12,.12-.27,.17-.44,.17-.18,0-.33-.06-.44-.17-.12-.12-.18-.29-.18-.53Zm1.14,8.84h-1.05v-6.96h1.05v6.96Z" style="fill: #6a6a6a;"/>
    <path d="M276.9,99l-.21-.99h-.05c-.35,.44-.69,.73-1.04,.89-.35,.15-.78,.23-1.29,.23-.69,0-1.23-.18-1.62-.53s-.59-.86-.59-1.52c0-1.4,1.12-2.14,3.37-2.21l1.18-.04v-.43c0-.55-.12-.95-.35-1.21-.24-.26-.61-.39-1.13-.39-.58,0-1.24,.18-1.97,.53l-.32-.81c.34-.19,.72-.33,1.13-.44s.82-.16,1.23-.16c.83,0,1.44,.18,1.84,.55,.4,.37,.6,.96,.6,1.77v4.75h-.78Zm-2.38-.74c.66,0,1.17-.18,1.55-.54,.38-.36,.56-.86,.56-1.51v-.63l-1.05,.04c-.84,.03-1.44,.16-1.81,.39-.37,.23-.56,.59-.56,1.08,0,.38,.12,.67,.35,.87s.55,.3,.97,.3Z" style="fill: #6a6a6a;"/>
    <path d="M288.1,99v-4.53c0-.55-.12-.97-.36-1.25-.24-.28-.61-.42-1.1-.42-.66,0-1.14,.19-1.45,.56-.31,.38-.47,.96-.47,1.74v3.88h-1.05v-4.53c0-.55-.12-.97-.36-1.25-.24-.28-.61-.42-1.11-.42-.66,0-1.14,.2-1.45,.59-.31,.4-.46,1.04-.46,1.95v3.65h-1.05v-6.96h.86l.17,.95h.05c.2-.34,.48-.6,.84-.79,.36-.19,.77-.29,1.22-.29,1.09,0,1.8,.39,2.13,1.18h.05c.21-.36,.51-.65,.9-.86s.84-.32,1.35-.32c.79,0,1.38,.2,1.77,.61,.39,.4,.59,1.05,.59,1.94v4.54h-1.05Z" style="fill: #6a6a6a;"/>
    <path d="M296.7,95.52c0,1.13-.29,2.02-.86,2.66-.57,.64-1.36,.96-2.37,.96-.62,0-1.17-.15-1.66-.44s-.85-.71-1.12-1.26c-.26-.55-.39-1.19-.39-1.92,0-1.13,.28-2.02,.85-2.65,.57-.63,1.35-.95,2.36-.95s1.75,.32,2.32,.97,.86,1.52,.86,2.63Zm-5.3,0c0,.89,.18,1.57,.53,2.03s.88,.7,1.57,.7,1.21-.23,1.57-.69c.36-.46,.54-1.14,.54-2.03s-.18-1.56-.54-2.02c-.36-.46-.89-.69-1.58-.69s-1.21,.23-1.56,.68c-.35,.45-.53,1.13-.53,2.02Z" style="fill: #6a6a6a;"/>
    <path d="M302.41,97.1c0,.65-.24,1.15-.72,1.5s-1.16,.53-2.03,.53c-.92,0-1.64-.15-2.16-.44v-.98c.33,.17,.69,.3,1.08,.4s.75,.15,1.11,.15c.55,0,.97-.09,1.27-.26,.3-.18,.45-.44,.45-.8,0-.27-.12-.5-.35-.69-.24-.19-.69-.42-1.37-.68-.65-.24-1.11-.45-1.38-.63-.27-.18-.48-.38-.61-.61-.13-.23-.2-.5-.2-.82,0-.57,.23-1.01,.69-1.34,.46-.33,1.09-.49,1.9-.49,.75,0,1.48,.15,2.2,.46l-.38,.86c-.7-.29-1.33-.43-1.9-.43-.5,0-.88,.08-1.13,.23s-.38,.37-.38,.65c0,.19,.05,.34,.14,.48,.1,.13,.25,.26,.46,.37,.21,.12,.62,.29,1.22,.51,.82,.3,1.38,.6,1.67,.91s.44,.69,.44,1.15Z" style="fill: #6a6a6a;"/>
    <path d="M63.75,114.6l-.21-.99h-.05c-.35,.44-.69,.73-1.04,.89-.35,.15-.78,.23-1.29,.23-.69,0-1.23-.18-1.62-.53-.39-.36-.59-.86-.59-1.52,0-1.4,1.12-2.14,3.37-2.21l1.18-.04v-.43c0-.55-.12-.95-.35-1.21-.24-.26-.61-.39-1.13-.39-.58,0-1.24,.18-1.97,.53l-.32-.81c.34-.19,.72-.33,1.13-.44,.41-.11,.82-.16,1.23-.16,.83,0,1.44,.18,1.84,.55,.4,.37,.6,.96,.6,1.77v4.75h-.78Zm-2.38-.74c.66,0,1.17-.18,1.55-.54,.38-.36,.56-.86,.56-1.51v-.63l-1.05,.04c-.84,.03-1.44,.16-1.81,.39-.37,.23-.56,.59-.56,1.08,0,.38,.12,.67,.35,.87,.23,.2,.55,.3,.97,.3Z" style="fill: #6a6a6a;"/>
    <path d="M71.08,113.86c.19,0,.37-.01,.54-.04,.17-.03,.31-.06,.41-.09v.81c-.11,.06-.28,.1-.5,.14-.22,.04-.42,.05-.6,.05-1.35,0-2.02-.71-2.02-2.13v-4.14h-1v-.51l1-.44,.44-1.49h.61v1.61h2.02v.82h-2.02v4.09c0,.42,.1,.74,.3,.96s.47,.34,.82,.34Z" style="fill: #6a6a6a;"/>
    <path d="M73.79,107.64v4.51c0,.57,.13,.99,.39,1.27s.66,.42,1.21,.42c.73,0,1.26-.2,1.6-.6,.34-.4,.5-1.05,.5-1.95v-3.66h1.05v6.96h-.87l-.15-.93h-.06c-.22,.34-.52,.6-.9,.79-.38,.18-.82,.27-1.31,.27-.85,0-1.48-.2-1.9-.6-.42-.4-.63-1.05-.63-1.93v-4.55h1.07Z" style="fill: #6a6a6a;"/>
    <path d="M85.15,113.86c.19,0,.37-.01,.54-.04,.17-.03,.31-.06,.41-.09v.81c-.11,.06-.28,.1-.5,.14-.22,.04-.42,.05-.6,.05-1.35,0-2.02-.71-2.02-2.13v-4.14h-1v-.51l1-.44,.44-1.49h.61v1.61h2.02v.82h-2.02v4.09c0,.42,.1,.74,.3,.96s.47,.34,.82,.34Z" style="fill: #6a6a6a;"/>
    <path d="M89.81,114.73c-1.03,0-1.84-.31-2.43-.94-.59-.63-.89-1.5-.89-2.61s.28-2.01,.83-2.67c.55-.66,1.29-.99,2.22-.99,.87,0,1.56,.29,2.07,.86,.51,.57,.76,1.33,.76,2.27v.67h-4.79c.02,.82,.23,1.44,.62,1.86,.39,.42,.94,.63,1.65,.63,.75,0,1.49-.16,2.22-.47v.94c-.37,.16-.72,.28-1.06,.35-.33,.07-.73,.1-1.2,.1Zm-.29-6.33c-.56,0-1,.18-1.34,.55-.33,.36-.53,.87-.59,1.51h3.64c0-.66-.15-1.17-.44-1.53-.3-.35-.72-.53-1.27-.53Z" style="fill: #6a6a6a;"/>
    <path d="M94.59,114.6h-1.05v-9.88h1.05v9.88Z" style="fill: #6a6a6a;"/>
    <path d="M99.14,114.73c-1.03,0-1.84-.31-2.43-.94-.59-.63-.89-1.5-.89-2.61s.28-2.01,.83-2.67c.55-.66,1.29-.99,2.22-.99,.87,0,1.56,.29,2.07,.86,.51,.57,.76,1.33,.76,2.27v.67h-4.79c.02,.82,.23,1.44,.62,1.86,.39,.42,.94,.63,1.65,.63,.75,0,1.49-.16,2.22-.47v.94c-.37,.16-.72,.28-1.06,.35-.33,.07-.73,.1-1.2,.1Zm-.29-6.33c-.56,0-1,.18-1.34,.55-.33,.36-.53,.87-.59,1.51h3.64c0-.66-.15-1.17-.44-1.53-.3-.35-.72-.53-1.27-.53Zm-.78-1.83c.2-.26,.42-.58,.66-.95,.24-.37,.42-.7,.56-.97h1.28v.13c-.19,.27-.46,.61-.83,1.02s-.69,.71-.96,.93h-.7v-.16Z" style="fill: #6a6a6a;"/>
    <path d="M106.01,108.46h-1.77v6.14h-1.05v-6.14h-1.24v-.48l1.24-.38v-.39c0-1.71,.75-2.56,2.24-2.56,.37,0,.8,.07,1.29,.22l-.27,.84c-.41-.13-.75-.2-1.04-.2-.4,0-.69,.13-.88,.4-.19,.26-.29,.69-.29,1.27v.45h1.77v.82Z" style="fill: #6a6a6a;"/>
    <path d="M112.66,111.12c0,1.13-.29,2.02-.86,2.66-.57,.64-1.36,.96-2.37,.96-.62,0-1.17-.15-1.66-.44s-.85-.71-1.12-1.26-.39-1.19-.39-1.92c0-1.13,.28-2.02,.85-2.65,.57-.63,1.35-.95,2.36-.95s1.75,.32,2.32,.97c.57,.65,.86,1.52,.86,2.63Zm-5.3,0c0,.89,.18,1.57,.53,2.03s.88,.7,1.57,.7,1.21-.23,1.57-.69c.36-.46,.54-1.14,.54-2.03s-.18-1.56-.54-2.02c-.36-.46-.89-.69-1.58-.69s-1.21,.23-1.56,.68-.53,1.13-.53,2.02Z" style="fill: #6a6a6a;"/>
    <path d="M118.64,114.6v-4.5c0-.57-.13-.99-.39-1.27s-.66-.42-1.21-.42c-.73,0-1.26,.2-1.6,.59s-.51,1.04-.51,1.95v3.65h-1.05v-6.96h.86l.17,.95h.05c.22-.34,.52-.61,.91-.8,.39-.19,.82-.28,1.3-.28,.84,0,1.47,.2,1.89,.61,.42,.4,.63,1.05,.63,1.94v4.54h-1.05Z" style="fill: #6a6a6a;"/>
    <path d="M127.24,111.12c0,1.13-.29,2.02-.86,2.66-.57,.64-1.36,.96-2.37,.96-.62,0-1.17-.15-1.66-.44s-.85-.71-1.12-1.26-.39-1.19-.39-1.92c0-1.13,.28-2.02,.85-2.65,.57-.63,1.35-.95,2.36-.95s1.75,.32,2.32,.97c.57,.65,.86,1.52,.86,2.63Zm-5.3,0c0,.89,.18,1.57,.53,2.03s.88,.7,1.57,.7,1.21-.23,1.57-.69c.36-.46,.54-1.14,.54-2.03s-.18-1.56-.54-2.02c-.36-.46-.89-.69-1.58-.69s-1.21,.23-1.56,.68-.53,1.13-.53,2.02Z" style="fill: #6a6a6a;"/>
    <path d="M134.46,114.73c-.45,0-.87-.08-1.24-.25-.37-.17-.69-.42-.94-.77h-.08c.05,.41,.08,.79,.08,1.16v2.86h-1.05v-10.08h.86l.15,.95h.05c.27-.38,.59-.66,.95-.83s.77-.25,1.24-.25c.92,0,1.63,.32,2.14,.95,.5,.63,.75,1.52,.75,2.65s-.25,2.03-.77,2.66c-.51,.63-1.22,.95-2.12,.95Zm-.15-6.32c-.71,0-1.23,.2-1.54,.59s-.48,1.02-.49,1.88v.23c0,.98,.16,1.68,.49,2.1,.33,.42,.85,.63,1.57,.63,.6,0,1.07-.24,1.41-.73,.34-.49,.51-1.16,.51-2.01s-.17-1.53-.51-2c-.34-.46-.82-.69-1.44-.69Z" style="fill: #6a6a6a;"/>
    <path d="M142.84,114.6l-.21-.99h-.05c-.35,.44-.69,.73-1.04,.89-.35,.15-.78,.23-1.29,.23-.69,0-1.23-.18-1.62-.53-.39-.36-.59-.86-.59-1.52,0-1.4,1.12-2.14,3.37-2.21l1.18-.04v-.43c0-.55-.12-.95-.35-1.21-.24-.26-.61-.39-1.13-.39-.58,0-1.24,.18-1.97,.53l-.32-.81c.34-.19,.72-.33,1.13-.44,.41-.11,.82-.16,1.23-.16,.83,0,1.44,.18,1.84,.55,.4,.37,.6,.96,.6,1.77v4.75h-.78Zm-2.38-.74c.66,0,1.17-.18,1.55-.54,.38-.36,.56-.86,.56-1.51v-.63l-1.05,.04c-.84,.03-1.44,.16-1.81,.39-.37,.23-.56,.59-.56,1.08,0,.38,.12,.67,.35,.87,.23,.2,.55,.3,.97,.3Z" style="fill: #6a6a6a;"/>
    <path d="M148.34,107.52c.31,0,.59,.03,.83,.08l-.15,.98c-.29-.06-.54-.1-.76-.1-.56,0-1.04,.23-1.44,.69-.4,.46-.6,1.03-.6,1.71v3.73h-1.05v-6.96h.87l.12,1.29h.05c.26-.45,.57-.8,.93-1.05s.76-.37,1.2-.37Z" style="fill: #6a6a6a;"/>
    <path d="M154.13,114.6l-.21-.99h-.05c-.35,.44-.69,.73-1.04,.89-.35,.15-.78,.23-1.29,.23-.69,0-1.23-.18-1.62-.53-.39-.36-.59-.86-.59-1.52,0-1.4,1.12-2.14,3.37-2.21l1.18-.04v-.43c0-.55-.12-.95-.35-1.21-.24-.26-.61-.39-1.13-.39-.58,0-1.24,.18-1.97,.53l-.32-.81c.34-.19,.72-.33,1.13-.44,.41-.11,.82-.16,1.23-.16,.83,0,1.44,.18,1.84,.55,.4,.37,.6,.96,.6,1.77v4.75h-.78Zm-2.38-.74c.66,0,1.17-.18,1.55-.54,.38-.36,.56-.86,.56-1.51v-.63l-1.05,.04c-.84,.03-1.44,.16-1.81,.39-.37,.23-.56,.59-.56,1.08,0,.38,.12,.67,.35,.87,.23,.2,.55,.3,.97,.3Z" style="fill: #6a6a6a;"/>
    <path d="M161.99,114.73c-1.01,0-1.79-.31-2.34-.93-.55-.62-.83-1.5-.83-2.63s.28-2.06,.84-2.7c.56-.63,1.36-.95,2.4-.95,.33,0,.67,.04,1,.11s.6,.16,.79,.25l-.32,.9c-.23-.09-.49-.17-.76-.23-.27-.06-.52-.09-.73-.09-1.41,0-2.12,.9-2.12,2.7,0,.85,.17,1.51,.52,1.97,.35,.46,.86,.69,1.53,.69,.58,0,1.17-.12,1.78-.37v.93c-.47,.24-1.05,.36-1.76,.36Z" style="fill: #6a6a6a;"/>
    <path d="M170.78,111.12c0,1.13-.29,2.02-.86,2.66-.57,.64-1.36,.96-2.37,.96-.62,0-1.17-.15-1.66-.44s-.85-.71-1.12-1.26-.39-1.19-.39-1.92c0-1.13,.28-2.02,.85-2.65,.57-.63,1.35-.95,2.36-.95s1.75,.32,2.32,.97c.57,.65,.86,1.52,.86,2.63Zm-5.3,0c0,.89,.18,1.57,.53,2.03s.88,.7,1.57,.7,1.21-.23,1.57-.69c.36-.46,.54-1.14,.54-2.03s-.18-1.56-.54-2.02c-.36-.46-.89-.69-1.58-.69s-1.21,.23-1.56,.68-.53,1.13-.53,2.02Z" style="fill: #6a6a6a;"/>
    <path d="M180.87,114.6v-4.53c0-.55-.12-.97-.36-1.25-.24-.28-.6-.42-1.1-.42-.66,0-1.14,.19-1.45,.56-.31,.38-.47,.96-.47,1.74v3.88h-1.05v-4.53c0-.55-.12-.97-.36-1.25-.24-.28-.61-.42-1.11-.42-.66,0-1.14,.2-1.45,.59-.31,.4-.46,1.04-.46,1.95v3.65h-1.05v-6.96h.86l.17,.95h.05c.2-.34,.48-.6,.84-.79,.36-.19,.77-.29,1.22-.29,1.09,0,1.8,.39,2.13,1.18h.05c.21-.36,.51-.65,.9-.86s.84-.32,1.35-.32c.79,0,1.38,.2,1.77,.61,.39,.4,.59,1.05,.59,1.94v4.54h-1.05Z" style="fill: #6a6a6a;"/>
    <path d="M186.71,114.73c-.45,0-.87-.08-1.24-.25-.37-.17-.69-.42-.94-.77h-.08c.05,.41,.08,.79,.08,1.16v2.86h-1.05v-10.08h.86l.15,.95h.05c.27-.38,.59-.66,.95-.83,.36-.17,.77-.25,1.24-.25,.92,0,1.63,.32,2.14,.95,.5,.63,.75,1.52,.75,2.65s-.25,2.03-.77,2.66c-.51,.63-1.22,.95-2.12,.95Zm-.15-6.32c-.71,0-1.22,.2-1.54,.59s-.48,1.02-.49,1.88v.23c0,.98,.16,1.68,.49,2.1,.33,.42,.85,.63,1.57,.63,.6,0,1.07-.24,1.41-.73,.34-.49,.51-1.16,.51-2.01s-.17-1.53-.51-2c-.34-.46-.82-.69-1.44-.69Z" style="fill: #6a6a6a;"/>
    <path d="M191.87,114.6h-1.05v-9.88h1.05v9.88Z" style="fill: #6a6a6a;"/>
    <path d="M196.41,114.73c-1.03,0-1.84-.31-2.43-.94-.59-.63-.89-1.5-.89-2.61s.28-2.01,.83-2.67c.55-.66,1.29-.99,2.22-.99,.87,0,1.56,.29,2.07,.86,.51,.57,.76,1.33,.76,2.27v.67h-4.79c.02,.82,.23,1.44,.62,1.86s.94,.63,1.65,.63c.75,0,1.49-.16,2.22-.47v.94c-.37,.16-.72,.28-1.06,.35-.33,.07-.73,.1-1.2,.1Zm-.29-6.33c-.56,0-1,.18-1.34,.55-.33,.36-.53,.87-.59,1.51h3.64c0-.66-.15-1.17-.44-1.53-.3-.35-.72-.53-1.27-.53Z" style="fill: #6a6a6a;"/>
    <path d="M202.39,113.86c.19,0,.37-.01,.54-.04,.17-.03,.31-.06,.41-.09v.81c-.11,.06-.28,.1-.5,.14-.22,.04-.42,.05-.6,.05-1.35,0-2.02-.71-2.02-2.13v-4.14h-1v-.51l1-.44,.44-1.49h.61v1.61h2.02v.82h-2.02v4.09c0,.42,.1,.74,.3,.96,.2,.22,.47,.34,.82,.34Z" style="fill: #6a6a6a;"/>
    <path d="M208.39,114.6l-.21-.99h-.05c-.35,.44-.69,.73-1.04,.89-.35,.15-.78,.23-1.29,.23-.69,0-1.23-.18-1.62-.53s-.59-.86-.59-1.52c0-1.4,1.12-2.14,3.37-2.21l1.18-.04v-.43c0-.55-.12-.95-.35-1.21-.24-.26-.61-.39-1.13-.39-.58,0-1.24,.18-1.97,.53l-.32-.81c.34-.19,.72-.33,1.13-.44s.82-.16,1.23-.16c.83,0,1.44,.18,1.84,.55,.4,.37,.6,.96,.6,1.77v4.75h-.78Zm-2.38-.74c.66,0,1.17-.18,1.55-.54,.38-.36,.56-.86,.56-1.51v-.63l-1.05,.04c-.84,.03-1.44,.16-1.81,.39-.37,.23-.56,.59-.56,1.08,0,.38,.12,.67,.35,.87s.55,.3,.97,.3Z" style="fill: #6a6a6a;"/>
    <path d="M213.89,107.52c.31,0,.59,.03,.83,.08l-.15,.98c-.29-.06-.54-.1-.76-.1-.56,0-1.04,.23-1.44,.69-.4,.46-.6,1.03-.6,1.71v3.73h-1.05v-6.96h.87l.12,1.29h.05c.26-.45,.57-.8,.93-1.05,.36-.25,.76-.37,1.2-.37Z" style="fill: #6a6a6a;"/>
    <path d="M219.21,114.6h-1.05v-9.88h1.05v9.88Z" style="fill: #6a6a6a;"/>
    <path d="M225.09,114.6l-.21-.99h-.05c-.35,.44-.69,.73-1.04,.89-.34,.15-.78,.23-1.29,.23-.69,0-1.23-.18-1.62-.53-.39-.36-.59-.86-.59-1.52,0-1.4,1.12-2.14,3.37-2.21l1.18-.04v-.43c0-.55-.12-.95-.35-1.21-.24-.26-.61-.39-1.13-.39-.58,0-1.24,.18-1.97,.53l-.32-.81c.34-.19,.72-.33,1.13-.44,.41-.11,.82-.16,1.23-.16,.83,0,1.44,.18,1.84,.55,.4,.37,.6,.96,.6,1.77v4.75h-.78Zm-2.38-.74c.66,0,1.17-.18,1.54-.54,.38-.36,.56-.86,.56-1.51v-.63l-1.05,.04c-.84,.03-1.44,.16-1.81,.39-.37,.23-.56,.59-.56,1.08,0,.38,.12,.67,.35,.87,.23,.2,.55,.3,.97,.3Z" style="fill: #6a6a6a;"/>
    <path d="M231.7,114.6l-2.64-6.96h1.13l1.5,4.13c.34,.96,.54,1.59,.6,1.88h.05c.05-.22,.19-.69,.44-1.39,.25-.7,.8-2.24,1.67-4.61h1.13l-2.64,6.96h-1.23Z" style="fill: #6a6a6a;"/>
    <path d="M240.34,114.6l-.21-.99h-.05c-.35,.44-.69,.73-1.04,.89-.34,.15-.78,.23-1.29,.23-.69,0-1.23-.18-1.62-.53-.39-.36-.59-.86-.59-1.52,0-1.4,1.12-2.14,3.37-2.21l1.18-.04v-.43c0-.55-.12-.95-.35-1.21-.24-.26-.61-.39-1.13-.39-.58,0-1.24,.18-1.97,.53l-.32-.81c.34-.19,.72-.33,1.13-.44,.41-.11,.82-.16,1.23-.16,.83,0,1.44,.18,1.84,.55,.4,.37,.6,.96,.6,1.77v4.75h-.78Zm-2.38-.74c.66,0,1.17-.18,1.54-.54,.38-.36,.56-.86,.56-1.51v-.63l-1.05,.04c-.84,.03-1.44,.16-1.81,.39-.37,.23-.56,.59-.56,1.08,0,.38,.12,.67,.35,.87,.23,.2,.55,.3,.97,.3Z" style="fill: #6a6a6a;"/>
    <path d="M243.72,114.6h-1.05v-9.88h1.05v9.88Z" style="fill: #6a6a6a;"/>
    <path d="M245.25,105.76c0-.24,.06-.42,.18-.53,.12-.11,.27-.17,.44-.17s.32,.06,.44,.17c.12,.11,.18,.29,.18,.53s-.06,.41-.18,.53c-.12,.12-.27,.17-.44,.17-.18,0-.33-.06-.44-.17-.12-.12-.18-.29-.18-.53Zm1.14,8.84h-1.05v-6.96h1.05v6.96Z" style="fill: #6a6a6a;"/>
    <path d="M252.73,113.67h-.06c-.49,.71-1.21,1.06-2.18,1.06-.91,0-1.62-.31-2.12-.93s-.76-1.51-.76-2.65,.25-2.04,.76-2.67,1.21-.95,2.12-.95,1.67,.34,2.17,1.03h.08l-.04-.5-.03-.49v-2.83h1.05v9.88h-.86l-.14-.93Zm-2.11,.18c.72,0,1.24-.2,1.56-.59,.32-.39,.49-1.02,.49-1.89v-.22c0-.99-.16-1.69-.49-2.11-.33-.42-.85-.63-1.57-.63-.62,0-1.09,.24-1.42,.72-.33,.48-.49,1.16-.49,2.03s.16,1.56,.49,2.01c.33,.45,.8,.68,1.43,.68Z" style="fill: #6a6a6a;"/>
    <path d="M259.62,114.6l-.21-.99h-.05c-.35,.44-.69,.73-1.04,.89-.34,.15-.78,.23-1.29,.23-.69,0-1.23-.18-1.62-.53-.39-.36-.59-.86-.59-1.52,0-1.4,1.12-2.14,3.37-2.21l1.18-.04v-.43c0-.55-.12-.95-.35-1.21-.24-.26-.61-.39-1.13-.39-.58,0-1.24,.18-1.97,.53l-.32-.81c.34-.19,.72-.33,1.13-.44,.41-.11,.82-.16,1.23-.16,.83,0,1.44,.18,1.84,.55,.4,.37,.6,.96,.6,1.77v4.75h-.78Zm-2.38-.74c.66,0,1.17-.18,1.54-.54,.38-.36,.56-.86,.56-1.51v-.63l-1.05,.04c-.84,.03-1.44,.16-1.81,.39-.37,.23-.56,.59-.56,1.08,0,.38,.12,.67,.35,.87,.23,.2,.55,.3,.97,.3Z" style="fill: #6a6a6a;"/>
    <path d="M264.73,114.73c-1.01,0-1.79-.31-2.34-.93-.55-.62-.83-1.5-.83-2.63s.28-2.06,.84-2.7c.56-.63,1.36-.95,2.4-.95,.33,0,.67,.04,1,.11,.33,.07,.6,.16,.79,.25l-.32,.9c-.23-.09-.49-.17-.76-.23-.28-.06-.52-.09-.73-.09-1.41,0-2.12,.9-2.12,2.7,0,.85,.17,1.51,.52,1.97s.86,.69,1.53,.69c.58,0,1.17-.12,1.78-.37v.93c-.46,.24-1.05,.36-1.76,.36Z" style="fill: #6a6a6a;"/>
    <path d="M267.42,105.76c0-.24,.06-.42,.18-.53,.12-.11,.27-.17,.44-.17s.32,.06,.44,.17c.12,.11,.18,.29,.18,.53s-.06,.41-.18,.53c-.12,.12-.27,.17-.44,.17s-.33-.06-.44-.17c-.12-.12-.18-.29-.18-.53Zm1.14,8.84h-1.05v-6.96h1.05v6.96Z" style="fill: #6a6a6a;"/>
    <path d="M276.18,111.12c0,1.13-.29,2.02-.86,2.66-.57,.64-1.36,.96-2.37,.96-.62,0-1.17-.15-1.66-.44s-.86-.71-1.12-1.26c-.26-.55-.39-1.19-.39-1.92,0-1.13,.28-2.02,.85-2.65,.57-.63,1.35-.95,2.36-.95s1.75,.32,2.32,.97c.57,.65,.86,1.52,.86,2.63Zm-5.3,0c0,.89,.18,1.57,.53,2.03s.88,.7,1.57,.7,1.21-.23,1.57-.69c.36-.46,.54-1.14,.54-2.03s-.18-1.56-.54-2.02c-.36-.46-.89-.69-1.58-.69s-1.21,.23-1.56,.68c-.35,.45-.53,1.13-.53,2.02Zm1.22-4.55c.2-.26,.42-.58,.66-.95,.24-.37,.42-.7,.56-.97h1.28v.13c-.19,.27-.46,.61-.83,1.02s-.69,.71-.96,.93h-.7v-.16Z" style="fill: #6a6a6a;"/>
    <path d="M282.16,114.6v-4.5c0-.57-.13-.99-.39-1.27-.26-.28-.66-.42-1.21-.42-.73,0-1.26,.2-1.6,.59-.34,.39-.51,1.04-.51,1.95v3.65h-1.05v-6.96h.86l.17,.95h.05c.22-.34,.52-.61,.91-.8,.39-.19,.82-.28,1.3-.28,.84,0,1.47,.2,1.89,.61,.42,.4,.63,1.05,.63,1.94v4.54h-1.05Z" style="fill: #6a6a6a;"/>
    <path d="M284.61,113.93c0-.28,.06-.5,.19-.64,.13-.15,.31-.22,.56-.22s.44,.07,.57,.22c.14,.15,.21,.36,.21,.64s-.07,.49-.21,.63-.33,.22-.57,.22c-.22,0-.39-.07-.54-.2-.14-.13-.21-.35-.21-.66Z" style="fill: #6a6a6a;"/>
  </g>
</svg>