<?xml version="1.0" encoding="utf-8"?>
<!-- Generator: Adobe Illustrator 26.4.1, SVG Export Plug-In . SVG Version: 6.00 Build 0)  -->
<svg version="1.1" id="Capa_1" xmlns="http://www.w3.org/2000/svg" xmlns:xlink="http://www.w3.org/1999/xlink" x="0px" y="0px"
	 viewBox="0 0 346 232" style="enable-background:new 0 0 346 232;" xml:space="preserve">
<style type="text/css">
	.st0{fill:#6A6A6A;}
	.st1{fill-rule:evenodd;clip-rule:evenodd;fill:#FF6600;}
</style>
<g>
	<path class="st0" d="M37.5,143.6H39v10.1h4.8v1.2h-6.3V143.6z"/>
	<path class="st0" d="M49.9,154.9l-0.1-1h-0.1c-0.5,0.6-1.3,1.2-2.5,1.2c-1.6,0-2.5-1.2-2.5-2.3c0-2,1.7-3,4.9-3v-0.2
		c0-0.7-0.2-1.9-1.8-1.9c-0.8,0-1.5,0.2-2.1,0.6l-0.3-1c0.7-0.4,1.6-0.7,2.7-0.7c2.5,0,3.1,1.7,3.1,3.3v3c0,0.7,0,1.4,0.1,1.9H49.9z
		 M49.7,150.8c-1.6,0-3.4,0.3-3.4,1.8c0,1,0.6,1.4,1.4,1.4c1.1,0,1.7-0.7,2-1.4c0.1-0.2,0.1-0.3,0.1-0.5V150.8z"/>
	<path class="st0" d="M57.6,146.8l1.6,4.6c0.3,0.7,0.5,1.4,0.7,2.1h0.1c0.2-0.7,0.4-1.3,0.7-2.1l1.6-4.6h1.5l-3.2,8.1h-1.4l-3.1-8.1
		H57.6z"/>
	<path class="st0" d="M69.5,154.9l-0.1-1h-0.1c-0.5,0.6-1.3,1.2-2.5,1.2c-1.6,0-2.5-1.2-2.5-2.3c0-2,1.7-3,4.9-3v-0.2
		c0-0.7-0.2-1.9-1.8-1.9c-0.8,0-1.5,0.2-2.1,0.6l-0.3-1c0.7-0.4,1.6-0.7,2.7-0.7c2.5,0,3.1,1.7,3.1,3.3v3c0,0.7,0,1.4,0.1,1.9H69.5z
		 M69.3,150.8c-1.6,0-3.4,0.3-3.4,1.8c0,1,0.6,1.4,1.4,1.4c1.1,0,1.7-0.7,2-1.4c0.1-0.2,0.1-0.3,0.1-0.5V150.8z"/>
	<path class="st0" d="M73.1,143h1.5v11.9h-1.5V143z"/>
	<path class="st0" d="M78.7,144.5c0,0.5-0.4,0.9-0.9,0.9c-0.5,0-0.9-0.4-0.9-0.9c0-0.5,0.4-0.9,0.9-0.9
		C78.3,143.6,78.7,144,78.7,144.5z M77,154.9v-8.1h1.5v8.1H77z"/>
	<path class="st0" d="M88,143v9.8c0,0.7,0,1.5,0.1,2.1h-1.3l-0.1-1.4h0c-0.5,0.9-1.4,1.6-2.8,1.6c-2,0-3.5-1.7-3.5-4.1
		c0-2.7,1.7-4.4,3.6-4.4c1.2,0,2.1,0.6,2.4,1.2h0V143H88z M86.5,150.1c0-0.2,0-0.4-0.1-0.6c-0.2-0.9-1-1.7-2.1-1.7
		c-1.5,0-2.4,1.3-2.4,3.1c0,1.6,0.8,3,2.4,3c1,0,1.9-0.7,2.2-1.8c0.1-0.2,0.1-0.4,0.1-0.6V150.1z"/>
	<path class="st0" d="M94.9,154.9l-0.1-1h-0.1c-0.5,0.6-1.3,1.2-2.5,1.2c-1.6,0-2.5-1.2-2.5-2.3c0-2,1.7-3,4.9-3v-0.2
		c0-0.7-0.2-1.9-1.8-1.9c-0.8,0-1.5,0.2-2.1,0.6l-0.3-1c0.7-0.4,1.6-0.7,2.7-0.7c2.5,0,3.1,1.7,3.1,3.3v3c0,0.7,0,1.4,0.1,1.9H94.9z
		 M94.7,150.8c-1.6,0-3.4,0.3-3.4,1.8c0,1,0.6,1.4,1.4,1.4c1.1,0,1.7-0.7,2-1.4c0.1-0.2,0.1-0.3,0.1-0.5V150.8z"/>
	<path class="st0" d="M104.3,154.6c-0.4,0.2-1.2,0.5-2.3,0.5c-2.4,0-4-1.7-4-4.1c0-2.5,1.7-4.3,4.4-4.3c0.9,0,1.6,0.2,2,0.4
		l-0.3,1.1c-0.4-0.2-0.9-0.4-1.7-0.4c-1.9,0-2.9,1.4-2.9,3.1c0,1.9,1.2,3,2.8,3c0.8,0,1.4-0.2,1.8-0.4L104.3,154.6z"/>
	<path class="st0" d="M107.7,144.5c0,0.5-0.4,0.9-0.9,0.9c-0.5,0-0.9-0.4-0.9-0.9c0-0.5,0.4-0.9,0.9-0.9
		C107.3,143.6,107.7,144,107.7,144.5z M106,154.9v-8.1h1.5v8.1H106z"/>
	<path class="st0" d="M117.3,150.8c0,3-2.1,4.3-4,4.3c-2.2,0-3.9-1.6-3.9-4.2c0-2.7,1.8-4.3,4-4.3
		C115.7,146.6,117.3,148.3,117.3,150.8z M110.8,150.9c0,1.8,1,3.1,2.5,3.1c1.4,0,2.5-1.3,2.5-3.2c0-1.4-0.7-3.1-2.4-3.1
		S110.8,149.3,110.8,150.9z M115.5,143.3l-2,2.4h-1.1l1.5-2.4H115.5z"/>
	<path class="st0" d="M119.1,149c0-0.8,0-1.5-0.1-2.2h1.3l0.1,1.3h0c0.4-0.8,1.3-1.5,2.7-1.5c1.1,0,2.9,0.7,2.9,3.5v4.8h-1.5v-4.7
		c0-1.3-0.5-2.4-1.9-2.4c-1,0-1.7,0.7-2,1.5c-0.1,0.2-0.1,0.4-0.1,0.7v4.9h-1.5V149z"/>
	<path class="st0" d="M132,143h1.5v5.1h0c0.2-0.4,0.6-0.8,1.1-1c0.4-0.3,1-0.4,1.5-0.4c1.1,0,2.8,0.7,2.8,3.5v4.8h-1.5v-4.7
		c0-1.3-0.5-2.4-1.9-2.4c-1,0-1.7,0.7-2,1.5c-0.1,0.2-0.1,0.4-0.1,0.7v4.9H132V143z"/>
	<path class="st0" d="M145.8,154.9l-0.1-1h-0.1c-0.5,0.6-1.3,1.2-2.5,1.2c-1.6,0-2.5-1.2-2.5-2.3c0-2,1.7-3,4.9-3v-0.2
		c0-0.7-0.2-1.9-1.8-1.9c-0.8,0-1.5,0.2-2.1,0.6l-0.3-1c0.7-0.4,1.6-0.7,2.7-0.7c2.5,0,3.1,1.7,3.1,3.3v3c0,0.7,0,1.4,0.1,1.9H145.8
		z M145.6,150.8c-1.6,0-3.4,0.3-3.4,1.8c0,1,0.6,1.4,1.4,1.4c1.1,0,1.7-0.7,2-1.4c0.1-0.2,0.1-0.3,0.1-0.5V150.8z"/>
	<path class="st0" d="M152.7,153.4c0.4,0.3,1.2,0.6,1.9,0.6c1.1,0,1.6-0.5,1.6-1.2c0-0.7-0.4-1.1-1.5-1.5c-1.5-0.5-2.1-1.3-2.1-2.3
		c0-1.3,1.1-2.4,2.8-2.4c0.8,0,1.5,0.2,2,0.5l-0.4,1.1c-0.3-0.2-0.9-0.5-1.7-0.5c-0.9,0-1.4,0.5-1.4,1.1c0,0.7,0.5,1,1.5,1.4
		c1.4,0.5,2.1,1.2,2.1,2.4c0,1.4-1.1,2.4-3,2.4c-0.9,0-1.7-0.2-2.3-0.6L152.7,153.4z"/>
	<path class="st0" d="M161.2,144.5c0,0.5-0.4,0.9-0.9,0.9c-0.5,0-0.9-0.4-0.9-0.9c0-0.5,0.4-0.9,0.9-0.9
		C160.9,143.6,161.2,144,161.2,144.5z M159.6,154.9v-8.1h1.5v8.1H159.6z"/>
	<path class="st0" d="M170.5,143v9.8c0,0.7,0,1.5,0.1,2.1h-1.3l-0.1-1.4h0c-0.5,0.9-1.4,1.6-2.8,1.6c-2,0-3.5-1.7-3.5-4.1
		c0-2.7,1.7-4.4,3.6-4.4c1.2,0,2.1,0.6,2.4,1.2h0V143H170.5z M169,150.1c0-0.2,0-0.4-0.1-0.6c-0.2-0.9-1-1.7-2.1-1.7
		c-1.5,0-2.4,1.3-2.4,3.1c0,1.6,0.8,3,2.4,3c1,0,1.9-0.7,2.2-1.8c0.1-0.2,0.1-0.4,0.1-0.6V150.1z"/>
	<path class="st0" d="M180.3,150.8c0,3-2.1,4.3-4,4.3c-2.2,0-3.9-1.6-3.9-4.2c0-2.7,1.8-4.3,4-4.3
		C178.7,146.6,180.3,148.3,180.3,150.8z M173.9,150.9c0,1.8,1,3.1,2.5,3.1c1.4,0,2.5-1.3,2.5-3.2c0-1.4-0.7-3.1-2.4-3.1
		S173.9,149.3,173.9,150.9z"/>
	<path class="st0" d="M186.5,151.1c0,2,1.3,2.8,2.8,2.8c1.1,0,1.7-0.2,2.2-0.4l0.3,1.1c-0.5,0.2-1.4,0.5-2.7,0.5c-2.5,0-4-1.6-4-4.1
		c0-2.4,1.4-4.4,3.8-4.4c2.6,0,3.4,2.3,3.4,3.8c0,0.3,0,0.5-0.1,0.7H186.5z M190.9,150.1c0-0.9-0.4-2.4-2-2.4
		c-1.5,0-2.1,1.4-2.3,2.4H190.9z"/>
	<path class="st0" d="M194.8,146.8l1.2,1.7c0.3,0.5,0.6,0.9,0.8,1.3h0.1c0.3-0.5,0.5-0.9,0.8-1.3l1.1-1.7h1.6l-2.8,3.9l2.9,4.2h-1.7
		l-1.2-1.8c-0.3-0.5-0.6-0.9-0.9-1.4h0c-0.3,0.5-0.6,0.9-0.9,1.4l-1.2,1.8H193l2.9-4.1l-2.8-4H194.8z"/>
	<path class="st0" d="M203.5,144.5c0,0.5-0.4,0.9-0.9,0.9c-0.5,0-0.9-0.4-0.9-0.9c0-0.5,0.4-0.9,0.9-0.9
		C203.1,143.6,203.5,144,203.5,144.5z M201.8,154.9v-8.1h1.5v8.1H201.8z"/>
	<path class="st0" d="M207.5,144.5v2.3h2.1v1.1h-2.1v4.4c0,1,0.3,1.6,1.1,1.6c0.4,0,0.7-0.1,0.9-0.1l0.1,1.1
		c-0.3,0.1-0.7,0.2-1.3,0.2c-0.7,0-1.2-0.2-1.6-0.6c-0.4-0.4-0.6-1.2-0.6-2.1v-4.4h-1.3v-1.1h1.3v-1.9L207.5,144.5z"/>
	<path class="st0" d="M218.5,150.8c0,3-2.1,4.3-4,4.3c-2.2,0-3.9-1.6-3.9-4.2c0-2.7,1.8-4.3,4-4.3
		C217,146.6,218.5,148.3,218.5,150.8z M212.1,150.9c0,1.8,1,3.1,2.5,3.1c1.4,0,2.5-1.3,2.5-3.2c0-1.4-0.7-3.1-2.4-3.1
		S212.1,149.3,212.1,150.9z"/>
	<path class="st0" d="M220.2,153.4c0.4,0.3,1.2,0.6,1.9,0.6c1.1,0,1.6-0.5,1.6-1.2c0-0.7-0.4-1.1-1.5-1.5c-1.5-0.5-2.1-1.3-2.1-2.3
		c0-1.3,1.1-2.4,2.8-2.4c0.8,0,1.5,0.2,2,0.5l-0.4,1.1c-0.3-0.2-0.9-0.5-1.7-0.5c-0.9,0-1.4,0.5-1.4,1.1c0,0.7,0.5,1,1.5,1.4
		c1.4,0.5,2.1,1.2,2.1,2.4c0,1.4-1.1,2.4-3,2.4c-0.9,0-1.7-0.2-2.3-0.6L220.2,153.4z"/>
	<path class="st0" d="M231.5,154.9l-0.1-1h-0.1c-0.5,0.6-1.3,1.2-2.5,1.2c-1.6,0-2.5-1.2-2.5-2.3c0-2,1.7-3,4.9-3v-0.2
		c0-0.7-0.2-1.9-1.8-1.9c-0.8,0-1.5,0.2-2.1,0.6l-0.3-1c0.7-0.4,1.6-0.7,2.7-0.7c2.5,0,3.1,1.7,3.1,3.3v3c0,0.7,0,1.4,0.1,1.9H231.5
		z M231.3,150.8c-1.6,0-3.4,0.3-3.4,1.8c0,1,0.6,1.4,1.4,1.4c1.1,0,1.7-0.7,2-1.4c0-0.2,0.1-0.3,0.1-0.5V150.8z"/>
	<path class="st0" d="M234.8,154.1c0-0.6,0.4-1.1,1-1.1c0.6,0,1,0.4,1,1.1c0,0.6-0.4,1.1-1,1.1C235.2,155.1,234.8,154.7,234.8,154.1
		z"/>
	<path class="st0" d="M242,153.1c0.7,0.4,1.6,0.7,2.6,0.7c1.5,0,2.4-0.8,2.4-1.9c0-1.1-0.6-1.7-2.1-2.2c-1.8-0.7-3-1.6-3-3.2
		c0-1.8,1.5-3.1,3.7-3.1c1.2,0,2,0.3,2.5,0.6l-0.4,1.2c-0.4-0.2-1.1-0.5-2.1-0.5c-1.5,0-2.1,0.9-2.1,1.7c0,1.1,0.7,1.6,2.2,2.2
		c1.9,0.7,2.9,1.7,2.9,3.3c0,1.7-1.3,3.3-4,3.3c-1.1,0-2.3-0.3-2.9-0.7L242,153.1z"/>
	<path class="st0" d="M257.2,152.7c0,0.8,0,1.6,0.1,2.2H256l-0.1-1.3h0c-0.4,0.7-1.2,1.5-2.7,1.5c-1.3,0-2.8-0.7-2.8-3.6v-4.7h1.5
		v4.5c0,1.5,0.5,2.6,1.8,2.6c1,0,1.7-0.7,1.9-1.3c0.1-0.2,0.1-0.5,0.1-0.8v-5h1.5V152.7z"/>
	<path class="st0" d="M267.7,154.9l-0.1-1h-0.1c-0.5,0.6-1.3,1.2-2.5,1.2c-1.6,0-2.5-1.2-2.5-2.3c0-2,1.7-3,4.9-3v-0.2
		c0-0.7-0.2-1.9-1.8-1.9c-0.8,0-1.5,0.2-2.1,0.6l-0.3-1c0.7-0.4,1.6-0.7,2.7-0.7c2.5,0,3.1,1.7,3.1,3.3v3c0,0.7,0,1.4,0.1,1.9H267.7
		z M267.5,150.8c-1.6,0-3.4,0.3-3.4,1.8c0,1,0.6,1.4,1.4,1.4c1.1,0,1.7-0.7,2-1.4c0-0.2,0.1-0.3,0.1-0.5V150.8z"/>
	<path class="st0" d="M277.1,154.6c-0.4,0.2-1.2,0.5-2.3,0.5c-2.4,0-4-1.7-4-4.1c0-2.5,1.7-4.3,4.4-4.3c0.9,0,1.6,0.2,2,0.4
		l-0.3,1.1c-0.4-0.2-0.9-0.4-1.7-0.4c-1.9,0-2.9,1.4-2.9,3.1c0,1.9,1.2,3,2.8,3c0.8,0,1.4-0.2,1.8-0.4L277.1,154.6z"/>
	<path class="st0" d="M284.5,154.6c-0.4,0.2-1.2,0.5-2.3,0.5c-2.4,0-4-1.7-4-4.1c0-2.5,1.7-4.3,4.4-4.3c0.9,0,1.6,0.2,2,0.4
		l-0.3,1.1c-0.4-0.2-0.9-0.4-1.7-0.4c-1.9,0-2.9,1.4-2.9,3.1c0,1.9,1.2,3,2.8,3c0.8,0,1.4-0.2,1.8-0.4L284.5,154.6z"/>
	<path class="st0" d="M286.9,151.1c0,2,1.3,2.8,2.8,2.8c1.1,0,1.7-0.2,2.2-0.4l0.3,1.1c-0.5,0.2-1.4,0.5-2.7,0.5c-2.5,0-4-1.6-4-4.1
		c0-2.4,1.4-4.4,3.8-4.4c2.6,0,3.4,2.3,3.4,3.8c0,0.3,0,0.5-0.1,0.7H286.9z M291.3,150.1c0-0.9-0.4-2.4-2-2.4
		c-1.5,0-2.1,1.4-2.3,2.4H291.3z"/>
	<path class="st0" d="M294.3,153.4c0.4,0.3,1.2,0.6,1.9,0.6c1.1,0,1.6-0.5,1.6-1.2c0-0.7-0.4-1.1-1.5-1.5c-1.5-0.5-2.1-1.3-2.1-2.3
		c0-1.3,1.1-2.4,2.8-2.4c0.8,0,1.5,0.2,2,0.5l-0.4,1.1c-0.3-0.2-0.9-0.5-1.7-0.5c-0.9,0-1.4,0.5-1.4,1.1c0,0.7,0.5,1,1.5,1.4
		c1.4,0.5,2.1,1.2,2.1,2.4c0,1.4-1.1,2.4-3,2.4c-0.9,0-1.7-0.2-2.3-0.6L294.3,153.4z"/>
	<path class="st0" d="M308.5,150.8c0,3-2.1,4.3-4,4.3c-2.2,0-3.9-1.6-3.9-4.2c0-2.7,1.8-4.3,4-4.3
		C306.9,146.6,308.5,148.3,308.5,150.8z M302,150.9c0,1.8,1,3.1,2.5,3.1c1.4,0,2.5-1.3,2.5-3.2c0-1.4-0.7-3.1-2.4-3.1
		C302.8,147.7,302,149.3,302,150.9z"/>
	<path class="st0" d="M70.4,175l-0.1-1h-0.1c-0.5,0.6-1.3,1.2-2.5,1.2c-1.6,0-2.5-1.2-2.5-2.3c0-2,1.7-3,4.9-3v-0.2
		c0-0.7-0.2-1.9-1.8-1.9c-0.8,0-1.5,0.2-2.1,0.6l-0.3-1c0.7-0.4,1.6-0.7,2.7-0.7c2.5,0,3.1,1.7,3.1,3.3v3c0,0.7,0,1.4,0.1,1.9H70.4z
		 M70.2,170.9c-1.6,0-3.4,0.3-3.4,1.8c0,1,0.6,1.4,1.4,1.4c1.1,0,1.7-0.7,2-1.4c0.1-0.2,0.1-0.3,0.1-0.5V170.9z"/>
	<path class="st0" d="M77.5,163.1H79V175h-1.5V163.1z"/>
	<path class="st0" d="M86,175l-0.1-1h-0.1c-0.5,0.6-1.3,1.2-2.5,1.2c-1.6,0-2.5-1.2-2.5-2.3c0-2,1.7-3,4.9-3v-0.2
		c0-0.7-0.2-1.9-1.8-1.9c-0.8,0-1.5,0.2-2.1,0.6l-0.3-1c0.7-0.4,1.6-0.7,2.7-0.7c2.5,0,3.1,1.7,3.1,3.3v3c0,0.7,0,1.4,0.1,1.9H86z
		 M85.7,170.9c-1.6,0-3.4,0.3-3.4,1.8c0,1,0.6,1.4,1.4,1.4c1.1,0,1.7-0.7,2-1.4c0.1-0.2,0.1-0.3,0.1-0.5V170.9z"/>
	<path class="st0" d="M93.1,169.6c0-1,0-1.9-0.1-2.6h1.3l0.1,1.4h0c0.6-1,1.6-1.6,2.9-1.6c2,0,3.4,1.7,3.4,4.1
		c0,2.9-1.8,4.4-3.7,4.4c-1.1,0-2-0.5-2.5-1.3h0v4.4h-1.5V169.6z M94.6,171.7c0,0.2,0,0.4,0.1,0.6c0.3,1,1.2,1.7,2.2,1.7
		c1.6,0,2.5-1.3,2.5-3.1c0-1.6-0.9-3-2.4-3c-1,0-1.9,0.7-2.2,1.8c-0.1,0.2-0.1,0.4-0.1,0.6V171.7z"/>
	<path class="st0" d="M102.6,163.1h1.5V175h-1.5V163.1z"/>
	<path class="st0" d="M111.1,175l-0.1-1h-0.1c-0.5,0.6-1.3,1.2-2.5,1.2c-1.6,0-2.5-1.2-2.5-2.3c0-2,1.7-3,4.9-3v-0.2
		c0-0.7-0.2-1.9-1.8-1.9c-0.8,0-1.5,0.2-2.1,0.6l-0.3-1c0.7-0.4,1.6-0.7,2.7-0.7c2.5,0,3.1,1.7,3.1,3.3v3c0,0.7,0,1.4,0.1,1.9H111.1
		z M110.9,170.9c-1.6,0-3.4,0.3-3.4,1.8c0,1,0.6,1.4,1.4,1.4c1.1,0,1.7-0.7,2-1.4c0.1-0.2,0.1-0.3,0.1-0.5V170.9z"/>
	<path class="st0" d="M116.4,164.6v2.3h2.1v1.1h-2.1v4.4c0,1,0.3,1.6,1.1,1.6c0.4,0,0.7-0.1,0.9-0.1l0.1,1.1
		c-0.3,0.1-0.7,0.2-1.3,0.2c-0.7,0-1.2-0.2-1.6-0.6c-0.4-0.4-0.6-1.2-0.6-2.1v-4.4h-1.3v-1.1h1.3V165L116.4,164.6z"/>
	<path class="st0" d="M124.7,175l-0.1-1h-0.1c-0.5,0.6-1.3,1.2-2.5,1.2c-1.6,0-2.5-1.2-2.5-2.3c0-2,1.7-3,4.9-3v-0.2
		c0-0.7-0.2-1.9-1.8-1.9c-0.8,0-1.5,0.2-2.1,0.6l-0.3-1c0.7-0.4,1.6-0.7,2.7-0.7c2.5,0,3.1,1.7,3.1,3.3v3c0,0.7,0,1.4,0.1,1.9H124.7
		z M124.4,170.9c-1.6,0-3.4,0.3-3.4,1.8c0,1,0.6,1.4,1.4,1.4c1.1,0,1.7-0.7,2-1.4c0.1-0.2,0.1-0.3,0.1-0.5V170.9z"/>
	<path class="st0" d="M128.4,175v-7h-1.1v-1.1h1.1v-0.4c0-1.1,0.3-2.2,0.9-2.8c0.6-0.5,1.3-0.8,2-0.8c0.5,0,1,0.1,1.3,0.2l-0.2,1.1
		c-0.2-0.1-0.5-0.2-0.9-0.2c-1.3,0-1.6,1.1-1.6,2.3v0.4h2v1.1h-2v7H128.4z"/>
	<path class="st0" d="M140.3,170.9c0,3-2.1,4.3-4,4.3c-2.2,0-3.9-1.6-3.9-4.2c0-2.7,1.8-4.3,4-4.3
		C138.7,166.7,140.3,168.4,140.3,170.9z M133.8,171c0,1.8,1,3.1,2.5,3.1c1.4,0,2.5-1.3,2.5-3.2c0-1.4-0.7-3.1-2.4-3.1
		S133.8,169.5,133.8,171z"/>
	<path class="st0" d="M142.1,169.5c0-1,0-1.8-0.1-2.5h1.3l0.1,1.6h0.1c0.4-1.1,1.3-1.8,2.2-1.8c0.2,0,0.3,0,0.4,0.1v1.4
		c-0.2,0-0.3-0.1-0.5-0.1c-1,0-1.8,0.8-2,1.9c0,0.2-0.1,0.4-0.1,0.7v4.3h-1.5V169.5z"/>
	<path class="st0" d="M147.7,169.1c0-0.8,0-1.5-0.1-2.2h1.3l0.1,1.3h0.1c0.5-0.8,1.2-1.5,2.5-1.5c1.1,0,1.9,0.7,2.3,1.6h0
		c0.3-0.5,0.6-0.8,0.9-1.1c0.5-0.4,1-0.6,1.8-0.6c1.1,0,2.7,0.7,2.7,3.5v4.8h-1.4v-4.6c0-1.6-0.6-2.5-1.8-2.5
		c-0.8,0-1.5,0.6-1.7,1.3c-0.1,0.2-0.1,0.5-0.1,0.7v5h-1.4v-4.9c0-1.3-0.6-2.2-1.7-2.2c-0.9,0-1.6,0.7-1.8,1.5
		c-0.1,0.2-0.1,0.5-0.1,0.7v4.9h-1.4V169.1z"/>
	<path class="st0" d="M166.2,175l-0.1-1H166c-0.5,0.6-1.3,1.2-2.5,1.2c-1.6,0-2.5-1.2-2.5-2.3c0-2,1.7-3,4.9-3v-0.2
		c0-0.7-0.2-1.9-1.8-1.9c-0.8,0-1.5,0.2-2.1,0.6l-0.3-1c0.7-0.4,1.6-0.7,2.7-0.7c2.5,0,3.1,1.7,3.1,3.3v3c0,0.7,0,1.4,0.1,1.9H166.2
		z M165.9,170.9c-1.6,0-3.4,0.3-3.4,1.8c0,1,0.6,1.4,1.4,1.4c1.1,0,1.7-0.7,2-1.4c0.1-0.2,0.1-0.3,0.1-0.5V170.9z"/>
	<path class="st0" d="M174.1,171.3c0,2,1.3,2.8,2.8,2.8c1.1,0,1.7-0.2,2.2-0.4l0.3,1.1c-0.5,0.2-1.4,0.5-2.7,0.5c-2.5,0-4-1.6-4-4.1
		c0-2.4,1.4-4.4,3.8-4.4c2.6,0,3.4,2.3,3.4,3.8c0,0.3,0,0.5,0,0.7H174.1z M178.4,170.2c0-0.9-0.4-2.4-2-2.4c-1.5,0-2.1,1.4-2.3,2.4
		H178.4z"/>
	<path class="st0" d="M181.7,169.1c0-0.8,0-1.5-0.1-2.2h1.3l0.1,1.3h0c0.4-0.8,1.3-1.5,2.7-1.5c1.1,0,2.9,0.7,2.9,3.5v4.8h-1.5v-4.7
		c0-1.3-0.5-2.4-1.9-2.4c-1,0-1.7,0.7-2,1.5c-0.1,0.2-0.1,0.4-0.1,0.7v4.9h-1.5V169.1z"/>
	<path class="st0" d="M194.6,163.1h1.5V175h-1.5V163.1z"/>
	<path class="st0" d="M201.5,163.4l-2,2.4h-1.1l1.5-2.4H201.5z M198.5,175v-8.1h1.5v8.1H198.5z"/>
	<path class="st0" d="M202.4,169.1c0-0.8,0-1.5-0.1-2.2h1.3l0.1,1.3h0c0.4-0.8,1.3-1.5,2.7-1.5c1.1,0,2.9,0.7,2.9,3.5v4.8h-1.5v-4.7
		c0-1.3-0.5-2.4-1.9-2.4c-1,0-1.7,0.7-2,1.5c-0.1,0.2-0.1,0.4-0.1,0.7v4.9h-1.5V169.1z"/>
	<path class="st0" d="M212.6,171.3c0,2,1.3,2.8,2.8,2.8c1.1,0,1.7-0.2,2.2-0.4l0.3,1.1c-0.5,0.2-1.4,0.5-2.7,0.5c-2.5,0-4-1.6-4-4.1
		c0-2.4,1.4-4.4,3.8-4.4c2.6,0,3.4,2.3,3.4,3.8c0,0.3,0,0.5-0.1,0.7H212.6z M216.9,170.2c0-0.9-0.4-2.4-2-2.4
		c-1.5,0-2.1,1.4-2.3,2.4H216.9z"/>
	<path class="st0" d="M224.6,175l-0.1-1h-0.1c-0.5,0.6-1.3,1.2-2.5,1.2c-1.6,0-2.5-1.2-2.5-2.3c0-2,1.7-3,4.9-3v-0.2
		c0-0.7-0.2-1.9-1.8-1.9c-0.8,0-1.5,0.2-2.1,0.6l-0.3-1c0.7-0.4,1.6-0.7,2.7-0.7c2.5,0,3.1,1.7,3.1,3.3v3c0,0.7,0,1.4,0.1,1.9H224.6
		z M224.4,170.9c-1.6,0-3.4,0.3-3.4,1.8c0,1,0.6,1.4,1.4,1.4c1.1,0,1.7-0.7,2-1.4c0-0.2,0.1-0.3,0.1-0.5V170.9z"/>
	<path class="st0" d="M231.8,163.1h1.5v5.1h0c0.2-0.4,0.6-0.8,1.1-1c0.4-0.3,1-0.4,1.5-0.4c1.1,0,2.8,0.7,2.8,3.5v4.8h-1.5v-4.7
		c0-1.3-0.5-2.4-1.9-2.4c-1,0-1.7,0.7-2,1.5c-0.1,0.2-0.1,0.4-0.1,0.7v4.9h-1.5V163.1z"/>
	<path class="st0" d="M245.6,175l-0.1-1h-0.1c-0.5,0.6-1.3,1.2-2.5,1.2c-1.6,0-2.5-1.2-2.5-2.3c0-2,1.7-3,4.9-3v-0.2
		c0-0.7-0.2-1.9-1.8-1.9c-0.8,0-1.5,0.2-2.1,0.6l-0.3-1c0.7-0.4,1.6-0.7,2.7-0.7c2.5,0,3.1,1.7,3.1,3.3v3c0,0.7,0,1.4,0.1,1.9H245.6
		z M245.4,170.9c-1.6,0-3.4,0.3-3.4,1.8c0,1,0.6,1.4,1.4,1.4c1.1,0,1.7-0.7,2-1.4c0-0.2,0.1-0.3,0.1-0.5V170.9z"/>
	<path class="st0" d="M252.5,173.5c0.4,0.3,1.2,0.6,1.9,0.6c1.1,0,1.6-0.5,1.6-1.2c0-0.7-0.4-1.1-1.5-1.5c-1.5-0.5-2.1-1.3-2.1-2.3
		c0-1.3,1.1-2.4,2.8-2.4c0.8,0,1.5,0.2,2,0.5l-0.4,1.1c-0.3-0.2-0.9-0.5-1.7-0.5c-0.9,0-1.4,0.5-1.4,1.1c0,0.7,0.5,1,1.5,1.4
		c1.4,0.5,2.1,1.2,2.1,2.4c0,1.4-1.1,2.4-3,2.4c-0.9,0-1.7-0.2-2.3-0.6L252.5,173.5z"/>
	<path class="st0" d="M261,164.6c0,0.5-0.4,0.9-0.9,0.9c-0.5,0-0.9-0.4-0.9-0.9c0-0.5,0.4-0.9,0.9-0.9
		C260.6,163.7,261,164.1,261,164.6z M259.3,175v-8.1h1.5v8.1H259.3z"/>
	<path class="st0" d="M270.3,163.1v9.8c0,0.7,0,1.5,0.1,2.1H269l-0.1-1.4h0c-0.5,0.9-1.4,1.6-2.8,1.6c-2,0-3.5-1.7-3.5-4.1
		c0-2.7,1.7-4.4,3.6-4.4c1.2,0,2.1,0.6,2.4,1.2h0v-4.8H270.3z M268.8,170.2c0-0.2,0-0.4-0.1-0.6c-0.2-0.9-1-1.7-2.1-1.7
		c-1.5,0-2.4,1.3-2.4,3.1c0,1.6,0.8,3,2.4,3c1,0,1.9-0.7,2.2-1.8c0.1-0.2,0.1-0.4,0.1-0.6V170.2z"/>
	<path class="st0" d="M280.1,170.9c0,3-2.1,4.3-4,4.3c-2.2,0-3.9-1.6-3.9-4.2c0-2.7,1.8-4.3,4-4.3
		C278.5,166.7,280.1,168.4,280.1,170.9z M273.6,171c0,1.8,1,3.1,2.5,3.1c1.4,0,2.5-1.3,2.5-3.2c0-1.4-0.7-3.1-2.4-3.1
		C274.4,167.9,273.6,169.5,273.6,171z"/>
	<path class="st0" d="M125.2,189.6c0-1,0-1.8-0.1-2.5h1.3l0.1,1.6h0.1c0.4-1.1,1.3-1.8,2.2-1.8c0.2,0,0.3,0,0.4,0.1v1.4
		c-0.2,0-0.3-0.1-0.5-0.1c-1,0-1.8,0.8-2,1.9c0,0.2-0.1,0.4-0.1,0.7v4.3h-1.5V189.6z"/>
	<path class="st0" d="M131.3,191.4c0,2,1.3,2.8,2.8,2.8c1.1,0,1.7-0.2,2.2-0.4l0.3,1.1c-0.5,0.2-1.4,0.5-2.7,0.5c-2.5,0-4-1.6-4-4.1
		c0-2.4,1.4-4.4,3.8-4.4c2.6,0,3.4,2.3,3.4,3.8c0,0.3,0,0.5-0.1,0.7H131.3z M135.6,190.3c0-0.9-0.4-2.4-2-2.4
		c-1.5,0-2.1,1.4-2.3,2.4H135.6z"/>
	<path class="st0" d="M139.7,191.4c0,2,1.3,2.8,2.8,2.8c1.1,0,1.7-0.2,2.2-0.4l0.3,1.1c-0.5,0.2-1.4,0.5-2.7,0.5c-2.5,0-4-1.6-4-4.1
		c0-2.4,1.4-4.4,3.8-4.4c2.6,0,3.4,2.3,3.4,3.8c0,0.3,0,0.5-0.1,0.7H139.7z M144,190.3c0-0.9-0.4-2.4-2-2.4c-1.5,0-2.1,1.4-2.3,2.4
		H144z"/>
	<path class="st0" d="M147.1,193.7c0.4,0.3,1.2,0.6,1.9,0.6c1.1,0,1.6-0.5,1.6-1.2c0-0.7-0.4-1.1-1.5-1.5c-1.5-0.5-2.1-1.3-2.1-2.3
		c0-1.3,1.1-2.4,2.8-2.4c0.8,0,1.5,0.2,2,0.5l-0.4,1.1c-0.3-0.2-0.9-0.5-1.7-0.5c-0.9,0-1.4,0.5-1.4,1.1c0,0.7,0.5,1,1.5,1.4
		c1.4,0.5,2.1,1.2,2.1,2.4c0,1.4-1.1,2.4-3,2.4c-0.9,0-1.7-0.2-2.3-0.6L147.1,193.7z"/>
	<path class="st0" d="M155.7,184.7v2.3h2.1v1.1h-2.1v4.4c0,1,0.3,1.6,1.1,1.6c0.4,0,0.7-0.1,0.9-0.1l0.1,1.1
		c-0.3,0.1-0.7,0.2-1.3,0.2c-0.7,0-1.2-0.2-1.6-0.6c-0.4-0.4-0.6-1.2-0.6-2.1v-4.4H153V187h1.3v-1.9L155.7,184.7z"/>
	<path class="st0" d="M164,195.2l-0.1-1h-0.1c-0.5,0.6-1.3,1.2-2.5,1.2c-1.6,0-2.5-1.2-2.5-2.3c0-2,1.7-3,4.9-3v-0.2
		c0-0.7-0.2-1.9-1.8-1.9c-0.8,0-1.5,0.2-2.1,0.6l-0.3-1c0.7-0.4,1.6-0.7,2.7-0.7c2.5,0,3.1,1.7,3.1,3.3v3c0,0.7,0,1.4,0.1,1.9H164z
		 M163.8,191c-1.6,0-3.4,0.3-3.4,1.8c0,1,0.6,1.4,1.4,1.4c1.1,0,1.7-0.7,2-1.4c0.1-0.2,0.1-0.3,0.1-0.5V191z"/>
	<path class="st0" d="M167.5,195.2c0-0.6,0.1-1.4,0.1-2.1v-9.8h1.5v5.1h0c0.5-0.9,1.5-1.5,2.8-1.5c2,0,3.4,1.7,3.4,4.1
		c0,2.9-1.8,4.3-3.6,4.3c-1.2,0-2.1-0.5-2.7-1.5h-0.1l-0.1,1.3H167.5z M169,191.9c0,0.2,0,0.4,0.1,0.5c0.3,1,1.1,1.7,2.2,1.7
		c1.5,0,2.5-1.3,2.5-3.1c0-1.6-0.8-3-2.4-3c-1,0-1.9,0.7-2.2,1.8c0,0.2-0.1,0.4-0.1,0.6V191.9z"/>
	<path class="st0" d="M177.1,183.3h1.5v11.9h-1.5V183.3z"/>
	<path class="st0" d="M181.9,191.4c0,2,1.3,2.8,2.8,2.8c1.1,0,1.7-0.2,2.2-0.4l0.3,1.1c-0.5,0.2-1.4,0.5-2.7,0.5c-2.5,0-4-1.6-4-4.1
		c0-2.4,1.4-4.4,3.8-4.4c2.6,0,3.4,2.3,3.4,3.8c0,0.3,0,0.5-0.1,0.7H181.9z M186.2,190.3c0-0.9-0.4-2.4-2-2.4
		c-1.5,0-2.1,1.4-2.3,2.4H186.2z"/>
	<path class="st0" d="M195.2,194.9c-0.4,0.2-1.2,0.5-2.3,0.5c-2.4,0-4-1.7-4-4.1c0-2.5,1.7-4.3,4.4-4.3c0.9,0,1.6,0.2,2,0.4
		l-0.3,1.1c-0.4-0.2-0.9-0.4-1.7-0.4c-1.9,0-2.9,1.4-2.9,3.1c0,1.9,1.2,3,2.8,3c0.8,0,1.4-0.2,1.8-0.4L195.2,194.9z"/>
	<path class="st0" d="M198.6,184.8c0,0.5-0.4,0.9-0.9,0.9c-0.5,0-0.9-0.4-0.9-0.9c0-0.5,0.4-0.9,0.9-0.9
		C198.3,183.8,198.6,184.2,198.6,184.8z M197,195.2V187h1.5v8.1H197z"/>
	<path class="st0" d="M207.9,183.3v9.8c0,0.7,0,1.5,0.1,2.1h-1.3l-0.1-1.4h0c-0.5,0.9-1.4,1.6-2.8,1.6c-2,0-3.5-1.7-3.5-4.1
		c0-2.7,1.7-4.4,3.6-4.4c1.2,0,2.1,0.6,2.4,1.2h0v-4.8H207.9z M206.4,190.4c0-0.2,0-0.4-0.1-0.6c-0.2-0.9-1-1.7-2.1-1.7
		c-1.5,0-2.4,1.3-2.4,3.1c0,1.6,0.8,3,2.4,3c1,0,1.9-0.7,2.2-1.8c0.1-0.2,0.1-0.4,0.1-0.6V190.4z"/>
	<path class="st0" d="M217.7,191c0,3-2.1,4.3-4,4.3c-2.2,0-3.9-1.6-3.9-4.2c0-2.7,1.8-4.3,4-4.3C216.1,186.9,217.7,188.6,217.7,191z
		 M211.3,191.1c0,1.8,1,3.1,2.5,3.1c1.4,0,2.5-1.3,2.5-3.2c0-1.4-0.7-3.1-2.4-3.1S211.3,189.6,211.3,191.1z"/>
	<path class="st0" d="M218.8,194.3c0-0.6,0.4-1.1,1-1.1c0.6,0,1,0.4,1,1.1c0,0.6-0.4,1.1-1,1.1C219.2,195.3,218.8,194.9,218.8,194.3
		z"/>
</g>
<g>
	<path class="st1" d="M167.6,33.2c20.6,0,37.3,16.7,37.3,37.3s-16.7,37.3-37.3,37.3s-37.3-16.7-37.3-37.3S147,33.2,167.6,33.2z
		 M167.6,36.3c18.9,0,34.2,15.3,34.2,34.2s-15.3,34.2-34.2,34.2s-34.2-15.3-34.2-34.2S148.7,36.3,167.6,36.3z M189.4,59.5l-28,29.8
		l-15.5-18.2l2.4-2l13.3,15.6l25.6-27.2C187.1,57.4,189.4,59.5,189.4,59.5z"/>
</g>
</svg>
