<?xml version="1.0" encoding="UTF-8"?>
<svg id="Capa_1" data-name="Capa 1" xmlns="http://www.w3.org/2000/svg" viewBox="0 0 140 39">
  <rect x="-.1" width="128.9" height="35.9" style="fill: #fff;"/>
  <path d="M17.9,2H1.9v31.9H17.9c8.8,0,16-7.1,16-15.9S26.8,2,17.9,2Zm5.3,10.9h0c-.1-.1-.4-.2-1-.4-.7-.2-1.9-.5-3.8-.5,.1,2,.5,3.1,.7,3.7v.1c.1,.3,.4,.9,1,1.1,0,0,.1,0,.1,.1v.1l-2.2,15c0,.1-.1,.1-.1,.1q-.1,0-.1-.1l-2.2-15v-.1s0-.1,.1-.1c.5-.2,.8-.8,1-1.1,.2-.5,.6-1.7,.7-3.7-1.9,0-3.1,.3-3.8,.5-.6,.2-.9,.4-.9,.4h0c-.8,0-1.5-.7-1.5-1.5s.7-1.5,1.5-1.5h0s.3,.2,.9,.4c.7,.2,1.9,.5,3.8,.5,0-1.9-.3-3.1-.5-3.8-.2-.6-.3-.8-.4-.9v-.1c0-.4,.2-.7,.4-1,.3-.3,.7-.4,1-.4,.2,0,.4,0,.7,.1,.4,.1,.7,.7,.7,1.2v.1s-.2,.3-.4,.9c-.2,.7-.5,1.9-.5,3.8,1.9,0,3.1-.3,3.8-.5,.6-.2,.9-.3,.9-.4h.1c.8,0,1.5,.7,1.5,1.5,0,.8-.6,1.5-1.5,1.5Z" style="fill: #fa6401;"/>
  <path d="M126.7,2H28.6c4.5,3.3,7.5,8.6,7.6,14.7,.1,7.8-4.7,14.5-11.5,17.3H126.7V2Z" style="fill: #fa6401;"/>
  <g>
    <path d="M58.4,26.4c-.6,.2-1.3,.5-2,.7-.6,.2-1.3,.3-2.1,.5-.8,.1-1.6,.2-2.3,.2-1.3,0-2.5-.2-3.6-.7s-2.1-1.1-2.9-2-1.5-1.9-2-3.1-.7-2.6-.7-4.1,.3-2.9,.8-4.1c.5-1.2,1.2-2.3,2.1-3.1,.9-.9,1.9-1.5,3.1-2,1.3-.5,2.6-.7,3.9-.7,.8,0,1.5,0,2.1,.1s1.2,.2,1.6,.3c.5,.1,1,.2,1.4,.4l-.9,2.6c-.3-.1-.7-.1-1-.2-.3-.1-.7-.1-1.1-.2s-.9,0-1.4,0c-1,0-1.9,.2-2.7,.5s-1.6,.8-2.2,1.4c-.6,.6-1.1,1.3-1.4,2.2-.3,.9-.5,1.8-.5,2.9,0,1,.2,1.9,.5,2.7,.3,.8,.7,1.5,1.3,2.1,.5,.6,1.2,1.1,1.9,1.4s1.6,.5,2.4,.5h1c.3,0,.5,0,.7-.1,.2,0,.5-.1,.7-.1v-4.5h-3.4v-2.9h6.8l-.1,9.3h0Z" style="fill: #fff;"/>
    <path d="M69,27.5l-.3-1.6h-.1c-.1,.1-.3,.3-.5,.5s-.5,.4-.8,.6-.7,.4-1.1,.6-.9,.2-1.4,.2-.9-.1-1.4-.3c-.5-.2-.9-.5-1.3-.8-.4-.4-.7-.8-.9-1.3s-.3-1.1-.3-1.8c0-1,.3-1.8,.8-2.4s1.2-1.1,2-1.4,1.7-.5,2.6-.6,1.8-.1,2.5-.1v-.3c0-.9-.2-1.6-.5-2-.3-.5-1-.7-1.8-.7-.5,0-.9,0-1.3,.2-.4,.1-.8,.2-1.2,.3-.4,.1-.8,.3-1.2,.5l-.8-2c.5-.3,1.1-.5,1.7-.7,.5-.2,1-.3,1.7-.5,.6-.2,1.2-.2,1.9-.2,1.6,0,2.8,.4,3.6,1.3,.8,.9,1.2,2.1,1.2,3.6v9l-3.1-.1h0Zm-.2-6.4c-.5,0-1,0-1.5,.1-.6,.1-1.1,.2-1.6,.3-.5,.2-.9,.4-1.2,.7-.4,.3-.5,.8-.5,1.3,0,.6,.2,1,.6,1.3s.8,.5,1.2,.5,.8-.1,1.1-.2,.7-.3,1-.5,.6-.5,.9-.7v-2.8h0Z" style="fill: #fff;"/>
    <path d="M75.3,27.5V6.7h3.4V27.4l-3.4,.1h0Z" style="fill: #fff;"/>
    <path d="M85.9,9c0,.5-.2,1-.5,1.4-.4,.4-.8,.6-1.4,.6-.5,0-1-.2-1.4-.6s-.5-.8-.5-1.4c0-.5,.2-1,.5-1.4,.4-.3,.9-.5,1.4-.5s1,.2,1.4,.6c.3,.3,.5,.8,.5,1.3Zm-3.6,18.5V13.9h3.4v13.6h-3.4Z" style="fill: #fff;"/>
    <path d="M99.5,26.1c-.5,.3-1,.6-1.6,.8-.5,.2-1,.4-1.7,.6-.6,.2-1.3,.3-2,.3-.8,0-1.5-.2-2.2-.5s-1.3-.8-1.8-1.3c-.5-.6-.9-1.3-1.2-2.1-.3-.8-.5-1.7-.5-2.7s.2-2,.5-2.9,.8-1.7,1.4-2.4c.6-.7,1.3-1.3,2.2-1.7,.9-.4,1.8-.6,2.8-.6,.5,0,.9,0,1.4,.1,.4,.1,.8,.2,1.2,.3,.4,.1,.8,.2,1.2,.4l-.9,2.3-.6-.1c-.2,0-.4-.1-.6-.1s-.5-.1-.8-.1c-.6,0-1.2,.1-1.7,.3-.5,.2-1,.6-1.4,1s-.7,.9-.9,1.5c-.2,.5-.3,1.1-.3,1.8,0,1.2,.3,2.2,1,2.9,.7,.7,1.5,1.1,2.6,1.1,.4,0,.7,0,1.1-.1s.7-.1,1-.2,.6-.2,.9-.3l.9,1.7Z" style="fill: #fff;"/>
    <path d="M105.3,9c0,.5-.2,1-.5,1.4-.4,.4-.8,.6-1.4,.6-.5,0-1-.2-1.4-.6s-.5-.8-.5-1.4c0-.5,.2-1,.5-1.4,.4-.4,.8-.6,1.4-.6,.5,0,1,.2,1.4,.6,.3,.4,.5,.9,.5,1.4Zm-3.6,18.5V13.9h3.4v13.6h-3.4Z" style="fill: #fff;"/>
    <path d="M115.9,27.5l-.3-1.6h-.1c-.1,.1-.3,.3-.5,.5s-.5,.4-.8,.6-.7,.4-1.1,.6-.9,.2-1.4,.2-.9-.1-1.4-.3c-.5-.2-.9-.5-1.3-.8-.4-.4-.7-.8-.9-1.3-.2-.5-.3-1.1-.3-1.8,0-1,.3-1.8,.8-2.4s1.2-1.1,2-1.4,1.7-.5,2.6-.6,1.8-.1,2.5-.1v-.3c0-.9-.2-1.6-.5-2-.3-.5-1-.7-1.8-.7-.5,0-.9,0-1.3,.2l-1.2,.3c-.4,.1-.8,.3-1.2,.5l-.8-2c.5-.3,1.1-.5,1.7-.7,.5-.2,1-.3,1.7-.5,.6-.2,1.2-.2,1.9-.2,1.6,0,2.8,.4,3.6,1.3,.8,.9,1.2,2.1,1.2,3.6v9l-3.1-.1h0Zm-.3-6.4c-.5,0-1,0-1.5,.1-.6,.1-1.1,.2-1.6,.3-.5,.2-.9,.4-1.2,.7-.3,.3-.5,.7-.5,1.2,0,.6,.2,1,.6,1.3s.8,.5,1.2,.5,.8-.1,1.1-.2c.4-.2,.7-.3,1-.5s.6-.5,.9-.7v-2.7h0Z" style="fill: #fff;"/>
  </g>
</svg>