<?xml version="1.0" encoding="UTF-8"?>
<svg id="Capa_1" data-name="Capa 1" xmlns="http://www.w3.org/2000/svg" viewBox="0 0 138 30">
  <path d="M13.44,15c.03,1.35-.24,2.69-.81,3.92-.5,1.04-1.28,1.92-2.25,2.54-.98,.61-2.11,.92-3.26,.9-1.15,.02-2.28-.29-3.26-.9-.97-.62-1.75-1.5-2.24-2.54-.58-1.22-.86-2.57-.82-3.92-.04-1.35,.24-2.7,.82-3.92,.48-1.06,1.26-1.95,2.24-2.57,.98-.61,2.11-.92,3.26-.9,1.15-.02,2.28,.29,3.26,.9,.97,.62,1.75,1.5,2.25,2.54,.57,1.24,.85,2.59,.81,3.95Zm-1.67,0c.03-1.08-.18-2.15-.62-3.14-.36-.8-.94-1.48-1.67-1.97-.71-.44-1.53-.67-2.36-.66-.83-.01-1.65,.22-2.35,.66-.73,.47-1.31,1.15-1.67,1.94-.45,.99-.66,2.08-.62,3.17-.04,1.08,.18,2.15,.62,3.14,.36,.79,.94,1.47,1.67,1.94,.7,.44,1.52,.66,2.35,.65,.83,.01,1.65-.21,2.36-.65,.73-.48,1.31-1.15,1.67-1.94,.44-.99,.65-2.06,.62-3.14Z" style="fill: #7a7a7a;"/>
  <path d="M17.78,15.67v6.46h-1.65V11.39h1.59v1.68h.14c.25-.54,.64-1,1.14-1.32,.6-.36,1.3-.53,2-.5,.66-.01,1.32,.14,1.91,.44,.55,.3,.99,.76,1.27,1.31,.33,.71,.48,1.49,.45,2.27v6.82h-1.63v-6.67c.05-.73-.18-1.44-.65-2-.47-.49-1.13-.74-1.81-.71-.49,0-.98,.11-1.41,.34-.42,.23-.77,.58-1,1-.25,.5-.37,1.06-.35,1.62Z" style="fill: #7a7a7a;"/>
  <path d="M29.31,7.81v14.32h-1.65V7.81h1.65Z" style="fill: #7a7a7a;"/>
  <path d="M33.17,9.6c-.31,0-.61-.11-.83-.33-.44-.4-.47-1.08-.07-1.51,.02-.02,.04-.05,.07-.07,.46-.44,1.19-.44,1.65,0,.44,.4,.47,1.08,.07,1.51-.02,.02-.04,.05-.07,.07-.22,.22-.51,.33-.82,.33Zm-.84,12.53V11.39h1.67v10.74h-1.67Z" style="fill: #7a7a7a;"/>
  <path d="M38.65,15.67v6.46h-1.65V11.39h1.59v1.68h.14c.25-.54,.65-1,1.15-1.32,.6-.36,1.3-.53,2-.5,.66-.01,1.31,.14,1.9,.44,.55,.3,.99,.76,1.27,1.31,.33,.71,.48,1.49,.45,2.27v6.82h-1.65v-6.67c.05-.73-.19-1.45-.66-2-.47-.49-1.13-.75-1.8-.71-.49,0-.98,.11-1.41,.34-.42,.23-.77,.58-1,1-.24,.5-.35,1.06-.33,1.62Z" style="fill: #7a7a7a;"/>
  <path d="M53,22.35c-.94,.02-1.87-.21-2.68-.68-.75-.47-1.35-1.14-1.73-1.93-.42-.91-.62-1.9-.6-2.9-.02-1,.18-2,.6-2.91,.37-.81,.96-1.51,1.7-2,.76-.48,1.64-.73,2.54-.71,.57,0,1.13,.09,1.66,.28,.55,.2,1.06,.5,1.49,.9,.47,.47,.84,1.03,1.07,1.66,.28,.81,.41,1.67,.39,2.53v.7h-8.25v-1.4h6.61c0-.56-.11-1.12-.36-1.62-.22-.46-.57-.85-1-1.13-.47-.28-1.01-.42-1.56-.41-.6-.02-1.2,.15-1.7,.49-.47,.31-.86,.75-1.11,1.26-.25,.52-.38,1.08-.38,1.66v1c-.02,.71,.12,1.41,.42,2.06,.26,.53,.67,.97,1.18,1.27,.54,.3,1.14,.46,1.76,.44,.4,0,.8-.06,1.18-.18,.71-.24,1.26-.79,1.5-1.5l1.6,.45c-.16,.54-.46,1.02-.85,1.42-.42,.4-.93,.71-1.48,.9-.64,.24-1.32,.36-2,.35Z" style="fill: #7a7a7a;"/>
  <path d="M65.75,22.13V7.81h5c.85-.03,1.7,.14,2.47,.51,.61,.31,1.12,.79,1.46,1.38,.32,.58,.49,1.24,.48,1.91,.02,.53-.09,1.06-.33,1.53-.2,.38-.49,.71-.85,.95-.36,.23-.74,.4-1.15,.52v.14c.48,.04,.93,.19,1.33,.46,.46,.3,.84,.72,1.11,1.2,.31,.59,.47,1.25,.44,1.92,.01,.68-.16,1.34-.49,1.93-.36,.61-.9,1.09-1.54,1.37-.87,.36-1.81,.53-2.75,.5h-5.18Zm1.74-8h3.22c.49,0,.97-.1,1.41-.31,.4-.19,.75-.49,1-.86,.25-.39,.38-.85,.37-1.32,.01-.6-.22-1.18-.65-1.6-.58-.49-1.33-.73-2.09-.66h-3.26v4.75Zm0,6.49h3.44c.86,.08,1.72-.15,2.42-.66,.46-.4,.72-.99,.71-1.6,0-.48-.12-.95-.37-1.36-.24-.42-.58-.76-1-1-.52-.28-1.1-.41-1.69-.39h-3.51v5.01Z" style="fill: #7a7a7a;"/>
  <path d="M81.5,22.38c-.64,.01-1.27-.12-1.85-.38-1.15-.5-1.87-1.66-1.81-2.91-.02-.52,.1-1.04,.36-1.5,.25-.38,.59-.69,1-.9,.42-.23,.87-.4,1.34-.5,.49-.11,1-.19,1.49-.26l1.59-.19c.31-.02,.61-.1,.89-.23,.2-.12,.31-.33,.29-.56h0c.04-.59-.17-1.17-.57-1.61-.46-.42-1.08-.63-1.7-.58-.66-.03-1.31,.15-1.85,.52-.42,.28-.76,.66-1,1.11l-1.56-.56c.23-.6,.62-1.13,1.12-1.53,.45-.36,.98-.62,1.54-.77,.54-.15,1.09-.22,1.65-.22,.4,0,.8,.05,1.19,.12,.46,.09,.91,.26,1.31,.5,.44,.26,.81,.63,1.07,1.07,.3,.62,.45,1.31,.42,2v7.08h-1.64v-1.4h-.09c-.14,.28-.33,.53-.56,.74-.28,.29-.62,.52-1,.68-.52,.21-1.07,.3-1.63,.28Zm.26-1.48c.57,.02,1.14-.11,1.65-.38,.42-.24,.76-.58,1-1,.23-.39,.35-.83,.35-1.28v-1.51c-.13,.12-.29,.19-.46,.23-.27,.07-.54,.13-.81,.17l-.89,.13-.7,.09c-.41,.05-.81,.14-1.2,.27-.34,.1-.65,.29-.89,.55-.24,.28-.36,.63-.34,1-.03,.51,.21,1,.64,1.29,.49,.31,1.07,.47,1.65,.44Z" style="fill: #7a7a7a;"/>
  <path d="M91.1,15.67v6.46h-1.65V11.39h1.55v1.68h.14c.25-.54,.65-1,1.15-1.32,.6-.36,1.3-.53,2-.5,.66-.01,1.32,.14,1.91,.44,.56,.29,1.01,.75,1.3,1.31,.35,.72,.52,1.51,.5,2.31v6.82h-1.7v-6.71c.05-.73-.18-1.44-.65-2-.47-.49-1.13-.74-1.81-.71-.49,0-.98,.11-1.41,.34-.42,.23-.77,.58-1,1-.25,.5-.36,1.06-.33,1.62Z" style="fill: #7a7a7a;"/>
  <path d="M101,22.13V7.81h1.65v14.32h-1.65Zm1.54-3.92v-2h.33l4.7-4.78h2l-5,5.06h-.13l-1.9,1.72Zm5.29,3.92l-4.2-5.31,1.18-1.15,5.12,6.46h-2.1Z" style="fill: #7a7a7a;"/>
  <path d="M112.53,9.6c-.31,0-.61-.11-.83-.33-.44-.4-.47-1.08-.07-1.51,.02-.02,.04-.05,.07-.07,.47-.44,1.19-.44,1.66,0,.44,.41,.45,1.1,.04,1.54-.01,.01-.03,.03-.04,.04-.22,.22-.52,.34-.83,.33Zm-.84,12.53V11.39h1.65v10.74h-1.65Z" style="fill: #7a7a7a;"/>
  <path d="M118,15.67v6.46h-1.65V11.39h1.65v1.68h.14c.25-.54,.65-1,1.15-1.32,.6-.36,1.3-.53,2-.5,.66-.01,1.32,.14,1.91,.44,.52,.31,.94,.76,1.21,1.31,.33,.71,.48,1.49,.45,2.27v6.82h-1.65v-6.67c.05-.73-.18-1.44-.65-2-.47-.49-1.13-.74-1.81-.71-.49,0-.98,.11-1.41,.34-.42,.23-.77,.58-1,1-.25,.5-.37,1.06-.34,1.62Z" style="fill: #7a7a7a;"/>
  <path d="M132.22,26.38c-.7,.01-1.39-.09-2.06-.3-.97-.32-1.8-.98-2.33-1.85l1.31-.92c.15,.19,.34,.42,.57,.67,.27,.28,.59,.51,.94,.67,.5,.2,1.03,.3,1.57,.28,.77,.03,1.52-.19,2.15-.63,.6-.49,.91-1.24,.84-2v-2.16h-.14c-.16,.25-.33,.5-.51,.73-.26,.32-.58,.58-.95,.76-.52,.24-1.09,.36-1.67,.33-.82,.01-1.62-.2-2.33-.61-.7-.43-1.25-1.05-1.61-1.79-.42-.89-.63-1.87-.6-2.86-.03-.99,.17-1.97,.58-2.87,.35-.78,.91-1.44,1.62-1.91,.71-.46,1.54-.69,2.39-.67,.58-.03,1.15,.09,1.67,.35,.39,.19,.73,.45,1,.78,.22,.29,.39,.53,.51,.72h.17v-1.71h1.59v11.05c.04,.8-.18,1.59-.62,2.25-.44,.61-1.05,1.06-1.75,1.31-.75,.27-1.54,.4-2.34,.38Zm-.05-5.9c.59,.02,1.17-.14,1.67-.45,.46-.33,.81-.78,1-1.31,.25-.64,.37-1.32,.36-2,0-.68-.11-1.36-.35-2-.19-.55-.54-1.03-1-1.39-.49-.35-1.09-.53-1.69-.51-.63-.02-1.24,.16-1.75,.53-.46,.38-.8,.87-1,1.43-.24,.64-.36,1.32-.35,2-.01,.68,.1,1.36,.35,2,.22,.49,.58,.91,1.02,1.22,.52,.34,1.12,.51,1.74,.48Z" style="fill: #7a7a7a;"/>
</svg>